<svg width="38" height="38" viewBox="0 0 38 38" fill="none" xmlns="http://www.w3.org/2000/svg">
<path d="M5.62872 5.53499C8.7052 2.43843 12.7656 0.512265 17.1101 0.0885689C21.4545 -0.335127 25.8106 0.770199 29.4274 3.21399C33.0442 5.65777 35.695 9.28688 36.9229 13.4756C38.1508 17.6644 37.8788 22.1503 36.1537 26.16C35.9739 26.5327 35.9149 26.9522 35.985 27.36L37.635 35.2912C37.6985 35.5953 37.6856 35.9104 37.5972 36.2083C37.5088 36.5061 37.3478 36.7773 37.1287 36.9975C36.9491 37.1758 36.7352 37.3159 36.5 37.4094C36.2647 37.5028 36.013 37.5477 35.76 37.5412H35.385L27.36 35.9287C26.9521 35.8797 26.5385 35.9379 26.16 36.0975C22.1503 37.8225 17.6644 38.0946 13.4756 36.8667C9.28686 35.6388 5.65776 32.9879 3.21397 29.3711C0.77018 25.7543 -0.335148 21.3982 0.0885468 17.0538C0.512241 12.7094 2.43841 8.64896 5.53497 5.57249L5.62872 5.53499ZM26.385 20.6662C26.7558 20.6662 27.1183 20.5563 27.4267 20.3502C27.735 20.1442 27.9753 19.8514 28.1172 19.5088C28.2592 19.1662 28.2963 18.7892 28.2239 18.4254C28.1516 18.0617 27.973 17.7276 27.7108 17.4654C27.4486 17.2032 27.1145 17.0246 26.7508 16.9523C26.3871 16.8799 26.0101 16.9171 25.6674 17.059C25.3248 17.2009 25.032 17.4412 24.826 17.7495C24.6199 18.0579 24.51 18.4204 24.51 18.7912C24.51 19.2885 24.7075 19.7654 25.0591 20.1171C25.4108 20.4687 25.8877 20.6662 26.385 20.6662ZM18.885 20.6662C19.2558 20.6662 19.6183 20.5563 19.9267 20.3502C20.235 20.1442 20.4753 19.8514 20.6172 19.5088C20.7592 19.1662 20.7963 18.7892 20.7239 18.4254C20.6516 18.0617 20.473 17.7276 20.2108 17.4654C19.9486 17.2032 19.6145 17.0246 19.2508 16.9523C18.8871 16.8799 18.51 16.9171 18.1674 17.059C17.8248 17.2009 17.532 17.4412 17.326 17.7495C17.1199 18.0579 17.01 18.4204 17.01 18.7912C17.01 19.2885 17.2075 19.7654 17.5591 20.1171C17.9108 20.4687 18.3877 20.6662 18.885 20.6662ZM11.385 20.6662C11.7558 20.6662 12.1183 20.5563 12.4267 20.3502C12.735 20.1442 12.9753 19.8514 13.1172 19.5088C13.2592 19.1662 13.2963 18.7892 13.2239 18.4254C13.1516 18.0617 12.973 17.7276 12.7108 17.4654C12.4486 17.2032 12.1145 17.0246 11.7508 16.9523C11.3871 16.8799 11.0101 16.9171 10.6674 17.059C10.3248 17.2009 10.032 17.4412 9.82596 17.7495C9.61994 18.0579 9.50997 18.4204 9.50997 18.7912C9.50997 19.2885 9.70751 19.7654 10.0591 20.1171C10.4108 20.4687 10.8877 20.6662 11.385 20.6662Z" fill="#8A68FF"/>
</svg>
