<svg width="698" height="344" viewBox="0 0 698 344" fill="none" xmlns="http://www.w3.org/2000/svg">
<mask id="path-1-outside-1_221_45" maskUnits="userSpaceOnUse" x="0" y="0" width="358" height="344" fill="black">
<rect fill="white" width="358" height="344"/>
<path d="M262.243 11.4227C263.052 11.4227 263.861 11.4227 264.669 11.5277C268.444 11.8295 272.121 12.8709 275.492 14.5926C278.863 16.3143 281.861 18.6824 284.315 21.5616C286.769 24.4408 288.63 27.7746 289.793 31.3726C290.956 34.9705 291.397 38.762 291.092 42.5303L288.035 78.8225L317.846 78.984C325.474 79.0033 332.781 82.0474 338.161 87.4465C343.541 92.8457 346.552 100.158 346.533 107.774C346.514 115.39 343.465 122.687 338.058 128.059C332.651 133.431 325.328 136.438 317.7 136.418C317.65 136.427 317.598 136.427 317.547 136.418L283.214 136.233L277.707 201.856L306.984 202.017C310.761 202.028 314.499 202.781 317.984 204.234C321.469 205.687 324.634 207.811 327.297 210.486C329.96 213.16 332.069 216.331 333.505 219.82C334.94 223.308 335.674 227.044 335.663 230.815C335.653 234.587 334.898 238.319 333.443 241.799C331.988 245.279 329.861 248.439 327.182 251.098C324.504 253.757 321.328 255.863 317.835 257.297C314.341 258.73 310.599 259.462 306.822 259.452H306.677L272.887 259.274L268.948 306.242C268.322 313.432 265.018 320.126 259.688 325.001C254.358 329.875 247.391 332.576 240.164 332.569C239.355 332.569 238.546 332.569 237.737 332.472C233.963 332.171 230.286 331.129 226.915 329.407C223.544 327.686 220.546 325.318 218.092 322.438C215.638 319.559 213.776 316.225 212.614 312.627C211.451 309.029 211.009 305.238 211.315 301.47L214.881 258.975L201.06 258.911L125.148 258.507L121.105 306.25C120.479 313.442 117.173 320.137 111.842 325.011C106.511 329.886 99.5414 332.586 92.3124 332.577C91.5036 332.577 90.6948 332.577 89.8861 332.48C86.1115 332.18 82.4333 331.139 79.0619 329.418C75.6905 327.696 72.6921 325.328 70.238 322.449C67.784 319.569 65.9225 316.235 64.7601 312.637C63.5977 309.038 63.1571 305.246 63.4635 301.478L67.0868 258.208L50.6283 258.103L40.1952 258.047C36.4184 258.036 32.6807 257.283 29.1954 255.83C25.7102 254.377 22.5457 252.253 19.8826 249.578C17.2195 246.904 15.11 243.733 13.6745 240.244C12.239 236.756 11.5056 233.02 11.5162 229.249C11.5268 225.477 12.2812 221.745 13.7364 218.265C15.1915 214.785 17.3189 211.625 19.997 208.966C22.6751 206.307 25.8515 204.201 29.3449 202.767C32.8383 201.334 36.5802 200.602 40.357 200.612H40.5025L71.9394 200.774L77.4472 135.151L51.0651 135.021C47.2883 135.012 43.5504 134.26 40.0647 132.808C36.5791 131.356 33.4139 129.232 30.7501 126.559C28.0863 123.885 25.9758 120.714 24.5394 117.227C23.1029 113.739 22.3684 110.003 22.378 106.231C22.3876 102.46 23.1409 98.7279 24.5951 95.2474C26.0492 91.7669 28.1757 88.6065 30.853 85.9466C33.5304 83.2867 36.7062 81.1794 40.1992 79.7451C43.6922 78.3107 47.4339 77.5774 51.2107 77.5869H51.3643L82.2674 77.7404L85.6157 37.7818C86.2418 30.5849 89.55 23.8848 94.8861 19.0067C100.222 14.1286 107.198 11.4279 114.432 11.4389C115.241 11.4389 116.05 11.4389 116.859 11.5438C120.633 11.8445 124.311 12.8854 127.682 14.6068C131.053 16.3283 134.05 18.6965 136.504 21.5761C138.957 24.4556 140.818 27.79 141.98 31.3883C143.141 34.9866 143.581 38.7783 143.273 42.5465L140.297 78.0795L230.014 78.556L233.435 37.8141C234.061 30.6173 237.369 23.9171 242.705 19.039C248.041 14.161 255.016 11.4603 262.251 11.4712M262.251 9.04845C254.427 9.02728 246.877 11.9213 241.078 17.1645C235.253 22.4413 231.651 29.7293 231 37.5557L227.765 76.0606L142.933 75.5922L145.691 42.7161C146.035 38.6537 145.569 34.5636 144.319 30.6824C143.07 26.8011 141.062 23.2057 138.412 20.1041C135.752 16.9504 132.491 14.355 128.819 12.4684C125.147 10.5817 121.137 9.44125 117.02 9.11305C116.147 9.04037 115.273 9 114.408 9C106.582 8.99832 99.0377 11.9126 93.2505 17.1726C87.4206 22.4466 83.8155 29.7356 83.1652 37.5638L80.0029 75.2854L51.3482 75.1481H51.1783C47.0408 75.0717 42.9294 75.8181 39.0837 77.3438C35.2379 78.8695 31.7346 81.1441 28.7777 84.0349C25.8209 86.9258 23.4697 90.3752 21.861 94.1822C20.2523 97.9893 19.4183 102.078 19.4076 106.21C19.3968 110.342 20.2096 114.435 21.7985 118.25C23.3874 122.066 25.7207 125.527 28.6624 128.433C31.6042 131.339 35.0957 133.632 38.9335 135.178C42.7713 136.723 46.8787 137.491 51.0166 137.436L74.7701 137.557L69.7072 198.343L40.5106 198.198H40.357C32.0966 198.197 24.1697 201.451 18.2985 207.253C12.4273 213.055 9.08617 220.936 9.00094 229.184C8.96887 233.28 9.75485 237.342 11.3129 241.132C12.871 244.921 15.1699 248.363 18.0753 251.255C20.9696 254.173 24.4132 256.491 28.208 258.075C32.0029 259.659 36.074 260.478 40.1871 260.485L50.6122 260.542L64.4745 260.623L61.0696 301.268C60.7365 305.354 61.2135 309.467 62.4734 313.369C63.7332 317.272 65.7511 320.888 68.4117 324.011C71.0722 327.134 74.3233 329.703 77.9789 331.571C81.6345 333.438 85.623 334.568 89.7162 334.895C90.614 334.968 91.4712 335 92.3528 335C100.191 335.011 107.747 332.083 113.527 326.797C119.307 321.51 122.888 314.25 123.563 306.452L127.389 260.946L201.043 261.333L212.221 261.398L208.872 301.268C208.539 305.354 209.016 309.467 210.276 313.369C211.536 317.272 213.554 320.888 216.214 324.011C218.875 327.134 222.126 329.703 225.782 331.571C229.437 333.438 233.426 334.568 237.519 334.895C238.417 334.968 239.298 335 240.164 335C248.001 335.007 255.555 332.078 261.334 326.792C267.113 321.507 270.696 314.248 271.374 306.452L275.119 261.721L306.661 261.883H306.814C315.075 261.887 323.003 258.635 328.875 252.834C334.747 247.033 338.087 239.152 338.17 230.904C338.183 226.804 337.387 222.741 335.827 218.948C334.266 215.156 331.973 211.707 329.078 208.799C326.182 205.892 322.742 203.582 318.952 202.003C315.163 200.424 311.099 199.605 306.992 199.595L280.303 199.441L285.398 138.68L317.296 138.849C317.415 138.856 317.533 138.856 317.652 138.849C325.912 138.852 333.839 135.598 339.71 129.795C345.58 123.993 348.919 116.11 349 107.863C349.012 103.762 348.214 99.6988 346.652 95.9058C345.091 92.1129 342.796 88.6644 339.899 85.7575C337.002 82.8506 333.559 80.5422 329.769 78.9643C325.978 77.3863 321.913 76.5698 317.806 76.5613L290.631 76.4079L293.454 42.7483C293.81 38.6702 293.35 34.562 292.101 30.6631C290.851 26.7643 288.837 23.1529 286.175 20.0395C283.514 16.9062 280.259 14.3287 276.598 12.455C272.936 10.5813 268.94 9.4483 264.839 9.12113C263.974 9.04845 263.092 9.00806 262.227 9.00806L262.251 9.04845Z"/>
</mask>
<path d="M262.243 11.4227C263.052 11.4227 263.861 11.4227 264.669 11.5277C268.444 11.8295 272.121 12.8709 275.492 14.5926C278.863 16.3143 281.861 18.6824 284.315 21.5616C286.769 24.4408 288.63 27.7746 289.793 31.3726C290.956 34.9705 291.397 38.762 291.092 42.5303L288.035 78.8225L317.846 78.984C325.474 79.0033 332.781 82.0474 338.161 87.4465C343.541 92.8457 346.552 100.158 346.533 107.774C346.514 115.39 343.465 122.687 338.058 128.059C332.651 133.431 325.328 136.438 317.7 136.418C317.65 136.427 317.598 136.427 317.547 136.418L283.214 136.233L277.707 201.856L306.984 202.017C310.761 202.028 314.499 202.781 317.984 204.234C321.469 205.687 324.634 207.811 327.297 210.486C329.96 213.16 332.069 216.331 333.505 219.82C334.94 223.308 335.674 227.044 335.663 230.815C335.653 234.587 334.898 238.319 333.443 241.799C331.988 245.279 329.861 248.439 327.182 251.098C324.504 253.757 321.328 255.863 317.835 257.297C314.341 258.73 310.599 259.462 306.822 259.452H306.677L272.887 259.274L268.948 306.242C268.322 313.432 265.018 320.126 259.688 325.001C254.358 329.875 247.391 332.576 240.164 332.569C239.355 332.569 238.546 332.569 237.737 332.472C233.963 332.171 230.286 331.129 226.915 329.407C223.544 327.686 220.546 325.318 218.092 322.438C215.638 319.559 213.776 316.225 212.614 312.627C211.451 309.029 211.009 305.238 211.315 301.47L214.881 258.975L201.06 258.911L125.148 258.507L121.105 306.25C120.479 313.442 117.173 320.137 111.842 325.011C106.511 329.886 99.5414 332.586 92.3124 332.577C91.5036 332.577 90.6948 332.577 89.8861 332.48C86.1115 332.18 82.4333 331.139 79.0619 329.418C75.6905 327.696 72.6921 325.328 70.238 322.449C67.784 319.569 65.9225 316.235 64.7601 312.637C63.5977 309.038 63.1571 305.246 63.4635 301.478L67.0868 258.208L50.6283 258.103L40.1952 258.047C36.4184 258.036 32.6807 257.283 29.1954 255.83C25.7102 254.377 22.5457 252.253 19.8826 249.578C17.2195 246.904 15.11 243.733 13.6745 240.244C12.239 236.756 11.5056 233.02 11.5162 229.249C11.5268 225.477 12.2812 221.745 13.7364 218.265C15.1915 214.785 17.3189 211.625 19.997 208.966C22.6751 206.307 25.8515 204.201 29.3449 202.767C32.8383 201.334 36.5802 200.602 40.357 200.612H40.5025L71.9394 200.774L77.4472 135.151L51.0651 135.021C47.2883 135.012 43.5504 134.26 40.0647 132.808C36.5791 131.356 33.4139 129.232 30.7501 126.559C28.0863 123.885 25.9758 120.714 24.5394 117.227C23.1029 113.739 22.3684 110.003 22.378 106.231C22.3876 102.46 23.1409 98.7279 24.5951 95.2474C26.0492 91.7669 28.1757 88.6065 30.853 85.9466C33.5304 83.2867 36.7062 81.1794 40.1992 79.7451C43.6922 78.3107 47.4339 77.5774 51.2107 77.5869H51.3643L82.2674 77.7404L85.6157 37.7818C86.2418 30.5849 89.55 23.8848 94.8861 19.0067C100.222 14.1286 107.198 11.4279 114.432 11.4389C115.241 11.4389 116.05 11.4389 116.859 11.5438C120.633 11.8445 124.311 12.8854 127.682 14.6068C131.053 16.3283 134.05 18.6965 136.504 21.5761C138.957 24.4556 140.818 27.79 141.98 31.3883C143.141 34.9866 143.581 38.7783 143.273 42.5465L140.297 78.0795L230.014 78.556L233.435 37.8141C234.061 30.6173 237.369 23.9171 242.705 19.039C248.041 14.161 255.016 11.4603 262.251 11.4712M262.251 9.04845C254.427 9.02728 246.877 11.9213 241.078 17.1645C235.253 22.4413 231.651 29.7293 231 37.5557L227.765 76.0606L142.933 75.5922L145.691 42.7161C146.035 38.6537 145.569 34.5636 144.319 30.6824C143.07 26.8011 141.062 23.2057 138.412 20.1041C135.752 16.9504 132.491 14.355 128.819 12.4684C125.147 10.5817 121.137 9.44125 117.02 9.11305C116.147 9.04037 115.273 9 114.408 9C106.582 8.99832 99.0377 11.9126 93.2505 17.1726C87.4206 22.4466 83.8155 29.7356 83.1652 37.5638L80.0029 75.2854L51.3482 75.1481H51.1783C47.0408 75.0717 42.9294 75.8181 39.0837 77.3438C35.2379 78.8695 31.7346 81.1441 28.7777 84.0349C25.8209 86.9258 23.4697 90.3752 21.861 94.1822C20.2523 97.9893 19.4183 102.078 19.4076 106.21C19.3968 110.342 20.2096 114.435 21.7985 118.25C23.3874 122.066 25.7207 125.527 28.6624 128.433C31.6042 131.339 35.0957 133.632 38.9335 135.178C42.7713 136.723 46.8787 137.491 51.0166 137.436L74.7701 137.557L69.7072 198.343L40.5106 198.198H40.357C32.0966 198.197 24.1697 201.451 18.2985 207.253C12.4273 213.055 9.08617 220.936 9.00094 229.184C8.96887 233.28 9.75485 237.342 11.3129 241.132C12.871 244.921 15.1699 248.363 18.0753 251.255C20.9696 254.173 24.4132 256.491 28.208 258.075C32.0029 259.659 36.074 260.478 40.1871 260.485L50.6122 260.542L64.4745 260.623L61.0696 301.268C60.7365 305.354 61.2135 309.467 62.4734 313.369C63.7332 317.272 65.7511 320.888 68.4117 324.011C71.0722 327.134 74.3233 329.703 77.9789 331.571C81.6345 333.438 85.623 334.568 89.7162 334.895C90.614 334.968 91.4712 335 92.3528 335C100.191 335.011 107.747 332.083 113.527 326.797C119.307 321.51 122.888 314.25 123.563 306.452L127.389 260.946L201.043 261.333L212.221 261.398L208.872 301.268C208.539 305.354 209.016 309.467 210.276 313.369C211.536 317.272 213.554 320.888 216.214 324.011C218.875 327.134 222.126 329.703 225.782 331.571C229.437 333.438 233.426 334.568 237.519 334.895C238.417 334.968 239.298 335 240.164 335C248.001 335.007 255.555 332.078 261.334 326.792C267.113 321.507 270.696 314.248 271.374 306.452L275.119 261.721L306.661 261.883H306.814C315.075 261.887 323.003 258.635 328.875 252.834C334.747 247.033 338.087 239.152 338.17 230.904C338.183 226.804 337.387 222.741 335.827 218.948C334.266 215.156 331.973 211.707 329.078 208.799C326.182 205.892 322.742 203.582 318.952 202.003C315.163 200.424 311.099 199.605 306.992 199.595L280.303 199.441L285.398 138.68L317.296 138.849C317.415 138.856 317.533 138.856 317.652 138.849C325.912 138.852 333.839 135.598 339.71 129.795C345.58 123.993 348.919 116.11 349 107.863C349.012 103.762 348.214 99.6988 346.652 95.9058C345.091 92.1129 342.796 88.6644 339.899 85.7575C337.002 82.8506 333.559 80.5422 329.769 78.9643C325.978 77.3863 321.913 76.5698 317.806 76.5613L290.631 76.4079L293.454 42.7483C293.81 38.6702 293.35 34.562 292.101 30.6631C290.851 26.7643 288.837 23.1529 286.175 20.0395C283.514 16.9062 280.259 14.3287 276.598 12.455C272.936 10.5813 268.94 9.4483 264.839 9.12113C263.974 9.04845 263.092 9.00806 262.227 9.00806L262.251 9.04845Z" fill="white" fill-opacity="0.17"/>
<path d="M264.669 11.5277L263.511 20.4528L263.731 20.4814L263.952 20.4991L264.669 11.5277ZM291.092 42.5303L300.06 43.2858L300.061 43.2715L300.063 43.2573L291.092 42.5303ZM288.035 78.8225L279.067 78.0671L278.249 87.7696L287.986 87.8224L288.035 78.8225ZM317.846 78.984L317.797 87.9839L317.81 87.984L317.823 87.984L317.846 78.984ZM317.7 136.418L317.723 127.418L316.971 127.417L316.228 127.54L317.7 136.418ZM317.547 136.418L319.019 127.54L318.312 127.422L317.595 127.419L317.547 136.418ZM283.214 136.233L283.263 127.233L274.942 127.188L274.246 135.48L283.214 136.233ZM277.707 201.856L268.738 201.103L267.924 210.802L277.657 210.856L277.707 201.856ZM306.984 202.017L306.935 211.017L306.947 211.017L306.959 211.017L306.984 202.017ZM306.822 259.452L306.848 250.452L306.835 250.452H306.822V259.452ZM306.677 259.452L306.63 268.452L306.653 268.452H306.677V259.452ZM272.887 259.274L272.934 250.274L264.613 250.231L263.918 258.522L272.887 259.274ZM268.948 306.242L277.914 307.023L277.915 307.009L277.916 306.994L268.948 306.242ZM240.164 332.569L240.172 323.569H240.164L240.164 332.569ZM237.737 332.472L238.808 323.536L238.632 323.515L238.455 323.501L237.737 332.472ZM211.315 301.47L202.346 300.717L202.345 300.73L202.344 300.743L211.315 301.47ZM214.881 258.975L223.85 259.728L224.665 250.021L214.924 249.975L214.881 258.975ZM201.06 258.911L201.012 267.911L201.018 267.911L201.06 258.911ZM125.148 258.507L125.196 249.507L116.882 249.463L116.181 257.747L125.148 258.507ZM121.105 306.25L130.071 307.031L130.072 307.02L130.072 307.01L121.105 306.25ZM92.3124 332.577L92.3234 323.577H92.3124V332.577ZM89.8861 332.48L90.9568 323.544L90.7792 323.523L90.6008 323.509L89.8861 332.48ZM63.4635 301.478L54.4949 300.727L54.494 300.738L54.4932 300.748L63.4635 301.478ZM67.0868 258.208L76.0554 258.959L76.8667 249.27L67.1442 249.208L67.0868 258.208ZM50.6283 258.103L50.6857 249.103L50.6771 249.103L50.6283 258.103ZM40.1952 258.047L40.244 249.047L40.2322 249.047L40.2205 249.047L40.1952 258.047ZM40.357 200.612L40.3317 209.612L40.3443 209.612H40.357V200.612ZM40.5025 200.612L40.5488 191.612L40.5257 191.612H40.5025V200.612ZM71.9394 200.774L71.8932 209.774L80.2121 209.816L80.9079 201.526L71.9394 200.774ZM77.4472 135.151L86.4156 135.903L87.2302 126.198L77.4912 126.151L77.4472 135.151ZM51.0651 135.021L51.1092 126.021L51.0985 126.021L51.0878 126.021L51.0651 135.021ZM51.2107 77.5869L51.1879 86.5869L51.1993 86.5869H51.2107V77.5869ZM51.3643 77.5869L51.409 68.5871L51.3867 68.5869H51.3643V77.5869ZM82.2674 77.7404L82.2228 86.7403L90.5414 86.7816L91.236 78.4919L82.2674 77.7404ZM85.6157 37.7818L76.6496 37.0019L76.6484 37.0161L76.6472 37.0303L85.6157 37.7818ZM114.432 11.4389L114.419 20.4389H114.432L114.432 11.4389ZM116.859 11.5438L115.7 20.469L115.921 20.4977L116.144 20.5154L116.859 11.5438ZM136.504 21.5761L143.355 15.7393L136.504 21.5761ZM143.273 42.5465L152.242 43.2977L152.242 43.2882L152.243 43.2787L143.273 42.5465ZM140.297 78.0795L131.328 77.3283L130.516 87.0277L140.249 87.0794L140.297 78.0795ZM230.014 78.556L229.966 87.5559L238.286 87.6001L238.982 79.3091L230.014 78.556ZM233.435 37.8141L224.469 37.0342L224.467 37.0476L224.466 37.061L233.435 37.8141ZM262.251 9.04845L262.227 18.0484L278.173 18.0916L269.968 4.41779L262.251 9.04845ZM241.078 17.1645L235.042 10.4883L235.035 10.4945L241.078 17.1645ZM231 37.5557L239.969 38.3092L239.969 38.3013L231 37.5557ZM227.765 76.0606L227.716 85.0605L236.037 85.1064L236.734 76.8141L227.765 76.0606ZM142.933 75.5922L133.965 74.8399L133.151 84.5384L142.884 84.5921L142.933 75.5922ZM145.691 42.7161L136.723 41.9574L136.723 41.9637L145.691 42.7161ZM138.412 20.1041L131.533 25.9073L131.551 25.9287L131.569 25.9501L138.412 20.1041ZM117.02 9.11305L116.274 18.0821L116.289 18.0833L116.305 18.0846L117.02 9.11305ZM114.408 9L114.406 18H114.408V9ZM93.2505 17.1726L99.2883 23.8468L99.2961 23.8398L99.3039 23.8327L93.2505 17.1726ZM83.1652 37.5638L92.1337 38.3156L92.1343 38.3089L83.1652 37.5638ZM80.0029 75.2854L79.9598 84.2853L88.2766 84.3251L88.9714 76.0372L80.0029 75.2854ZM51.3482 75.1481L51.3913 66.1482L51.3697 66.1481H51.3482V75.1481ZM51.1783 75.1481L51.0122 84.1466L51.0953 84.1481H51.1783V75.1481ZM51.0166 137.436L51.0625 128.436L50.9798 128.436L50.897 128.437L51.0166 137.436ZM74.7701 137.557L83.7391 138.304L84.5468 128.607L74.816 128.557L74.7701 137.557ZM69.7072 198.343L69.6624 207.343L77.9853 207.384L78.6762 199.09L69.7072 198.343ZM40.5106 198.198L40.5554 189.198L40.533 189.198H40.5106V198.198ZM40.357 198.198L40.3565 207.198H40.357V198.198ZM9.00094 229.184L0.00142366 229.091L0.00130722 229.102L0.001219 229.114L9.00094 229.184ZM18.0753 251.255L24.4655 244.917L24.4452 244.897L24.4248 244.877L18.0753 251.255ZM40.1871 260.485L40.2359 251.486L40.2192 251.486L40.2024 251.485L40.1871 260.485ZM50.6122 260.542L50.6646 251.542L50.661 251.542L50.6122 260.542ZM64.4745 260.623L73.4431 261.374L74.2552 251.68L64.5269 251.623L64.4745 260.623ZM61.0696 301.268L52.101 300.516L52.1001 300.527L52.0993 300.537L61.0696 301.268ZM89.7162 334.895L90.4425 325.924L90.4334 325.924L89.7162 334.895ZM92.3528 335L92.3652 326H92.3528V335ZM123.563 306.452L132.53 307.228L132.531 307.217L132.532 307.206L123.563 306.452ZM127.389 260.946L127.436 251.946L119.117 251.902L118.42 260.192L127.389 260.946ZM201.043 261.333L201.095 252.334L201.091 252.334L201.043 261.333ZM212.221 261.398L221.189 262.151L222.003 252.454L212.273 252.398L212.221 261.398ZM208.872 301.268L199.904 300.515L199.903 300.526L199.902 300.537L208.872 301.268ZM237.519 334.895L238.245 325.924L238.236 325.924L237.519 334.895ZM240.164 335L240.172 326H240.164V335ZM261.334 326.792L255.26 320.152L261.334 326.792ZM271.374 306.452L280.34 307.233L280.342 307.218L280.343 307.203L271.374 306.452ZM275.119 261.721L275.165 252.721L266.844 252.679L266.15 260.97L275.119 261.721ZM306.661 261.883L306.615 270.882L306.638 270.883H306.661V261.883ZM306.814 261.883L306.82 252.883H306.814V261.883ZM338.17 230.904L347.17 230.995L347.17 230.964L347.17 230.932L338.17 230.904ZM306.992 199.595L306.941 208.595L306.955 208.595L306.969 208.595L306.992 199.595ZM280.303 199.441L271.334 198.689L270.521 208.385L280.251 208.441L280.303 199.441ZM285.398 138.68L285.446 129.68L277.125 129.636L276.43 137.928L285.398 138.68ZM317.296 138.849L317.782 129.862L317.563 129.851L317.344 129.849L317.296 138.849ZM317.652 138.849L317.655 129.849L317.41 129.849L317.166 129.862L317.652 138.849ZM349 107.863L357.999 107.951L358 107.92L358 107.888L349 107.863ZM317.806 76.5613L317.755 85.5612L317.771 85.5613L317.787 85.5613L317.806 76.5613ZM290.631 76.4079L281.662 75.6558L280.849 85.3528L290.58 85.4078L290.631 76.4079ZM293.454 42.7483L284.488 41.9639L284.486 41.9801L284.485 41.9963L293.454 42.7483ZM286.175 20.0395L279.315 25.8652L279.324 25.8767L279.334 25.8881L286.175 20.0395ZM264.839 9.12113L264.086 18.0896L264.105 18.0911L264.124 18.0926L264.839 9.12113ZM262.227 9.00806V0.00805967H246.331L254.51 13.6387L262.227 9.00806ZM262.243 20.4227C263.146 20.4227 263.374 20.435 263.511 20.4528L265.828 2.60258C264.347 2.41039 262.957 2.42271 262.243 2.42271V20.4227ZM263.952 20.4991C266.549 20.7067 269.08 21.4234 271.398 22.6077L279.586 6.57753C275.163 4.31846 270.338 2.9522 265.387 2.55633L263.952 20.4991ZM271.398 22.6077C273.717 23.792 275.778 25.4204 277.465 27.3995L291.165 15.7238C287.944 11.9444 284.009 8.83662 279.586 6.57753L271.398 22.6077ZM277.465 27.3995C279.152 29.3784 280.431 31.6691 281.229 34.1404L298.357 28.6047C296.83 23.8802 294.386 19.5032 291.165 15.7238L277.465 27.3995ZM281.229 34.1404C282.028 36.6117 282.331 39.2156 282.121 41.8034L300.063 43.2573C300.464 38.3084 299.884 33.3293 298.357 28.6047L281.229 34.1404ZM282.124 41.7748L279.067 78.0671L297.003 79.578L300.06 43.2858L282.124 41.7748ZM287.986 87.8224L317.797 87.9839L317.895 69.9842L288.084 69.8227L287.986 87.8224ZM317.823 87.984C323.068 87.9973 328.09 90.0906 331.786 93.7991L344.536 81.0939C337.472 74.0042 327.879 70.0094 317.869 69.9841L317.823 87.984ZM331.786 93.7991C335.481 97.5072 337.546 102.526 337.533 107.751L355.533 107.797C355.558 97.7892 351.601 88.1842 344.536 81.0939L331.786 93.7991ZM337.533 107.751C337.52 112.976 335.429 117.985 331.715 121.674L344.401 134.444C351.502 127.389 355.508 117.804 355.533 107.797L337.533 107.751ZM331.715 121.674C328.001 125.364 322.968 127.432 317.723 127.418L317.678 145.418C327.688 145.444 337.301 141.497 344.401 134.444L331.715 121.674ZM316.228 127.54C317.152 127.386 318.095 127.386 319.019 127.54L316.075 145.297C317.1 145.467 318.147 145.467 319.172 145.297L316.228 127.54ZM317.595 127.419L283.263 127.233L283.166 145.233L317.498 145.418L317.595 127.419ZM274.246 135.48L268.738 201.103L286.675 202.609L292.183 136.985L274.246 135.48ZM277.657 210.856L306.935 211.017L307.034 193.018L277.756 192.856L277.657 210.856ZM306.959 211.017C309.556 211.025 312.125 211.543 314.521 212.541L321.447 195.927C316.872 194.02 311.966 193.031 307.01 193.017L306.959 211.017ZM314.521 212.541C316.916 213.54 319.091 215 320.92 216.836L333.674 204.135C330.177 200.623 326.022 197.835 321.447 195.927L314.521 212.541ZM320.92 216.836C322.749 218.673 324.197 220.851 325.182 223.245L341.828 216.395C339.942 211.812 337.171 207.646 333.674 204.135L320.92 216.836ZM325.182 223.245C326.167 225.639 326.671 228.203 326.663 230.79L344.663 230.841C344.677 225.886 343.714 220.977 341.828 216.395L325.182 223.245ZM326.663 230.79C326.656 233.377 326.138 235.938 325.14 238.327L341.746 245.271C343.658 240.699 344.649 235.796 344.663 230.841L326.663 230.79ZM325.14 238.327C324.141 240.715 322.681 242.885 320.841 244.711L333.524 257.484C337.041 253.992 339.835 249.842 341.746 245.271L325.14 238.327ZM320.841 244.711C319.002 246.538 316.819 247.985 314.418 248.97L321.251 265.623C325.837 263.742 330.007 260.976 333.524 257.484L320.841 244.711ZM314.418 248.97C312.017 249.956 309.445 250.459 306.848 250.452L306.797 268.452C311.754 268.466 316.665 267.505 321.251 265.623L314.418 248.97ZM306.822 250.452H306.677V268.452H306.822V250.452ZM306.724 250.452L272.934 250.274L272.839 268.274L306.63 268.452L306.724 250.452ZM263.918 258.522L259.979 305.49L277.916 306.994L281.855 260.026L263.918 258.522ZM259.982 305.462C259.552 310.403 257.281 315.006 253.614 318.359L265.762 331.642C272.755 325.246 277.092 316.461 277.914 307.023L259.982 305.462ZM253.614 318.359C249.947 321.714 245.15 323.574 240.172 323.569L240.155 341.569C249.632 341.578 258.77 338.037 265.762 331.642L253.614 318.359ZM240.164 323.569C239.267 323.569 238.995 323.559 238.808 323.536L236.667 341.408C238.097 341.58 239.442 341.569 240.164 341.569L240.164 323.569ZM238.455 323.501C235.857 323.293 233.327 322.577 231.008 321.392L222.821 337.422C227.244 339.681 232.069 341.048 237.02 341.444L238.455 323.501ZM231.008 321.392C228.69 320.208 226.628 318.579 224.942 316.601L211.242 328.276C214.463 332.056 218.398 335.163 222.821 337.422L231.008 321.392ZM224.942 316.601C223.255 314.622 221.976 312.331 221.177 309.86L204.05 315.395C205.577 320.12 208.021 324.497 211.242 328.276L224.942 316.601ZM221.177 309.86C220.379 307.388 220.076 304.784 220.285 302.197L202.344 300.743C201.943 305.692 202.523 310.671 204.05 315.395L221.177 309.86ZM220.283 302.222L223.85 259.728L205.913 258.223L202.346 300.717L220.283 302.222ZM214.924 249.975L201.102 249.911L201.018 267.911L214.839 267.975L214.924 249.975ZM201.107 249.911L125.196 249.507L125.101 267.507L201.012 267.911L201.107 249.911ZM116.181 257.747L112.137 305.491L130.072 307.01L134.116 259.266L116.181 257.747ZM112.138 305.47C111.708 310.412 109.437 315.016 105.769 318.369L117.915 331.653C124.91 325.258 129.249 316.471 130.071 307.031L112.138 305.47ZM105.769 318.369C102.1 321.724 97.3025 323.583 92.3234 323.577L92.3013 341.577C101.78 341.589 110.921 338.049 117.915 331.653L105.769 318.369ZM92.3124 323.577C91.416 323.577 91.1441 323.567 90.9568 323.544L88.8153 341.416C90.2456 341.588 91.5912 341.577 92.3124 341.577V323.577ZM90.6008 323.509C88.0036 323.302 85.4733 322.586 83.1545 321.402L74.9694 337.433C79.3934 339.692 84.2193 341.057 89.1713 341.452L90.6008 323.509ZM83.1545 321.402C80.8358 320.218 78.7744 318.59 77.0878 316.611L63.3882 328.286C66.6098 332.066 70.5453 335.174 74.9694 337.433L83.1545 321.402ZM77.0878 316.611C75.4013 314.632 74.1226 312.341 73.3243 309.87L56.1959 315.403C57.7224 320.129 60.1667 324.506 63.3882 328.286L77.0878 316.611ZM73.3243 309.87C72.526 307.399 72.2235 304.795 72.4339 302.207L54.4932 300.748C54.0907 305.698 54.6693 310.678 56.1959 315.403L73.3243 309.87ZM72.4322 302.229L76.0554 258.959L58.1182 257.457L54.4949 300.727L72.4322 302.229ZM67.1442 249.208L50.6857 249.103L50.5709 267.103L67.0294 267.208L67.1442 249.208ZM50.6771 249.103L40.244 249.047L40.1464 267.046L50.5796 267.103L50.6771 249.103ZM40.2205 249.047C37.6237 249.039 35.0542 248.521 32.6586 247.523L25.7323 264.137C30.3072 266.044 35.2131 267.033 40.1699 267.047L40.2205 249.047ZM32.6586 247.523C30.263 246.524 28.0888 245.064 26.2597 243.228L13.5055 255.929C17.0026 259.441 21.1574 262.23 25.7323 264.137L32.6586 247.523ZM26.2597 243.228C24.4306 241.391 22.9825 239.213 21.9973 236.819L5.35169 243.67C7.23749 248.252 10.0084 252.418 13.5055 255.929L26.2597 243.228ZM21.9973 236.819C21.0121 234.425 20.5089 231.861 20.5162 229.274L2.51625 229.223C2.5023 234.178 3.46588 239.087 5.35169 243.67L21.9973 236.819ZM20.5162 229.274C20.5235 226.687 21.0411 224.126 22.0397 221.737L5.43301 214.793C3.52143 219.365 2.53021 224.268 2.51625 229.223L20.5162 229.274ZM22.0397 221.737C23.0384 219.349 24.4988 217.179 26.3383 215.353L13.6557 202.58C10.1389 206.072 7.34459 210.222 5.43301 214.793L22.0397 221.737ZM26.3383 215.353C28.1777 213.526 30.3602 212.079 32.7613 211.094L25.9285 194.441C21.3428 196.322 17.1724 199.088 13.6557 202.58L26.3383 215.353ZM32.7613 211.094C35.1625 210.108 37.7349 209.605 40.3317 209.612L40.3822 191.612C35.4254 191.598 30.514 192.559 25.9285 194.441L32.7613 211.094ZM40.357 209.612H40.5025V191.612H40.357V209.612ZM40.4563 209.612L71.8932 209.774L71.9857 191.774L40.5488 191.612L40.4563 209.612ZM80.9079 201.526L86.4156 135.903L68.4787 134.398L62.971 200.021L80.9079 201.526ZM77.4912 126.151L51.1092 126.021L51.021 144.021L77.4031 144.15L77.4912 126.151ZM51.0878 126.021C48.491 126.015 45.9213 125.498 43.5255 124.5L36.6039 141.116C41.1794 143.022 46.0855 144.009 51.0423 144.021L51.0878 126.021ZM43.5255 124.5C41.1297 123.502 38.9551 122.042 37.1254 120.206L24.3748 132.911C27.8728 136.422 32.0284 139.21 36.6039 141.116L43.5255 124.5ZM37.1254 120.206C35.2958 118.37 33.8471 116.193 32.8612 113.799L16.2175 120.654C18.1046 125.236 20.8767 129.401 24.3748 132.911L37.1254 120.206ZM32.8612 113.799C31.8753 111.405 31.3714 108.842 31.378 106.254L13.378 106.209C13.3655 111.164 14.3305 116.072 16.2175 120.654L32.8612 113.799ZM31.378 106.254C31.3845 103.667 31.9014 101.106 32.8994 98.717L16.2907 91.7778C14.3804 96.3501 13.3906 101.254 13.378 106.209L31.378 106.254ZM32.8994 98.717C33.8974 96.3282 35.3572 94.1583 37.1961 92.3314L24.5099 79.5619C20.9941 83.0547 18.201 87.2056 16.2907 91.7778L32.8994 98.717ZM37.1961 92.3314C39.0351 90.5044 41.2171 89.0564 43.6179 88.0705L36.7804 71.4197C32.1954 73.3025 28.0257 76.069 24.5099 79.5619L37.1961 92.3314ZM43.6179 88.0705C46.0188 87.0846 48.5911 86.5804 51.1879 86.5869L51.2334 68.587C46.2766 68.5744 41.3655 69.5369 36.7804 71.4197L43.6179 88.0705ZM51.2107 86.5869H51.3643V68.5869H51.2107V86.5869ZM51.3196 86.5868L82.2228 86.7403L82.3121 68.7405L51.409 68.5871L51.3196 86.5868ZM91.236 78.4919L94.5843 38.5333L76.6472 37.0303L73.2989 76.9889L91.236 78.4919ZM94.5819 38.5617C95.0122 33.6147 97.2864 29.0064 100.959 25.6494L88.8137 12.3641C81.8137 18.7632 77.4713 27.5551 76.6496 37.0019L94.5819 38.5617ZM100.959 25.6494C104.631 22.292 109.434 20.4313 114.419 20.4388L114.446 2.43886C104.961 2.42456 95.8133 5.96525 88.8137 12.3641L100.959 25.6494ZM114.432 20.4389C115.335 20.4389 115.563 20.4512 115.7 20.469L118.017 2.61872C116.536 2.42653 115.147 2.43885 114.432 2.43885L114.432 20.4389ZM116.144 20.5154C118.74 20.7223 121.27 21.4384 123.588 22.6222L131.775 6.59148C127.351 4.33243 122.525 2.96679 117.573 2.57227L116.144 20.5154ZM123.588 22.6222C125.907 23.806 127.967 25.4342 129.653 27.4129L143.355 15.7393C140.134 11.9589 136.199 8.85055 131.775 6.59148L123.588 22.6222ZM129.653 27.4129C131.339 29.3916 132.617 31.682 133.415 34.153L150.544 28.6236C149.019 23.8979 146.575 19.5197 143.355 15.7393L129.653 27.4129ZM133.415 34.153C134.212 36.6239 134.514 39.2272 134.303 41.8143L152.243 43.2787C152.647 38.3294 152.07 33.3494 150.544 28.6236L133.415 34.153ZM134.304 41.7952L131.328 77.3283L149.265 78.8308L152.242 43.2977L134.304 41.7952ZM140.249 87.0794L229.966 87.5559L230.061 69.5562L140.345 69.0797L140.249 87.0794ZM238.982 79.3091L242.403 38.5672L224.466 37.061L221.045 77.803L238.982 79.3091ZM242.401 38.594C242.831 33.6471 245.105 29.0387 248.778 25.6817L236.633 12.3964C229.633 18.7955 225.29 27.5875 224.469 37.0342L242.401 38.594ZM248.778 25.6817C252.45 22.3244 257.253 20.4636 262.238 20.4712L262.265 2.47117C252.78 2.45687 243.632 5.99755 236.633 12.3964L248.778 25.6817ZM262.276 0.0484859C252.215 0.0212612 242.504 3.74268 235.042 10.4883L247.113 23.8408C251.251 20.1 256.64 18.0333 262.227 18.0484L262.276 0.0484859ZM235.035 10.4945C227.52 17.3022 222.871 26.7072 222.031 36.81L239.969 38.3013C240.431 32.7514 242.985 27.5805 247.12 23.8346L235.035 10.4945ZM222.032 36.8022L218.797 75.3071L236.734 76.8141L239.969 38.3092L222.032 36.8022ZM227.815 67.0608L142.983 66.5924L142.884 84.5921L227.716 85.0605L227.815 67.0608ZM151.902 76.3446L154.66 43.4684L136.723 41.9637L133.965 74.8399L151.902 76.3446ZM154.659 43.4748C155.103 38.2251 154.501 32.9397 152.886 27.9246L135.752 33.4401C136.636 36.1875 136.966 39.0823 136.723 41.9574L154.659 43.4748ZM152.886 27.9246C151.272 22.9094 148.678 18.2644 145.255 14.2581L131.569 25.9501C133.446 28.1469 134.868 30.6928 135.752 33.4401L152.886 27.9246ZM145.291 14.3009C141.863 10.237 137.662 6.89338 132.932 4.46316L124.706 20.4735C127.32 21.8166 129.64 23.6637 131.533 25.9073L145.291 14.3009ZM132.932 4.46316C128.202 2.03295 123.037 0.564188 117.736 0.141516L116.305 18.0846C119.237 18.3183 122.092 19.1305 124.706 20.4735L132.932 4.46316ZM117.767 0.144044C116.675 0.0532443 115.551 7.22648e-07 114.408 7.22648e-07V18C114.995 18 115.618 18.0275 116.274 18.0821L117.767 0.144044ZM114.41 9.29097e-07C104.347 -0.00215452 94.6426 3.74532 87.1972 10.5125L99.3039 23.8327C103.433 20.0799 108.818 17.9988 114.406 18L114.41 9.29097e-07ZM87.2127 10.4984C79.6901 17.3037 75.0358 26.7116 74.1961 36.8186L92.1343 38.3089C92.5953 32.7595 95.1511 27.5895 99.2883 23.8468L87.2127 10.4984ZM74.1966 36.8119L71.0343 74.5335L88.9714 76.0372L92.1337 38.3156L74.1966 36.8119ZM80.046 66.2855L51.3913 66.1482L51.305 84.148L79.9598 84.2853L80.046 66.2855ZM51.3482 66.1481H51.1783V84.1481H51.3482V66.1481ZM51.3444 66.1496C46.0151 66.0512 40.7191 67.0126 35.7648 68.9781L42.4025 85.7095C45.1398 84.6236 48.0666 84.0922 51.0122 84.1466L51.3444 66.1496ZM35.7648 68.9781C30.8105 70.9436 26.2965 73.8741 22.486 77.5996L35.0695 90.4703C37.1727 88.414 39.6653 86.7955 42.4025 85.7095L35.7648 68.9781ZM22.486 77.5996C18.6755 81.3251 15.6446 85.7711 13.5707 90.6791L30.1512 97.6853C31.2947 94.9792 32.9663 92.5265 35.0695 90.4703L22.486 77.5996ZM13.5707 90.6791C11.4968 95.5872 10.4214 100.859 10.4076 106.187L28.4075 106.233C28.4151 103.297 29.0078 100.391 30.1512 97.6853L13.5707 90.6791ZM10.4076 106.187C10.3937 111.514 11.4417 116.791 13.4901 121.71L30.1068 114.79C28.9774 112.078 28.3999 109.17 28.4075 106.233L10.4076 106.187ZM13.4901 121.71C15.5385 126.629 18.5462 131.091 22.3374 134.836L34.9875 122.031C32.8951 119.964 31.2362 117.502 30.1068 114.79L13.4901 121.71ZM22.3374 134.836C26.1285 138.581 30.6273 141.535 35.5713 143.526L42.2956 126.829C39.5641 125.729 37.0799 124.098 34.9875 122.031L22.3374 134.836ZM35.5713 143.526C40.5154 145.517 45.8063 146.506 51.1361 146.435L50.897 128.437C47.9512 128.476 45.0272 127.929 42.2956 126.829L35.5713 143.526ZM50.9707 146.436L74.7242 146.557L74.816 128.557L51.0625 128.436L50.9707 146.436ZM65.8012 136.81L60.7383 197.596L78.6762 199.09L83.7391 138.304L65.8012 136.81ZM69.752 189.343L40.5554 189.198L40.4658 207.197L69.6624 207.343L69.752 189.343ZM40.5106 189.198H40.357V207.198H40.5106V189.198ZM40.3574 189.198C29.7304 189.197 19.5297 193.384 11.9724 200.852L24.6246 213.655C28.8096 209.519 34.4628 207.197 40.3565 207.198L40.3574 189.198ZM11.9724 200.852C4.41459 208.321 0.11119 218.468 0.00142366 229.091L18.0005 229.277C18.0611 223.404 20.4401 217.79 24.6246 213.655L11.9724 200.852ZM0.001219 229.114C-0.0402279 234.408 0.975611 239.657 2.98902 244.554L19.6368 237.709C18.5341 235.027 17.978 232.153 18.0007 229.255L0.001219 229.114ZM2.98902 244.554C5.00242 249.451 7.9728 253.897 11.7259 257.633L24.4248 244.877C22.3671 242.828 20.7396 240.391 19.6368 237.709L2.98902 244.554ZM11.6852 257.593C15.415 261.353 19.8522 264.34 24.741 266.381L31.6751 249.77C28.9742 248.642 26.5241 246.993 24.4655 244.917L11.6852 257.593ZM24.741 266.381C29.6297 268.421 34.8739 269.476 40.1718 269.485L40.2024 251.485C37.2741 251.481 34.3761 250.897 31.6751 249.77L24.741 266.381ZM40.1383 269.485L50.5634 269.542L50.661 251.542L40.2359 251.486L40.1383 269.485ZM50.5598 269.542L64.4221 269.623L64.5269 251.623L50.6646 251.542L50.5598 269.542ZM55.5059 259.871L52.101 300.516L70.0381 302.019L73.4431 261.374L55.5059 259.871ZM52.0993 300.537C51.67 305.804 52.2849 311.104 53.9086 316.134L71.0381 310.604C70.1422 307.829 69.803 304.905 70.0398 301.999L52.0993 300.537ZM53.9086 316.134C55.5323 321.164 58.1327 325.823 61.5606 329.847L75.2627 318.175C73.3695 315.952 71.9341 313.38 71.0381 310.604L53.9086 316.134ZM61.5606 329.847C64.9884 333.871 69.1763 337.18 73.8844 339.585L82.0734 323.556C79.4702 322.226 77.156 320.397 75.2627 318.175L61.5606 329.847ZM73.8844 339.585C78.5924 341.99 83.7285 343.445 88.9991 343.866L90.4334 325.924C87.5175 325.691 84.6766 324.886 82.0734 323.556L73.8844 339.585ZM88.9899 343.866C90.1428 343.959 91.2428 344 92.3528 344V326C91.6997 326 91.0851 325.976 90.4425 325.924L88.9899 343.866ZM92.3403 344C102.429 344.014 112.158 340.246 119.602 333.438L107.453 320.156C103.337 323.921 97.9524 326.008 92.3652 326L92.3403 344ZM119.602 333.438C127.045 326.629 131.66 317.276 132.53 307.228L114.597 305.676C114.117 311.223 111.569 316.391 107.453 320.156L119.602 333.438ZM132.532 307.206L136.357 261.7L118.42 260.192L114.595 305.698L132.532 307.206ZM127.341 269.946L200.996 270.333L201.091 252.334L127.436 251.946L127.341 269.946ZM200.991 270.333L212.169 270.398L212.273 252.398L201.095 252.334L200.991 270.333ZM203.252 260.645L199.904 300.515L217.841 302.021L221.189 262.151L203.252 260.645ZM199.902 300.537C199.473 305.804 200.088 311.104 201.711 316.134L218.841 310.604C217.945 307.829 217.606 304.905 217.843 301.999L199.902 300.537ZM201.711 316.134C203.335 321.164 205.935 325.824 209.363 329.847L223.065 318.175C221.172 315.952 219.737 313.38 218.841 310.604L201.711 316.134ZM209.363 329.847C212.791 333.871 216.979 337.18 221.687 339.585L229.876 323.556C227.273 322.226 224.959 320.397 223.065 318.175L209.363 329.847ZM221.687 339.585C226.395 341.99 231.531 343.445 236.802 343.866L238.236 325.924C235.32 325.691 232.479 324.886 229.876 323.556L221.687 339.585ZM236.793 343.866C237.95 343.959 239.074 344 240.164 344V326C239.522 326 238.884 325.976 238.245 325.924L236.793 343.866ZM240.155 344C250.242 344.009 259.967 340.24 267.408 333.433L255.26 320.152C251.143 323.917 245.759 326.005 240.172 326L240.155 344ZM267.408 333.433C274.85 326.627 279.466 317.278 280.34 307.233L262.408 305.672C261.925 311.219 259.376 316.387 255.26 320.152L267.408 333.433ZM280.343 307.203L284.087 262.472L266.15 260.97L262.405 305.702L280.343 307.203ZM275.073 270.721L306.615 270.882L306.707 252.883L275.165 252.721L275.073 270.721ZM306.661 270.883H306.814V252.883H306.661V270.883ZM306.809 270.883C317.437 270.889 327.641 266.705 335.2 259.237L322.549 246.432C318.365 250.566 312.712 252.886 306.82 252.883L306.809 270.883ZM335.2 259.237C342.76 251.768 347.063 241.619 347.17 230.995L329.171 230.813C329.112 236.685 326.734 242.298 322.549 246.432L335.2 259.237ZM347.17 230.932C347.187 225.648 346.16 220.412 344.15 215.525L327.503 222.372C328.613 225.07 329.18 227.96 329.17 230.876L347.17 230.932ZM344.15 215.525C342.14 210.637 339.185 206.194 335.455 202.449L322.701 215.15C324.762 217.22 326.393 219.674 327.503 222.372L344.15 215.525ZM335.455 202.449C331.726 198.704 327.294 195.729 322.415 193.696L315.49 210.31C318.189 211.435 320.639 213.08 322.701 215.15L335.455 202.449ZM322.415 193.696C317.535 191.662 312.302 190.608 307.016 190.595L306.969 208.595C309.895 208.602 312.79 209.185 315.49 210.31L322.415 193.696ZM307.044 190.595L280.355 190.441L280.251 208.441L306.941 208.595L307.044 190.595ZM289.271 200.193L294.367 139.432L276.43 137.928L271.334 198.689L289.271 200.193ZM285.35 147.68L317.248 147.849L317.344 129.849L285.446 129.68L285.35 147.68ZM316.81 147.836C317.252 147.86 317.696 147.86 318.138 147.836L317.166 129.862C317.371 129.851 317.577 129.851 317.782 129.862L316.81 147.836ZM317.649 147.849C328.277 147.852 338.48 143.666 346.037 136.196L333.383 123.394C329.199 127.53 323.547 129.851 317.655 129.849L317.649 147.849ZM346.037 136.196C353.594 128.726 357.895 118.575 357.999 107.951L340 107.774C339.943 113.646 337.566 119.26 333.383 123.394L346.037 136.196ZM358 107.888C358.015 102.603 356.987 97.367 354.974 92.4794L338.33 99.3323C339.441 102.031 340.008 104.92 340 107.837L358 107.888ZM354.974 92.4794C352.962 87.5918 350.005 83.149 346.274 79.4045L333.524 92.1105C335.586 94.1799 337.219 96.634 338.33 99.3323L354.974 92.4794ZM346.274 79.4045C342.542 75.66 338.108 72.6872 333.227 70.6553L326.31 87.2732C329.01 88.3972 331.462 90.0412 333.524 92.1105L346.274 79.4045ZM333.227 70.6553C328.346 68.6235 323.112 67.5723 317.824 67.5614L317.787 85.5613C320.713 85.5674 323.61 86.1492 326.31 87.2732L333.227 70.6553ZM317.856 67.5615L290.682 67.408L290.58 85.4078L317.755 85.5612L317.856 67.5615ZM299.599 77.16L302.422 43.5004L284.485 41.9963L281.662 75.6558L299.599 77.16ZM302.419 43.5328C302.88 38.2627 302.286 32.9539 300.671 27.916L283.53 33.4103C284.415 36.17 284.74 39.0777 284.488 41.9639L302.419 43.5328ZM300.671 27.916C299.056 22.8781 296.454 18.2125 293.015 14.1909L279.334 25.8881C281.219 28.0933 282.646 30.6505 283.53 33.4103L300.671 27.916ZM293.035 14.2137C289.606 10.1766 285.414 6.85641 280.698 4.44313L272.498 20.4668C275.105 21.8009 277.421 23.6357 279.315 25.8652L293.035 14.2137ZM280.698 4.44313C275.982 2.02987 270.836 0.570928 265.555 0.149634L264.124 18.0926C267.045 18.3257 269.891 19.1327 272.498 20.4668L280.698 4.44313ZM265.592 0.152707C264.501 0.0610426 263.367 0.00805967 262.227 0.00805967V18.0081C262.817 18.0081 263.447 18.0359 264.086 18.0896L265.592 0.152707ZM254.51 13.6387L254.534 13.6791L269.968 4.41779L269.944 4.37739L254.51 13.6387Z" fill="white" fill-opacity="0.14" mask="url(#path-1-outside-1_221_45)"/>
<path d="M239.548 288.687C238.853 288.687 238.103 288.687 237.373 288.597C233.995 288.327 230.703 287.393 227.686 285.851C224.668 284.308 221.984 282.186 219.787 279.605C217.59 277.025 215.922 274.037 214.88 270.812C213.838 267.587 213.442 264.189 213.713 260.81L216.687 225.383L141.726 225.001L138.357 265.083C137.773 271.52 134.808 277.508 130.043 281.876C125.279 286.244 119.056 288.677 112.592 288.701C111.863 288.701 111.147 288.701 110.418 288.611C107.031 288.342 103.731 287.405 100.707 285.855C97.684 284.305 94.997 282.173 92.8013 279.58C90.6005 277.011 88.9332 274.029 87.8968 270.809C86.8603 267.589 86.4755 264.195 86.7648 260.824L89.7865 224.702L67.7937 224.584C64.3962 224.577 61.0336 223.898 57.8994 222.587C54.7652 221.276 51.9212 219.357 49.5311 216.943C47.1345 214.552 45.238 211.707 43.9524 208.575C42.6667 205.443 42.0175 202.087 42.0427 198.701C42.1123 191.881 44.8708 185.364 49.7188 180.567C54.5668 175.77 61.1123 173.08 67.9326 173.082L94.1003 173.214L98.6573 118.857L77.1229 118.753C73.7064 118.8 70.3148 118.166 67.1456 116.889C63.9765 115.611 61.0932 113.716 58.6638 111.314C56.2344 108.911 54.3074 106.049 52.9951 102.894C51.6828 99.7395 51.0115 96.3552 51.0203 92.9384C51.029 89.5215 51.7177 86.1406 53.0461 82.9926C54.3745 79.8446 56.3162 76.9925 58.7579 74.6023C61.1996 72.2122 64.0926 70.3319 67.2682 69.071C70.4438 67.8101 73.8387 67.1937 77.2549 67.2579L102.957 67.383L105.736 33.9769C106.325 27.5365 109.295 21.5474 114.065 17.1798C118.834 12.8122 125.061 10.38 131.528 10.3585C132.223 10.3585 132.966 10.3585 133.682 10.4488C137.096 10.7101 140.424 11.6508 143.469 13.2159C146.515 14.781 149.217 16.9389 151.417 19.5627C153.602 22.1283 155.257 25.1025 156.283 28.3127C157.31 31.5229 157.689 34.9051 157.398 38.2629L154.89 67.6747L229.857 68.0707L232.692 33.9699C233.281 27.5296 236.251 21.5404 241.02 17.1728C245.79 12.8052 252.017 10.373 258.484 10.3516C259.179 10.3516 259.922 10.3516 260.638 10.4419C264.025 10.7105 267.325 11.6468 270.348 13.1967C273.372 14.7465 276.059 16.8794 278.254 19.4724C280.456 22.0408 282.124 25.0223 283.16 28.2426C284.197 31.463 284.581 34.8576 284.291 38.2282L281.776 68.3138L306.249 68.4458C309.657 68.4509 313.03 69.132 316.173 70.4496C319.316 71.7672 322.167 73.6951 324.56 76.1218C326.942 78.5122 328.826 81.352 330.102 84.4763C331.378 87.6006 332.021 90.9471 331.993 94.3218C331.929 101.141 329.174 107.659 324.328 112.457C319.481 117.255 312.936 119.945 306.117 119.941C306.038 119.947 305.959 119.947 305.881 119.941L277.455 119.788L272.905 174.145L296.92 174.277C300.336 174.231 303.727 174.866 306.896 176.144C310.065 177.422 312.947 179.318 315.376 181.721C317.805 184.125 319.731 186.987 321.042 190.142C322.353 193.297 323.024 196.682 323.014 200.099C323.004 203.515 322.315 206.896 320.986 210.043C319.656 213.191 317.714 216.043 315.272 218.432C312.83 220.821 309.936 222.701 306.761 223.961C303.585 225.221 300.19 225.837 296.774 225.772L268.584 225.626L265.34 265.083C264.752 271.522 261.782 277.511 257.012 281.876C252.242 286.242 246.014 288.671 239.548 288.687V288.687Z" fill="black"/>
<path d="M258.512 11.4199C259.207 11.4199 259.901 11.4199 260.596 11.5102C263.838 11.7698 266.996 12.6656 269.892 14.1466C272.787 15.6276 275.362 17.6646 277.47 20.1412C279.577 22.6178 281.176 25.4855 282.175 28.5804C283.174 31.6753 283.553 34.9367 283.29 38.1781L280.665 69.396L306.27 69.535C312.821 69.5516 319.098 72.17 323.718 76.8142C328.339 81.4585 330.926 87.7481 330.909 94.2995C330.893 100.851 328.274 107.127 323.63 111.748C318.986 116.369 312.696 118.956 306.145 118.939C306.101 118.946 306.056 118.946 306.013 118.939L276.524 118.779L271.794 175.227L296.94 175.366C300.184 175.375 303.395 176.023 306.388 177.273C309.382 178.523 312.1 180.35 314.387 182.65C316.674 184.951 318.486 187.679 319.719 190.679C320.952 193.68 321.582 196.894 321.573 200.138C321.564 203.382 320.916 206.592 319.666 209.585C318.416 212.579 316.589 215.297 314.289 217.584C311.989 219.872 309.26 221.683 306.26 222.916C303.259 224.149 300.045 224.779 296.802 224.77H296.677L267.654 224.617L264.271 265.019C263.733 271.203 260.895 276.961 256.318 281.154C251.74 285.347 245.756 287.67 239.548 287.664C238.853 287.664 238.159 287.664 237.464 287.581C234.222 287.322 231.063 286.426 228.168 284.945C225.273 283.464 222.698 281.427 220.59 278.95C218.483 276.473 216.884 273.606 215.885 270.511C214.886 267.416 214.507 264.155 214.769 260.913L217.833 224.36L205.961 224.305L140.761 223.957L137.287 265.026C136.75 271.211 133.911 276.97 129.332 281.163C124.752 285.357 118.767 287.679 112.557 287.671C111.863 287.671 111.168 287.671 110.474 287.588C107.232 287.329 104.072 286.434 101.177 284.953C98.2809 283.473 95.7055 281.436 93.5977 278.959C91.4899 276.482 89.8911 273.614 88.8927 270.519C87.8943 267.423 87.5158 264.162 87.7791 260.92L90.8911 223.7L76.7548 223.61L67.7938 223.561C64.5498 223.552 61.3395 222.904 58.346 221.655C55.3525 220.405 52.6345 218.578 50.3471 216.277C48.0598 213.977 46.2479 211.249 45.0149 208.248C43.782 205.248 43.1521 202.034 43.1612 198.79C43.1703 195.546 43.8183 192.336 45.0681 189.342C46.3179 186.349 48.1451 183.631 50.4454 181.343C52.7456 179.056 55.4739 177.244 58.4743 176.011C61.4748 174.778 64.6888 174.148 67.9327 174.157H68.0577L95.0591 174.296L99.7897 117.848L77.13 117.737C73.886 117.729 70.6755 117.082 67.6817 115.833C64.6878 114.584 61.9693 112.758 59.6813 110.458C57.3933 108.158 55.5807 105.431 54.3469 102.431C53.113 99.4304 52.4822 96.2166 52.4904 92.9727C52.4987 89.7288 53.1457 86.5183 54.3947 83.5244C55.6437 80.5306 57.4701 77.8121 59.7697 75.5241C62.0693 73.2361 64.797 71.4234 67.7972 70.1896C70.7973 68.9558 74.0111 68.325 77.255 68.3332H77.387L103.93 68.4652L106.806 34.0935C107.343 27.9029 110.185 22.1396 114.768 17.9435C119.351 13.7475 125.342 11.4244 131.556 11.4338C132.251 11.4338 132.946 11.4338 133.64 11.5241C136.882 11.7828 140.041 12.6781 142.936 14.1588C145.832 15.6396 148.407 17.6767 150.514 20.1537C152.621 22.6306 154.219 25.4987 155.217 28.5939C156.215 31.6892 156.592 34.9507 156.328 38.192L153.772 68.7569L230.83 69.1668L233.768 34.1213C234.306 27.9307 237.147 22.1674 241.731 17.9713C246.314 13.7753 252.305 11.4522 258.519 11.4616M258.519 9.37762C251.799 9.3594 245.314 11.8488 240.333 16.3589C235.33 20.8979 232.236 27.1669 231.677 33.899L228.899 67.0203L156.036 66.6174L158.405 38.3379C158.7 34.8435 158.3 31.3253 157.226 27.9867C156.153 24.6481 154.429 21.5554 152.153 18.8875C149.868 16.1747 147.067 13.9422 143.913 12.3194C140.76 10.6965 137.315 9.71549 133.779 9.43318C133.029 9.37066 132.279 9.33594 131.536 9.33594C124.814 9.3345 118.334 11.8413 113.363 16.3659C108.356 20.9025 105.26 27.1723 104.701 33.906L101.985 66.3534L77.3731 66.2354H77.2272C73.6735 66.1697 70.1422 66.8117 66.839 68.1241C63.5359 69.4365 60.5269 71.393 57.9872 73.8796C55.4476 76.3663 53.4281 79.3334 52.0464 82.6082C50.6647 85.883 49.9483 89.3999 49.9391 92.9542C49.9299 96.5086 50.628 100.029 51.9927 103.311C53.3574 106.593 55.3615 109.571 57.8882 112.07C60.4149 114.57 63.4137 116.542 66.71 117.872C70.0064 119.201 73.5343 119.862 77.0883 119.814L97.4904 119.919L93.1418 172.205L68.0647 172.08H67.9327C60.8378 172.08 54.0293 174.879 48.9865 179.87C43.9437 184.861 41.074 191.64 41.0008 198.734C40.9733 202.258 41.6483 205.752 42.9866 209.012C44.3248 212.271 46.2994 215.232 48.7949 217.719C51.2807 220.23 54.2385 222.223 57.4979 223.586C60.7573 224.949 64.254 225.653 67.7868 225.659L76.7409 225.708L88.6474 225.777L85.7229 260.74C85.4368 264.255 85.8465 267.792 86.9286 271.149C88.0107 274.506 89.7438 277.616 92.029 280.303C94.3142 282.989 97.1066 285.199 100.246 286.805C103.386 288.412 106.812 289.384 110.328 289.665C111.099 289.728 111.835 289.755 112.592 289.755C119.324 289.765 125.815 287.246 130.779 282.699C135.743 278.152 138.819 271.906 139.399 265.199L142.685 226.055L205.947 226.389L215.547 226.444L212.672 260.74C212.385 264.255 212.795 267.792 213.877 271.149C214.959 274.506 216.693 277.616 218.978 280.303C221.263 282.989 224.055 285.199 227.195 286.805C230.335 288.412 233.761 289.384 237.276 289.665C238.047 289.728 238.805 289.755 239.548 289.755C246.279 289.761 252.768 287.242 257.731 282.695C262.695 278.149 265.772 271.905 266.355 265.199L269.571 226.722L296.663 226.861H296.795C303.889 226.865 310.699 224.068 315.742 219.078C320.786 214.088 323.655 207.308 323.726 200.214C323.737 196.687 323.053 193.192 321.713 189.93C320.373 186.667 318.404 183.701 315.917 181.2C313.43 178.699 310.475 176.712 307.22 175.354C303.965 173.995 300.474 173.291 296.947 173.282L274.024 173.15L278.4 120.884L305.797 121.03C305.899 121.035 306.001 121.035 306.103 121.03C313.198 121.032 320.007 118.233 325.049 113.242C330.091 108.251 332.958 101.47 333.028 94.3759C333.038 90.8484 332.353 87.3534 331.012 84.0908C329.67 80.8282 327.699 77.8619 325.211 75.3614C322.723 72.8609 319.766 70.8753 316.51 69.518C313.254 68.1606 309.763 67.4583 306.235 67.451L282.895 67.319L285.319 38.3657C285.625 34.8577 285.23 31.3239 284.157 27.9702C283.084 24.6165 281.353 21.51 279.067 18.8319C276.782 16.1367 273.986 13.9196 270.841 12.3078C267.697 10.6961 264.264 9.72156 260.742 9.44013C259.999 9.37761 259.241 9.34287 258.498 9.34287L258.519 9.37762Z" fill="black"/>
<path d="M242.66 283.351C241.965 283.351 241.222 283.351 240.492 283.268C233.693 282.691 227.4 279.443 222.991 274.234C218.582 269.026 216.417 262.283 216.971 255.481L219.924 220.054L145.387 219.658L142.045 259.733C141.48 266.154 138.539 272.133 133.799 276.501C129.058 280.87 122.859 283.312 116.413 283.351C115.718 283.351 114.982 283.351 114.252 283.268C107.452 282.693 101.158 279.445 96.7485 274.236C92.3393 269.028 90.1754 262.283 90.7311 255.481L93.732 219.359L71.8642 219.241C65.0377 219.204 58.5052 216.458 53.7035 211.605C48.9018 206.753 46.224 200.192 46.2591 193.365C46.3122 186.566 49.0457 180.062 53.8659 175.267C58.6861 170.471 65.2038 167.771 72.0031 167.753L98.025 167.885L102.554 113.521L81.1448 113.417C77.7641 113.408 74.4181 112.734 71.2981 111.432C68.178 110.13 65.3448 108.227 62.9604 105.83C58.1448 100.99 55.4493 94.4347 55.4668 87.6069C55.4843 80.7792 58.2134 74.2381 63.0537 69.4225C67.894 64.6069 74.4491 61.9114 81.2768 61.9289L106.847 62.054L109.626 28.6479C110.191 22.2242 113.134 16.2428 117.878 11.8745C122.621 7.50612 128.824 5.06521 135.273 5.02951C135.967 5.02951 136.704 5.02951 137.412 5.11982C144.215 5.68768 150.514 8.93353 154.925 14.1439C159.335 19.3543 161.496 26.1029 160.933 32.9061L158.481 62.3179L233.018 62.7139L235.866 28.634C236.432 22.2103 239.374 16.2289 244.118 11.8606C248.861 7.49221 255.064 5.05132 261.513 5.01562C262.207 5.01562 262.944 5.01563 263.652 5.10593C270.453 5.68097 276.748 8.92856 281.158 14.137C285.569 19.3455 287.734 26.0899 287.18 32.8922L284.673 62.9779L308.986 63.1099C312.366 63.1185 315.712 63.793 318.832 65.0947C321.953 66.3965 324.786 68.3001 327.17 70.6968C329.555 73.0934 331.444 75.9363 332.729 79.063C334.015 82.1898 334.672 85.5391 334.664 88.9199C334.655 92.3006 333.981 95.6466 332.679 98.7666C331.377 101.887 329.473 104.72 327.077 107.104C324.68 109.489 321.837 111.378 318.71 112.663C315.584 113.949 312.234 114.607 308.854 114.598C308.775 114.604 308.696 114.604 308.617 114.598L280.359 114.445L275.83 168.809L299.712 168.941C306.54 168.96 313.08 171.691 317.894 176.533C322.709 181.374 325.402 187.93 325.383 194.758C325.364 201.586 322.633 208.126 317.791 212.94C312.95 217.755 306.394 220.448 299.566 220.429L271.592 220.276L268.286 259.733C267.722 266.153 264.783 272.133 260.043 276.501C255.304 280.869 249.105 283.312 242.66 283.351V283.351Z" fill="url(#paint0_linear_221_45)"/>
<path d="M261.52 6.0562C262.215 6.0562 262.909 6.0562 263.604 6.13956C270.134 6.68264 276.181 9.79724 280.415 14.7983C284.648 19.7994 286.722 26.2774 286.18 32.8075L283.582 64.0184L309.041 64.1574C315.593 64.1739 321.869 66.7924 326.49 71.4366C331.111 76.0809 333.697 82.3705 333.681 88.9219C333.664 95.4733 331.046 101.75 326.402 106.371C321.757 110.991 315.468 113.578 308.916 113.561C308.873 113.569 308.828 113.569 308.784 113.561L279.463 113.402L274.76 169.85L299.768 169.988C306.319 170.007 312.595 172.627 317.214 177.273C321.834 181.918 324.419 188.209 324.4 194.76C324.382 201.311 321.762 207.587 317.116 212.207C312.471 216.826 306.18 219.411 299.629 219.393H299.504L270.641 219.24L267.279 259.641C266.763 265.809 263.951 271.56 259.398 275.753C254.846 279.947 248.884 282.279 242.695 282.287C242.005 282.287 241.31 282.259 240.611 282.203C234.082 281.659 228.037 278.543 223.804 273.542C219.572 268.542 217.499 262.065 218.041 255.536L221.091 218.983L209.282 218.92L144.449 218.573L140.997 259.627C140.48 265.796 137.666 271.546 133.112 275.74C128.559 279.933 122.596 282.265 116.406 282.273C115.711 282.273 115.017 282.273 114.322 282.19C107.793 281.645 101.748 278.529 97.5157 273.529C93.2834 268.528 91.2104 262.051 91.7525 255.522L94.8506 218.302L80.763 218.225L71.8575 218.177C65.3061 218.159 59.03 215.54 54.4098 210.895C49.7897 206.25 47.2039 199.96 47.2214 193.409C47.2389 186.857 49.8582 180.581 54.5032 175.961C59.1481 171.341 65.4381 168.755 71.9895 168.773H72.1145L98.97 168.912L103.687 112.464L81.152 112.353C74.6006 112.336 68.3241 109.718 63.7033 105.073C59.0825 100.429 56.4959 94.1396 56.5125 87.5882C56.5291 81.0368 59.1475 74.7603 63.7917 70.1395C68.436 65.5187 74.7256 62.9321 81.277 62.9487H81.409L107.806 63.0806L110.668 28.709C111.187 22.5364 114.004 16.7834 118.561 12.5884C123.119 8.39348 129.085 6.0623 135.28 6.0562C135.974 6.0562 136.669 6.0562 137.364 6.13956C143.892 6.68433 149.936 9.79993 154.168 14.801C158.399 19.8022 160.47 26.2792 159.926 32.8075L157.384 63.3724L234.011 63.7823L236.936 28.7368C237.453 22.5636 240.269 16.8096 244.828 12.6144C249.386 8.41911 255.353 6.08847 261.548 6.08397M261.548 4C254.829 4.00122 248.357 6.52713 243.413 11.0768C238.47 15.6266 235.416 21.8678 234.859 28.5631L232.08 61.6913L159.634 61.3023L161.989 33.0089C162.578 25.9309 160.331 18.909 155.743 13.4873C151.155 8.06564 144.601 4.68806 137.523 4.09726C136.78 4.03474 136.03 4.00695 135.294 4.00695C128.576 4.01137 122.105 6.53836 117.162 11.0874C112.22 15.6365 109.166 21.876 108.605 28.5701L105.903 61.0245L81.4368 60.8994H81.2562C77.7386 60.8903 74.2537 61.5741 71.0003 62.9118C67.747 64.2495 64.789 66.2149 62.2953 68.6957C57.2589 73.7061 54.4191 80.5119 54.4007 87.616C54.3823 94.7201 57.1867 101.54 62.197 106.577C67.2074 111.613 74.0132 114.453 81.1172 114.471L101.401 114.548L97.0458 166.828L72.1214 166.696H71.9825C64.8784 166.677 58.058 169.482 53.0216 174.492C47.9852 179.502 45.1455 186.308 45.127 193.412C45.1086 200.516 47.913 207.337 52.9234 212.373C57.9337 217.41 64.7395 220.249 71.8436 220.268L80.7421 220.316L92.5513 220.379L89.6407 255.355C89.0544 262.434 91.3027 269.457 95.8916 274.88C100.481 280.302 107.035 283.681 114.113 284.274C114.878 284.336 115.614 284.364 116.364 284.364C123.087 284.368 129.566 281.845 134.515 277.295C139.464 272.745 142.521 266.5 143.081 259.801L146.346 220.657L209.247 220.99L218.791 221.039L215.929 255.348C215.351 262.426 217.602 269.444 222.189 274.865C226.777 280.286 233.326 283.667 240.402 284.267C241.166 284.329 241.924 284.357 242.66 284.357C249.372 284.347 255.836 281.819 260.773 277.271C265.71 272.724 268.761 266.489 269.321 259.801L272.523 221.324L299.455 221.463H299.594C306.698 221.483 313.519 218.68 318.557 213.671C323.595 208.662 326.436 201.857 326.456 194.753C326.477 187.649 323.674 180.828 318.665 175.79C313.656 170.752 306.851 167.911 299.747 167.891L276.99 167.766L281.318 115.486L308.548 115.631C308.65 115.637 308.752 115.637 308.854 115.631C315.958 115.649 322.778 112.844 327.814 107.833C332.849 102.822 335.688 96.0156 335.706 88.9115C335.723 81.8074 332.918 74.9873 327.907 69.9516C322.896 64.9159 316.09 62.077 308.986 62.0595L285.784 61.9345L288.195 32.9672C288.76 25.9019 286.507 18.8998 281.927 13.4904C277.346 8.08112 270.812 4.70417 263.75 4.09726C263.006 4.03474 262.256 4.00695 261.52 4.00695L261.548 4Z" fill="black"/>
<path d="M129.687 74.9351C130.186 74.4362 130.863 74.1559 131.568 74.1559C132.274 74.1559 132.951 74.4362 133.45 74.9351L138.214 79.6997L134.452 83.4623L129.687 78.6977C129.188 78.1987 128.908 77.522 128.908 76.8164C128.908 76.1108 129.188 75.4341 129.687 74.9351V74.9351Z" fill="#5FC26E" stroke="black" stroke-width="2" stroke-miterlimit="10"/>
<path d="M179.786 84.9058L131.806 110.949C127.506 96.2427 124.713 84.0653 142.559 76.2643C154.57 71.0196 168.088 74.5346 179.786 84.9058Z" fill="#5FC26E" stroke="black" stroke-width="2" stroke-miterlimit="10"/>
<path d="M611.259 180.043C611.262 196.553 608.012 212.901 601.694 228.154C595.376 243.407 586.113 257.265 574.436 268.936C562.76 280.607 548.897 289.862 533.641 296.173C518.385 302.483 502.035 305.725 485.525 305.714C472.497 305.717 459.546 303.706 447.132 299.753C428.072 293.674 410.749 283.112 396.616 268.952L296.134 168.463C280.872 153.219 261.01 143.433 239.624 140.619C218.237 137.804 196.52 142.119 177.834 152.896H134.07C135.335 151.506 136.641 150.117 137.974 148.818C149.638 137.119 163.497 127.837 178.754 121.504C194.012 115.17 210.37 111.91 226.89 111.91C243.411 111.91 259.769 115.17 275.026 121.504C290.284 127.837 304.143 137.119 315.807 148.818L416.261 249.307C431.634 264.636 451.661 274.427 473.199 277.144C494.738 279.861 516.569 275.35 535.267 264.319C553.964 253.288 568.471 236.361 576.509 216.195C584.547 196.029 585.662 173.764 579.679 152.896H608.334C610.283 161.813 611.264 170.915 611.259 180.043Z" fill="#76E297" stroke="black" stroke-width="3" stroke-miterlimit="10"/>
<mask id="mask0_221_45" style="mask-type:alpha" maskUnits="userSpaceOnUse" x="47" y="5" width="290" height="279">
<path d="M244.334 283.351C243.639 283.351 242.896 283.351 242.166 283.268C235.367 282.691 229.073 279.443 224.665 274.234C220.256 269.026 218.091 262.283 218.645 255.481L221.597 220.054L147.061 219.658L143.719 259.733C143.154 266.154 140.213 272.133 135.473 276.501C130.732 280.87 124.532 283.312 118.086 283.351C117.392 283.351 116.655 283.351 115.926 283.268C109.126 282.693 102.831 279.445 98.4223 274.236C94.0132 269.028 91.8492 262.283 92.405 255.481L95.4059 219.359L73.5381 219.241C66.7115 219.204 60.179 216.458 55.3773 211.605C50.5756 206.753 47.8979 200.192 47.933 193.365C47.986 186.566 50.7195 180.062 55.5397 175.267C60.36 170.471 66.8776 167.771 73.677 167.753L99.6989 167.885L104.228 113.521L82.8187 113.417C79.4379 113.408 76.092 112.734 72.9719 111.432C69.8518 110.13 67.0187 108.227 64.6342 105.83C59.8187 100.99 57.1231 94.4347 57.1406 87.6069C57.1582 80.7792 59.8872 74.2381 64.7276 69.4225C69.5679 64.6069 76.1229 61.9114 82.9507 61.9289L108.521 62.054L111.3 28.6479C111.865 22.2242 114.808 16.2428 119.551 11.8745C124.295 7.50612 130.498 5.06521 136.946 5.02951C137.641 5.02951 138.377 5.02951 139.086 5.11982C145.889 5.68768 152.188 8.93353 156.598 14.1439C161.009 19.3543 163.17 26.1029 162.607 32.9061L160.155 62.3179L234.692 62.7139L237.54 28.634C238.105 22.2103 241.048 16.2289 245.792 11.8606C250.535 7.49221 256.738 5.05132 263.187 5.01562C263.881 5.01562 264.618 5.01563 265.326 5.10593C272.127 5.68097 278.422 8.92856 282.832 14.137C287.242 19.3455 289.408 26.0899 288.854 32.8922L286.346 62.9779L310.659 63.1099C314.04 63.1185 317.386 63.793 320.506 65.0947C323.626 66.3965 326.459 68.3001 328.844 70.6968C331.228 73.0934 333.117 75.9363 334.403 79.063C335.689 82.1898 336.346 85.5391 336.337 88.9199C336.329 92.3006 335.654 95.6466 334.353 98.7666C333.051 101.887 331.147 104.72 328.751 107.104C326.354 109.489 323.511 111.378 320.384 112.663C317.258 113.949 313.908 114.607 310.527 114.598C310.449 114.604 310.37 114.604 310.291 114.598L282.033 114.445L277.503 168.809L301.386 168.941C308.214 168.96 314.754 171.691 319.568 176.533C324.382 181.374 327.076 187.93 327.057 194.758C327.038 201.586 324.307 208.126 319.465 212.94C314.623 217.755 308.068 220.448 301.24 220.429L273.266 220.276L269.959 259.733C269.396 266.153 266.457 272.133 261.717 276.501C256.978 280.869 250.779 283.312 244.334 283.351V283.351Z" fill="url(#paint1_linear_221_45)"/>
</mask>
<g mask="url(#mask0_221_45)">
<path d="M208.538 177.006C207.844 185.439 207.253 192.858 206.718 199.374L189.699 276.828L182.843 291.256C181.766 304.149 163.629 305.205 150.889 305.205C150.194 305.205 125.096 309.755 124.401 309.699C110.807 308.567 75.032 310.053 76.1643 296.459L30.2266 217.268C30.2266 217.268 114.002 204.966 136.148 146.413C140.059 136.07 135.912 125.212 133.175 115.737C132.709 114.118 132.237 112.528 131.786 110.965L179.766 84.9219C181.009 86.0264 182.239 87.2073 183.426 88.4646C199.938 105.727 211.768 137.23 208.538 177.006Z" fill="#F7EE52" stroke="black" stroke-width="2" stroke-miterlimit="10"/>
</g>
<path d="M458.267 180.046C458.27 196.556 455.02 212.904 448.702 228.157C442.384 243.41 433.121 257.268 421.445 268.939C409.768 280.61 395.905 289.865 380.649 296.176C365.393 302.486 349.043 305.728 332.533 305.717C319.505 305.72 306.554 303.709 294.14 299.756C275.08 293.677 257.757 283.115 243.624 268.955C243.624 268.955 194.352 219.69 164.614 189.945C156.472 181.803 162.238 167.883 173.756 167.883C178.935 167.882 183.904 169.935 187.572 173.593L263.29 249.31C276.976 263.041 294.431 272.398 313.442 276.196C332.453 279.994 352.163 278.061 370.074 270.642C387.985 263.224 403.289 250.654 414.047 234.526C424.805 218.398 430.532 199.439 430.501 180.053C430.48 170.731 458.267 170.814 458.267 180.046Z" fill="#4BD178" stroke="black" stroke-width="3" stroke-miterlimit="10"/>
<path d="M203.578 77.5229L183.433 88.4498L133.188 115.722C132.723 114.104 132.25 112.513 131.799 110.95L179.779 84.907L201.258 73.2507C201.539 73.0824 201.852 72.9728 202.177 72.9285C202.502 72.8842 202.832 72.9061 203.149 72.993C203.465 73.0798 203.76 73.2297 204.017 73.4336C204.274 73.6376 204.487 73.8915 204.643 74.1799C204.799 74.4683 204.896 74.7854 204.926 75.1119C204.956 75.4385 204.92 75.7678 204.82 76.0802C204.72 76.3925 204.558 76.6813 204.343 76.9292C204.128 77.1772 203.866 77.3791 203.571 77.5229H203.578Z" fill="#5FC26E" stroke="black" stroke-width="2" stroke-miterlimit="10"/>
<path d="M188.059 135.991C186.673 135.585 185.448 134.758 184.554 133.624C183.66 132.489 183.142 131.105 183.071 129.662C182.835 124.8 181.231 118.93 180.015 117.103C179.029 115.572 178.683 113.714 179.053 111.931C179.423 110.147 180.478 108.581 181.992 107.568C183.506 106.555 185.357 106.177 187.146 106.516C188.936 106.854 190.521 107.882 191.56 109.378C195.068 114.616 196.708 123.966 196.951 128.982C196.996 129.893 196.86 130.804 196.553 131.663C196.246 132.523 195.772 133.313 195.159 133.989C194.546 134.665 193.806 135.213 192.981 135.603C192.157 135.993 191.263 136.217 190.351 136.262C189.577 136.303 188.802 136.211 188.059 135.991V135.991Z" fill="white" stroke="black" stroke-width="2" stroke-miterlimit="10"/>
<path d="M170.025 141.7C168.641 141.295 167.418 140.47 166.524 139.338C165.63 138.207 165.111 136.825 165.038 135.385C164.801 130.523 163.197 124.646 161.981 122.826C161.008 121.296 160.672 119.446 161.045 117.671C161.418 115.896 162.47 114.338 163.976 113.328C165.483 112.319 167.324 111.938 169.107 112.268C170.891 112.598 172.474 113.613 173.519 115.095C176.993 120.332 178.667 129.682 178.91 134.705C178.964 135.811 178.753 136.914 178.295 137.922C177.836 138.93 177.143 139.813 176.274 140.499C175.405 141.185 174.384 141.653 173.297 141.864C172.21 142.076 171.088 142.024 170.025 141.714V141.7Z" fill="white" stroke="black" stroke-width="2" stroke-miterlimit="10"/>
<path d="M189.754 112.906C190.607 114.267 191.15 115.799 191.345 117.394" stroke="black" stroke-width="5.73" stroke-miterlimit="10" stroke-linecap="round"/>
<path d="M171.318 119.602C172.172 120.963 172.718 122.494 172.916 124.089" stroke="black" stroke-width="5.73" stroke-miterlimit="10" stroke-linecap="round"/>
<path d="M259.22 60.4992C261.645 60.4992 263.611 58.5337 263.611 56.109C263.611 53.6843 261.645 51.7188 259.22 51.7188C256.796 51.7188 254.83 53.6843 254.83 56.109C254.83 58.5337 256.796 60.4992 259.22 60.4992Z" stroke="black" stroke-width="2" stroke-miterlimit="10"/>
<path d="M262.77 77.3203V87.9625" stroke="black" stroke-width="2" stroke-miterlimit="10" stroke-linecap="round"/>
<path d="M257.448 82.6445H268.09" stroke="black" stroke-width="2" stroke-miterlimit="10" stroke-linecap="round"/>
<path d="M306.609 42.1002C304.769 42.1002 302.946 42.4629 301.246 43.1674C299.546 43.872 298.001 44.9047 296.7 46.2065C295.398 47.5083 294.367 49.0537 293.663 50.7544C292.959 52.4551 292.597 54.2779 292.598 56.1184C292.599 54.2773 292.237 52.454 291.533 50.7528C290.829 49.0516 289.796 47.5059 288.494 46.204C287.193 44.9021 285.647 43.8696 283.946 43.1654C282.244 42.4613 280.421 42.0993 278.58 42.1002C280.421 42.1011 282.244 41.7392 283.946 41.035C285.647 40.3309 287.193 39.2983 288.494 37.9964C289.796 36.6945 290.829 35.1488 291.533 33.4477C292.237 31.7465 292.599 29.9232 292.598 28.082C292.597 29.9226 292.959 31.7453 293.663 33.446C294.367 35.1468 295.398 36.6922 296.7 37.994C298.001 39.2958 299.546 40.3285 301.246 41.033C302.946 41.7376 304.769 42.1002 306.609 42.1002V42.1002Z" fill="white" stroke="black" stroke-width="2" stroke-miterlimit="10"/>
<path d="M693.138 241.561C695.271 241.561 697 239.831 697 237.698C697 235.565 695.271 233.836 693.138 233.836C691.005 233.836 689.275 235.565 689.275 237.698C689.275 239.831 691.005 241.561 693.138 241.561Z" stroke="#76E297" stroke-width="2" stroke-miterlimit="10"/>
<path d="M660.864 208.863V222.604" stroke="#76E297" stroke-width="3" stroke-miterlimit="10"/>
<path d="M653.986 215.73H667.734" stroke="#76E297" stroke-width="3" stroke-miterlimit="10"/>
<path d="M666.678 252.002C663.914 252.002 661.264 253.1 659.31 255.054C657.356 257.008 656.258 259.658 656.258 262.422C656.258 259.658 655.16 257.008 653.206 255.054C651.252 253.1 648.601 252.002 645.838 252.002C648.601 252.002 651.252 250.904 653.206 248.95C655.16 246.996 656.258 244.346 656.258 241.582C656.258 244.346 657.356 246.996 659.31 248.95C661.264 250.904 663.914 252.002 666.678 252.002Z" stroke="#76E297" stroke-width="3" stroke-miterlimit="10"/>
<path d="M664.24 149.066C664.294 150.525 663.809 151.953 662.878 153.078C661.947 154.203 660.634 154.946 659.19 155.165C659.073 155.186 658.953 155.186 658.836 155.165C658.988 154.481 659.044 153.78 659.002 153.081C657.96 153.373 657.898 154.963 658.836 155.165C658.69 155.816 658.456 156.445 658.141 157.034C656.592 159.896 653.563 161.729 650.625 162.869C647.686 164.008 644.373 164.487 641.164 164.953C637.954 165.418 634.544 165.884 631.438 167.037C627.868 168.363 624.756 170.691 621.31 172.295C619.355 173.205 617.335 173.969 615.267 174.581C615.136 174.401 614.953 174.265 614.743 174.191C614.532 174.117 614.305 174.109 614.09 174.168C613.875 174.227 613.683 174.35 613.54 174.52C613.396 174.691 613.308 174.901 613.287 175.122C613.982 174.956 614.607 174.782 615.267 174.581C615.378 174.751 615.432 174.954 615.42 175.157C615.329 178.783 613.259 181.875 610.397 183.972C607.535 186.07 603.812 186.918 600.234 187.036C596.413 187.141 592.593 186.805 588.849 186.036C585.515 185.341 582.236 183.952 580.173 181.173C578.339 178.686 577.707 175.317 579.214 172.524C579.277 172.409 579.359 172.306 579.457 172.219C578.917 171.333 578.453 170.404 578.068 169.44C577.226 167.476 576.877 165.335 577.053 163.205C577.229 161.076 577.923 159.021 579.075 157.221C578.119 154.282 578.051 151.126 578.881 148.149C579.9 144.797 581.948 141.851 584.737 139.73C587.147 137.771 589.849 136.159 592.093 133.999C594.394 131.669 595.93 128.693 596.497 125.468C597.192 122.162 597.324 118.779 597.886 115.458C598.401 112.548 599.644 109.54 602.575 108.345C605.507 107.15 609.029 108.012 611.738 109.463C614.399 110.879 616.566 113.072 617.948 115.75C620.317 120.46 618.865 126.205 615.454 130.074C616.149 130.011 617.538 129.949 618.184 129.893C626.112 129.216 634.076 129.056 642.025 129.414C645.45 129.56 649.069 129.789 652.104 131.54C653.432 132.247 654.562 133.274 655.392 134.528C656.221 135.782 656.725 137.224 656.856 138.722C656.872 138.915 656.831 139.108 656.738 139.278C656.061 138.921 655.365 138.601 654.654 138.32C654.675 138.453 654.689 138.587 654.696 138.722C654.712 138.952 654.799 139.171 654.945 139.349C655.09 139.526 655.288 139.655 655.51 139.716C655.731 139.777 655.967 139.767 656.183 139.689C656.399 139.611 656.586 139.467 656.717 139.278C657.619 139.762 658.481 140.317 659.294 140.938C661.885 142.849 664.178 145.704 664.24 149.066Z" fill="white"/>
<path d="M580.395 157.797C579.276 155.081 579.055 152.077 579.763 149.225C580.487 146.404 582.052 143.87 584.251 141.959C588.537 138.097 593.976 135.659 596.49 130.15C597.654 127.294 598.387 124.281 598.665 121.21C599.033 118.313 599.095 115.194 600.165 112.443C602.652 106.025 610.898 109.519 614.239 113.214C615.277 114.345 616.079 115.671 616.597 117.116C617.114 118.561 617.338 120.094 617.254 121.627C617.176 123.138 616.782 124.616 616.096 125.964C615.411 127.313 614.449 128.503 613.273 129.455C613.04 129.6 612.872 129.828 612.802 130.093C612.732 130.358 612.766 130.639 612.898 130.88C613.038 131.107 613.26 131.273 613.518 131.343C613.777 131.413 614.052 131.381 614.288 131.255C616.688 129.351 618.354 126.674 619.003 123.68C619.651 120.686 619.242 117.559 617.844 114.833C616.416 112.13 614.205 109.919 611.502 108.491C608.723 107.004 605.118 106.115 602.082 107.4C599.047 108.685 597.852 111.888 597.345 114.916C596.789 118.265 596.65 121.668 595.956 124.989C595.367 128.293 593.784 131.339 591.419 133.721C589.155 135.888 586.439 137.52 584 139.479C581.113 141.661 578.986 144.697 577.922 148.156C576.928 151.697 577.173 155.471 578.617 158.853C578.757 159.09 578.986 159.263 579.252 159.333C579.518 159.403 579.802 159.366 580.041 159.228C580.274 159.083 580.443 158.854 580.513 158.588C580.583 158.321 580.548 158.039 580.416 157.797H580.395Z" fill="black"/>
<path d="M605.194 133.18C612.642 132.019 620.153 131.305 627.687 131.04C631.443 130.91 635.203 130.892 638.968 130.985C642.441 131.075 646.116 130.985 649.478 131.985C652.465 132.853 655.557 135.111 655.73 138.48C655.807 139.869 658.009 139.869 657.932 138.48C657.759 135.298 655.709 132.631 653.007 131.082C649.854 129.276 646.061 129.067 642.546 128.908C634.462 128.554 626.364 128.719 618.302 129.401C613.717 129.79 609.147 130.352 604.603 131.061C603.214 131.276 603.805 133.402 605.187 133.18H605.194Z" fill="black"/>
<path d="M623.061 137.289C623.637 139.365 623.677 141.553 623.178 143.648C622.679 145.744 621.656 147.679 620.206 149.272C619.296 150.251 620.769 151.731 621.679 150.744C623.384 148.887 624.59 146.627 625.184 144.177C625.779 141.726 625.741 139.165 625.075 136.733C624.984 136.487 624.803 136.285 624.57 136.166C624.336 136.046 624.067 136.019 623.814 136.089C623.561 136.158 623.344 136.32 623.204 136.542C623.065 136.764 623.014 137.031 623.061 137.289Z" fill="black"/>
<path d="M626.7 139.552C630.015 138.704 633.421 138.26 636.842 138.233C640.281 138.047 643.729 138.071 647.165 138.302C652.84 138.788 659.669 140.858 662.559 146.256C662.937 146.9 663.184 147.613 663.285 148.354C663.386 149.094 663.34 149.847 663.149 150.57C662.97 151.235 662.611 151.837 662.11 152.31C661.61 152.784 660.989 153.109 660.315 153.251C659.002 153.411 658.988 155.495 660.315 155.335C661.779 155.11 663.109 154.355 664.054 153.214C664.999 152.074 665.493 150.626 665.441 149.146C665.4 145.749 663.072 142.831 660.502 140.81C654.542 136.19 646.713 135.878 639.489 136.044C635.015 136.156 630.458 136.281 626.151 137.517C625.898 137.601 625.686 137.778 625.56 138.014C625.433 138.249 625.402 138.524 625.472 138.782C625.543 139.039 625.71 139.26 625.938 139.398C626.167 139.536 626.439 139.582 626.7 139.525V139.552Z" fill="black"/>
<path d="M625.186 152.379C631.024 148.464 637.865 146.308 644.893 146.169C648.234 146.113 651.84 146.37 654.736 148.253C657.286 149.927 658.904 153.248 657.369 156.13C655.931 158.867 652.875 160.541 650.047 161.507C647.1 162.398 644.077 163.017 641.017 163.355C637.883 163.7 634.788 164.335 631.771 165.251C628.43 166.39 625.519 168.342 622.407 170.003C615.21 173.835 607.06 175.508 598.935 174.824C597.545 174.706 597.545 176.908 598.935 177.019C606.669 177.645 614.432 176.239 621.455 172.941C624.929 171.302 628.103 168.947 631.729 167.599C634.939 166.404 638.363 165.939 641.739 165.453C644.976 164.994 648.269 164.529 651.346 163.369C654.424 162.209 657.654 160.264 659.245 157.242C660.898 154.109 660.085 150.552 657.758 147.996C655.313 145.315 651.624 144.363 648.13 144.078C639.615 143.483 631.144 145.738 624.053 150.49C622.886 151.275 623.984 153.185 625.165 152.393L625.186 152.379Z" fill="black"/>
<path d="M604.958 147.467C597.607 146.293 590.082 147.882 583.833 151.927C581.006 153.802 578.429 156.268 577.06 159.429C575.667 162.845 575.667 166.67 577.06 170.085C578.561 173.934 581.339 177.032 584.521 179.623C585.556 180.456 587.043 178.991 585.994 178.15C581.02 174.142 576.407 167.834 578.623 161.11C580.603 155.108 587.487 151.524 593.211 150.044C596.865 149.099 600.672 148.907 604.402 149.482C605.715 149.683 606.278 147.676 604.958 147.467Z" fill="black"/>
<path d="M613.19 175.92C613.105 177.266 612.73 178.577 612.093 179.765C611.455 180.953 610.569 181.99 609.494 182.804C607.056 184.812 603.937 185.687 600.825 185.923C597.378 186.102 593.922 185.911 590.516 185.354C587.557 184.93 584.264 184.221 581.993 182.131C579.909 180.22 578.52 176.962 579.999 174.295C580.638 173.114 578.839 172.058 578.2 173.239C576.665 176.066 577.29 179.491 579.138 182.019C581.222 184.902 584.57 186.326 587.981 187.021C591.786 187.807 595.669 188.159 599.554 188.07C603.242 187.966 607.028 187.181 610.064 184.979C613.1 182.777 615.177 179.658 615.274 175.948C615.309 174.607 613.225 174.607 613.19 175.948V175.92Z" fill="black"/>
<path d="M465.908 181.233C466.519 183.108 465.713 185.22 464.338 186.63C462.879 187.965 461.139 188.955 459.246 189.527C452.609 191.873 445.52 192.656 438.531 191.812C434.641 191.347 430.675 190.326 427.639 187.853C421.922 183.192 421.054 174.8 421.714 167.444C422.318 160.636 423.888 153.808 427.271 147.854C430.654 141.901 435.927 136.872 442.422 134.732C445.138 133.892 447.957 133.425 450.799 133.343C458.51 132.991 466.199 134.417 473.271 137.511C475.983 132.905 479.88 129.111 484.557 126.524C489.235 123.937 494.52 122.653 499.863 122.805C502.12 122.902 504.461 123.298 506.295 124.618C508.129 125.938 509.303 128.397 508.553 130.53C508.046 131.703 507.256 132.731 506.254 133.524C503.74 135.796 501.008 137.816 498.098 139.553C494.854 141.519 491.187 143.325 489.443 146.694L501.12 142.804C503.76 141.922 506.476 141.033 509.255 141.158C513.388 141.345 517.417 144.117 518.632 148.104C519.848 152.092 517.785 156.815 513.902 158.309C515.527 163.172 513.86 168.812 510.463 172.688C507.066 176.565 502.127 178.892 497.14 180.052C492.152 181.212 486.907 181.33 481.753 181.441L466.7 181.74" fill="white"/>
<path d="M464.901 181.476C465.512 183.56 464.206 185.589 462.525 186.769C460.677 187.917 458.658 188.763 456.544 189.277C451.935 190.618 447.141 191.209 442.345 191.028C437.997 190.875 433.315 190.278 429.557 187.916C426.382 185.915 424.437 182.643 423.478 179.08C422.569 175.347 422.317 171.485 422.735 167.666C423.078 163.013 424.029 158.424 425.562 154.016C428.299 146.375 433.704 139.227 441.428 136.15C446.333 134.205 451.848 134.024 457.093 134.434C462.482 134.871 467.763 136.192 472.723 138.345C472.964 138.477 473.247 138.512 473.513 138.442C473.779 138.372 474.008 138.203 474.154 137.97C476.337 134.279 479.311 131.118 482.863 128.716C486.416 126.313 490.456 124.729 494.695 124.077C496.763 123.758 498.862 123.692 500.947 123.882C503.162 124.091 505.622 124.792 506.914 126.751C507.433 127.491 507.705 128.376 507.692 129.28C507.537 130.418 506.956 131.456 506.066 132.183C504.181 134.006 502.135 135.655 499.953 137.108C495.987 139.804 490.923 141.721 488.519 146.139C488.419 146.318 488.374 146.522 488.389 146.727C488.404 146.931 488.478 147.127 488.603 147.29C488.728 147.452 488.898 147.575 489.091 147.642C489.285 147.709 489.494 147.718 489.693 147.667L499.418 144.423C502.468 143.409 505.635 142.096 508.9 142.152C513.763 142.242 518.535 146.32 517.834 151.446C517.692 152.701 517.228 153.898 516.485 154.92C515.742 155.942 514.747 156.753 513.596 157.274C513.339 157.361 513.124 157.541 512.995 157.78C512.866 158.018 512.833 158.297 512.902 158.559C513.903 161.918 513.552 165.536 511.922 168.639C510.266 171.772 507.727 174.351 504.621 176.058C497.605 180.094 489.276 180.226 481.413 180.372L466.7 180.663C465.359 180.663 465.352 182.747 466.7 182.747L480.725 182.47C485.219 182.482 489.708 182.206 494.167 181.643C501.725 180.511 509.727 177.114 513.513 170.056C514.535 168.241 515.184 166.24 515.423 164.17C515.661 162.1 515.484 160.004 514.902 158.004L514.173 159.289C519.473 157.205 521.557 150.46 518.674 145.604C517.151 143.135 514.76 141.324 511.971 140.526C508.546 139.533 505.024 140.387 501.752 141.464C497.584 142.853 493.361 144.243 489.158 145.632L490.339 147.16C491.451 145.076 493.284 143.652 495.243 142.416C497.432 141.026 499.696 139.804 501.808 138.31C504.112 136.79 506.233 135.009 508.129 133.003C508.927 132.177 509.461 131.132 509.664 130.002C509.867 128.871 509.729 127.706 509.269 126.654C507.185 121.854 501.127 121.374 496.591 121.722C491.952 122.092 487.456 123.5 483.434 125.841C478.831 128.492 475 132.3 472.32 136.886L473.709 136.518C468.998 134.464 464.01 133.113 458.906 132.51C453.779 131.905 448.326 131.933 443.311 133.288C434.461 135.677 427.862 142.93 424.374 151.168C422.464 155.858 421.245 160.8 420.755 165.839C420.2 169.999 420.317 174.221 421.103 178.343C421.95 182.31 423.833 186.123 427.056 188.673C430.814 191.646 435.697 192.577 440.365 192.945C446.193 193.398 452.054 192.75 457.642 191.035C460.087 190.278 462.65 189.388 464.588 187.652C465.562 186.844 466.288 185.778 466.685 184.577C467.082 183.376 467.133 182.087 466.832 180.858C466.752 180.599 466.574 180.381 466.336 180.251C466.099 180.121 465.82 180.089 465.558 180.161C465.297 180.234 465.074 180.405 464.937 180.639C464.8 180.873 464.76 181.15 464.824 181.414L464.901 181.476Z" fill="black"/>
<path d="M459.434 144.793C453.099 140.965 445.02 141.701 438.983 145.765C433.343 149.572 428.341 156.581 429.717 163.701C430.03 165.475 430.792 167.139 431.93 168.535C433.068 169.931 434.544 171.012 436.219 171.676C437.476 172.141 438.018 170.127 436.774 169.661C434.183 168.703 432.467 166.251 431.835 163.639C431.092 160.603 431.967 157.387 433.454 154.726C436.413 149.391 441.95 145.202 448.083 144.459C451.659 144.003 455.284 144.754 458.385 146.592C459.538 147.286 460.587 145.487 459.434 144.793V144.793Z" fill="black"/>
<path d="M436.858 168.5C437.622 169.375 437.233 170.66 436.906 171.647C436.517 172.841 435.961 173.981 435.642 175.203C434.919 177.858 435.003 180.669 435.885 183.275C436.254 184.425 436.886 185.474 437.729 186.339C438.573 187.203 439.607 187.859 440.748 188.256C443.105 189.022 445.592 189.31 448.062 189.103C452.856 188.777 457.67 186.818 460.9 183.178C462.436 181.441 463.588 179.399 464.277 177.185C464.967 174.971 465.179 172.636 464.901 170.334C464.206 165.277 460.365 159.65 454.689 160.004C453.356 160.088 453.342 162.172 454.689 162.088C459.128 161.81 462.088 166.201 462.775 170.118C463.097 172.156 462.971 174.239 462.408 176.223C461.844 178.207 460.855 180.044 459.51 181.608C456.585 184.814 452.526 186.752 448.194 187.012C446.057 187.197 443.904 186.995 441.838 186.415C439.483 185.72 438.164 184.046 437.58 181.705C436.984 179.026 437.254 176.226 438.351 173.71C439.206 171.515 440.06 169.021 438.351 167.02C437.469 166.006 436.003 167.486 436.878 168.5H436.858Z" fill="black"/>
<path d="M514.694 157.763C510.151 154.373 504.128 155.026 498.988 156.374C493.354 157.875 487.338 160.361 481.552 158.104C480.308 157.618 479.766 159.632 481.003 160.118C486.56 162.293 492.513 160.382 497.98 158.812C503.065 157.36 509.039 156.103 513.638 159.507C514.715 160.313 515.757 158.5 514.694 157.708V157.763Z" fill="black"/>
<path d="M481.274 146.703C484.627 148.185 488.43 148.283 491.854 146.974C492.111 146.887 492.326 146.707 492.455 146.468C492.584 146.229 492.617 145.951 492.549 145.688C492.474 145.423 492.298 145.198 492.059 145.062C491.82 144.926 491.537 144.889 491.27 144.959C488.406 146.105 485.208 146.085 482.358 144.903C482.116 144.773 481.834 144.739 481.569 144.809C481.303 144.878 481.074 145.046 480.927 145.279C480.79 145.518 480.752 145.801 480.823 146.067C480.893 146.334 481.065 146.562 481.302 146.703H481.274Z" fill="black"/>
<path d="M479.259 148.221C480.421 154.923 479.749 161.814 477.314 168.165C476.876 169.325 478.745 169.832 479.183 168.679C481.712 161.992 482.384 154.745 481.128 147.707C480.912 146.484 479.044 147.012 479.259 148.221V148.221Z" fill="black"/>
<defs>
<linearGradient id="paint0_linear_221_45" x1="190.442" y1="283.316" x2="190.442" y2="5.01562" gradientUnits="userSpaceOnUse">
<stop stop-color="#AE97FE"/>
<stop offset="0.5" stop-color="#EDFC93"/>
<stop offset="1" stop-color="#FEB9E7"/>
</linearGradient>
<linearGradient id="paint1_linear_221_45" x1="192.116" y1="283.316" x2="192.116" y2="5.01562" gradientUnits="userSpaceOnUse">
<stop stop-color="#AE97FE"/>
<stop offset="0.5" stop-color="#EDFC93"/>
<stop offset="1" stop-color="#FEB9E7"/>
</linearGradient>
</defs>
</svg>
