<svg width="657" height="304" viewBox="0 0 657 304" fill="none" xmlns="http://www.w3.org/2000/svg">
<path d="M198.548 284.687C197.853 284.687 197.103 284.687 196.373 284.597C192.995 284.327 189.703 283.393 186.686 281.851C183.668 280.308 180.984 278.186 178.787 275.605C176.59 273.025 174.922 270.037 173.88 266.812C172.838 263.587 172.442 260.189 172.713 256.81L175.687 221.383L100.726 221.001L97.357 261.083C96.7726 267.52 93.8081 273.508 89.0433 277.876C84.2785 282.244 78.0559 284.677 71.5921 284.701C70.8627 284.701 70.1472 284.701 69.4179 284.611C66.031 284.342 62.7308 283.405 59.7074 281.855C56.684 280.305 53.997 278.173 51.8013 275.58C49.6005 273.011 47.9332 270.029 46.8968 266.809C45.8603 263.589 45.4755 260.195 45.7648 256.824L48.7865 220.702L26.7937 220.584C23.3962 220.577 20.0336 219.898 16.8994 218.587C13.7652 217.276 10.9212 215.357 8.53111 212.943C6.1345 210.552 4.23805 207.707 2.95236 204.575C1.66667 201.443 1.0175 198.087 1.0427 194.701C1.11226 187.881 3.87083 181.364 8.71881 176.567C13.5668 171.77 20.1123 169.08 26.9326 169.082L53.1003 169.214L57.6573 114.857L36.1229 114.753C32.7064 114.8 29.3148 114.166 26.1456 112.889C22.9765 111.611 20.0932 109.716 17.6638 107.314C15.2344 104.911 13.3074 102.049 11.9951 98.8943C10.6828 95.7395 10.0115 92.3552 10.0203 88.9383C10.029 85.5215 10.7177 82.1406 12.0461 78.9926C13.3745 75.8446 15.3162 72.9925 17.7579 70.6023C20.1996 68.2122 23.0926 66.3319 26.2682 65.071C29.4438 63.8101 32.8387 63.1937 36.2549 63.2579L61.9572 63.383L64.7359 29.9769C65.3253 23.5365 68.2951 17.5474 73.0647 13.1798C77.8344 8.81217 84.0613 6.38 90.5285 6.35852C91.2232 6.35852 91.9664 6.35852 92.6819 6.44882C96.0961 6.71006 99.4236 7.65083 102.469 9.21592C105.515 10.781 108.217 12.9389 110.417 15.5627C112.602 18.1283 114.257 21.1025 115.283 24.3127C116.31 27.5229 116.689 30.9051 116.398 34.2629L113.89 63.6747L188.857 64.0707L191.691 29.9699C192.281 23.5296 195.251 17.5404 200.02 13.1728C204.79 8.80523 211.017 6.37305 217.484 6.35156C218.179 6.35156 218.922 6.35157 219.638 6.44187C223.025 6.71053 226.325 7.64676 229.348 9.19665C232.372 10.7465 235.059 12.8794 237.254 15.4724C239.456 18.0408 241.124 21.0223 242.16 24.2426C243.197 27.463 243.581 30.8576 243.291 34.2282L240.776 64.3138L265.249 64.4458C268.657 64.4509 272.03 65.132 275.173 66.4496C278.316 67.7672 281.167 69.6951 283.56 72.1217C285.942 74.5122 287.826 77.352 289.102 80.4763C290.378 83.6006 291.021 86.9471 290.993 90.3218C290.929 97.141 288.174 103.659 283.328 108.457C278.481 113.255 271.936 115.945 265.117 115.941C265.038 115.947 264.959 115.947 264.881 115.941L236.455 115.788L231.905 170.145L255.92 170.277C259.336 170.231 262.727 170.866 265.896 172.144C269.065 173.422 271.947 175.318 274.376 177.721C276.805 180.125 278.731 182.987 280.042 186.142C281.353 189.297 282.024 192.682 282.014 196.099C282.004 199.515 281.315 202.896 279.986 206.043C278.656 209.191 276.714 212.043 274.272 214.432C271.83 216.822 268.936 218.701 265.761 219.961C262.585 221.221 259.19 221.837 255.774 221.772L227.584 221.626L224.34 261.083C223.752 267.522 220.782 273.511 216.012 277.876C211.242 282.242 205.014 284.671 198.548 284.687Z" fill="black"/>
<path d="M217.512 7.41991C218.207 7.41991 218.901 7.41991 219.596 7.51022C222.838 7.76979 225.996 8.66565 228.892 10.1466C231.787 11.6276 234.362 13.6646 236.47 16.1412C238.577 18.6178 240.176 21.4855 241.175 24.5804C242.174 27.6753 242.553 30.9367 242.29 34.1781L239.665 65.396L265.27 65.535C271.821 65.5516 278.098 68.17 282.718 72.8142C287.339 77.4585 289.926 83.7481 289.909 90.2995C289.893 96.8509 287.274 103.127 282.63 107.748C277.986 112.369 271.696 114.956 265.145 114.939C265.101 114.946 265.056 114.946 265.013 114.939L235.524 114.779L230.794 171.227L255.94 171.366C259.184 171.375 262.395 172.023 265.388 173.273C268.382 174.523 271.1 176.35 273.387 178.65C275.674 180.951 277.486 183.679 278.719 186.679C279.952 189.68 280.582 192.894 280.573 196.138C280.564 199.382 279.916 202.592 278.666 205.585C277.416 208.579 275.589 211.297 273.289 213.584C270.989 215.872 268.26 217.683 265.26 218.916C262.259 220.149 259.045 220.779 255.802 220.77H255.677L226.654 220.617L223.271 261.019C222.733 267.203 219.895 272.961 215.318 277.154C210.74 281.347 204.756 283.67 198.548 283.664C197.853 283.664 197.159 283.664 196.464 283.581C193.222 283.322 190.063 282.426 187.168 280.945C184.273 279.464 181.698 277.427 179.59 274.95C177.483 272.473 175.884 269.606 174.885 266.511C173.886 263.416 173.507 260.155 173.769 256.913L176.833 220.36L164.961 220.305L99.7606 219.957L96.2873 261.026C95.7497 267.211 92.9107 272.97 88.3316 277.163C83.7524 281.357 77.7665 283.679 71.5575 283.671C70.8628 283.671 70.1682 283.671 69.4735 283.588C66.2315 283.329 63.0723 282.434 60.1766 280.953C57.2809 279.473 54.7055 277.436 52.5977 274.959C50.4899 272.482 48.8911 269.614 47.8927 266.519C46.8943 263.423 46.5158 260.162 46.7791 256.92L49.8911 219.7L35.7548 219.61L26.7938 219.561C23.5498 219.552 20.3395 218.904 17.346 217.655C14.3525 216.405 11.6345 214.578 9.34713 212.277C7.05979 209.977 5.2479 207.249 4.01493 204.248C2.78197 201.248 2.15207 198.034 2.1612 194.79C2.17032 191.546 2.81828 188.336 4.0681 185.342C5.31792 182.349 7.14513 179.631 9.44537 177.343C11.7456 175.056 14.4739 173.244 17.4743 172.011C20.4748 170.778 23.6888 170.148 26.9327 170.157H27.0577L54.0591 170.296L58.7897 113.848L36.13 113.737C32.886 113.729 29.6755 113.082 26.6817 111.833C23.6878 110.584 20.9693 108.758 18.6813 106.458C16.3933 104.158 14.5807 101.431 13.3469 98.4305C12.113 95.4304 11.4822 92.2166 11.4904 88.9727C11.4987 85.7288 12.1457 82.5183 13.3947 79.5244C14.6437 76.5306 16.4701 73.8121 18.7697 71.5241C21.0693 69.2361 23.797 67.4234 26.7972 66.1896C29.7973 64.9558 33.0111 64.325 36.255 64.3332H36.387L62.9299 64.4652L65.8057 30.0935C66.3434 23.9029 69.1849 18.1396 73.7681 13.9435C78.3514 9.74751 84.3425 7.42441 90.5564 7.4338C91.251 7.4338 91.9457 7.4338 92.6404 7.52411C95.8821 7.78276 99.041 8.67808 101.936 10.1588C104.832 11.6396 107.407 13.6767 109.514 16.1537C111.621 18.6306 113.219 21.4987 114.217 24.594C115.215 27.6892 115.592 30.9507 115.328 34.192L112.772 64.7569L189.83 65.1668L192.768 30.1213C193.306 23.9307 196.147 18.1674 200.731 13.9713C205.314 9.7753 211.305 7.4522 217.519 7.46159M217.519 5.37762C210.799 5.3594 204.314 7.84882 199.333 12.3589C194.33 16.8979 191.236 23.1669 190.677 29.899L187.899 63.0203L115.036 62.6174L117.405 34.3379C117.7 30.8435 117.3 27.3253 116.226 23.9867C115.153 20.6481 113.429 17.5554 111.153 14.8875C108.868 12.1747 106.067 9.94221 102.913 8.31935C99.7595 6.69649 96.315 5.71549 92.7793 5.43318C92.029 5.37066 91.2788 5.33594 90.5355 5.33594C83.814 5.3345 77.3339 7.84133 72.3633 12.3659C67.356 16.9025 64.2595 23.1723 63.7009 29.906L60.9848 62.3534L36.3731 62.2354H36.2272C32.6735 62.1697 29.1422 62.8117 25.839 64.1241C22.5359 65.4365 19.5268 67.393 16.9872 69.8796C14.4476 72.3663 12.4281 75.3334 11.0464 78.6082C9.66466 81.883 8.94833 85.3999 8.93911 88.9542C8.9299 92.5086 9.62797 96.0292 10.9927 99.3111C12.3574 102.593 14.3615 105.571 16.8882 108.07C19.4149 110.57 22.4137 112.542 25.71 113.872C29.0064 115.201 32.5343 115.862 36.0883 115.814L56.4904 115.919L52.1418 168.205L27.0647 168.08H26.9327C19.8378 168.08 13.0293 170.879 7.98654 175.87C2.94375 180.861 0.07401 187.64 0.000810137 194.734C-0.0267341 198.258 0.648346 201.752 1.98659 205.012C3.32483 208.271 5.29939 211.232 7.79487 213.719C10.2807 216.23 13.2385 218.223 16.4979 219.586C19.7573 220.949 23.254 221.653 26.7868 221.659L35.7409 221.708L47.6474 221.777L44.7229 256.74C44.4368 260.255 44.8465 263.792 45.9286 267.149C47.0107 270.506 48.7438 273.616 51.029 276.303C53.3142 278.989 56.1066 281.199 59.2464 282.805C62.3862 284.412 65.812 285.384 69.3277 285.665C70.0987 285.728 70.835 285.755 71.5922 285.755C78.3244 285.765 84.8148 283.246 89.779 278.699C94.7432 274.152 97.8195 267.906 98.3991 261.199L101.685 222.055L164.947 222.389L174.547 222.444L171.672 256.74C171.385 260.255 171.795 263.792 172.877 267.149C173.959 270.506 175.693 273.616 177.978 276.303C180.263 278.989 183.055 281.199 186.195 282.805C189.335 284.412 192.761 285.384 196.276 285.665C197.047 285.728 197.805 285.755 198.548 285.755C205.279 285.761 211.768 283.242 216.731 278.695C221.695 274.149 224.772 267.905 225.355 261.199L228.571 222.722L255.663 222.861H255.795C262.889 222.865 269.699 220.068 274.742 215.078C279.786 210.088 282.655 203.308 282.726 196.214C282.737 192.687 282.053 189.192 280.713 185.93C279.373 182.667 277.404 179.701 274.917 177.2C272.43 174.699 269.475 172.712 266.22 171.354C262.965 169.995 259.474 169.291 255.947 169.282L233.024 169.15L237.4 116.884L264.797 117.03C264.899 117.035 265.001 117.035 265.103 117.03C272.198 117.032 279.007 114.233 284.049 109.242C289.091 104.251 291.958 97.4704 292.028 90.3759C292.038 86.8484 291.353 83.3534 290.012 80.0908C288.67 76.8282 286.699 73.8619 284.211 71.3614C281.723 68.8609 278.766 66.8753 275.51 65.518C272.254 64.1606 268.763 63.4583 265.235 63.451L241.895 63.319L244.319 34.3657C244.625 30.8577 244.23 27.3239 243.157 23.9702C242.084 20.6165 240.353 17.51 238.067 14.8319C235.782 12.1367 232.986 9.91957 229.841 8.30784C226.697 6.69612 223.264 5.72156 219.742 5.44013C218.999 5.37761 218.241 5.34287 217.498 5.34287L217.519 5.37762Z" fill="black"/>
<path d="M201.66 279.351C200.965 279.351 200.222 279.351 199.493 279.268C192.693 278.691 186.4 275.443 181.991 270.234C177.582 265.026 175.418 258.283 175.972 251.481L178.924 216.054L104.387 215.658L101.046 255.733C100.48 262.154 97.5397 268.133 92.7991 272.501C88.0585 276.87 81.8589 279.312 75.4128 279.351C74.7182 279.351 73.9819 279.351 73.2525 279.268C66.4524 278.693 60.1579 275.445 55.7487 270.236C51.3396 265.028 49.1757 258.283 49.7314 251.481L52.7323 215.359L30.8645 215.241C24.0379 215.204 17.5054 212.458 12.7037 207.605C7.90204 202.753 5.22428 196.192 5.25937 189.365C5.31241 182.566 8.04593 176.062 12.8662 171.267C17.6864 166.471 24.204 163.771 31.0034 163.753L57.0253 163.885L61.5544 109.521L40.1451 109.417C36.7643 109.408 33.4184 108.734 30.2983 107.432C27.1782 106.13 24.3451 104.227 21.9606 101.83C17.1451 96.9897 14.4496 90.4347 14.4671 83.6069C14.4846 76.7792 17.2137 70.2381 22.054 65.4225C26.8943 60.6069 33.4493 57.9114 40.2771 57.9289L65.8474 58.054L68.6261 24.6479C69.1917 18.2242 72.1343 12.2428 76.8778 7.87448C81.6214 3.50612 87.8244 1.06521 94.2728 1.02951C94.9675 1.02951 95.7038 1.02951 96.4124 1.11982C103.215 1.68768 109.514 4.93353 113.925 10.1439C118.335 15.3543 120.497 22.1029 119.933 28.9061L117.481 58.3179L192.018 58.7139L194.866 24.634C195.432 18.2103 198.374 12.2289 203.118 7.86057C207.862 3.49221 214.065 1.05132 220.513 1.01562C221.208 1.01562 221.944 1.01563 222.653 1.10593C229.453 1.68097 235.748 4.92856 240.159 10.137C244.569 15.3455 246.734 22.0899 246.181 28.8922L243.673 58.9779L267.986 59.1099C271.367 59.1185 274.713 59.793 277.833 61.0947C280.953 62.3965 283.786 64.3001 286.17 66.6968C288.555 69.0934 290.444 71.9363 291.729 75.063C293.015 78.1898 293.673 81.5391 293.664 84.9199C293.655 88.3006 292.981 91.6466 291.679 94.7666C290.377 97.8867 288.474 100.72 286.077 103.104C283.68 105.489 280.837 107.378 277.711 108.663C274.584 109.949 271.235 110.607 267.854 110.598C267.775 110.604 267.696 110.604 267.618 110.598L239.359 110.445L234.83 164.809L258.712 164.941C265.54 164.96 272.08 167.691 276.895 172.533C281.709 177.374 284.403 183.93 284.383 190.758C284.364 197.586 281.633 204.126 276.791 208.94C271.95 213.755 265.394 216.448 258.566 216.429L230.592 216.276L227.286 255.733C226.722 262.153 223.783 268.133 219.043 272.501C214.304 276.869 208.105 279.312 201.66 279.351Z" fill="url(#paint0_linear_74_258)"/>
<path d="M220.52 2.0562C221.215 2.0562 221.909 2.0562 222.604 2.13956C229.134 2.68264 235.181 5.79724 239.415 10.7983C243.648 15.7994 245.722 22.2774 245.18 28.8075L242.582 60.0184L268.041 60.1574C274.593 60.1739 280.869 62.7924 285.49 67.4366C290.111 72.0809 292.697 78.3705 292.681 84.9219C292.664 91.4733 290.046 97.7498 285.402 102.371C280.757 106.991 274.468 109.578 267.916 109.561C267.873 109.569 267.828 109.569 267.784 109.561L238.463 109.402L233.76 165.85L258.768 165.988C265.319 166.007 271.595 168.627 276.214 173.273C280.834 177.918 283.419 184.209 283.4 190.76C283.382 197.311 280.762 203.587 276.116 208.207C271.471 212.826 265.18 215.411 258.629 215.393H258.504L229.641 215.24L226.279 255.641C225.763 261.809 222.951 267.56 218.398 271.753C213.846 275.947 207.884 278.279 201.695 278.287C201.005 278.287 200.31 278.259 199.611 278.203C193.082 277.659 187.037 274.543 182.804 269.542C178.572 264.542 176.499 258.065 177.041 251.536L180.091 214.983L168.282 214.92L103.449 214.573L99.9967 255.627C99.4799 261.796 96.6661 267.546 92.1123 271.74C87.5585 275.934 81.5965 278.265 75.4059 278.273C74.7112 278.273 74.0166 278.273 73.3219 278.19C66.7932 277.645 60.748 274.529 56.5157 269.529C52.2834 264.528 50.2104 258.051 50.7525 251.522L53.8506 214.302L39.763 214.225L30.8575 214.177C24.3061 214.159 18.03 211.54 13.4098 206.895C8.78967 202.25 6.20393 195.96 6.22144 189.409C6.23894 182.857 8.85825 176.581 13.5032 171.961C18.1481 167.341 24.4381 164.755 30.9895 164.773H31.1145L57.97 164.912L62.6867 108.464L40.152 108.353C33.6006 108.336 27.3241 105.718 22.7033 101.073C18.0825 96.4292 15.4959 90.1396 15.5125 83.5882C15.5291 77.0368 18.1475 70.7603 22.7917 66.1395C27.436 61.5187 33.7256 58.9321 40.277 58.9487H40.409L66.806 59.0807L69.668 24.709C70.1866 18.5364 73.0036 12.7834 77.5613 8.58842C82.119 4.39348 88.0854 2.0623 94.2797 2.0562C94.9744 2.0562 95.669 2.0562 96.3637 2.13956C102.892 2.68433 108.936 5.79993 113.168 10.801C117.399 15.8022 119.47 22.2792 118.926 28.8075L116.384 59.3724L193.011 59.7823L195.936 24.7368C196.453 18.5636 199.269 12.8096 203.828 8.61437C208.386 4.41911 214.353 2.08847 220.548 2.08397M220.548 0C213.829 0.00121799 207.357 2.52713 202.413 7.07685C197.47 11.6266 194.416 17.8678 193.859 24.5631L191.08 57.6913L118.634 57.3023L120.989 29.0089C121.578 21.9309 119.331 14.909 114.743 9.48733C110.155 4.06564 103.601 0.688059 96.5235 0.0972622C95.7802 0.0347431 95.03 0.00695336 94.2936 0.00695336C87.5761 0.0113743 81.1052 2.53836 76.1624 7.08745C71.2197 11.6365 68.1655 17.876 67.6049 24.5701L64.9026 57.0245L40.4368 56.8994H40.2562C36.7386 56.8903 33.2537 57.5741 30.0003 58.9118C26.747 60.2495 23.789 62.2149 21.2953 64.6957C16.2589 69.7061 13.4191 76.5119 13.4007 83.616C13.3823 90.7201 16.1867 97.5405 21.197 102.577C26.2074 107.613 33.0132 110.453 40.1172 110.471L60.4013 110.548L56.0458 162.828L31.1214 162.696H30.9825C23.8784 162.677 17.058 165.482 12.0216 170.492C6.98522 175.502 4.14547 182.308 4.12704 189.412C4.10862 196.516 6.91304 203.337 11.9234 208.373C16.9337 213.41 23.7395 216.249 30.8436 216.268L39.7421 216.316L51.5513 216.379L48.6407 251.355C48.0544 258.434 50.3027 265.457 54.8916 270.88C59.4805 276.302 66.0346 279.681 73.1135 280.274C73.8776 280.336 74.614 280.364 75.3642 280.364C82.087 280.368 88.5656 277.845 93.5146 273.295C98.4636 268.745 101.521 262.5 102.081 255.801L105.346 216.657L168.247 216.99L177.791 217.039L174.929 251.348C174.351 258.426 176.602 265.444 181.189 270.865C185.777 276.286 192.326 279.667 199.402 280.267C200.166 280.329 200.924 280.357 201.66 280.357C208.372 280.347 214.836 277.819 219.773 273.271C224.71 268.724 227.76 262.489 228.321 255.801L231.523 217.324L258.455 217.463H258.594C265.698 217.483 272.519 214.68 277.557 209.671C282.595 204.662 285.436 197.857 285.456 190.753C285.477 183.649 282.674 176.828 277.665 171.79C272.656 166.752 265.851 163.911 258.747 163.891L235.99 163.766L240.318 111.486L267.548 111.632C267.65 111.637 267.752 111.637 267.854 111.632C274.958 111.649 281.778 108.844 286.814 103.833C291.849 98.8218 294.688 92.0156 294.706 84.9115C294.723 77.8074 291.918 70.9873 286.907 65.9516C281.896 60.9159 275.09 58.077 267.986 58.0595L244.784 57.9345L247.195 28.9672C247.76 21.9019 245.507 14.8998 240.927 9.49045C236.346 4.08112 229.812 0.70417 222.75 0.0972622C222.006 0.0347431 221.256 0.00695336 220.52 0.00695336L220.548 0Z" fill="black"/>
<path d="M88.6867 70.9351C89.1856 70.4362 89.8624 70.1559 90.568 70.1559C91.2736 70.1559 91.9503 70.4362 92.4493 70.9351L97.2139 75.6997L93.4513 79.4623L88.6867 74.6977C88.1878 74.1987 87.9075 73.522 87.9075 72.8164C87.9075 72.1108 88.1878 71.4341 88.6867 70.9351Z" fill="#5FC26E" stroke="black" stroke-width="2" stroke-miterlimit="10"/>
<path d="M138.786 80.9058L90.8056 106.949C86.5056 92.2427 83.7131 80.0653 101.559 72.2643C113.57 67.0196 127.088 70.5346 138.786 80.9058Z" fill="#5FC26E" stroke="black" stroke-width="2" stroke-miterlimit="10"/>
<path d="M570.259 176.043C570.262 192.553 567.012 208.901 560.694 224.154C554.376 239.407 545.113 253.265 533.436 264.936C521.76 276.607 507.897 285.862 492.641 292.173C477.385 298.483 461.035 301.725 444.525 301.714C431.497 301.717 418.546 299.706 406.132 295.753C387.072 289.674 369.749 279.112 355.616 264.952L255.134 164.463C239.872 149.219 220.01 139.433 198.624 136.619C177.237 133.804 155.52 138.119 136.834 148.896H93.0703C94.3346 147.506 95.6405 146.117 96.9743 144.818C108.638 133.119 122.497 123.837 137.754 117.504C153.012 111.17 169.37 107.91 185.89 107.91C202.411 107.91 218.769 111.17 234.026 117.504C249.284 123.837 263.143 133.119 274.807 144.818L375.261 245.307C390.634 260.636 410.661 270.427 432.199 273.144C453.738 275.861 475.569 271.35 494.267 260.319C512.964 249.288 527.471 232.361 535.509 212.195C543.547 192.029 544.662 169.764 538.679 148.896H567.334C569.283 157.813 570.264 166.915 570.259 176.043Z" fill="#76E297" stroke="black" stroke-width="3" stroke-miterlimit="10"/>
<mask id="mask0_74_258" style="mask-type:alpha" maskUnits="userSpaceOnUse" x="6" y="1" width="290" height="279">
<path d="M203.334 279.351C202.639 279.351 201.896 279.351 201.166 279.268C194.367 278.691 188.073 275.443 183.665 270.234C179.256 265.026 177.091 258.283 177.645 251.481L180.597 216.054L106.061 215.658L102.719 255.733C102.154 262.154 99.2133 268.133 94.4727 272.501C89.7321 276.87 83.5325 279.312 77.0864 279.351C76.3918 279.351 75.6554 279.351 74.9261 279.268C68.126 278.693 61.8315 275.445 57.4223 270.236C53.0132 265.028 50.8492 258.283 51.405 251.481L54.4059 215.359L32.5381 215.241C25.7115 215.204 19.179 212.458 14.3773 207.605C9.57562 202.753 6.89786 196.192 6.93296 189.365C6.986 182.566 9.71951 176.062 14.5397 171.267C19.36 166.471 25.8776 163.771 32.677 163.753L58.6989 163.885L63.228 109.521L41.8187 109.417C38.4379 109.408 35.092 108.734 31.9719 107.432C28.8518 106.13 26.0187 104.227 23.6342 101.83C18.8187 96.9897 16.1231 90.4347 16.1406 83.6069C16.1582 76.7792 18.8872 70.2381 23.7276 65.4225C28.5679 60.6069 35.1229 57.9114 41.9507 57.9289L67.521 58.054L70.2996 24.6479C70.8653 18.2242 73.8079 12.2428 78.5514 7.87448C83.2949 3.50612 89.498 1.06521 95.9464 1.02951C96.6411 1.02951 97.3774 1.02951 98.0859 1.11982C104.889 1.68768 111.188 4.93353 115.598 10.1439C120.009 15.3543 122.17 22.1029 121.607 28.9061L119.155 58.3179L193.692 58.7139L196.54 24.634C197.105 18.2103 200.048 12.2289 204.792 7.86057C209.535 3.49221 215.738 1.05132 222.187 1.01562C222.881 1.01562 223.618 1.01563 224.326 1.10593C231.127 1.68097 237.422 4.92856 241.832 10.137C246.242 15.3455 248.408 22.0899 247.854 28.8922L245.346 58.9779L269.659 59.1099C273.04 59.1185 276.386 59.793 279.506 61.0947C282.626 62.3965 285.46 64.3001 287.844 66.6968C290.228 69.0934 292.117 71.9363 293.403 75.063C294.689 78.1898 295.346 81.5391 295.337 84.9199C295.329 88.3006 294.654 91.6466 293.353 94.7666C292.051 97.8867 290.147 100.72 287.751 103.104C285.354 105.489 282.511 107.378 279.384 108.663C276.258 109.949 272.908 110.607 269.527 110.598C269.449 110.604 269.37 110.604 269.291 110.598L241.033 110.445L236.503 164.809L260.386 164.941C267.214 164.96 273.754 167.691 278.568 172.533C283.382 177.374 286.076 183.93 286.057 190.758C286.038 197.586 283.307 204.126 278.465 208.94C273.623 213.755 267.068 216.448 260.24 216.429L232.266 216.276L228.959 255.733C228.396 262.153 225.457 268.133 220.717 272.501C215.978 276.869 209.779 279.312 203.334 279.351Z" fill="url(#paint1_linear_74_258)"/>
</mask>
<g mask="url(#mask0_74_258)">
<path d="M167.538 173.006C166.843 181.439 166.253 188.858 165.718 195.374L148.699 272.828L141.842 287.256C140.766 300.149 122.628 301.205 109.888 301.205C109.193 301.205 84.0955 305.755 83.4008 305.699C69.8064 304.567 34.0315 306.053 35.1638 292.459L-10.7739 213.268C-10.7739 213.268 73.0018 200.966 95.1475 142.413C99.0584 132.07 94.9113 121.212 92.1743 111.737C91.7089 110.118 91.2365 108.528 90.785 106.965L138.765 80.9219C140.008 82.0264 141.238 83.2073 142.426 84.4646C158.938 101.727 170.768 133.23 167.538 173.006Z" fill="#F7EE52" stroke="black" stroke-width="2" stroke-miterlimit="10"/>
</g>
<path d="M417.267 176.046C417.271 192.556 414.02 208.904 407.702 224.157C401.384 239.41 392.122 253.268 380.445 264.939C368.768 276.61 354.905 285.865 339.649 292.176C324.393 298.486 308.043 301.728 291.534 301.717C278.505 301.72 265.554 299.709 253.14 295.756C234.081 289.677 216.757 279.115 202.625 264.955C202.625 264.955 153.353 215.69 123.614 185.945C115.473 177.803 121.238 163.883 132.756 163.883C137.936 163.882 142.905 165.935 146.573 169.593L222.29 245.31C235.976 259.041 253.431 268.398 272.442 272.196C291.453 275.994 311.163 274.061 329.074 266.642C346.985 259.224 362.29 246.654 373.048 230.526C383.806 214.398 389.532 195.439 389.501 176.053C389.481 166.731 417.267 166.814 417.267 176.046Z" fill="#4BD178" stroke="black" stroke-width="3" stroke-miterlimit="10"/>
<path d="M162.578 73.5229L142.432 84.4498L92.1879 111.722C91.7225 110.104 91.2501 108.513 90.7986 106.95L138.779 80.907L160.257 69.2507C160.539 69.0824 160.852 68.9728 161.177 68.9285C161.502 68.8842 161.832 68.9061 162.148 68.993C162.465 69.0798 162.76 69.2297 163.017 69.4336C163.274 69.6376 163.487 69.8915 163.643 70.1799C163.799 70.4683 163.895 70.7854 163.926 71.1119C163.956 71.4385 163.92 71.7678 163.82 72.0802C163.72 72.3925 163.558 72.6813 163.343 72.9292C163.128 73.1772 162.865 73.3791 162.571 73.5229H162.578Z" fill="#5FC26E" stroke="black" stroke-width="2" stroke-miterlimit="10"/>
<path d="M147.059 131.991C145.673 131.585 144.448 130.758 143.554 129.624C142.66 128.489 142.142 127.105 142.071 125.662C141.835 120.8 140.231 114.93 139.015 113.103C138.029 111.572 137.683 109.714 138.053 107.931C138.423 106.147 139.478 104.581 140.992 103.568C142.506 102.555 144.357 102.177 146.146 102.516C147.936 102.854 149.521 103.882 150.56 105.378C154.068 110.616 155.708 119.966 155.951 124.982C155.996 125.893 155.86 126.804 155.553 127.663C155.246 128.523 154.772 129.313 154.159 129.989C153.546 130.665 152.806 131.213 151.981 131.603C151.157 131.993 150.263 132.217 149.351 132.262C148.577 132.303 147.802 132.211 147.059 131.991Z" fill="white" stroke="black" stroke-width="2" stroke-miterlimit="10"/>
<path d="M129.026 137.7C127.642 137.295 126.418 136.47 125.524 135.338C124.631 134.207 124.111 132.825 124.038 131.385C123.802 126.523 122.197 120.646 120.982 118.826C120.009 117.296 119.673 115.446 120.045 113.671C120.418 111.896 121.47 110.338 122.977 109.328C124.483 108.319 126.325 107.938 128.108 108.268C129.891 108.598 131.474 109.613 132.52 111.095C135.993 116.332 137.667 125.682 137.91 130.705C137.965 131.811 137.754 132.914 137.295 133.922C136.837 134.93 136.144 135.813 135.275 136.499C134.405 137.185 133.384 137.653 132.297 137.864C131.21 138.076 130.089 138.024 129.026 137.714V137.7Z" fill="white" stroke="black" stroke-width="2" stroke-miterlimit="10"/>
<path d="M148.754 108.906C149.607 110.267 150.15 111.799 150.345 113.394" stroke="black" stroke-width="5.73" stroke-miterlimit="10" stroke-linecap="round"/>
<path d="M130.318 115.602C131.172 116.963 131.717 118.494 131.916 120.089" stroke="black" stroke-width="5.73" stroke-miterlimit="10" stroke-linecap="round"/>
<path d="M218.22 56.4992C220.644 56.4992 222.61 54.5337 222.61 52.109C222.61 49.6843 220.644 47.7188 218.22 47.7188C215.795 47.7188 213.83 49.6843 213.83 52.109C213.83 54.5337 215.795 56.4992 218.22 56.4992Z" stroke="black" stroke-width="2" stroke-miterlimit="10"/>
<path d="M221.77 73.3203V83.9625" stroke="black" stroke-width="2" stroke-miterlimit="10" stroke-linecap="round"/>
<path d="M216.448 78.6445H227.09" stroke="black" stroke-width="2" stroke-miterlimit="10" stroke-linecap="round"/>
<path d="M265.609 38.1002C263.769 38.1002 261.946 38.4629 260.246 39.1674C258.545 39.872 257.001 40.9047 255.699 42.2065C254.398 43.5083 253.366 45.0537 252.663 46.7544C251.959 48.4551 251.597 50.2779 251.598 52.1184C251.599 50.2773 251.237 48.454 250.533 46.7528C249.829 45.0516 248.796 43.5059 247.494 42.204C246.192 40.9021 244.647 39.8696 242.945 39.1654C241.244 38.4613 239.421 38.0993 237.58 38.1002C239.421 38.1011 241.244 37.7392 242.945 37.035C244.647 36.3309 246.192 35.2983 247.494 33.9964C248.796 32.6945 249.829 31.1488 250.533 29.4477C251.237 27.7465 251.599 25.9232 251.598 24.082C251.597 25.9226 251.959 27.7453 252.663 29.446C253.366 31.1468 254.398 32.6922 255.699 33.994C257.001 35.2958 258.545 36.3285 260.246 37.033C261.946 37.7376 263.769 38.1002 265.609 38.1002Z" fill="white" stroke="black" stroke-width="2" stroke-miterlimit="10"/>
<path d="M652.138 237.561C654.271 237.561 656 235.831 656 233.698C656 231.565 654.271 229.836 652.138 229.836C650.005 229.836 648.275 231.565 648.275 233.698C648.275 235.831 650.005 237.561 652.138 237.561Z" stroke="#76E297" stroke-width="2" stroke-miterlimit="10"/>
<path d="M619.864 204.863V218.604" stroke="#76E297" stroke-width="3" stroke-miterlimit="10"/>
<path d="M612.987 211.73H626.734" stroke="#76E297" stroke-width="3" stroke-miterlimit="10"/>
<path d="M625.678 248.002C622.915 248.002 620.264 249.1 618.31 251.054C616.356 253.008 615.258 255.658 615.258 258.422C615.258 255.658 614.161 253.008 612.206 251.054C610.252 249.1 607.602 248.002 604.838 248.002C607.602 248.002 610.252 246.904 612.206 244.95C614.161 242.996 615.258 240.346 615.258 237.582C615.258 240.346 616.356 242.996 618.31 244.95C620.264 246.904 622.915 248.002 625.678 248.002Z" stroke="#76E297" stroke-width="3" stroke-miterlimit="10"/>
<path d="M623.24 145.066C623.294 146.525 622.809 147.953 621.877 149.078C620.946 150.203 619.633 150.946 618.19 151.165C618.072 151.186 617.952 151.186 617.835 151.165C617.987 150.481 618.043 149.78 618.002 149.081C616.96 149.373 616.897 150.963 617.835 151.165C617.689 151.816 617.456 152.445 617.141 153.034C615.592 155.896 612.563 157.729 609.624 158.869C606.686 160.008 603.372 160.487 600.163 160.953C596.954 161.418 593.543 161.884 590.438 163.037C586.867 164.363 583.755 166.691 580.31 168.295C578.354 169.205 576.334 169.969 574.266 170.581C574.135 170.401 573.952 170.265 573.742 170.191C573.532 170.117 573.304 170.109 573.089 170.168C572.875 170.227 572.683 170.35 572.539 170.52C572.396 170.691 572.308 170.901 572.287 171.122C572.981 170.956 573.606 170.782 574.266 170.581C574.378 170.751 574.431 170.954 574.419 171.157C574.329 174.783 572.259 177.875 569.397 179.972C566.535 182.07 562.811 182.918 559.234 183.036C555.413 183.141 551.593 182.805 547.848 182.036C544.514 181.341 541.235 179.952 539.172 177.173C537.338 174.686 536.706 171.317 538.214 168.524C538.276 168.409 538.358 168.306 538.457 168.219C537.917 167.333 537.452 166.404 537.067 165.44C536.225 163.476 535.877 161.335 536.053 159.205C536.228 157.076 536.922 155.021 538.075 153.221C537.118 150.282 537.051 147.126 537.88 144.149C538.899 140.797 540.948 137.851 543.736 135.73C546.147 133.771 548.849 132.159 551.093 129.999C553.393 127.669 554.93 124.693 555.497 121.468C556.191 118.162 556.323 114.779 556.886 111.458C557.4 108.548 558.643 105.54 561.575 104.345C564.506 103.15 568.028 104.012 570.737 105.463C573.399 106.879 575.565 109.072 576.948 111.75C579.316 116.46 577.865 122.205 574.454 126.074C575.149 126.011 576.538 125.949 577.184 125.893C585.112 125.216 593.076 125.056 601.025 125.414C604.449 125.56 608.068 125.789 611.104 127.54C612.431 128.247 613.561 129.274 614.391 130.528C615.221 131.782 615.724 133.224 615.855 134.722C615.871 134.915 615.83 135.108 615.737 135.278C615.06 134.921 614.365 134.601 613.653 134.32C613.675 134.453 613.688 134.587 613.695 134.722C613.711 134.952 613.798 135.171 613.944 135.349C614.09 135.526 614.287 135.655 614.509 135.716C614.731 135.777 614.966 135.767 615.182 135.689C615.399 135.611 615.585 135.467 615.717 135.278C616.619 135.762 617.481 136.317 618.294 136.938C620.885 138.849 623.177 141.704 623.24 145.066Z" fill="white"/>
<path d="M539.395 153.797C538.276 151.081 538.054 148.077 538.763 145.225C539.487 142.404 541.052 139.87 543.25 137.959C547.536 134.097 552.975 131.659 555.49 126.15C556.654 123.294 557.386 120.281 557.664 117.21C558.033 114.313 558.095 111.194 559.165 108.443C561.652 102.025 569.897 105.519 573.239 109.214C574.277 110.345 575.079 111.671 575.596 113.116C576.114 114.561 576.337 116.094 576.253 117.627C576.176 119.138 575.782 120.616 575.096 121.964C574.41 123.313 573.448 124.503 572.273 125.455C572.04 125.6 571.871 125.828 571.801 126.093C571.732 126.358 571.766 126.639 571.898 126.88C572.038 127.107 572.26 127.273 572.518 127.343C572.776 127.413 573.052 127.381 573.287 127.255C575.688 125.351 577.354 122.674 578.002 119.68C578.651 116.686 578.241 113.559 576.844 110.833C575.415 108.13 573.205 105.919 570.502 104.491C567.723 103.004 564.118 102.115 561.082 103.4C558.046 104.685 556.852 107.888 556.345 110.916C555.789 114.265 555.65 117.668 554.955 120.989C554.367 124.293 552.784 127.339 550.419 129.721C548.155 131.888 545.438 133.52 543 135.479C540.112 137.661 537.986 140.697 536.922 144.156C535.928 147.697 536.173 151.471 537.617 154.853C537.757 155.09 537.985 155.263 538.252 155.333C538.518 155.403 538.802 155.366 539.041 155.228C539.274 155.083 539.443 154.854 539.513 154.588C539.583 154.321 539.548 154.039 539.416 153.797H539.395Z" fill="black"/>
<path d="M564.194 129.18C571.642 128.019 579.153 127.305 586.687 127.04C590.443 126.91 594.203 126.892 597.968 126.985C601.441 127.075 605.116 126.985 608.478 127.985C611.465 128.853 614.557 131.111 614.73 134.48C614.807 135.869 617.009 135.869 616.932 134.48C616.759 131.298 614.709 128.631 612.007 127.082C608.854 125.276 605.061 125.067 601.546 124.907C593.462 124.554 585.364 124.719 577.302 125.401C572.717 125.79 568.147 126.352 563.603 127.061C562.214 127.276 562.805 129.402 564.187 129.18H564.194Z" fill="black"/>
<path d="M582.061 133.289C582.637 135.365 582.677 137.553 582.177 139.648C581.678 141.744 580.656 143.679 579.205 145.272C578.295 146.251 579.768 147.731 580.678 146.744C582.384 144.887 583.59 142.627 584.184 140.177C584.778 137.726 584.741 135.165 584.075 132.733C583.983 132.487 583.803 132.285 583.569 132.166C583.336 132.046 583.066 132.019 582.813 132.089C582.56 132.158 582.343 132.32 582.204 132.542C582.064 132.764 582.013 133.031 582.061 133.289Z" fill="black"/>
<path d="M585.701 135.552C589.016 134.704 592.421 134.26 595.843 134.233C599.282 134.047 602.729 134.071 606.165 134.302C611.841 134.788 618.669 136.858 621.559 142.256C621.937 142.9 622.184 143.613 622.285 144.354C622.387 145.094 622.341 145.847 622.149 146.57C621.971 147.235 621.611 147.837 621.111 148.31C620.611 148.784 619.989 149.109 619.315 149.251C618.002 149.411 617.988 151.495 619.315 151.335C620.779 151.11 622.11 150.355 623.055 149.214C624 148.074 624.493 146.626 624.442 145.146C624.4 141.749 622.073 138.831 619.503 136.81C613.543 132.19 605.714 131.878 598.489 132.044C594.016 132.156 589.459 132.281 585.152 133.517C584.898 133.601 584.686 133.778 584.56 134.014C584.434 134.249 584.402 134.524 584.473 134.782C584.543 135.039 584.71 135.26 584.939 135.398C585.167 135.536 585.44 135.582 585.701 135.525V135.552Z" fill="black"/>
<path d="M584.186 148.379C590.025 144.464 596.865 142.308 603.894 142.169C607.235 142.113 610.84 142.37 613.737 144.253C616.286 145.927 617.905 149.247 616.37 152.13C614.932 154.867 611.875 156.541 609.048 157.507C606.101 158.398 603.078 159.017 600.017 159.355C596.883 159.7 593.788 160.335 590.771 161.251C587.43 162.39 584.52 164.342 581.408 166.003C574.21 169.834 566.06 171.508 557.935 170.824C556.546 170.705 556.546 172.908 557.935 173.019C565.669 173.645 573.432 172.239 580.456 168.941C583.929 167.302 587.104 164.947 590.73 163.599C593.939 162.404 597.364 161.939 600.74 161.453C603.977 160.994 607.27 160.529 610.347 159.369C613.424 158.209 616.654 156.264 618.245 153.242C619.899 150.109 619.086 146.552 616.759 143.996C614.313 141.314 610.625 140.363 607.131 140.078C598.616 139.482 590.145 141.738 583.054 146.49C581.887 147.275 582.984 149.185 584.165 148.393L584.186 148.379Z" fill="black"/>
<path d="M563.958 143.467C556.607 142.293 549.082 143.882 542.833 147.927C540.006 149.802 537.429 152.268 536.06 155.429C534.667 158.845 534.667 162.67 536.06 166.085C537.561 169.934 540.339 173.032 543.521 175.623C544.556 176.456 546.043 174.991 544.994 174.15C540.02 170.142 535.407 163.834 537.623 157.11C539.603 151.108 546.487 147.524 552.211 146.044C555.865 145.099 559.672 144.907 563.402 145.482C564.715 145.683 565.278 143.676 563.958 143.467Z" fill="black"/>
<path d="M572.189 171.92C572.104 173.266 571.73 174.577 571.092 175.765C570.454 176.953 569.568 177.99 568.494 178.804C566.056 180.812 562.937 181.687 559.825 181.923C556.378 182.102 552.922 181.911 549.516 181.354C546.557 180.93 543.264 180.221 540.992 178.131C538.908 176.22 537.519 172.962 538.999 170.295C539.638 169.114 537.839 168.058 537.2 169.239C535.664 172.066 536.29 175.491 538.137 178.019C540.221 180.902 543.57 182.326 546.98 183.021C550.786 183.807 554.668 184.159 558.553 184.07C562.242 183.966 566.028 183.181 569.063 180.979C572.099 178.777 574.176 175.658 574.273 171.948C574.308 170.607 572.224 170.607 572.189 171.948V171.92Z" fill="black"/>
<path d="M424.908 177.233C425.52 179.108 424.714 181.22 423.338 182.63C421.879 183.965 420.139 184.955 418.246 185.527C411.61 187.873 404.52 188.656 397.532 187.812C393.642 187.347 389.675 186.326 386.639 183.853C380.922 179.192 380.054 170.8 380.714 163.444C381.318 156.636 382.888 149.808 386.271 143.854C389.654 137.901 394.927 132.872 401.422 130.732C404.139 129.892 406.957 129.425 409.799 129.343C417.511 128.991 425.2 130.417 432.272 133.511C434.983 128.905 438.88 125.111 443.558 122.524C448.235 119.937 453.52 118.653 458.863 118.805C461.121 118.902 463.462 119.298 465.296 120.618C467.13 121.938 468.303 124.397 467.553 126.53C467.046 127.703 466.256 128.731 465.254 129.524C462.74 131.796 460.008 133.816 457.099 135.553C453.855 137.519 450.187 139.325 448.443 142.694L460.12 138.804C462.76 137.922 465.476 137.033 468.255 137.158C472.388 137.345 476.417 140.117 477.633 144.104C478.848 148.092 476.785 152.815 472.902 154.309C474.528 159.172 472.86 164.812 469.464 168.688C466.067 172.565 461.128 174.892 456.14 176.052C451.152 177.212 445.908 177.33 440.753 177.441L425.7 177.74" fill="white"/>
<path d="M423.901 177.476C424.512 179.56 423.206 181.589 421.525 182.769C419.677 183.917 417.658 184.763 415.544 185.277C410.935 186.618 406.141 187.209 401.345 187.028C396.997 186.875 392.315 186.278 388.557 183.916C385.382 181.915 383.437 178.643 382.478 175.08C381.569 171.347 381.317 167.485 381.735 163.666C382.078 159.013 383.029 154.424 384.562 150.016C387.299 142.375 392.704 135.227 400.428 132.15C405.333 130.205 410.848 130.024 416.093 130.434C421.482 130.871 426.763 132.192 431.723 134.345C431.964 134.477 432.247 134.512 432.513 134.442C432.779 134.372 433.008 134.203 433.154 133.97C435.337 130.279 438.311 127.118 441.863 124.716C445.416 122.313 449.456 120.729 453.695 120.077C455.763 119.758 457.862 119.692 459.947 119.882C462.162 120.091 464.622 120.792 465.914 122.751C466.433 123.491 466.705 124.376 466.692 125.28C466.537 126.418 465.956 127.456 465.066 128.183C463.181 130.006 461.135 131.655 458.953 133.108C454.987 135.804 449.923 137.721 447.519 142.139C447.419 142.318 447.374 142.522 447.389 142.727C447.404 142.931 447.478 143.127 447.603 143.29C447.728 143.452 447.898 143.575 448.091 143.642C448.285 143.709 448.494 143.718 448.693 143.667L458.418 140.423C461.468 139.409 464.635 138.096 467.9 138.152C472.763 138.242 477.535 142.32 476.834 147.446C476.692 148.701 476.228 149.898 475.485 150.92C474.742 151.942 473.747 152.753 472.596 153.274C472.339 153.361 472.124 153.541 471.995 153.78C471.866 154.018 471.833 154.297 471.902 154.559C472.903 157.918 472.552 161.536 470.922 164.639C469.266 167.772 466.727 170.351 463.621 172.058C456.605 176.094 448.276 176.226 440.413 176.372L425.7 176.663C424.359 176.663 424.352 178.747 425.7 178.747L439.725 178.47C444.219 178.482 448.708 178.206 453.167 177.643C460.725 176.511 468.727 173.114 472.513 166.056C473.535 164.241 474.184 162.24 474.423 160.17C474.661 158.1 474.484 156.004 473.902 154.004L473.173 155.289C478.473 153.205 480.557 146.46 477.674 141.604C476.151 139.135 473.76 137.324 470.971 136.526C467.546 135.533 464.024 136.387 460.752 137.464C456.584 138.853 452.361 140.243 448.158 141.632L449.339 143.16C450.451 141.076 452.284 139.652 454.243 138.416C456.432 137.026 458.696 135.804 460.808 134.31C463.112 132.79 465.233 131.009 467.129 129.003C467.927 128.177 468.461 127.132 468.664 126.002C468.867 124.871 468.729 123.706 468.269 122.654C466.185 117.854 460.127 117.374 455.591 117.722C450.952 118.092 446.456 119.5 442.434 121.841C437.831 124.492 434 128.3 431.32 132.886L432.709 132.518C427.998 130.464 423.01 129.113 417.906 128.51C412.779 127.905 407.326 127.933 402.311 129.288C393.461 131.677 386.862 138.93 383.374 147.168C381.464 151.858 380.245 156.8 379.755 161.839C379.2 165.999 379.317 170.221 380.103 174.343C380.95 178.31 382.833 182.123 386.056 184.673C389.814 187.646 394.697 188.577 399.365 188.945C405.193 189.398 411.054 188.75 416.642 187.035C419.087 186.278 421.65 185.388 423.588 183.652C424.562 182.844 425.288 181.778 425.685 180.577C426.082 179.376 426.133 178.087 425.832 176.858C425.752 176.599 425.574 176.381 425.336 176.251C425.099 176.121 424.82 176.089 424.558 176.161C424.297 176.234 424.074 176.405 423.937 176.639C423.8 176.873 423.76 177.15 423.824 177.414L423.901 177.476Z" fill="black"/>
<path d="M418.434 140.793C412.099 136.965 404.02 137.701 397.983 141.765C392.343 145.572 387.341 152.581 388.717 159.701C389.03 161.475 389.792 163.139 390.93 164.535C392.068 165.931 393.544 167.012 395.219 167.676C396.476 168.141 397.018 166.127 395.774 165.661C393.183 164.703 391.467 162.251 390.835 159.639C390.092 156.603 390.967 153.387 392.454 150.726C395.413 145.391 400.95 141.203 407.083 140.459C410.659 140.003 414.284 140.754 417.385 142.592C418.538 143.287 419.587 141.487 418.434 140.793Z" fill="black"/>
<path d="M395.858 164.5C396.622 165.375 396.233 166.66 395.906 167.647C395.517 168.841 394.961 169.981 394.642 171.203C393.919 173.858 394.003 176.669 394.885 179.275C395.254 180.425 395.886 181.474 396.729 182.339C397.573 183.203 398.607 183.859 399.748 184.256C402.105 185.022 404.592 185.31 407.062 185.103C411.856 184.777 416.67 182.818 419.9 179.178C421.436 177.441 422.588 175.399 423.277 173.185C423.967 170.971 424.179 168.636 423.901 166.334C423.206 161.277 419.365 155.65 413.689 156.004C412.356 156.088 412.342 158.172 413.689 158.088C418.128 157.81 421.088 162.201 421.775 166.118C422.097 168.156 421.971 170.239 421.408 172.223C420.844 174.207 419.855 176.044 418.51 177.608C415.585 180.814 411.526 182.752 407.194 183.012C405.057 183.197 402.904 182.995 400.838 182.415C398.483 181.72 397.164 180.046 396.58 177.705C395.984 175.026 396.254 172.226 397.351 169.71C398.206 167.515 399.06 165.021 397.351 163.02C396.469 162.006 395.003 163.486 395.878 164.5H395.858Z" fill="black"/>
<path d="M473.694 153.763C469.151 150.373 463.128 151.026 457.988 152.374C452.354 153.875 446.338 156.361 440.552 154.104C439.308 153.618 438.766 155.632 440.003 156.118C445.56 158.293 451.513 156.382 456.98 154.812C462.065 153.36 468.039 152.103 472.638 155.507C473.715 156.313 474.757 154.5 473.694 153.708V153.763Z" fill="black"/>
<path d="M440.274 142.703C443.627 144.185 447.43 144.283 450.854 142.974C451.111 142.887 451.326 142.707 451.455 142.468C451.584 142.229 451.617 141.951 451.548 141.688C451.474 141.423 451.298 141.198 451.059 141.062C450.82 140.926 450.536 140.889 450.27 140.959C447.406 142.105 444.207 142.085 441.358 140.903C441.116 140.773 440.834 140.739 440.568 140.809C440.303 140.878 440.073 141.046 439.927 141.279C439.79 141.518 439.752 141.801 439.822 142.067C439.893 142.334 440.065 142.562 440.302 142.703H440.274Z" fill="black"/>
<path d="M438.259 144.221C439.422 150.923 438.75 157.814 436.314 164.165C435.877 165.325 437.745 165.832 438.183 164.679C440.713 157.992 441.385 150.745 440.128 143.707C439.913 142.484 438.044 143.012 438.259 144.221Z" fill="black"/>
<defs>
<linearGradient id="paint0_linear_74_258" x1="149.443" y1="279.316" x2="149.443" y2="1.01562" gradientUnits="userSpaceOnUse">
<stop stop-color="#AE97FE"/>
<stop offset="0.5" stop-color="#EDFC93"/>
<stop offset="1" stop-color="#FEB9E7"/>
</linearGradient>
<linearGradient id="paint1_linear_74_258" x1="151.116" y1="279.316" x2="151.116" y2="1.01562" gradientUnits="userSpaceOnUse">
<stop stop-color="#AE97FE"/>
<stop offset="0.5" stop-color="#EDFC93"/>
<stop offset="1" stop-color="#FEB9E7"/>
</linearGradient>
</defs>
</svg>
