<svg width="358" height="344" viewBox="0 0 358 344" fill="none" xmlns="http://www.w3.org/2000/svg">
<mask id="path-1-outside-1_223_2" maskUnits="userSpaceOnUse" x="0" y="0" width="358" height="344" fill="black">
<rect fill="white" width="358" height="344"/>
<path d="M262.243 11.4227C263.052 11.4227 263.861 11.4227 264.669 11.5277C268.444 11.8295 272.121 12.8709 275.492 14.5926C278.863 16.3143 281.861 18.6824 284.315 21.5616C286.769 24.4408 288.63 27.7746 289.793 31.3726C290.956 34.9705 291.397 38.762 291.092 42.5303L288.035 78.8225L317.846 78.984C325.474 79.0033 332.781 82.0474 338.161 87.4465C343.541 92.8457 346.552 100.158 346.533 107.774C346.514 115.39 343.465 122.687 338.058 128.059C332.651 133.431 325.328 136.438 317.7 136.418C317.65 136.427 317.598 136.427 317.547 136.418L283.214 136.233L277.707 201.856L306.984 202.017C310.761 202.028 314.499 202.781 317.984 204.234C321.469 205.687 324.634 207.811 327.297 210.486C329.96 213.16 332.069 216.331 333.505 219.82C334.94 223.308 335.674 227.044 335.663 230.815C335.653 234.587 334.898 238.319 333.443 241.799C331.988 245.279 329.861 248.439 327.182 251.098C324.504 253.757 321.328 255.863 317.835 257.297C314.341 258.73 310.599 259.462 306.822 259.452H306.677L272.887 259.274L268.948 306.242C268.322 313.432 265.018 320.126 259.688 325.001C254.358 329.875 247.391 332.576 240.164 332.569C239.355 332.569 238.546 332.569 237.737 332.472C233.963 332.171 230.286 331.129 226.915 329.407C223.544 327.686 220.546 325.318 218.092 322.438C215.638 319.559 213.776 316.225 212.614 312.627C211.451 309.029 211.009 305.238 211.315 301.47L214.881 258.975L201.06 258.911L125.148 258.507L121.105 306.25C120.479 313.442 117.173 320.137 111.842 325.011C106.511 329.886 99.5414 332.586 92.3124 332.577C91.5036 332.577 90.6948 332.577 89.8861 332.48C86.1115 332.18 82.4333 331.139 79.0619 329.418C75.6905 327.696 72.6921 325.328 70.238 322.449C67.784 319.569 65.9225 316.235 64.7601 312.637C63.5977 309.038 63.1571 305.246 63.4635 301.478L67.0868 258.208L50.6283 258.103L40.1952 258.047C36.4184 258.036 32.6807 257.283 29.1954 255.83C25.7102 254.377 22.5457 252.253 19.8826 249.578C17.2195 246.904 15.11 243.733 13.6745 240.244C12.239 236.756 11.5056 233.02 11.5162 229.249C11.5268 225.477 12.2812 221.745 13.7364 218.265C15.1915 214.785 17.3189 211.625 19.997 208.966C22.6751 206.307 25.8515 204.201 29.3449 202.767C32.8383 201.334 36.5802 200.602 40.357 200.612H40.5025L71.9394 200.774L77.4472 135.151L51.0651 135.021C47.2883 135.012 43.5504 134.26 40.0647 132.808C36.5791 131.356 33.4139 129.232 30.7501 126.559C28.0863 123.885 25.9758 120.714 24.5394 117.227C23.1029 113.739 22.3684 110.003 22.378 106.231C22.3876 102.46 23.1409 98.7279 24.5951 95.2474C26.0492 91.7669 28.1757 88.6065 30.853 85.9466C33.5304 83.2867 36.7062 81.1794 40.1992 79.7451C43.6922 78.3107 47.4339 77.5774 51.2107 77.5869H51.3643L82.2674 77.7404L85.6157 37.7818C86.2418 30.5849 89.55 23.8848 94.8861 19.0067C100.222 14.1286 107.198 11.4279 114.432 11.4389C115.241 11.4389 116.05 11.4389 116.859 11.5438C120.633 11.8445 124.311 12.8854 127.682 14.6068C131.053 16.3283 134.05 18.6965 136.504 21.5761C138.957 24.4556 140.818 27.79 141.98 31.3883C143.141 34.9866 143.581 38.7783 143.273 42.5465L140.297 78.0795L230.014 78.556L233.435 37.8141C234.061 30.6173 237.369 23.9171 242.705 19.039C248.041 14.161 255.016 11.4603 262.251 11.4712M262.251 9.04845C254.427 9.02728 246.877 11.9213 241.078 17.1645C235.253 22.4413 231.651 29.7293 231 37.5557L227.765 76.0606L142.933 75.5922L145.691 42.7161C146.035 38.6537 145.569 34.5636 144.319 30.6824C143.07 26.8011 141.062 23.2057 138.412 20.1041C135.752 16.9504 132.491 14.355 128.819 12.4684C125.147 10.5817 121.137 9.44125 117.02 9.11305C116.147 9.04037 115.273 9 114.408 9C106.582 8.99832 99.0377 11.9126 93.2505 17.1726C87.4206 22.4466 83.8155 29.7356 83.1652 37.5638L80.0029 75.2854L51.3482 75.1481H51.1783C47.0408 75.0717 42.9294 75.8181 39.0837 77.3438C35.2379 78.8695 31.7346 81.1441 28.7777 84.0349C25.8209 86.9258 23.4697 90.3752 21.861 94.1822C20.2523 97.9893 19.4183 102.078 19.4076 106.21C19.3968 110.342 20.2096 114.435 21.7985 118.25C23.3874 122.066 25.7207 125.527 28.6624 128.433C31.6042 131.339 35.0957 133.632 38.9335 135.178C42.7713 136.723 46.8787 137.491 51.0166 137.436L74.7701 137.557L69.7072 198.343L40.5106 198.198H40.357C32.0966 198.197 24.1697 201.451 18.2985 207.253C12.4273 213.055 9.08617 220.936 9.00094 229.184C8.96887 233.28 9.75485 237.342 11.3129 241.132C12.871 244.921 15.1699 248.363 18.0753 251.255C20.9696 254.173 24.4132 256.491 28.208 258.075C32.0029 259.659 36.074 260.478 40.1871 260.485L50.6122 260.542L64.4745 260.623L61.0696 301.268C60.7365 305.354 61.2135 309.467 62.4734 313.369C63.7332 317.272 65.7511 320.888 68.4117 324.011C71.0722 327.134 74.3233 329.703 77.9789 331.571C81.6345 333.438 85.623 334.568 89.7162 334.895C90.614 334.968 91.4712 335 92.3528 335C100.191 335.011 107.747 332.083 113.527 326.797C119.307 321.51 122.888 314.25 123.563 306.452L127.389 260.946L201.043 261.333L212.221 261.398L208.872 301.268C208.539 305.354 209.016 309.467 210.276 313.369C211.536 317.272 213.554 320.888 216.214 324.011C218.875 327.134 222.126 329.703 225.782 331.571C229.437 333.438 233.426 334.568 237.519 334.895C238.417 334.968 239.298 335 240.164 335C248.001 335.007 255.555 332.078 261.334 326.792C267.113 321.507 270.696 314.248 271.374 306.452L275.119 261.721L306.661 261.883H306.814C315.075 261.887 323.003 258.635 328.875 252.834C334.747 247.033 338.087 239.152 338.17 230.904C338.183 226.804 337.387 222.741 335.827 218.948C334.266 215.156 331.973 211.707 329.078 208.799C326.182 205.892 322.742 203.582 318.952 202.003C315.163 200.424 311.099 199.605 306.992 199.595L280.303 199.441L285.398 138.68L317.296 138.849C317.415 138.856 317.533 138.856 317.652 138.849C325.912 138.852 333.839 135.598 339.71 129.795C345.58 123.993 348.919 116.11 349 107.863C349.012 103.762 348.214 99.6988 346.652 95.9058C345.091 92.1129 342.796 88.6644 339.899 85.7575C337.002 82.8506 333.559 80.5422 329.769 78.9643C325.978 77.3863 321.913 76.5698 317.806 76.5613L290.631 76.4079L293.454 42.7483C293.81 38.6702 293.35 34.562 292.101 30.6631C290.851 26.7643 288.837 23.1529 286.175 20.0395C283.514 16.9062 280.259 14.3287 276.598 12.455C272.936 10.5813 268.94 9.4483 264.839 9.12113C263.974 9.04845 263.092 9.00806 262.227 9.00806L262.251 9.04845Z"/>
</mask>
<path d="M262.243 11.4227C263.052 11.4227 263.861 11.4227 264.669 11.5277C268.444 11.8295 272.121 12.8709 275.492 14.5926C278.863 16.3143 281.861 18.6824 284.315 21.5616C286.769 24.4408 288.63 27.7746 289.793 31.3726C290.956 34.9705 291.397 38.762 291.092 42.5303L288.035 78.8225L317.846 78.984C325.474 79.0033 332.781 82.0474 338.161 87.4465C343.541 92.8457 346.552 100.158 346.533 107.774C346.514 115.39 343.465 122.687 338.058 128.059C332.651 133.431 325.328 136.438 317.7 136.418C317.65 136.427 317.598 136.427 317.547 136.418L283.214 136.233L277.707 201.856L306.984 202.017C310.761 202.028 314.499 202.781 317.984 204.234C321.469 205.687 324.634 207.811 327.297 210.486C329.96 213.16 332.069 216.331 333.505 219.82C334.94 223.308 335.674 227.044 335.663 230.815C335.653 234.587 334.898 238.319 333.443 241.799C331.988 245.279 329.861 248.439 327.182 251.098C324.504 253.757 321.328 255.863 317.835 257.297C314.341 258.73 310.599 259.462 306.822 259.452H306.677L272.887 259.274L268.948 306.242C268.322 313.432 265.018 320.126 259.688 325.001C254.358 329.875 247.391 332.576 240.164 332.569C239.355 332.569 238.546 332.569 237.737 332.472C233.963 332.171 230.286 331.129 226.915 329.407C223.544 327.686 220.546 325.318 218.092 322.438C215.638 319.559 213.776 316.225 212.614 312.627C211.451 309.029 211.009 305.238 211.315 301.47L214.881 258.975L201.06 258.911L125.148 258.507L121.105 306.25C120.479 313.442 117.173 320.137 111.842 325.011C106.511 329.886 99.5414 332.586 92.3124 332.577C91.5036 332.577 90.6948 332.577 89.8861 332.48C86.1115 332.18 82.4333 331.139 79.0619 329.418C75.6905 327.696 72.6921 325.328 70.238 322.449C67.784 319.569 65.9225 316.235 64.7601 312.637C63.5977 309.038 63.1571 305.246 63.4635 301.478L67.0868 258.208L50.6283 258.103L40.1952 258.047C36.4184 258.036 32.6807 257.283 29.1954 255.83C25.7102 254.377 22.5457 252.253 19.8826 249.578C17.2195 246.904 15.11 243.733 13.6745 240.244C12.239 236.756 11.5056 233.02 11.5162 229.249C11.5268 225.477 12.2812 221.745 13.7364 218.265C15.1915 214.785 17.3189 211.625 19.997 208.966C22.6751 206.307 25.8515 204.201 29.3449 202.767C32.8383 201.334 36.5802 200.602 40.357 200.612H40.5025L71.9394 200.774L77.4472 135.151L51.0651 135.021C47.2883 135.012 43.5504 134.26 40.0647 132.808C36.5791 131.356 33.4139 129.232 30.7501 126.559C28.0863 123.885 25.9758 120.714 24.5394 117.227C23.1029 113.739 22.3684 110.003 22.378 106.231C22.3876 102.46 23.1409 98.7279 24.5951 95.2474C26.0492 91.7669 28.1757 88.6065 30.853 85.9466C33.5304 83.2867 36.7062 81.1794 40.1992 79.7451C43.6922 78.3107 47.4339 77.5774 51.2107 77.5869H51.3643L82.2674 77.7404L85.6157 37.7818C86.2418 30.5849 89.55 23.8848 94.8861 19.0067C100.222 14.1286 107.198 11.4279 114.432 11.4389C115.241 11.4389 116.05 11.4389 116.859 11.5438C120.633 11.8445 124.311 12.8854 127.682 14.6068C131.053 16.3283 134.05 18.6965 136.504 21.5761C138.957 24.4556 140.818 27.79 141.98 31.3883C143.141 34.9866 143.581 38.7783 143.273 42.5465L140.297 78.0795L230.014 78.556L233.435 37.8141C234.061 30.6173 237.369 23.9171 242.705 19.039C248.041 14.161 255.016 11.4603 262.251 11.4712M262.251 9.04845C254.427 9.02728 246.877 11.9213 241.078 17.1645C235.253 22.4413 231.651 29.7293 231 37.5557L227.765 76.0606L142.933 75.5922L145.691 42.7161C146.035 38.6537 145.569 34.5636 144.319 30.6824C143.07 26.8011 141.062 23.2057 138.412 20.1041C135.752 16.9504 132.491 14.355 128.819 12.4684C125.147 10.5817 121.137 9.44125 117.02 9.11305C116.147 9.04037 115.273 9 114.408 9C106.582 8.99832 99.0377 11.9126 93.2505 17.1726C87.4206 22.4466 83.8155 29.7356 83.1652 37.5638L80.0029 75.2854L51.3482 75.1481H51.1783C47.0408 75.0717 42.9294 75.8181 39.0837 77.3438C35.2379 78.8695 31.7346 81.1441 28.7777 84.0349C25.8209 86.9258 23.4697 90.3752 21.861 94.1822C20.2523 97.9893 19.4183 102.078 19.4076 106.21C19.3968 110.342 20.2096 114.435 21.7985 118.25C23.3874 122.066 25.7207 125.527 28.6624 128.433C31.6042 131.339 35.0957 133.632 38.9335 135.178C42.7713 136.723 46.8787 137.491 51.0166 137.436L74.7701 137.557L69.7072 198.343L40.5106 198.198H40.357C32.0966 198.197 24.1697 201.451 18.2985 207.253C12.4273 213.055 9.08617 220.936 9.00094 229.184C8.96887 233.28 9.75485 237.342 11.3129 241.132C12.871 244.921 15.1699 248.363 18.0753 251.255C20.9696 254.173 24.4132 256.491 28.208 258.075C32.0029 259.659 36.074 260.478 40.1871 260.485L50.6122 260.542L64.4745 260.623L61.0696 301.268C60.7365 305.354 61.2135 309.467 62.4734 313.369C63.7332 317.272 65.7511 320.888 68.4117 324.011C71.0722 327.134 74.3233 329.703 77.9789 331.571C81.6345 333.438 85.623 334.568 89.7162 334.895C90.614 334.968 91.4712 335 92.3528 335C100.191 335.011 107.747 332.083 113.527 326.797C119.307 321.51 122.888 314.25 123.563 306.452L127.389 260.946L201.043 261.333L212.221 261.398L208.872 301.268C208.539 305.354 209.016 309.467 210.276 313.369C211.536 317.272 213.554 320.888 216.214 324.011C218.875 327.134 222.126 329.703 225.782 331.571C229.437 333.438 233.426 334.568 237.519 334.895C238.417 334.968 239.298 335 240.164 335C248.001 335.007 255.555 332.078 261.334 326.792C267.113 321.507 270.696 314.248 271.374 306.452L275.119 261.721L306.661 261.883H306.814C315.075 261.887 323.003 258.635 328.875 252.834C334.747 247.033 338.087 239.152 338.17 230.904C338.183 226.804 337.387 222.741 335.827 218.948C334.266 215.156 331.973 211.707 329.078 208.799C326.182 205.892 322.742 203.582 318.952 202.003C315.163 200.424 311.099 199.605 306.992 199.595L280.303 199.441L285.398 138.68L317.296 138.849C317.415 138.856 317.533 138.856 317.652 138.849C325.912 138.852 333.839 135.598 339.71 129.795C345.58 123.993 348.919 116.11 349 107.863C349.012 103.762 348.214 99.6988 346.652 95.9058C345.091 92.1129 342.796 88.6644 339.899 85.7575C337.002 82.8506 333.559 80.5422 329.769 78.9643C325.978 77.3863 321.913 76.5698 317.806 76.5613L290.631 76.4079L293.454 42.7483C293.81 38.6702 293.35 34.562 292.101 30.6631C290.851 26.7643 288.837 23.1529 286.175 20.0395C283.514 16.9062 280.259 14.3287 276.598 12.455C272.936 10.5813 268.94 9.4483 264.839 9.12113C263.974 9.04845 263.092 9.00806 262.227 9.00806L262.251 9.04845Z" fill="white" fill-opacity="0.17"/>
<path d="M264.669 11.5277L263.511 20.4528L263.731 20.4814L263.952 20.4991L264.669 11.5277ZM291.092 42.5303L300.06 43.2858L300.061 43.2715L300.063 43.2573L291.092 42.5303ZM288.035 78.8225L279.067 78.0671L278.249 87.7696L287.986 87.8224L288.035 78.8225ZM317.846 78.984L317.797 87.9839L317.81 87.984L317.823 87.984L317.846 78.984ZM317.7 136.418L317.723 127.418L316.971 127.417L316.228 127.54L317.7 136.418ZM317.547 136.418L319.019 127.54L318.312 127.422L317.595 127.419L317.547 136.418ZM283.214 136.233L283.263 127.233L274.942 127.188L274.246 135.48L283.214 136.233ZM277.707 201.856L268.738 201.103L267.924 210.802L277.657 210.856L277.707 201.856ZM306.984 202.017L306.935 211.017L306.947 211.017L306.959 211.017L306.984 202.017ZM306.822 259.452L306.848 250.452L306.835 250.452H306.822V259.452ZM306.677 259.452L306.63 268.452L306.653 268.452H306.677V259.452ZM272.887 259.274L272.934 250.274L264.613 250.231L263.918 258.522L272.887 259.274ZM268.948 306.242L277.914 307.023L277.915 307.009L277.916 306.994L268.948 306.242ZM240.164 332.569L240.172 323.569H240.164L240.164 332.569ZM237.737 332.472L238.808 323.536L238.632 323.515L238.455 323.501L237.737 332.472ZM211.315 301.47L202.346 300.717L202.345 300.73L202.344 300.743L211.315 301.47ZM214.881 258.975L223.85 259.728L224.665 250.021L214.924 249.975L214.881 258.975ZM201.06 258.911L201.012 267.911L201.018 267.911L201.06 258.911ZM125.148 258.507L125.196 249.507L116.882 249.463L116.181 257.747L125.148 258.507ZM121.105 306.25L130.071 307.031L130.072 307.02L130.072 307.01L121.105 306.25ZM92.3124 332.577L92.3234 323.577H92.3124V332.577ZM89.8861 332.48L90.9568 323.544L90.7792 323.523L90.6008 323.509L89.8861 332.48ZM63.4635 301.478L54.4949 300.727L54.494 300.738L54.4932 300.748L63.4635 301.478ZM67.0868 258.208L76.0554 258.959L76.8667 249.27L67.1442 249.208L67.0868 258.208ZM50.6283 258.103L50.6857 249.103L50.6771 249.103L50.6283 258.103ZM40.1952 258.047L40.244 249.047L40.2322 249.047L40.2205 249.047L40.1952 258.047ZM40.357 200.612L40.3317 209.612L40.3443 209.612H40.357V200.612ZM40.5025 200.612L40.5488 191.612L40.5257 191.612H40.5025V200.612ZM71.9394 200.774L71.8932 209.774L80.2121 209.816L80.9079 201.526L71.9394 200.774ZM77.4472 135.151L86.4156 135.903L87.2302 126.198L77.4912 126.151L77.4472 135.151ZM51.0651 135.021L51.1092 126.021L51.0985 126.021L51.0878 126.021L51.0651 135.021ZM51.2107 77.5869L51.1879 86.5869L51.1993 86.5869H51.2107V77.5869ZM51.3643 77.5869L51.409 68.5871L51.3867 68.5869H51.3643V77.5869ZM82.2674 77.7404L82.2228 86.7403L90.5414 86.7816L91.236 78.4919L82.2674 77.7404ZM85.6157 37.7818L76.6496 37.0019L76.6484 37.0161L76.6472 37.0303L85.6157 37.7818ZM114.432 11.4389L114.419 20.4389H114.432L114.432 11.4389ZM116.859 11.5438L115.7 20.469L115.921 20.4977L116.144 20.5154L116.859 11.5438ZM136.504 21.5761L143.355 15.7393L136.504 21.5761ZM143.273 42.5465L152.242 43.2977L152.242 43.2882L152.243 43.2787L143.273 42.5465ZM140.297 78.0795L131.328 77.3283L130.516 87.0277L140.249 87.0794L140.297 78.0795ZM230.014 78.556L229.966 87.5559L238.286 87.6001L238.982 79.3091L230.014 78.556ZM233.435 37.8141L224.469 37.0342L224.467 37.0476L224.466 37.061L233.435 37.8141ZM262.251 9.04845L262.227 18.0484L278.173 18.0916L269.968 4.41779L262.251 9.04845ZM241.078 17.1645L235.042 10.4883L235.035 10.4945L241.078 17.1645ZM231 37.5557L239.969 38.3092L239.969 38.3013L231 37.5557ZM227.765 76.0606L227.716 85.0605L236.037 85.1064L236.734 76.8141L227.765 76.0606ZM142.933 75.5922L133.965 74.8399L133.151 84.5384L142.884 84.5921L142.933 75.5922ZM145.691 42.7161L136.723 41.9574L136.723 41.9637L145.691 42.7161ZM138.412 20.1041L131.533 25.9073L131.551 25.9287L131.569 25.9501L138.412 20.1041ZM117.02 9.11305L116.274 18.0821L116.289 18.0833L116.305 18.0846L117.02 9.11305ZM114.408 9L114.406 18H114.408V9ZM93.2505 17.1726L99.2883 23.8468L99.2961 23.8398L99.3039 23.8327L93.2505 17.1726ZM83.1652 37.5638L92.1337 38.3156L92.1343 38.3089L83.1652 37.5638ZM80.0029 75.2854L79.9598 84.2853L88.2766 84.3251L88.9714 76.0372L80.0029 75.2854ZM51.3482 75.1481L51.3913 66.1482L51.3697 66.1481H51.3482V75.1481ZM51.1783 75.1481L51.0122 84.1466L51.0953 84.1481H51.1783V75.1481ZM51.0166 137.436L51.0625 128.436L50.9798 128.436L50.897 128.437L51.0166 137.436ZM74.7701 137.557L83.7391 138.304L84.5468 128.607L74.816 128.557L74.7701 137.557ZM69.7072 198.343L69.6624 207.343L77.9853 207.384L78.6762 199.09L69.7072 198.343ZM40.5106 198.198L40.5554 189.198L40.533 189.198H40.5106V198.198ZM40.357 198.198L40.3565 207.198H40.357V198.198ZM9.00094 229.184L0.00142366 229.091L0.00130722 229.102L0.001219 229.114L9.00094 229.184ZM18.0753 251.255L24.4655 244.917L24.4452 244.897L24.4248 244.877L18.0753 251.255ZM40.1871 260.485L40.2359 251.486L40.2192 251.486L40.2024 251.485L40.1871 260.485ZM50.6122 260.542L50.6646 251.542L50.661 251.542L50.6122 260.542ZM64.4745 260.623L73.4431 261.374L74.2552 251.68L64.5269 251.623L64.4745 260.623ZM61.0696 301.268L52.101 300.516L52.1001 300.527L52.0993 300.537L61.0696 301.268ZM89.7162 334.895L90.4425 325.924L90.4334 325.924L89.7162 334.895ZM92.3528 335L92.3652 326H92.3528V335ZM123.563 306.452L132.53 307.228L132.531 307.217L132.532 307.206L123.563 306.452ZM127.389 260.946L127.436 251.946L119.117 251.902L118.42 260.192L127.389 260.946ZM201.043 261.333L201.095 252.334L201.091 252.334L201.043 261.333ZM212.221 261.398L221.189 262.151L222.003 252.454L212.273 252.398L212.221 261.398ZM208.872 301.268L199.904 300.515L199.903 300.526L199.902 300.537L208.872 301.268ZM237.519 334.895L238.245 325.924L238.236 325.924L237.519 334.895ZM240.164 335L240.172 326H240.164V335ZM261.334 326.792L255.26 320.152L261.334 326.792ZM271.374 306.452L280.34 307.233L280.342 307.218L280.343 307.203L271.374 306.452ZM275.119 261.721L275.165 252.721L266.844 252.679L266.15 260.97L275.119 261.721ZM306.661 261.883L306.615 270.882L306.638 270.883H306.661V261.883ZM306.814 261.883L306.82 252.883H306.814V261.883ZM338.17 230.904L347.17 230.995L347.17 230.964L347.17 230.932L338.17 230.904ZM306.992 199.595L306.941 208.595L306.955 208.595L306.969 208.595L306.992 199.595ZM280.303 199.441L271.334 198.689L270.521 208.385L280.251 208.441L280.303 199.441ZM285.398 138.68L285.446 129.68L277.125 129.636L276.43 137.928L285.398 138.68ZM317.296 138.849L317.782 129.862L317.563 129.851L317.344 129.849L317.296 138.849ZM317.652 138.849L317.655 129.849L317.41 129.849L317.166 129.862L317.652 138.849ZM349 107.863L357.999 107.951L358 107.92L358 107.888L349 107.863ZM317.806 76.5613L317.755 85.5612L317.771 85.5613L317.787 85.5613L317.806 76.5613ZM290.631 76.4079L281.662 75.6558L280.849 85.3528L290.58 85.4078L290.631 76.4079ZM293.454 42.7483L284.488 41.9639L284.486 41.9801L284.485 41.9963L293.454 42.7483ZM286.175 20.0395L279.315 25.8652L279.324 25.8767L279.334 25.8881L286.175 20.0395ZM264.839 9.12113L264.086 18.0896L264.105 18.0911L264.124 18.0926L264.839 9.12113ZM262.227 9.00806V0.00805967H246.331L254.51 13.6387L262.227 9.00806ZM262.243 20.4227C263.146 20.4227 263.374 20.435 263.511 20.4528L265.828 2.60258C264.347 2.41039 262.957 2.42271 262.243 2.42271V20.4227ZM263.952 20.4991C266.549 20.7067 269.08 21.4234 271.398 22.6077L279.586 6.57753C275.163 4.31846 270.338 2.9522 265.387 2.55633L263.952 20.4991ZM271.398 22.6077C273.717 23.792 275.778 25.4204 277.465 27.3995L291.165 15.7238C287.944 11.9444 284.009 8.83662 279.586 6.57753L271.398 22.6077ZM277.465 27.3995C279.152 29.3784 280.431 31.6691 281.229 34.1404L298.357 28.6047C296.83 23.8802 294.386 19.5032 291.165 15.7238L277.465 27.3995ZM281.229 34.1404C282.028 36.6117 282.331 39.2156 282.121 41.8034L300.063 43.2573C300.464 38.3084 299.884 33.3293 298.357 28.6047L281.229 34.1404ZM282.124 41.7748L279.067 78.0671L297.003 79.578L300.06 43.2858L282.124 41.7748ZM287.986 87.8224L317.797 87.9839L317.895 69.9842L288.084 69.8227L287.986 87.8224ZM317.823 87.984C323.068 87.9973 328.09 90.0906 331.786 93.7991L344.536 81.0939C337.472 74.0042 327.879 70.0094 317.869 69.9841L317.823 87.984ZM331.786 93.7991C335.481 97.5072 337.546 102.526 337.533 107.751L355.533 107.797C355.558 97.7892 351.601 88.1842 344.536 81.0939L331.786 93.7991ZM337.533 107.751C337.52 112.976 335.429 117.985 331.715 121.674L344.401 134.444C351.502 127.389 355.508 117.804 355.533 107.797L337.533 107.751ZM331.715 121.674C328.001 125.364 322.968 127.432 317.723 127.418L317.678 145.418C327.688 145.444 337.301 141.497 344.401 134.444L331.715 121.674ZM316.228 127.54C317.152 127.386 318.095 127.386 319.019 127.54L316.075 145.297C317.1 145.467 318.147 145.467 319.172 145.297L316.228 127.54ZM317.595 127.419L283.263 127.233L283.166 145.233L317.498 145.418L317.595 127.419ZM274.246 135.48L268.738 201.103L286.675 202.609L292.183 136.985L274.246 135.48ZM277.657 210.856L306.935 211.017L307.034 193.018L277.756 192.856L277.657 210.856ZM306.959 211.017C309.556 211.025 312.125 211.543 314.521 212.541L321.447 195.927C316.872 194.02 311.966 193.031 307.01 193.017L306.959 211.017ZM314.521 212.541C316.916 213.54 319.091 215 320.92 216.836L333.674 204.135C330.177 200.623 326.022 197.835 321.447 195.927L314.521 212.541ZM320.92 216.836C322.749 218.673 324.197 220.851 325.182 223.245L341.828 216.395C339.942 211.812 337.171 207.646 333.674 204.135L320.92 216.836ZM325.182 223.245C326.167 225.639 326.671 228.203 326.663 230.79L344.663 230.841C344.677 225.886 343.714 220.977 341.828 216.395L325.182 223.245ZM326.663 230.79C326.656 233.377 326.138 235.938 325.14 238.327L341.746 245.271C343.658 240.699 344.649 235.796 344.663 230.841L326.663 230.79ZM325.14 238.327C324.141 240.715 322.681 242.885 320.841 244.711L333.524 257.484C337.041 253.992 339.835 249.842 341.746 245.271L325.14 238.327ZM320.841 244.711C319.002 246.538 316.819 247.985 314.418 248.97L321.251 265.623C325.837 263.742 330.007 260.976 333.524 257.484L320.841 244.711ZM314.418 248.97C312.017 249.956 309.445 250.459 306.848 250.452L306.797 268.452C311.754 268.466 316.665 267.505 321.251 265.623L314.418 248.97ZM306.822 250.452H306.677V268.452H306.822V250.452ZM306.724 250.452L272.934 250.274L272.839 268.274L306.63 268.452L306.724 250.452ZM263.918 258.522L259.979 305.49L277.916 306.994L281.855 260.026L263.918 258.522ZM259.982 305.462C259.552 310.403 257.281 315.006 253.614 318.359L265.762 331.642C272.755 325.246 277.092 316.461 277.914 307.023L259.982 305.462ZM253.614 318.359C249.947 321.714 245.15 323.574 240.172 323.569L240.155 341.569C249.632 341.578 258.77 338.037 265.762 331.642L253.614 318.359ZM240.164 323.569C239.267 323.569 238.995 323.559 238.808 323.536L236.667 341.408C238.097 341.58 239.442 341.569 240.164 341.569L240.164 323.569ZM238.455 323.501C235.857 323.293 233.327 322.577 231.008 321.392L222.821 337.422C227.244 339.681 232.069 341.048 237.02 341.444L238.455 323.501ZM231.008 321.392C228.69 320.208 226.628 318.579 224.942 316.601L211.242 328.276C214.463 332.056 218.398 335.163 222.821 337.422L231.008 321.392ZM224.942 316.601C223.255 314.622 221.976 312.331 221.177 309.86L204.05 315.395C205.577 320.12 208.021 324.497 211.242 328.276L224.942 316.601ZM221.177 309.86C220.379 307.388 220.076 304.784 220.285 302.197L202.344 300.743C201.943 305.692 202.523 310.671 204.05 315.395L221.177 309.86ZM220.283 302.222L223.85 259.728L205.913 258.223L202.346 300.717L220.283 302.222ZM214.924 249.975L201.102 249.911L201.018 267.911L214.839 267.975L214.924 249.975ZM201.107 249.911L125.196 249.507L125.101 267.507L201.012 267.911L201.107 249.911ZM116.181 257.747L112.137 305.491L130.072 307.01L134.116 259.266L116.181 257.747ZM112.138 305.47C111.708 310.412 109.437 315.016 105.769 318.369L117.915 331.653C124.91 325.258 129.249 316.471 130.071 307.031L112.138 305.47ZM105.769 318.369C102.1 321.724 97.3025 323.583 92.3234 323.577L92.3013 341.577C101.78 341.589 110.921 338.049 117.915 331.653L105.769 318.369ZM92.3124 323.577C91.416 323.577 91.1441 323.567 90.9568 323.544L88.8153 341.416C90.2456 341.588 91.5912 341.577 92.3124 341.577V323.577ZM90.6008 323.509C88.0036 323.302 85.4733 322.586 83.1545 321.402L74.9694 337.433C79.3934 339.692 84.2193 341.057 89.1713 341.452L90.6008 323.509ZM83.1545 321.402C80.8358 320.218 78.7744 318.59 77.0878 316.611L63.3882 328.286C66.6098 332.066 70.5453 335.174 74.9694 337.433L83.1545 321.402ZM77.0878 316.611C75.4013 314.632 74.1226 312.341 73.3243 309.87L56.1959 315.403C57.7224 320.129 60.1667 324.506 63.3882 328.286L77.0878 316.611ZM73.3243 309.87C72.526 307.399 72.2235 304.795 72.4339 302.207L54.4932 300.748C54.0907 305.698 54.6693 310.678 56.1959 315.403L73.3243 309.87ZM72.4322 302.229L76.0554 258.959L58.1182 257.457L54.4949 300.727L72.4322 302.229ZM67.1442 249.208L50.6857 249.103L50.5709 267.103L67.0294 267.208L67.1442 249.208ZM50.6771 249.103L40.244 249.047L40.1464 267.046L50.5796 267.103L50.6771 249.103ZM40.2205 249.047C37.6237 249.039 35.0542 248.521 32.6586 247.523L25.7323 264.137C30.3072 266.044 35.2131 267.033 40.1699 267.047L40.2205 249.047ZM32.6586 247.523C30.263 246.524 28.0888 245.064 26.2597 243.228L13.5055 255.929C17.0026 259.441 21.1574 262.23 25.7323 264.137L32.6586 247.523ZM26.2597 243.228C24.4306 241.391 22.9825 239.213 21.9973 236.819L5.35169 243.67C7.23749 248.252 10.0084 252.418 13.5055 255.929L26.2597 243.228ZM21.9973 236.819C21.0121 234.425 20.5089 231.861 20.5162 229.274L2.51625 229.223C2.5023 234.178 3.46588 239.087 5.35169 243.67L21.9973 236.819ZM20.5162 229.274C20.5235 226.687 21.0411 224.126 22.0397 221.737L5.43301 214.793C3.52143 219.365 2.53021 224.268 2.51625 229.223L20.5162 229.274ZM22.0397 221.737C23.0384 219.349 24.4988 217.179 26.3383 215.353L13.6557 202.58C10.1389 206.072 7.34459 210.222 5.43301 214.793L22.0397 221.737ZM26.3383 215.353C28.1777 213.526 30.3602 212.079 32.7613 211.094L25.9285 194.441C21.3428 196.322 17.1724 199.088 13.6557 202.58L26.3383 215.353ZM32.7613 211.094C35.1625 210.108 37.7349 209.605 40.3317 209.612L40.3822 191.612C35.4254 191.598 30.514 192.559 25.9285 194.441L32.7613 211.094ZM40.357 209.612H40.5025V191.612H40.357V209.612ZM40.4563 209.612L71.8932 209.774L71.9857 191.774L40.5488 191.612L40.4563 209.612ZM80.9079 201.526L86.4156 135.903L68.4787 134.398L62.971 200.021L80.9079 201.526ZM77.4912 126.151L51.1092 126.021L51.021 144.021L77.4031 144.15L77.4912 126.151ZM51.0878 126.021C48.491 126.015 45.9213 125.498 43.5255 124.5L36.6039 141.116C41.1794 143.022 46.0855 144.009 51.0423 144.021L51.0878 126.021ZM43.5255 124.5C41.1297 123.502 38.9551 122.042 37.1254 120.206L24.3748 132.911C27.8728 136.422 32.0284 139.21 36.6039 141.116L43.5255 124.5ZM37.1254 120.206C35.2958 118.37 33.8471 116.193 32.8612 113.799L16.2175 120.654C18.1046 125.236 20.8767 129.401 24.3748 132.911L37.1254 120.206ZM32.8612 113.799C31.8753 111.405 31.3714 108.842 31.378 106.254L13.378 106.209C13.3655 111.164 14.3305 116.072 16.2175 120.654L32.8612 113.799ZM31.378 106.254C31.3845 103.667 31.9014 101.106 32.8994 98.717L16.2907 91.7778C14.3804 96.3501 13.3906 101.254 13.378 106.209L31.378 106.254ZM32.8994 98.717C33.8974 96.3282 35.3572 94.1583 37.1961 92.3314L24.5099 79.5619C20.9941 83.0547 18.201 87.2056 16.2907 91.7778L32.8994 98.717ZM37.1961 92.3314C39.0351 90.5044 41.2171 89.0564 43.6179 88.0705L36.7804 71.4197C32.1954 73.3025 28.0257 76.069 24.5099 79.5619L37.1961 92.3314ZM43.6179 88.0705C46.0188 87.0846 48.5911 86.5804 51.1879 86.5869L51.2334 68.587C46.2766 68.5744 41.3655 69.5369 36.7804 71.4197L43.6179 88.0705ZM51.2107 86.5869H51.3643V68.5869H51.2107V86.5869ZM51.3196 86.5868L82.2228 86.7403L82.3121 68.7405L51.409 68.5871L51.3196 86.5868ZM91.236 78.4919L94.5843 38.5333L76.6472 37.0303L73.2989 76.9889L91.236 78.4919ZM94.5819 38.5617C95.0122 33.6147 97.2864 29.0064 100.959 25.6494L88.8137 12.3641C81.8137 18.7632 77.4713 27.5551 76.6496 37.0019L94.5819 38.5617ZM100.959 25.6494C104.631 22.292 109.434 20.4313 114.419 20.4388L114.446 2.43886C104.961 2.42456 95.8133 5.96525 88.8137 12.3641L100.959 25.6494ZM114.432 20.4389C115.335 20.4389 115.563 20.4512 115.7 20.469L118.017 2.61872C116.536 2.42653 115.147 2.43885 114.432 2.43885L114.432 20.4389ZM116.144 20.5154C118.74 20.7223 121.27 21.4384 123.588 22.6222L131.775 6.59148C127.351 4.33243 122.525 2.96679 117.573 2.57227L116.144 20.5154ZM123.588 22.6222C125.907 23.806 127.967 25.4342 129.653 27.4129L143.355 15.7393C140.134 11.9589 136.199 8.85055 131.775 6.59148L123.588 22.6222ZM129.653 27.4129C131.339 29.3916 132.617 31.682 133.415 34.153L150.544 28.6236C149.019 23.8979 146.575 19.5197 143.355 15.7393L129.653 27.4129ZM133.415 34.153C134.212 36.6239 134.514 39.2272 134.303 41.8143L152.243 43.2787C152.647 38.3294 152.07 33.3494 150.544 28.6236L133.415 34.153ZM134.304 41.7952L131.328 77.3283L149.265 78.8308L152.242 43.2977L134.304 41.7952ZM140.249 87.0794L229.966 87.5559L230.061 69.5562L140.345 69.0797L140.249 87.0794ZM238.982 79.3091L242.403 38.5672L224.466 37.061L221.045 77.803L238.982 79.3091ZM242.401 38.594C242.831 33.6471 245.105 29.0387 248.778 25.6817L236.633 12.3964C229.633 18.7955 225.29 27.5875 224.469 37.0342L242.401 38.594ZM248.778 25.6817C252.45 22.3244 257.253 20.4636 262.238 20.4712L262.265 2.47117C252.78 2.45687 243.632 5.99755 236.633 12.3964L248.778 25.6817ZM262.276 0.0484859C252.215 0.0212612 242.504 3.74268 235.042 10.4883L247.113 23.8408C251.251 20.1 256.64 18.0333 262.227 18.0484L262.276 0.0484859ZM235.035 10.4945C227.52 17.3022 222.871 26.7072 222.031 36.81L239.969 38.3013C240.431 32.7514 242.985 27.5805 247.12 23.8346L235.035 10.4945ZM222.032 36.8022L218.797 75.3071L236.734 76.8141L239.969 38.3092L222.032 36.8022ZM227.815 67.0608L142.983 66.5924L142.884 84.5921L227.716 85.0605L227.815 67.0608ZM151.902 76.3446L154.66 43.4684L136.723 41.9637L133.965 74.8399L151.902 76.3446ZM154.659 43.4748C155.103 38.2251 154.501 32.9397 152.886 27.9246L135.752 33.4401C136.636 36.1875 136.966 39.0823 136.723 41.9574L154.659 43.4748ZM152.886 27.9246C151.272 22.9094 148.678 18.2644 145.255 14.2581L131.569 25.9501C133.446 28.1469 134.868 30.6928 135.752 33.4401L152.886 27.9246ZM145.291 14.3009C141.863 10.237 137.662 6.89338 132.932 4.46316L124.706 20.4735C127.32 21.8166 129.64 23.6637 131.533 25.9073L145.291 14.3009ZM132.932 4.46316C128.202 2.03295 123.037 0.564188 117.736 0.141516L116.305 18.0846C119.237 18.3183 122.092 19.1305 124.706 20.4735L132.932 4.46316ZM117.767 0.144044C116.675 0.0532443 115.551 7.22648e-07 114.408 7.22648e-07V18C114.995 18 115.618 18.0275 116.274 18.0821L117.767 0.144044ZM114.41 9.29097e-07C104.347 -0.00215452 94.6426 3.74532 87.1972 10.5125L99.3039 23.8327C103.433 20.0799 108.818 17.9988 114.406 18L114.41 9.29097e-07ZM87.2127 10.4984C79.6901 17.3037 75.0358 26.7116 74.1961 36.8186L92.1343 38.3089C92.5953 32.7595 95.1511 27.5895 99.2883 23.8468L87.2127 10.4984ZM74.1966 36.8119L71.0343 74.5335L88.9714 76.0372L92.1337 38.3156L74.1966 36.8119ZM80.046 66.2855L51.3913 66.1482L51.305 84.148L79.9598 84.2853L80.046 66.2855ZM51.3482 66.1481H51.1783V84.1481H51.3482V66.1481ZM51.3444 66.1496C46.0151 66.0512 40.7191 67.0126 35.7648 68.9781L42.4025 85.7095C45.1398 84.6236 48.0666 84.0922 51.0122 84.1466L51.3444 66.1496ZM35.7648 68.9781C30.8105 70.9436 26.2965 73.8741 22.486 77.5996L35.0695 90.4703C37.1727 88.414 39.6653 86.7955 42.4025 85.7095L35.7648 68.9781ZM22.486 77.5996C18.6755 81.3251 15.6446 85.7711 13.5707 90.6791L30.1512 97.6853C31.2947 94.9792 32.9663 92.5265 35.0695 90.4703L22.486 77.5996ZM13.5707 90.6791C11.4968 95.5872 10.4214 100.859 10.4076 106.187L28.4075 106.233C28.4151 103.297 29.0078 100.391 30.1512 97.6853L13.5707 90.6791ZM10.4076 106.187C10.3937 111.514 11.4417 116.791 13.4901 121.71L30.1068 114.79C28.9774 112.078 28.3999 109.17 28.4075 106.233L10.4076 106.187ZM13.4901 121.71C15.5385 126.629 18.5462 131.091 22.3374 134.836L34.9875 122.031C32.8951 119.964 31.2362 117.502 30.1068 114.79L13.4901 121.71ZM22.3374 134.836C26.1285 138.581 30.6273 141.535 35.5713 143.526L42.2956 126.829C39.5641 125.729 37.0799 124.098 34.9875 122.031L22.3374 134.836ZM35.5713 143.526C40.5154 145.517 45.8063 146.506 51.1361 146.435L50.897 128.437C47.9512 128.476 45.0272 127.929 42.2956 126.829L35.5713 143.526ZM50.9707 146.436L74.7242 146.557L74.816 128.557L51.0625 128.436L50.9707 146.436ZM65.8012 136.81L60.7383 197.596L78.6762 199.09L83.7391 138.304L65.8012 136.81ZM69.752 189.343L40.5554 189.198L40.4658 207.197L69.6624 207.343L69.752 189.343ZM40.5106 189.198H40.357V207.198H40.5106V189.198ZM40.3574 189.198C29.7304 189.197 19.5297 193.384 11.9724 200.852L24.6246 213.655C28.8096 209.519 34.4628 207.197 40.3565 207.198L40.3574 189.198ZM11.9724 200.852C4.41459 208.321 0.11119 218.468 0.00142366 229.091L18.0005 229.277C18.0611 223.404 20.4401 217.79 24.6246 213.655L11.9724 200.852ZM0.001219 229.114C-0.0402279 234.408 0.975611 239.657 2.98902 244.554L19.6368 237.709C18.5341 235.027 17.978 232.153 18.0007 229.255L0.001219 229.114ZM2.98902 244.554C5.00242 249.451 7.9728 253.897 11.7259 257.633L24.4248 244.877C22.3671 242.828 20.7396 240.391 19.6368 237.709L2.98902 244.554ZM11.6852 257.593C15.415 261.353 19.8522 264.34 24.741 266.381L31.6751 249.77C28.9742 248.642 26.5241 246.993 24.4655 244.917L11.6852 257.593ZM24.741 266.381C29.6297 268.421 34.8739 269.476 40.1718 269.485L40.2024 251.485C37.2741 251.481 34.3761 250.897 31.6751 249.77L24.741 266.381ZM40.1383 269.485L50.5634 269.542L50.661 251.542L40.2359 251.486L40.1383 269.485ZM50.5598 269.542L64.4221 269.623L64.5269 251.623L50.6646 251.542L50.5598 269.542ZM55.5059 259.871L52.101 300.516L70.0381 302.019L73.4431 261.374L55.5059 259.871ZM52.0993 300.537C51.67 305.804 52.2849 311.104 53.9086 316.134L71.0381 310.604C70.1422 307.829 69.803 304.905 70.0398 301.999L52.0993 300.537ZM53.9086 316.134C55.5323 321.164 58.1327 325.823 61.5606 329.847L75.2627 318.175C73.3695 315.952 71.9341 313.38 71.0381 310.604L53.9086 316.134ZM61.5606 329.847C64.9884 333.871 69.1763 337.18 73.8844 339.585L82.0734 323.556C79.4702 322.226 77.156 320.397 75.2627 318.175L61.5606 329.847ZM73.8844 339.585C78.5924 341.99 83.7285 343.445 88.9991 343.866L90.4334 325.924C87.5175 325.691 84.6766 324.886 82.0734 323.556L73.8844 339.585ZM88.9899 343.866C90.1428 343.959 91.2428 344 92.3528 344V326C91.6997 326 91.0851 325.976 90.4425 325.924L88.9899 343.866ZM92.3403 344C102.429 344.014 112.158 340.246 119.602 333.438L107.453 320.156C103.337 323.921 97.9524 326.008 92.3652 326L92.3403 344ZM119.602 333.438C127.045 326.629 131.66 317.276 132.53 307.228L114.597 305.676C114.117 311.223 111.569 316.391 107.453 320.156L119.602 333.438ZM132.532 307.206L136.357 261.7L118.42 260.192L114.595 305.698L132.532 307.206ZM127.341 269.946L200.996 270.333L201.091 252.334L127.436 251.946L127.341 269.946ZM200.991 270.333L212.169 270.398L212.273 252.398L201.095 252.334L200.991 270.333ZM203.252 260.645L199.904 300.515L217.841 302.021L221.189 262.151L203.252 260.645ZM199.902 300.537C199.473 305.804 200.088 311.104 201.711 316.134L218.841 310.604C217.945 307.829 217.606 304.905 217.843 301.999L199.902 300.537ZM201.711 316.134C203.335 321.164 205.935 325.824 209.363 329.847L223.065 318.175C221.172 315.952 219.737 313.38 218.841 310.604L201.711 316.134ZM209.363 329.847C212.791 333.871 216.979 337.18 221.687 339.585L229.876 323.556C227.273 322.226 224.959 320.397 223.065 318.175L209.363 329.847ZM221.687 339.585C226.395 341.99 231.531 343.445 236.802 343.866L238.236 325.924C235.32 325.691 232.479 324.886 229.876 323.556L221.687 339.585ZM236.793 343.866C237.95 343.959 239.074 344 240.164 344V326C239.522 326 238.884 325.976 238.245 325.924L236.793 343.866ZM240.155 344C250.242 344.009 259.967 340.24 267.408 333.433L255.26 320.152C251.143 323.917 245.759 326.005 240.172 326L240.155 344ZM267.408 333.433C274.85 326.627 279.466 317.278 280.34 307.233L262.408 305.672C261.925 311.219 259.376 316.387 255.26 320.152L267.408 333.433ZM280.343 307.203L284.087 262.472L266.15 260.97L262.405 305.702L280.343 307.203ZM275.073 270.721L306.615 270.882L306.707 252.883L275.165 252.721L275.073 270.721ZM306.661 270.883H306.814V252.883H306.661V270.883ZM306.809 270.883C317.437 270.889 327.641 266.705 335.2 259.237L322.549 246.432C318.365 250.566 312.712 252.886 306.82 252.883L306.809 270.883ZM335.2 259.237C342.76 251.768 347.063 241.619 347.17 230.995L329.171 230.813C329.112 236.685 326.734 242.298 322.549 246.432L335.2 259.237ZM347.17 230.932C347.187 225.648 346.16 220.412 344.15 215.525L327.503 222.372C328.613 225.07 329.18 227.96 329.17 230.876L347.17 230.932ZM344.15 215.525C342.14 210.637 339.185 206.194 335.455 202.449L322.701 215.15C324.762 217.22 326.393 219.674 327.503 222.372L344.15 215.525ZM335.455 202.449C331.726 198.704 327.294 195.729 322.415 193.696L315.49 210.31C318.189 211.435 320.639 213.08 322.701 215.15L335.455 202.449ZM322.415 193.696C317.535 191.662 312.302 190.608 307.016 190.595L306.969 208.595C309.895 208.602 312.79 209.185 315.49 210.31L322.415 193.696ZM307.044 190.595L280.355 190.441L280.251 208.441L306.941 208.595L307.044 190.595ZM289.271 200.193L294.367 139.432L276.43 137.928L271.334 198.689L289.271 200.193ZM285.35 147.68L317.248 147.849L317.344 129.849L285.446 129.68L285.35 147.68ZM316.81 147.836C317.252 147.86 317.696 147.86 318.138 147.836L317.166 129.862C317.371 129.851 317.577 129.851 317.782 129.862L316.81 147.836ZM317.649 147.849C328.277 147.852 338.48 143.666 346.037 136.196L333.383 123.394C329.199 127.53 323.547 129.851 317.655 129.849L317.649 147.849ZM346.037 136.196C353.594 128.726 357.895 118.575 357.999 107.951L340 107.774C339.943 113.646 337.566 119.26 333.383 123.394L346.037 136.196ZM358 107.888C358.015 102.603 356.987 97.367 354.974 92.4794L338.33 99.3323C339.441 102.031 340.008 104.92 340 107.837L358 107.888ZM354.974 92.4794C352.962 87.5918 350.005 83.149 346.274 79.4045L333.524 92.1105C335.586 94.1799 337.219 96.634 338.33 99.3323L354.974 92.4794ZM346.274 79.4045C342.542 75.66 338.108 72.6872 333.227 70.6553L326.31 87.2732C329.01 88.3972 331.462 90.0412 333.524 92.1105L346.274 79.4045ZM333.227 70.6553C328.346 68.6235 323.112 67.5723 317.824 67.5614L317.787 85.5613C320.713 85.5674 323.61 86.1492 326.31 87.2732L333.227 70.6553ZM317.856 67.5615L290.682 67.408L290.58 85.4078L317.755 85.5612L317.856 67.5615ZM299.599 77.16L302.422 43.5004L284.485 41.9963L281.662 75.6558L299.599 77.16ZM302.419 43.5328C302.88 38.2627 302.286 32.9539 300.671 27.916L283.53 33.4103C284.415 36.17 284.74 39.0777 284.488 41.9639L302.419 43.5328ZM300.671 27.916C299.056 22.8781 296.454 18.2125 293.015 14.1909L279.334 25.8881C281.219 28.0933 282.646 30.6505 283.53 33.4103L300.671 27.916ZM293.035 14.2137C289.606 10.1766 285.414 6.85641 280.698 4.44313L272.498 20.4668C275.105 21.8009 277.421 23.6357 279.315 25.8652L293.035 14.2137ZM280.698 4.44313C275.982 2.02987 270.836 0.570928 265.555 0.149634L264.124 18.0926C267.045 18.3257 269.891 19.1327 272.498 20.4668L280.698 4.44313ZM265.592 0.152707C264.501 0.0610426 263.367 0.00805967 262.227 0.00805967V18.0081C262.817 18.0081 263.447 18.0359 264.086 18.0896L265.592 0.152707ZM254.51 13.6387L254.534 13.6791L269.968 4.41779L269.944 4.37739L254.51 13.6387Z" fill="white" fill-opacity="0.14" mask="url(#path-1-outside-1_223_2)"/>
</svg>
