<svg width="300" height="293" viewBox="0 0 300 293" fill="none" xmlns="http://www.w3.org/2000/svg">
<path d="M133.665 211.795C133.918 210.971 134.077 210.178 134.363 209.448C135.092 207.703 136.202 206.371 138.232 206.244C140.199 206.149 141.944 206.625 142.959 208.528C143.118 208.845 143.34 209.131 143.625 209.543C147.939 205.324 151.524 200.852 151.365 194.412C151.333 193.365 151.365 192.287 151.492 191.208C151.873 188.512 153.014 186.133 154.823 184.071C156.313 182.39 158.026 181.026 159.93 179.852C162.34 178.361 164.942 177.156 167.543 176.077C170.017 175.062 172.301 173.73 174.204 171.763C175.346 170.59 176.171 169.257 176.647 167.703C177.408 165.229 176.551 163.326 174.268 162.184C172.491 161.327 170.556 160.978 168.621 160.693C167.479 160.534 166.242 160.09 165.227 160.407C164.212 160.725 163.451 161.803 162.626 162.628C152.634 172.303 140.675 178.076 127.13 180.867C117.265 182.898 107.4 182.898 97.5027 181.026C91.5074 179.947 85.4804 178.425 79.6755 176.204C73.1726 173.698 67.0822 170.495 61.6262 166.117C60.6746 165.356 59.8815 165.229 58.7396 165.641C51.3803 168.369 44.9092 172.43 39.6752 178.361C36.2811 182.168 34.9488 186.545 35.5198 191.621C36.2494 198.282 38.6284 204.341 41.864 210.114C44.5603 214.904 47.7324 219.408 50.7776 224.008C51.4754 225.023 52.2685 226.006 53.6008 226.546C53.9497 226.038 54.2986 225.435 54.711 224.96C55.9798 223.437 58.8347 222.898 60.5794 223.818C61.7214 224.42 62.4192 225.467 62.895 226.641C63.0854 227.117 63.1805 227.656 63.3074 228.195C63.4343 228.703 63.6881 228.956 64.2273 228.925C66.3843 228.925 68.4462 229.432 70.5081 229.94C74.2512 230.86 77.3598 232.858 79.6437 235.967C83.3234 240.947 85.8293 246.498 87.352 252.493C87.8912 254.65 87.4788 256.459 85.8293 258.076C84.2116 259.631 82.5621 261.09 80.7857 262.422C76.3765 265.721 71.7769 268.735 67.1139 271.653C59.1202 276.633 51.5389 282.184 43.6721 287.387C41.6737 288.719 39.707 290.051 37.4865 291.003C36.5983 291.383 35.6467 291.669 34.7267 291.986C33.2041 292.494 31.9353 292.018 30.8251 290.971C30.4444 290.59 30.0638 290.21 29.7465 289.797C25.4959 284.437 22.2921 278.568 21.0867 271.748C20.7695 270.003 20.6743 268.227 20.6426 266.451C20.5792 263.025 21.848 260.043 23.8147 257.315C24.3857 256.522 24.9884 255.761 25.5276 255.031C25.2739 254.302 24.576 254.206 24.1636 253.731C23.4658 252.906 23.8147 251.669 24.8615 251.415C25.4642 251.256 26.1304 251.161 26.7013 251.288C28.6998 251.796 30.0955 250.907 31.396 249.575C31.5864 249.385 31.745 249.194 31.9353 248.972C31.4912 248.179 30.5713 248.306 29.9686 247.83C29.5245 247.482 29.2073 247.101 29.2707 246.498C29.3342 245.927 29.7148 245.547 30.2224 245.293C30.7933 245.007 31.396 244.912 32.0305 245.007C32.6332 245.102 33.2676 245.166 33.8386 245.388C35.3612 245.991 36.5031 245.578 37.6451 244.436C38.6602 243.453 39.8338 242.628 40.9441 241.74C41.0075 241.677 41.0392 241.581 41.1661 241.391C40.4048 240.757 39.6118 240.122 38.8505 239.424C37.8671 238.504 37.0424 237.426 36.8838 236.03C36.5983 233.81 37.2962 232.002 39.1677 230.701C39.5166 230.447 40.0242 230.447 40.2145 229.94C40.2779 229.464 39.929 229.147 39.707 228.798C38.565 227.117 37.423 225.435 36.2176 223.754C32.3794 218.393 29.239 212.62 26.3524 206.72C23.2437 200.471 21.848 193.841 22.4507 186.863C22.9265 181.407 24.7029 176.522 28.446 172.398C32.6966 167.671 37.6451 163.801 42.9108 160.312C45.1312 158.853 47.32 157.33 49.5087 155.808C49.7942 155.617 50.0163 155.364 50.3652 155.046C46.4318 150.542 43.45 145.498 40.8172 140.264C36.5983 131.954 34.1558 123.072 33.109 113.841C32.9821 112.794 32.8552 111.716 32.76 110.669C32.6966 110.034 32.4111 109.685 31.7767 109.654C30.5396 109.527 29.3024 109.368 28.097 109.114C25.1787 108.512 22.5459 107.275 20.1668 105.498C16.8678 103.024 14.1398 99.9787 11.729 96.6797C6.49503 89.5108 2.6885 81.644 0.912126 72.889C-0.229832 67.1792 -0.42016 61.4377 1.03901 55.7279C1.89548 52.4289 3.32292 49.3837 5.32135 46.624C7.25633 43.9594 9.38165 41.4534 11.9511 39.3598C20.6109 32.2543 30.0955 26.6397 40.9123 23.4676C46.749 21.7547 52.7126 20.9934 58.803 21.5009C62.7999 21.8498 66.6698 22.8015 70.5081 23.9434C73.2995 24.7682 76.0593 25.7515 78.8824 26.608C80.5637 27.1155 82.2766 27.5913 84.0212 27.972C89.1283 29.0505 94.0768 28.3526 98.9618 26.7031C102.388 25.4977 105.782 23.9434 109.176 22.3574C113.934 20.1686 118.756 18.1068 123.736 16.489C127.035 15.4105 130.397 14.6809 133.918 14.6174C138.803 14.4906 143.181 15.8863 147.178 18.646C149.081 19.9466 150.984 21.2471 152.951 22.4843C154.061 23.1821 155.298 23.7531 156.504 24.2606C157.487 24.673 158.502 24.9268 159.549 25.244C160.183 24.5778 160.183 23.7531 160.437 23.0235C162.277 17.1234 167.765 13.1266 173.887 13.2852C176.393 13.3486 178.518 14.3637 180.295 16.1718C181.31 17.1868 182.103 18.3605 182.801 19.5976C183.149 20.2003 183.562 20.2003 184.133 19.8831C185.053 19.3756 186.004 18.8363 186.956 18.3605C191.936 15.9497 196.98 15.6008 202.119 17.853C202.785 18.1385 203.387 18.2019 204.149 18.0116C206.813 17.3137 209.605 17.282 212.333 17.0282C216.044 16.6793 219.787 16.6476 223.499 16.711C224.926 16.7427 226.322 16.9648 227.654 17.4723C230.572 18.5826 232.222 20.7713 232.539 23.88C232.825 27.0521 231.365 29.3677 228.701 30.922C226.829 32.0006 224.736 32.4764 222.642 32.8253C222.325 32.8888 221.976 33.0156 221.691 33.1425C221.627 33.1742 221.627 33.5232 221.691 33.5549C222.325 33.8404 222.991 34.0942 223.657 34.3162C225.592 35.0141 227.369 36.0291 228.859 37.4566C229.97 38.5034 230.858 39.7088 231.397 41.1362C232.158 43.1346 231.714 44.7524 230.097 46.1481C229.335 46.7826 228.479 47.2584 227.559 47.6073C225.814 48.2735 224.006 48.7493 222.103 48.7493C219.692 48.7493 217.313 48.6541 214.902 48.6224C214.49 48.6224 214.046 48.6224 213.697 48.6224C213.475 49.0982 213.633 49.4154 213.792 49.7326C214.014 50.3036 214.3 50.8746 214.426 51.4773C214.966 53.7929 214.077 55.4424 211.889 56.394C210.81 56.8381 209.7 57.0919 208.526 57.1871C204.625 57.536 200.723 57.4726 196.853 56.6478C193.173 55.8548 190.096 54.015 187.781 51.0015C187.464 50.5891 187.178 50.1133 186.861 49.7009C186.544 49.3202 186.131 49.2251 185.687 49.5106C185.243 49.7961 184.767 50.0181 184.323 50.3353C182.896 51.3821 181.405 52.302 180.041 53.4757C178.423 54.9031 176.583 55.9817 174.363 56.2037C172.935 56.3623 171.508 56.172 170.207 55.5693C165.068 53.1902 161.896 49.352 161.484 43.5153C161.389 42.3733 161.357 42.3099 160.279 42.3099C158.851 42.3099 157.424 42.3416 156.028 42.3416C151.175 42.3099 146.512 41.3265 142.071 39.3281C138.994 37.9641 135.98 36.4732 132.903 35.0458C131.064 34.1893 129.16 33.428 127.13 33.1108C123.895 32.6033 120.754 33.1425 117.677 33.999C115.457 34.6334 113.331 35.5533 111.301 36.6636C109.366 37.7421 107.431 38.8206 105.496 39.8991C100.389 42.6588 94.965 43.9594 89.1283 43.8008C82.5938 43.6422 76.2496 42.5637 69.9688 40.9142C63.688 39.2647 57.3756 37.9007 50.9045 37.2028C46.2415 36.6953 41.6736 37.1076 37.1375 38.1227C35.3929 38.5034 33.7751 39.233 32.2208 40.1211C23.4658 45.1965 18.3587 52.651 17.6926 62.8651C17.4388 66.9254 17.4705 71.0174 18.1367 75.0777C18.7394 78.7574 20.2302 81.9929 22.5776 84.8795C25.4642 88.4323 28.9218 91.3189 32.4428 94.1738C32.7918 94.4276 33.1724 94.6179 33.6482 94.9034C34.4413 94.2372 34.3778 93.2539 34.5681 92.4609C36.4714 84.6892 39.929 77.6788 44.592 71.176C51.0314 62.1355 59.5643 55.9182 69.8419 51.8897C78.8507 48.3686 88.1767 46.4019 97.8199 45.8627C102.8 45.5772 107.749 45.6406 112.729 46.0213C115.298 46.2116 117.804 46.6874 120.342 47.2901C122.753 47.8928 125.227 48.1148 127.669 48.6224C134.711 50.0816 141.595 52.08 148.129 55.1886C151.777 56.9016 155.076 59.122 158.026 61.8501C161.389 64.927 164.466 68.226 167.13 71.9056C168.621 73.9992 170.144 76.0928 171.666 78.1547C175.663 83.6424 178.772 89.606 181.31 95.8867C183.054 100.201 184.26 104.61 184.577 109.273C184.672 110.542 184.862 110.954 186.29 111.145C187.432 111.303 188.542 111.652 189.684 111.874C192 112.318 193.903 111.493 195.33 109.685C196.028 108.797 196.567 107.75 197.138 106.767C197.836 105.625 198.502 104.483 199.2 103.341C200.152 101.755 201.643 101.089 203.419 100.994C206.147 100.803 208.717 101.279 211.191 102.453C213.284 103.436 215.219 104.705 217.059 106.069C218.55 107.179 220.104 108.226 221.691 109.21C223.055 110.066 224.545 110.637 226.163 110.891C229.24 111.367 231.778 110.478 233.649 107.909C234.823 106.323 235.584 104.515 236.187 102.675C237.488 98.7733 238.122 94.7448 238.82 90.7479C239.105 89.1619 239.423 87.6075 239.74 86.0532C240.343 82.8811 241.516 79.931 243.166 77.1396C244.339 75.1412 245.576 73.2062 246.814 71.2395C247.829 69.59 249.32 68.5432 251.159 67.9088C254.458 66.7985 257.821 66.0372 261.278 65.7517C262.769 65.6249 264.292 65.4345 265.783 65.2759C269.304 64.8953 272.444 63.4678 275.331 61.4694C276.314 60.7715 276.98 59.9468 277.297 58.7414C277.868 56.5844 278.344 54.4273 278.408 52.2069C278.503 49.1934 278.439 46.1799 278.122 43.1664C278.027 42.2782 277.773 42.1513 276.885 42.2782C276.695 42.3099 276.536 42.3416 276.346 42.3733C271.556 43.5787 268.067 41.4534 265.275 37.8372C264.102 36.3463 263.499 34.6017 263.245 32.6984C263.086 31.6199 263.213 30.5731 263.531 29.558C263.689 29.0822 264.228 28.6064 263.911 28.0989C263.657 27.6865 263.118 27.401 262.706 27.0838C262.579 26.9569 262.42 26.8618 262.293 26.7666C257.599 23.3724 255.822 18.7412 256.425 13.0631C256.584 11.5405 257.059 10.1131 257.948 8.84421C259.121 7.13127 260.739 5.98932 262.833 6.08448C264.419 6.14792 265.243 5.5135 265.846 4.18122C266.322 3.13442 267.178 2.30968 268.098 1.58009C270.224 -0.0693996 272.032 -0.0376787 274.125 1.64354C274.538 1.99247 274.918 2.37312 275.394 2.81721C276.79 1.64354 278.027 0.247811 280.057 0.0257634C282.024 -0.164563 283.483 0.723626 284.72 1.8973C285.513 1.99247 285.957 1.51665 286.497 1.23116C291.382 -1.30652 296.616 2.11935 297.599 6.43341C298.329 9.60551 297.694 12.5873 296.394 15.5056C295.696 17.0282 294.681 18.3605 293.539 19.6928C294.173 20.1686 294.744 20.6127 295.283 21.0568C297.345 22.738 298.741 24.8633 299.407 27.4327C300.264 30.7 299.661 33.7769 297.662 36.5367C295.854 39.0109 293.666 41.0411 290.938 42.4685C288.749 43.6105 288.717 43.6739 289.034 46.1799C289.383 49.0982 289.859 51.9848 290.303 54.8714C290.811 58.107 291.191 61.3742 291.16 64.6732C291.128 69.6217 288.907 73.111 284.593 75.3949C280.755 77.3934 276.663 78.4719 272.412 79.0746C268.987 79.5504 265.529 79.8042 262.071 80.1848C260.929 80.3117 259.788 80.4703 258.646 80.6923C256.457 81.1047 254.998 82.4053 254.205 84.4989C253.348 86.7511 252.904 89.0984 252.682 91.5092C252.111 97.5045 251.635 103.531 251.096 109.558C250.842 112.572 250.398 115.554 249.668 118.472C248.336 123.896 244.847 127.354 238.059 128.115C233.142 128.686 228.542 127.608 224.228 125.229C220.961 123.421 217.979 121.2 215.156 118.726C214.014 117.743 212.872 116.759 211.667 115.839C209.795 114.38 207.797 114.285 205.671 115.268C203.102 116.442 201.008 118.155 199.264 120.344C198.693 121.042 198.217 121.771 197.709 122.501C195.362 125.958 191.619 126.973 187.337 125.704C186.258 125.387 185.211 124.848 183.974 124.309C182.103 133.698 178.328 142.263 173.253 150.225C173.919 151.05 174.775 151.303 175.568 151.684C177.313 152.54 179.089 153.397 180.802 154.285C183.752 155.839 185.719 158.345 187.051 161.327C188.193 163.865 187.908 166.561 187.4 169.194C186.924 171.7 185.687 173.825 183.974 175.729C182.578 177.251 181.056 178.583 179.311 179.662C177.186 180.963 175.092 182.295 172.935 183.5C170.842 184.674 168.875 186.038 166.972 187.497C165.988 188.258 165.1 189.115 164.339 190.098C163.419 191.304 162.721 192.636 162.563 194.19C162.436 195.618 162.277 197.013 162.15 198.441C161.928 201.201 161.262 203.833 160.057 206.371C159.422 207.703 158.439 208.814 158.375 210.463C158.344 211.224 157.519 211.954 157.043 212.715C157.106 213.255 157.582 213.35 157.931 213.572C161.04 215.665 161.421 219.282 158.819 222.01C158.026 222.834 157.107 223.532 156.123 224.389C156.758 225.245 157.709 225.721 158.471 226.387C159.264 227.085 160.12 227.751 160.945 228.385C161.294 228.671 161.738 228.734 162.182 228.608C163.038 228.385 163.895 228.163 164.783 228.005C165.576 227.878 166.369 227.814 167.13 228.227C167.606 228.481 168.019 228.83 168.05 229.432C168.082 230.035 167.828 230.479 167.321 230.733C166.686 231.05 166.052 231.336 165.259 231.684C165.957 232.731 166.94 233.302 167.765 234.032C168.114 234.349 168.59 234.286 169.034 234.286C170.017 234.222 170.969 234.19 171.952 234.19C172.618 234.19 173.157 234.508 173.379 235.174C173.601 235.84 173.379 236.379 172.84 236.823C172.491 237.109 172.142 237.363 171.793 237.585C171.825 238.219 172.237 238.568 172.586 238.98C176.361 243.326 177.281 248.401 176.361 253.953C175.156 261.153 171.857 267.339 167.321 272.985C166.94 273.461 166.496 273.905 165.988 274.286C165.1 274.984 164.117 275.301 163.007 274.984C162.055 274.73 161.135 274.476 160.215 274.095C158.312 273.302 156.567 272.287 154.886 271.114C148.859 267.022 142.864 262.898 136.805 258.838C134.077 256.998 131.317 255.253 128.526 253.509C124.148 250.781 119.898 247.894 115.806 244.754C114.188 243.516 112.665 242.152 111.238 240.693C109.842 239.298 109.43 237.68 109.874 235.808C110.064 234.952 110.255 234.064 110.508 233.239C111.936 228.544 114.029 224.167 116.757 220.043C119.485 215.887 123.324 213.413 128.177 212.43C129.953 212.113 131.761 211.732 133.665 211.795ZM146.639 233.588C147.368 233.873 148.066 234.032 148.891 233.619C151.809 232.129 154.823 230.923 157.931 229.908C158.248 229.813 158.629 229.718 158.756 229.147C158.217 228.703 157.646 228.163 157.075 227.688C155.584 226.45 153.998 225.404 152.031 224.928C149.113 224.198 146.385 222.993 143.752 221.502C142.198 220.646 140.643 219.821 139.248 218.711C138.74 218.298 138.201 218.076 137.535 218.298C137.313 218.076 137.091 217.854 136.9 217.664C136.9 217.473 136.964 217.283 136.868 217.124C136.171 215.856 135.124 214.936 134.077 213.984C133.506 213.477 132.776 213.477 132.047 213.635C131.349 213.762 130.651 213.889 129.953 214.016C126.781 214.555 123.799 215.412 121.23 217.537C119.327 219.123 118.09 221.09 116.789 223.088C115.996 224.293 116.059 224.579 117.138 225.594C119.041 227.434 120.088 229.718 120.722 232.255C121.103 233.746 121.071 235.237 121.008 236.728C120.945 238.029 121.42 238.853 122.499 239.551C126.496 242.152 130.493 244.785 134.426 247.482C138.169 250.019 141.817 252.652 145.528 255.221C146.099 255.634 146.639 256.11 147.21 256.49C148.256 257.156 148.7 257.093 149.43 256.046C151.397 253.16 153.839 250.749 156.821 248.909C157.202 248.687 157.519 248.37 157.868 248.084C158.153 247.83 158.312 247.482 158.185 247.133C157.741 245.832 157.487 244.405 156.282 243.453C155.647 243.77 155.108 244.056 154.537 244.309C153.903 244.595 153.205 244.817 152.57 245.102C151.999 245.356 151.397 245.483 150.762 245.388C149.715 245.229 148.986 244.595 148.574 243.643C148.161 242.692 148.954 242.152 149.525 241.645C150.191 241.074 150.953 240.598 151.682 240.122C152.031 239.9 152.602 239.995 152.666 239.424C149.969 236.696 150.318 237.109 147.558 238.473C146.829 238.822 146.099 239.139 145.275 239.012C144.482 238.885 144.037 238.219 144.259 237.458C144.545 236.474 145.084 235.713 145.972 235.205C146.765 234.888 146.575 234.19 146.639 233.588ZM104.354 47.6708C92.9983 47.5439 82.3717 49.3202 72.0941 53.0316C61.4041 56.9333 52.3637 63.0872 45.7974 72.5083C44.8458 73.904 43.8624 75.2681 43.0059 76.7272C37.201 86.3704 34.2509 96.8384 34.3144 108.099C34.3461 113.27 35.2026 118.345 36.408 123.357C39.0091 134.206 43.7038 144.071 50.6824 152.826C56.3922 159.995 63.1488 165.927 71.2059 170.304C81.9911 176.173 93.601 179.123 105.718 180.36C113.363 181.121 120.976 180.518 128.462 178.742C136.107 176.934 143.466 174.365 150.096 170.114C158.566 164.69 165.798 158.028 171.349 149.559C177.218 140.582 181.341 131.002 182.578 120.28C183.435 113.048 182.927 105.911 180.421 99.0271C177.979 92.334 174.839 85.9898 170.683 80.1531C169.034 77.8375 167.352 75.5535 165.703 73.2379C162.943 69.3997 159.708 65.9738 156.187 62.8334C153.712 60.6447 151.016 58.8366 148.034 57.3457C143.244 54.9666 138.201 53.3488 133.062 51.9214C127.923 50.4939 122.657 49.7961 117.455 48.6858C112.983 47.7342 108.446 47.6073 104.354 47.6708ZM163.578 42.1196C163.578 42.3416 163.514 42.5954 163.546 42.8492C163.609 43.2298 163.514 43.547 163.324 43.8325C162.975 44.34 163.102 44.8476 163.229 45.3868C164.339 49.9229 167.194 52.8096 171.54 54.3004C172.935 54.7763 174.331 54.6811 175.695 54.1101C177.503 53.3171 179.153 52.302 180.263 50.5891C180.548 50.145 180.834 49.574 181.405 49.574C182.769 49.574 183.625 48.4955 184.736 48.0197C185.433 47.7025 185.846 47.2267 185.814 46.4019C185.782 44.7841 186.607 43.5153 187.686 42.4051C188.32 41.7706 188.891 41.1045 189.621 40.5652C190.192 40.1529 190.414 39.7088 190.35 39.0109C190.16 36.6001 190.699 34.2528 191.016 31.8737C191.08 31.271 191.302 30.6683 191.524 30.0973C191.714 29.6532 192.444 29.4629 192.92 29.7801C193.332 30.0339 193.459 30.4145 193.142 30.8903C192.951 31.1758 192.666 31.493 192.634 31.8102C192.222 34.4431 191.714 37.0759 192 39.7405C192.19 41.6755 193.078 43.2933 194.569 44.5621C197.361 46.9729 201.23 46.624 203.483 43.7056C204.117 42.8809 204.688 41.9292 205.132 40.9776C207.099 36.6953 207.733 32.1274 207.321 27.4645C207.067 24.451 205.513 22.1353 203.007 20.4541C201.199 19.2487 199.232 18.5826 197.043 18.3288C193.015 17.8847 189.303 18.7412 185.814 20.7713C185.211 21.1202 184.482 21.3423 184.165 22.0402C183.879 22.6746 184.355 23.2456 184.418 23.8483C184.45 24.102 184.482 24.3875 184.418 24.6413C184.355 25.1171 184.069 25.4343 183.657 25.6881C183.372 25.8784 182.896 25.6881 182.801 25.3709C182.642 24.7682 182.991 24.1655 182.705 23.531C181.627 21.1837 180.485 18.8998 178.55 17.0917C177.503 16.1083 176.266 15.3787 174.807 15.1884C169.129 14.3954 163.546 18.0116 161.896 23.531C161.294 25.5612 161.389 25.6881 163.387 25.7198C164.18 25.7198 164.973 25.7198 165.766 25.6564C166.432 25.5929 166.75 25.3391 166.908 24.5461C167.701 20.9616 171.222 19.3439 174.521 20.8348C175.854 21.4375 176.869 22.3891 177.63 23.6262C178.264 24.6096 178.677 25.6881 178.962 26.7983C180.358 32.1274 180.358 37.4883 179.026 42.8492C178.804 43.7691 178.328 44.6573 177.884 45.5454C177.567 46.1799 177.059 46.6874 176.456 47.0998C175.41 47.7976 174.331 47.8611 173.189 47.2584C172.142 46.6874 171.413 45.7992 170.683 44.911C169.795 43.8008 169.224 42.5002 168.05 41.612C166.623 41.7706 165.132 41.9292 163.578 42.1196ZM65.401 231.05C62.895 231.018 62.895 231.018 61.2455 233.048C60.3891 234.127 60.3256 234.159 61.0869 235.269C63.4977 238.885 62.4192 242.85 59.945 245.198C58.3906 246.657 56.868 248.148 55.0282 249.226C53.9497 249.861 52.9029 250.495 51.8561 251.161C50.9996 251.7 50.9362 252.049 51.6023 252.779C52.0782 253.318 52.4588 253.889 52.7126 254.587C52.9663 255.285 52.4588 256.078 51.6975 256.11C51.2851 256.141 50.8093 256.078 50.3969 255.951C49.6674 255.666 48.9378 255.317 48.2399 254.904C47.4469 254.428 46.7173 254.555 46.0194 255.063C45.6705 255.317 45.2899 255.57 44.9726 255.856C44.4651 256.3 44.4651 256.807 45.0361 257.125C46.2415 257.727 47.32 258.489 48.1447 259.567C48.8109 260.424 48.684 261.217 47.7958 261.851C46.2732 262.961 44.8458 262.581 43.3231 261.788C40.2462 260.17 40.8172 260.107 39.1677 263.279C39.136 263.342 39.1043 263.437 39.0725 263.532C38.4698 264.865 38.4698 264.896 39.6435 265.689C40.2145 266.102 40.8172 266.451 41.4199 266.863C43.3549 268.132 45.1312 269.591 46.4001 271.59C46.7807 272.192 47.2566 272.731 47.6689 273.302C48.462 274.381 48.8109 274.476 49.8577 273.778C50.8093 273.144 51.6975 272.383 52.6491 271.716C59.7864 266.609 67.0188 261.661 74.4098 256.934C75.9006 255.983 76.4716 255.063 76.3447 253.35C76.2496 251.764 76.1861 250.178 76.662 248.592C77.3281 246.34 78.2797 244.309 79.9609 242.628C80.8491 241.74 80.8491 241.359 80.2147 240.249C79.612 239.171 79.0093 238.06 78.248 237.109C77.2647 235.84 76.1861 234.635 74.7904 233.841C71.8404 232.097 68.7317 231.113 65.401 231.05ZM267.305 17.2186C265.973 18.0116 264.609 18.3922 263.245 18.8046C262.864 18.9315 262.579 18.6777 262.357 18.3605C262.103 17.9799 262.262 17.3772 262.674 17.2186C263.309 16.9331 264.006 16.711 264.673 16.489C266.037 16.0449 267.274 15.3153 268.257 14.2685C269.97 12.4287 269.621 10.1448 267.464 8.90765C266.671 8.46356 265.846 8.24151 264.958 8.05118C260.993 7.13127 258.582 9.51035 258.075 12.8093C257.789 14.7443 257.853 16.6793 258.297 18.6143C258.677 20.2955 259.439 21.7864 260.676 22.9918C261.627 23.9434 262.579 24.8633 263.626 25.6564C265.18 26.8618 265.212 26.83 266.798 25.7515C267.813 25.0537 268.86 24.3558 269.938 23.7531C270.668 23.3407 271.334 23.4676 271.841 24.0703C272.127 24.3875 272.381 24.7682 272.064 25.244C271.841 25.5612 271.556 25.7515 271.175 25.5929C270.731 25.4343 270.319 25.4343 269.938 25.7198C268.701 26.608 267.432 27.401 266.29 28.3526C265.307 29.1774 264.799 30.3193 264.768 31.6516C264.736 36.3781 269.621 41.39 274.221 40.819C277.9 40.3432 278.249 40.3115 277.044 36.6318C276.727 36.3781 276.378 36.505 276.029 36.5684C275.236 36.6636 274.443 36.8539 273.65 36.8539C271.366 36.8222 270.129 35.0775 270.763 32.8888C271.144 31.5565 272 30.5414 273.11 29.7484C277.171 26.9252 281.58 25.3391 286.592 25.7832C288.051 25.9101 289.352 26.4494 290.398 27.4962C292.175 29.2408 292.302 31.2075 290.747 33.1742C290.525 33.4597 290.303 33.7452 290.049 33.9673C288.59 35.1092 288.051 36.5684 288.336 38.3765C288.432 39.0744 288.336 39.8039 288.368 40.5018C288.4 41.1997 288.781 41.4217 289.415 41.1362C291.857 39.9625 293.888 38.2496 295.569 36.156C299.122 31.6834 298.36 25.7198 293.792 22.3256C292.714 21.5326 291.54 20.8665 290.113 21.0251C288.558 21.2154 287.353 20.5175 286.37 19.4073C286.084 19.0584 285.862 18.6777 285.513 18.1385C282.785 20.5175 280.184 19.6928 277.583 18.4874C277.044 18.9949 276.536 19.5342 275.965 19.9149C274.094 21.2154 271.302 21.7547 269.24 19.3756C268.638 18.7412 268.067 18.075 267.305 17.2186ZM205.386 19.5659C205.386 20.3907 205.83 20.6127 206.084 20.9299C207.955 23.087 208.939 25.5929 208.939 28.4478C208.939 29.4312 208.907 30.3828 208.939 31.3661C208.939 32.0323 209.224 32.3178 209.89 32.2861C214.934 32.0957 219.946 31.6199 224.863 30.3511C225.973 30.0656 227.051 29.6849 228.035 29.0188C230.446 27.4327 231.27 24.673 230.065 22.0719C229.304 20.4224 227.971 19.4708 226.258 18.9949C224.704 18.5826 223.15 18.3922 221.532 18.3922C216.171 18.5191 210.81 18.8998 205.386 19.5659ZM212.428 34.2528C211.54 34.2528 210.652 34.221 209.763 34.2528C208.844 34.2845 208.653 34.4114 208.495 35.2678C208.019 38.091 207.131 40.7556 205.735 43.2615C205.386 43.8642 205.513 44.118 206.211 44.4669C207.575 45.1013 208.875 45.9895 210.303 46.3385C211.825 46.7191 213.475 46.624 215.061 46.7508C215.854 46.8143 216.647 46.9095 217.44 46.9729C219.756 47.1315 222.039 47.0681 224.323 46.624C225.624 46.3702 226.893 45.9578 228.035 45.26C229.906 44.118 230.223 42.9443 229.177 41.0411C228.447 39.7088 227.4 38.6303 226.131 37.7421C224.514 36.6001 222.706 35.9022 220.802 35.4264C218.074 34.7603 215.283 34.3479 212.428 34.2528ZM46.5587 233.397C45.5119 233.08 44.6554 232.763 43.8307 232.541C43.228 232.382 42.6253 232.224 42.0226 232.192C40.6586 232.097 39.5801 232.636 38.9456 233.873C38.2795 235.142 38.5333 236.379 39.4215 237.331C41.2613 239.298 43.45 240.503 46.3049 239.805C47.2566 239.583 48.1765 239.266 49.0647 238.822C50.6507 238.029 52.205 237.204 53.7911 236.379C55.853 235.301 57.661 233.873 59.3423 232.287C59.9132 231.748 60.4842 231.145 60.8649 230.479C61.9434 228.671 61.1821 226.133 59.3423 225.182C57.7245 224.357 55.282 224.991 54.4572 227.021C54.3304 227.339 54.2352 227.688 54.0449 228.005C53.8545 228.322 54.0131 228.893 53.347 228.988C52.8077 228.417 52.3319 227.783 51.7292 227.307C50.619 226.45 49.3819 226.038 48.0179 226.704C46.8125 227.307 46.5587 228.385 46.5587 229.623C46.5587 230.765 46.5587 231.906 46.5587 233.397ZM190.477 42.0244C189.843 42.6588 189.272 43.1981 188.701 43.7373C188.637 43.8008 188.574 43.8642 188.51 43.9277C187.305 45.26 187.146 46.7191 188.003 48.3369C189.811 51.6359 192.571 53.7612 196.155 54.6494C200.501 55.7279 204.91 56.0451 209.351 55.1886C210.049 55.0618 210.747 54.8714 211.381 54.5542C212.491 54.0467 212.904 53.0633 212.587 51.8897C212.238 50.6525 211.54 49.6375 210.588 48.8127C209.097 47.5121 207.321 46.6874 205.481 46.053C204.593 45.7675 203.8 45.8309 203.007 46.4654C201.04 48.0831 198.788 48.0514 196.441 47.3535C194.569 46.7826 193.173 45.6406 192.031 44.0863C191.556 43.4836 191.397 42.6271 190.477 42.0244ZM143.371 212.271C142.959 211.288 142.705 210.653 142.388 210.019C141.658 208.528 140.199 207.64 138.803 207.767C137.313 207.894 136.234 208.972 135.727 210.685C135.504 211.415 135.568 212.081 135.822 212.747C136.202 213.794 136.9 214.523 137.693 215.285C141.056 218.425 145.053 220.55 149.24 222.232C152.729 223.596 154.727 222.739 157.233 220.423C158.185 219.535 158.629 218.362 158.058 217.029C157.519 215.824 156.25 215.063 154.823 215.126C153.744 215.19 152.761 215.538 151.746 215.919C151.302 216.078 150.826 216.458 150.286 216.046C150.286 215.443 150.286 214.809 150.286 214.206C150.35 210.178 150.382 211.193 147.051 209.892C146.29 209.607 145.655 209.765 145.116 210.304C144.608 210.844 144.101 211.446 143.371 212.271ZM61.0869 239.551C61.0552 238.758 60.9918 237.711 60.4208 236.76C59.4692 235.205 58.8347 235.11 57.2804 236.125C53.6959 238.441 50.0797 240.661 45.8608 241.645C42.9425 242.343 40.5634 243.992 38.4381 246.054C38.1843 246.308 38.2795 246.752 38.6602 246.879C42.0226 247.989 45.3216 249.321 48.4937 250.907C49.0647 251.193 49.5087 251.034 49.9846 250.749C52.2368 249.321 54.4889 247.894 56.7094 246.435C57.8197 245.705 58.7713 244.754 59.6278 243.738C60.5477 242.628 60.9918 241.296 61.0869 239.551ZM285.83 3.83229C285.989 4.24466 286.148 4.65703 286.306 5.06941C287.67 8.71733 288.273 12.397 286.877 16.2035C286.401 17.4723 287.702 18.9949 289.129 19.0901C290.779 19.217 292.048 18.646 293.031 17.3137C294.554 15.2836 295.601 13.0631 295.823 10.5254C295.949 9.19314 296.045 7.86086 295.601 6.5603C294.903 4.59359 293.57 3.19787 291.604 2.59517C289.51 1.96075 287.575 2.30968 285.83 3.83229ZM278.535 14.1733C278.471 14.6174 278.376 14.9664 278.344 15.3153C278.249 16.4573 278.535 16.9648 279.518 17.4089C282.309 18.7095 284.974 17.5358 285.704 14.4906C286.528 11.0647 285.926 7.79742 284.276 4.72048C283.895 4.02261 283.388 3.38819 282.754 2.88066C281.263 1.61181 279.708 1.54837 278.122 2.69033C276.504 3.86401 276.314 4.56187 277.044 6.46513C278.027 8.97109 278.725 11.5405 278.535 14.1733ZM266.639 6.40169C267.21 7.09955 268.035 7.22644 268.701 7.67053C270.826 9.16142 271.556 11.6357 270.414 13.983C270.16 14.554 269.78 15.0298 269.431 15.5691C269.177 15.9814 269.145 16.4255 269.304 16.8379C270.002 18.6777 271.968 19.5976 273.84 19.0584C275.045 18.7095 275.775 17.9164 276.251 16.7745C278.059 12.3335 275.68 5.60866 272.698 3.1027C271.619 2.18279 270.446 2.11935 269.272 2.9441C268.067 3.80057 267.052 4.9108 266.639 6.40169ZM24.1319 260.329C24.7029 260.424 25.1153 260.487 25.5594 260.519C29.1121 260.836 32.4428 261.946 35.6149 263.564C35.9321 263.723 36.2494 263.881 36.5666 264.008C36.9155 264.135 37.2644 264.072 37.4548 263.723C37.772 263.088 38.0892 262.454 38.343 261.819C38.5967 261.185 39.1677 260.677 39.0408 259.853C38.4698 259.599 37.9306 259.313 37.3596 259.091C35.2343 258.267 33.0773 257.41 30.9202 256.681C29.7783 256.268 28.6363 255.253 27.4626 255.729C26.3524 256.173 25.7497 257.442 25.0201 258.457C24.6712 258.965 24.2588 259.44 24.1319 260.329ZM172.84 243.041C172.333 241.613 171.318 240.503 170.366 239.393C169.478 238.346 169.383 238.314 168.114 238.79C165.893 239.615 163.641 240.408 161.421 241.296C160.215 241.772 158.851 241.962 157.868 242.945C158.375 244.151 158.883 245.324 159.39 246.53C159.422 246.625 159.454 246.72 159.517 246.752C159.739 246.847 160.025 247.069 160.215 247.006C160.786 246.815 161.325 246.498 161.896 246.213C164.688 244.849 167.606 243.897 170.715 243.516C171.381 243.421 172.111 243.548 172.84 243.041ZM31.3643 252.176C32.8869 252.684 34.3144 253.064 35.7101 253.572C37.7085 254.302 39.6435 255.095 41.6102 255.856C42.0226 256.014 42.4667 256.173 42.8473 255.856C43.6721 255.158 44.6554 254.619 45.3533 253.477C42.3081 252.24 39.4532 251.066 36.5983 249.924C36.1225 249.734 35.5832 249.607 35.1074 249.417C34.7585 249.29 34.4095 249.321 34.124 249.575C33.1724 250.336 32.0939 250.971 31.3643 252.176ZM151.65 236.696C152.348 237.299 153.046 237.87 153.681 238.473C154.283 239.044 154.854 238.98 155.616 238.663C158.471 237.426 161.389 236.411 164.339 235.491C164.688 235.364 165.227 235.491 165.449 234.761C164.846 234 163.958 233.397 163.165 232.731C162.626 232.287 162.118 232.255 161.452 232.477C158.344 233.556 155.33 234.793 152.348 236.157C152.126 236.221 151.936 236.443 151.65 236.696ZM177.979 40.3749C175.473 40.026 173.221 40.597 170.969 40.819C170.239 40.8825 170.08 41.2631 170.524 41.8975C171.191 42.8492 171.857 43.7691 172.586 44.689C172.967 45.1648 173.443 45.5772 174.014 45.8309C174.648 46.1164 175.219 46.053 175.758 45.6406C176.361 45.2282 176.71 44.6255 176.996 43.9594C177.471 42.8809 177.725 41.7706 177.979 40.3749ZM273.776 35.2044C276.885 35.1092 277.012 34.9506 276.695 31.9054C276.663 31.4613 276.631 31.0172 276.568 30.5731C276.504 30.1607 276.187 29.9387 275.807 30.0973C274.316 30.7317 273.015 31.5882 272.317 33.1425C271.778 34.3796 272.412 35.2678 273.776 35.2044ZM170.398 25.3074C172.301 25.1171 173.95 24.9585 175.6 24.7999C175.981 24.7682 176.139 24.3558 175.949 24.0386C174.934 22.5477 173.094 21.7547 171.381 22.0719C170.302 22.2939 169.446 22.8649 168.843 23.8165C168.399 24.5144 168.78 25.3074 169.541 25.3391C169.954 25.3074 170.302 25.3074 170.398 25.3074Z" fill="#0A0A09"/>
<path d="M104.355 47.6695C108.447 47.606 112.983 47.7329 117.424 48.6846C122.626 49.7948 127.892 50.4927 133.03 51.9201C138.169 53.3476 143.213 54.9653 148.003 57.3444C150.953 58.8353 153.681 60.6434 156.155 62.8321C159.676 65.9725 162.912 69.3984 165.671 73.2366C167.321 75.5523 169.002 77.8362 170.651 80.1518C174.775 85.9885 177.947 92.301 180.39 99.0258C182.896 105.909 183.403 113.047 182.547 120.279C181.31 131.001 177.186 140.58 171.318 149.557C165.766 158.027 158.534 164.72 150.064 170.113C143.403 174.363 136.044 176.933 128.431 178.741C120.945 180.517 113.332 181.12 105.687 180.359C93.5694 179.153 81.9595 176.171 71.1743 170.303C63.0855 165.926 56.3289 159.962 50.6508 152.825C43.7039 144.07 38.9775 134.236 36.3763 123.356C35.1709 118.344 34.3145 113.269 34.2827 108.098C34.2193 96.8054 37.1694 86.3691 42.9743 76.726C43.8308 75.2985 44.8141 73.9028 45.7658 72.5071C52.3637 63.0859 61.3725 56.932 72.0625 53.0303C82.3718 49.319 92.9984 47.5426 104.355 47.6695ZM84.4337 87.8918C84.5289 93.7284 84.624 99.5968 84.7192 105.433C84.7509 107.559 84.9412 109.684 85.3536 111.778C85.766 113.808 86.4639 115.679 87.8279 117.297C91.2854 121.421 97.3759 120.882 99.7232 115.997C100.675 114.062 101.341 112.063 101.88 110.001C102.768 106.639 102.895 103.181 103.149 99.7237C103.403 96.1709 103.403 92.6499 103.149 89.0972C102.864 85.2906 102.642 81.4841 102.578 77.6776C102.515 74.9496 102.768 72.1898 102.8 69.4618C102.832 67.6855 102.832 65.9091 102.673 64.1644C102.356 60.2627 100.263 57.3761 97.027 55.3143C94.521 53.7599 92.2371 53.9503 89.8897 55.7584C87.923 57.281 86.7176 59.3111 85.988 61.6585C85.3219 63.8789 84.973 66.1311 84.7826 68.4468C84.2751 74.9496 84.3703 81.4207 84.4337 87.8918ZM110.635 89.2875C110.635 89.7316 110.667 90.8101 110.635 91.8569C110.508 95.8537 110.382 99.8506 110.159 103.816C110.033 106.131 110.159 108.415 110.413 110.731C110.604 112.317 110.984 113.871 111.65 115.33C113.11 118.566 116.504 120.533 119.834 120.057C122.943 119.613 125.29 118.09 126.686 115.204C127.765 113.015 128.336 110.699 128.462 108.288C128.621 104.926 128.494 101.532 128.272 98.1694C127.892 92.3961 127.701 86.6546 127.828 80.8814C127.955 75.7426 127.923 70.6038 127.416 65.465C127.098 62.166 126.02 59.0573 124.688 56.0756C123.926 54.3943 121.928 52.4594 119.644 52.9035C117.487 53.3158 115.552 54.204 114.315 56.1073C112.951 58.2009 111.872 60.4213 111.333 62.8956C110.699 65.7822 110.477 68.6688 110.413 71.6189C110.255 77.3287 110.35 83.0067 110.635 89.2875ZM85.6074 149.462C87.0348 151.08 88.6843 152.507 90.7779 153.364C92.015 153.872 93.2204 154.442 94.4575 154.855C100.611 156.98 106.956 157.424 113.363 157.012C116.789 156.79 119.961 155.711 122.848 153.84C124.878 152.539 126.75 151.08 128.431 149.335C128.78 148.955 129.192 148.891 129.573 149.24C129.7 149.367 129.826 149.494 129.953 149.589C135.346 154.411 141.627 155.68 148.574 154.22C149.335 154.062 150.096 153.745 150.794 153.396C151.333 153.142 151.492 152.603 151.397 152.032C151.333 151.683 151.175 151.366 150.826 151.207C150.54 151.08 150.255 151.175 150.096 151.366C149.462 152.254 148.51 152.444 147.559 152.603C146.861 152.73 146.163 152.793 145.433 152.856C140.548 153.332 136.044 152.222 132.174 149.209C126.94 145.117 124.719 138.836 127.162 132.079C128.431 128.558 130.62 125.672 133.316 123.197C138.264 118.629 143.752 114.95 150.318 113.11C150.826 112.983 150.984 112.571 150.921 112.095C150.858 111.651 150.509 111.556 150.128 111.524C149.018 111.429 148.034 111.873 147.051 112.285C141.405 114.633 136.329 117.836 131.984 122.15C131 123.134 130.207 123.705 128.843 122.817C128.114 122.341 127.162 122.309 126.274 122.277C124.561 122.214 122.911 122.531 121.294 123.039C118.914 123.8 116.757 125.037 114.632 126.369C113.268 127.226 111.936 128.051 110.413 128.622C107.907 129.605 105.401 129.7 102.864 128.748C101.468 128.209 100.104 127.575 98.7399 126.877C96.7415 125.894 94.7748 124.847 92.6177 124.276C89.1919 123.388 85.7977 123.166 82.5304 124.942C81.9595 125.259 81.5471 125.101 81.0713 124.752C79.8659 123.863 78.6922 122.88 77.4233 122.087C72.1576 118.915 66.5113 117.456 60.3574 118.407C59.5644 118.534 58.7714 118.661 58.1052 119.137C57.7246 119.422 57.5026 119.803 57.6929 120.279C57.8515 120.628 58.2638 120.723 58.6128 120.628C59.723 120.279 60.8333 120.057 62.0069 119.993C69.8737 119.518 76.44 122.309 81.896 127.86C83.7358 129.7 85.1316 131.889 85.988 134.331C87.8278 139.629 87.0983 144.482 83.3552 148.733C82.5304 149.653 81.5788 150.477 80.5954 151.239C77.8992 153.332 74.7905 154.601 71.5867 155.711C70.0006 156.251 68.3829 156.79 66.7968 157.361C66.2893 157.519 65.8135 157.773 65.4645 158.217C65.2425 158.534 65.179 158.883 65.3694 159.201C65.5597 159.55 65.9721 159.708 66.2893 159.55C68.5097 158.376 70.9205 157.805 73.2679 156.98C77.6771 155.426 81.674 153.205 84.8461 149.684C85.0681 149.653 85.2585 149.621 85.6074 149.462ZM156.314 119.105C151.206 118.883 146.861 120.533 142.769 123.007C139.914 124.72 137.662 127.067 136.266 130.176C134.267 134.617 135.631 138.804 139.47 141.342C142.737 143.499 146.48 144.419 150.35 144.07C154.347 143.721 158.153 142.674 161.706 140.676C164.72 138.994 167.194 136.71 168.907 133.76C170.715 130.652 170.778 127.321 168.812 124.181C167.321 121.833 165.005 120.374 162.372 119.771C160.342 119.327 158.217 118.788 156.314 119.105ZM62.8317 124.942C60.1988 124.688 57.5977 125.386 55.06 126.56C52.1417 127.892 49.9529 129.986 48.5572 132.936C47.1615 135.949 47.1615 138.899 48.5255 141.913C49.5723 144.165 51.2218 145.91 53.2202 147.242C57.8832 150.319 62.9586 151.27 68.4146 149.716C71.3012 148.891 73.8706 147.591 75.8373 145.307C77.8674 142.928 79.0728 140.136 78.7239 136.996C78.3433 133.411 76.6938 130.398 73.712 128.273C70.5399 125.989 67.0188 124.72 62.8317 124.942Z" fill="#C8F0FF"/>
<path d="M163.578 42.1181C165.133 41.9278 166.624 41.7375 168.115 41.5789C169.257 42.4671 169.859 43.7676 170.747 44.8779C171.477 45.7661 172.207 46.6542 173.253 47.2252C174.395 47.8596 175.442 47.7645 176.521 47.0666C177.123 46.6542 177.631 46.1467 177.948 45.5123C178.392 44.6558 178.836 43.7676 179.09 42.816C180.422 37.4551 180.422 32.0943 179.027 26.7652C178.741 25.6549 178.297 24.5764 177.694 23.5931C176.933 22.3559 175.918 21.4043 174.586 20.8016C171.287 19.3107 167.766 20.9602 166.973 24.513C166.782 25.306 166.465 25.5915 165.831 25.6232C165.038 25.6866 164.245 25.6866 163.452 25.6866C161.453 25.6549 161.358 25.528 161.961 23.4979C163.61 17.9784 169.193 14.3622 174.871 15.1553C176.33 15.3456 177.536 16.0752 178.614 17.0585C180.517 18.8666 181.659 21.1505 182.77 23.4979C183.055 24.1006 182.706 24.735 182.865 25.3377C182.96 25.6549 183.436 25.8135 183.721 25.6549C184.102 25.4011 184.419 25.0839 184.483 24.6081C184.514 24.3544 184.514 24.0689 184.483 23.8151C184.387 23.2124 183.912 22.6414 184.229 22.007C184.546 21.3091 185.276 21.0871 185.878 20.7382C189.368 18.708 193.079 17.8198 197.108 18.2956C199.265 18.5494 201.263 19.2155 203.071 20.4209C205.577 22.0704 207.131 24.4178 207.385 27.4313C207.798 32.0943 207.163 36.6304 205.196 40.9445C204.752 41.8961 204.213 42.8477 203.547 43.6725C201.295 46.5908 197.425 46.9397 194.633 44.5289C193.174 43.2601 192.286 41.6423 192.064 39.7073C191.778 37.0428 192.318 34.4099 192.698 31.7771C192.762 31.4599 193.016 31.1427 193.206 30.8572C193.555 30.3814 193.428 30.0007 192.984 29.7469C192.508 29.4614 191.778 29.62 191.588 30.0641C191.366 30.6351 191.144 31.2378 191.081 31.8405C190.795 34.2196 190.256 36.5669 190.414 38.9777C190.478 39.6439 190.256 40.1197 189.685 40.5321C188.987 41.0396 188.384 41.7375 187.75 42.3719C186.671 43.4821 185.847 44.751 185.878 46.3687C185.878 47.2252 185.498 47.701 184.8 47.9865C183.69 48.4941 182.833 49.5409 181.469 49.5409C180.898 49.5409 180.613 50.1118 180.327 50.5559C179.217 52.2689 177.567 53.2839 175.759 54.077C174.395 54.6797 173 54.7748 171.604 54.2673C167.258 52.7764 164.403 49.8581 163.293 45.3537C163.166 44.8461 163.039 44.3069 163.388 43.7993C163.61 43.4821 163.674 43.1649 163.61 42.816C163.515 42.5939 163.578 42.3719 163.578 42.1181Z" fill="#F7F7F7"/>
<path d="M65.4007 231.051C68.7632 231.114 71.8718 232.098 74.7267 233.779C76.1224 234.604 77.201 235.809 78.1843 237.046C78.9456 238.03 79.5483 239.14 80.151 240.187C80.7854 241.297 80.7854 241.677 79.8973 242.566C78.216 244.247 77.2644 246.277 76.5983 248.529C76.1224 250.115 76.1859 251.701 76.2811 253.287C76.3762 255 75.837 255.92 74.3461 256.872C66.9551 261.598 59.6909 266.547 52.5854 271.654C51.6655 272.32 50.7456 273.05 49.794 273.716C48.7789 274.414 48.43 274.318 47.6052 273.24C47.1929 272.669 46.717 272.13 46.3364 271.527C45.0675 269.529 43.3229 268.069 41.3562 266.801C40.7535 266.42 40.1508 266.039 39.5798 265.627C38.4379 264.834 38.4379 264.802 39.0088 263.47C39.0406 263.375 39.0723 263.311 39.104 263.216C40.7535 260.044 40.1508 260.107 43.2595 261.725C44.7821 262.518 46.2095 262.899 47.7321 261.789C48.5886 261.154 48.7472 260.361 48.081 259.505C47.2563 258.426 46.1778 257.665 44.9724 257.062C44.3697 256.777 44.3697 256.269 44.9089 255.793C45.2262 255.508 45.6068 255.254 45.9558 255C46.6536 254.493 47.3832 254.366 48.1762 254.842C48.8741 255.222 49.6037 255.603 50.3333 255.889C50.7139 256.047 51.1897 256.079 51.6338 256.047C52.3951 255.984 52.9027 255.222 52.6489 254.524C52.3951 253.858 52.0145 253.287 51.5386 252.716C50.8725 251.955 50.9359 251.638 51.7924 251.099C52.8392 250.432 53.886 249.798 54.9645 249.164C56.8361 248.085 58.3587 246.594 59.8813 245.135C62.3555 242.788 63.434 238.854 61.0232 235.206C60.2937 234.096 60.3254 234.064 61.1818 232.986C62.8631 231.019 62.8631 231.019 65.4007 231.051Z" fill="#8A68FF"/>
<path d="M146.068 235.269C145.148 235.777 144.641 236.538 144.355 237.521C144.133 238.282 144.609 238.949 145.37 239.076C146.227 239.202 146.925 238.917 147.654 238.536C150.414 237.172 150.033 236.76 152.761 239.488C152.698 240.091 152.095 239.964 151.778 240.186C151.048 240.693 150.255 241.137 149.621 241.708C149.05 242.216 148.257 242.755 148.669 243.707C149.082 244.658 149.811 245.261 150.858 245.451C151.492 245.547 152.095 245.42 152.666 245.166C153.3 244.88 153.998 244.658 154.633 244.373C155.204 244.119 155.743 243.834 156.377 243.516C157.583 244.468 157.805 245.896 158.281 247.196C158.408 247.545 158.249 247.894 157.963 248.148C157.646 248.433 157.297 248.75 156.917 248.972C153.935 250.812 151.492 253.223 149.526 256.11C148.828 257.157 148.384 257.22 147.305 256.554C146.702 256.173 146.195 255.697 145.624 255.285C141.944 252.684 138.265 250.083 134.522 247.545C130.588 244.849 126.591 242.216 122.594 239.615C121.516 238.917 121.04 238.092 121.104 236.792C121.167 235.301 121.199 233.81 120.818 232.319C120.184 229.75 119.137 227.497 117.234 225.658C116.155 224.611 116.123 224.357 116.885 223.152C118.185 221.153 119.422 219.155 121.326 217.6C123.895 215.475 126.877 214.587 130.049 214.079C130.747 213.952 131.445 213.826 132.143 213.699C132.872 213.572 133.602 213.54 134.173 214.048C135.219 214.999 136.298 215.919 136.964 217.188C137.028 217.315 136.964 217.537 136.996 217.727C136.552 217.822 136.235 218.108 135.949 218.489C134.775 220.138 134.902 221.978 134.934 223.849C134.934 225.15 135.346 226.292 136.235 227.244C137.472 228.608 138.709 230.003 140.327 230.987C141.976 232.002 143.594 233.112 145.212 234.159C145.656 234.381 146.068 234.666 146.068 235.269Z" fill="#8A68FF"/>
<path d="M267.306 17.2188C268.068 18.0753 268.639 18.7414 269.21 19.4076C271.24 21.7549 274.063 21.2474 275.934 19.9468C276.505 19.5345 276.981 19.0269 277.552 18.5194C280.153 19.7565 282.754 20.5813 285.482 18.1705C285.831 18.7097 286.053 19.1221 286.339 19.4393C287.322 20.5813 288.496 21.2474 290.082 21.0571C291.509 20.8985 292.683 21.5646 293.762 22.3576C298.361 25.7518 299.122 31.7153 295.538 36.188C293.857 38.3133 291.827 39.9945 289.384 41.1682C288.75 41.4537 288.369 41.2316 288.337 40.5338C288.306 39.8359 288.401 39.1063 288.306 38.4085C288.02 36.6004 288.591 35.1412 290.019 33.9992C290.304 33.7772 290.526 33.4917 290.716 33.2062C292.271 31.2395 292.144 29.2728 290.367 27.5282C289.321 26.4814 288.02 25.9421 286.561 25.8152C281.549 25.3711 277.108 26.9572 273.08 29.7803C271.969 30.5417 271.113 31.5567 270.732 32.9207C270.098 35.1412 271.335 36.8859 273.619 36.8859C274.412 36.8859 275.205 36.6955 275.998 36.6004C276.347 36.5687 276.696 36.4418 277.013 36.6638C278.218 40.3435 277.869 40.3752 274.19 40.851C269.558 41.422 264.673 36.41 264.737 31.6836C264.737 30.383 265.244 29.2094 266.259 28.3846C267.433 27.433 268.702 26.6082 269.907 25.7518C270.288 25.4663 270.7 25.4663 271.145 25.6249C271.525 25.7518 271.811 25.5932 272.033 25.276C272.35 24.8001 272.096 24.4195 271.811 24.1023C271.303 23.5313 270.637 23.3727 269.907 23.7851C268.829 24.3878 267.814 25.0856 266.767 25.7835C265.181 26.862 265.149 26.8937 263.595 25.6883C262.548 24.8636 261.565 23.9437 260.645 23.0238C259.439 21.8184 258.678 20.3275 258.266 18.6463C257.822 16.7113 257.727 14.7763 258.044 12.8413C258.551 9.54233 260.962 7.16325 264.927 8.08316C265.784 8.27349 266.64 8.49554 267.433 8.93963C269.59 10.145 269.939 12.4607 268.226 14.3005C267.243 15.3473 266.006 16.0769 264.642 16.521C263.976 16.743 263.309 16.9651 262.643 17.2505C262.231 17.4091 262.104 18.0118 262.326 18.3925C262.516 18.7097 262.834 18.9318 263.214 18.8366C264.61 18.3925 265.974 18.0118 267.306 17.2188Z" fill="#F7F7F7"/>
<path d="M205.386 19.5645C210.811 18.8984 216.203 18.5177 221.596 18.4226C223.213 18.3909 224.8 18.5812 226.322 19.0253C228.003 19.5011 229.367 20.4527 230.129 22.1022C231.334 24.7033 230.509 27.4948 228.098 29.0491C227.115 29.6835 226.037 30.0959 224.926 30.3814C220.01 31.6185 214.998 32.0943 209.954 32.3164C209.256 32.3481 209.002 32.0626 209.002 31.3965C209.002 30.4131 209.034 29.4615 209.002 28.4781C208.971 25.6233 208.019 23.1173 206.148 20.9603C205.799 20.6113 205.386 20.3893 205.386 19.5645Z" fill="#F7F7F7"/>
<path d="M212.429 34.2529C215.284 34.3481 218.075 34.7605 220.835 35.4583C222.738 35.9341 224.546 36.632 226.164 37.774C227.401 38.6622 228.448 39.7089 229.209 41.073C230.256 42.9762 229.939 44.1499 228.067 45.2919C226.925 45.9897 225.657 46.4021 224.356 46.6559C222.072 47.0682 219.788 47.1634 217.472 47.0048C216.679 46.9413 215.886 46.8462 215.093 46.7827C213.507 46.6559 211.858 46.751 210.335 46.3704C208.908 45.9897 207.607 45.1332 206.243 44.4988C205.577 44.1816 205.45 43.9278 205.767 43.2934C207.163 40.7875 208.051 38.1229 208.527 35.2997C208.654 34.4433 208.876 34.3164 209.796 34.2847C210.652 34.2529 211.541 34.2529 212.429 34.2529Z" fill="#F7F7F7"/>
<path d="M46.559 233.397C46.559 231.938 46.559 230.796 46.559 229.654C46.559 228.449 46.8445 227.338 48.0182 226.736C49.3822 226.038 50.6193 226.482 51.7295 227.338C52.3322 227.814 52.808 228.449 53.3473 229.02C54.0134 228.924 53.8548 228.354 54.0452 228.036C54.2355 227.719 54.3307 227.37 54.4575 227.053C55.2823 225.023 57.7248 224.388 59.3426 225.213C61.1824 226.133 61.9437 228.702 60.8652 230.511C60.4528 231.177 59.9135 231.779 59.3426 232.319C57.6614 233.905 55.8215 235.3 53.7914 236.411C52.2371 237.235 50.651 238.06 49.065 238.853C48.2085 239.297 47.2886 239.583 46.3052 239.837C43.4503 240.534 41.2616 239.329 39.4218 237.362C38.5019 236.411 38.2798 235.174 38.9459 233.905C39.5804 232.668 40.6589 232.128 42.0229 232.223C42.6256 232.255 43.26 232.414 43.831 232.572C44.6875 232.763 45.5122 233.048 46.559 233.397Z" fill="#F7F7F7"/>
<path d="M190.478 42.0234C191.397 42.6579 191.556 43.4826 192.032 44.117C193.174 45.6714 194.57 46.8133 196.441 47.3843C198.757 48.0822 201.009 48.0822 203.007 46.4961C203.8 45.8617 204.593 45.7665 205.482 46.0837C207.321 46.7182 209.098 47.5429 210.589 48.8435C211.572 49.6682 212.238 50.6833 212.587 51.9204C212.904 53.0624 212.492 54.0457 211.382 54.585C210.747 54.8705 210.049 55.0925 209.352 55.2194C204.911 56.0759 200.501 55.7904 196.156 54.6801C192.539 53.7602 189.78 51.6666 188.003 48.3676C187.115 46.7499 187.305 45.3224 188.511 43.9584C188.574 43.895 188.638 43.8315 188.701 43.7681C189.272 43.1971 189.843 42.6261 190.478 42.0234Z" fill="#F7F7F7"/>
<path d="M143.372 212.271C144.102 211.447 144.578 210.844 145.149 210.305C145.688 209.765 146.322 209.607 147.084 209.892C150.383 211.193 150.383 210.178 150.319 214.206C150.319 214.809 150.319 215.443 150.319 216.046C150.859 216.49 151.303 216.11 151.778 215.919C152.762 215.539 153.777 215.19 154.855 215.126C156.283 215.063 157.552 215.792 158.091 217.029C158.662 218.362 158.249 219.535 157.266 220.424C154.76 222.739 152.73 223.627 149.272 222.232C145.085 220.582 141.088 218.425 137.726 215.285C136.933 214.555 136.235 213.794 135.854 212.747C135.601 212.049 135.537 211.383 135.759 210.685C136.267 208.972 137.345 207.925 138.836 207.767C140.232 207.64 141.691 208.528 142.421 210.019C142.706 210.622 142.96 211.288 143.372 212.271Z" fill="#F7F7F7"/>
<path d="M61.0873 239.55C60.9921 241.295 60.5163 242.595 59.5647 243.737C58.7082 244.752 57.7566 245.704 56.6463 246.433C54.4259 247.893 52.1737 249.32 49.9215 250.748C49.4774 251.033 49.0333 251.192 48.4306 250.906C45.2585 249.32 41.9595 247.988 38.5971 246.878C38.2164 246.751 38.1213 246.307 38.375 246.053C40.5003 243.991 42.8794 242.341 45.7978 241.644C50.0167 240.66 53.6646 238.44 57.2173 236.124C58.8034 235.109 59.4378 235.204 60.3577 236.759C60.9921 237.71 61.0873 238.757 61.0873 239.55Z" fill="#F8D8EB"/>
<path d="M137.567 218.329C138.233 218.107 138.741 218.361 139.28 218.742C140.676 219.852 142.23 220.677 143.784 221.533C146.417 223.024 149.145 224.229 152.064 224.959C154.03 225.435 155.585 226.481 157.107 227.719C157.71 228.194 158.281 228.734 158.788 229.178C158.63 229.717 158.281 229.812 157.964 229.939C154.855 230.954 151.81 232.16 148.923 233.65C148.098 234.063 147.432 233.904 146.671 233.619C145.307 232.35 143.626 231.589 142.103 230.574C140.644 229.59 139.185 228.607 137.979 227.306C135.315 224.42 135.188 221.438 137.567 218.329Z" fill="#F8D8EB"/>
<path d="M285.831 3.83158C287.576 2.30897 289.511 1.96004 291.604 2.62618C293.571 3.2606 294.903 4.65633 295.601 6.59131C296.045 7.89187 295.95 9.22415 295.823 10.5564C295.601 13.0941 294.554 15.3146 293.032 17.3447C292.048 18.6453 290.748 19.2163 289.13 19.1211C287.703 19.026 286.402 17.5033 286.878 16.2345C288.305 12.428 287.671 8.74834 286.307 5.10042C286.148 4.65633 285.99 4.24395 285.831 3.83158Z" fill="#F7F7F7"/>
<path d="M278.535 14.1743C278.726 11.5415 278.059 9.00378 277.108 6.49781C276.378 4.59455 276.569 3.89669 278.186 2.72301C279.772 1.58105 281.295 1.6445 282.818 2.91334C283.452 3.42087 283.96 4.05529 284.34 4.75316C285.99 7.8301 286.561 11.1291 285.768 14.5232C285.038 17.5685 282.373 18.7421 279.582 17.4416C278.599 16.9975 278.313 16.4582 278.408 15.348C278.377 14.9673 278.44 14.6184 278.535 14.1743Z" fill="#F7F7F7"/>
<path d="M266.64 6.40262C267.052 4.91173 268.067 3.83321 269.304 2.94502C270.478 2.12028 271.62 2.18372 272.73 3.10363C275.712 5.60959 278.091 12.3345 276.283 16.7754C275.807 17.9174 275.109 18.7104 273.872 19.0593C272.001 19.6303 270.002 18.6787 269.336 16.8388C269.177 16.4265 269.177 15.9824 269.463 15.57C269.812 15.0625 270.161 14.5549 270.446 13.9839C271.556 11.6366 270.859 9.16235 268.733 7.67146C268.067 7.19564 267.211 7.10048 266.64 6.40262Z" fill="#F7F7F7"/>
<path d="M24.1318 260.328C24.2904 259.408 24.6711 258.932 25.0517 258.456C25.7813 257.441 26.3523 256.172 27.4943 255.728C28.6997 255.252 29.8099 256.268 30.9518 256.68C33.1089 257.441 35.2342 258.266 37.3912 259.091C37.9622 259.313 38.5015 259.598 39.0724 259.852C39.231 260.708 38.6283 261.216 38.3746 261.819C38.1208 262.485 37.8036 263.119 37.4864 263.722C37.2961 264.103 36.9471 264.166 36.5982 264.007C36.281 263.881 35.9638 263.722 35.6466 263.563C32.4745 261.914 29.1438 260.835 25.591 260.518C25.1152 260.486 24.7028 260.423 24.1318 260.328Z" fill="#F7F7F7"/>
<path d="M172.841 243.04C172.111 243.579 171.382 243.42 170.716 243.516C167.607 243.896 164.689 244.848 161.897 246.212C161.358 246.497 160.787 246.783 160.216 247.005C160.026 247.068 159.74 246.878 159.518 246.751C159.455 246.719 159.423 246.593 159.391 246.529C158.884 245.324 158.376 244.15 157.869 242.945C158.852 241.93 160.216 241.771 161.421 241.295C163.642 240.407 165.862 239.614 168.115 238.789C169.383 238.313 169.479 238.345 170.367 239.392C171.35 240.502 172.333 241.612 172.841 243.04Z" fill="#F7F7F7"/>
<path d="M31.3647 252.177C32.0943 250.972 33.1728 250.337 34.0927 249.576C34.3782 249.354 34.7272 249.291 35.0761 249.417C35.5836 249.608 36.0912 249.735 36.567 249.925C39.4219 251.067 42.2768 252.241 45.322 253.478C44.6559 254.62 43.6408 255.159 42.816 255.857C42.4354 256.174 41.9913 256.047 41.5789 255.857C39.6122 255.096 37.6455 254.303 35.6788 253.573C34.3148 253.065 32.9191 252.685 31.3647 252.177Z" fill="#F7F7F7"/>
<path d="M151.65 236.697C151.968 236.443 152.126 236.253 152.348 236.126C155.33 234.762 158.344 233.525 161.452 232.447C162.118 232.225 162.626 232.256 163.165 232.7C163.958 233.367 164.846 233.969 165.449 234.731C165.259 235.46 164.719 235.365 164.339 235.46C161.389 236.412 158.439 237.395 155.616 238.632C154.886 238.949 154.315 239.013 153.681 238.442C153.014 237.871 152.348 237.3 151.65 236.697Z" fill="#F7F7F7"/>
<path d="M177.98 40.3739C177.726 41.7697 177.472 42.8799 176.996 43.9584C176.711 44.6246 176.33 45.2273 175.759 45.6396C175.22 46.0203 174.649 46.1154 174.015 45.83C173.444 45.5762 172.968 45.1638 172.587 44.688C171.889 43.7998 171.191 42.8482 170.525 41.8966C170.081 41.2621 170.24 40.8815 170.969 40.818C173.253 40.596 175.474 40.025 177.98 40.3739Z" fill="#F7F7F7"/>
<path d="M137.566 218.329C135.187 221.47 135.314 224.452 137.947 227.307C139.152 228.607 140.58 229.59 142.071 230.574C143.593 231.589 145.275 232.35 146.639 233.619C146.575 234.222 146.766 234.92 146.068 235.3C146.068 234.698 145.655 234.38 145.179 234.095C143.53 233.048 141.944 231.97 140.294 230.923C138.677 229.939 137.44 228.544 136.202 227.18C135.346 226.228 134.934 225.086 134.902 223.785C134.87 221.914 134.743 220.074 135.917 218.425C136.202 218.044 136.488 217.758 136.964 217.663C137.154 217.885 137.376 218.107 137.566 218.329Z" fill="#191918"/>
<path d="M273.777 35.2044C272.444 35.2361 271.81 34.348 272.349 33.1426C273.047 31.5882 274.348 30.7318 275.839 30.0973C276.219 29.9387 276.536 30.1608 276.6 30.5731C276.663 31.0172 276.663 31.4613 276.727 31.9054C277.012 34.9824 276.885 35.1093 273.777 35.2044Z" fill="#F7F7F7"/>
<path d="M170.398 25.3073C170.271 25.3073 169.922 25.3073 169.573 25.3073C168.78 25.2756 168.431 24.5142 168.875 23.7847C169.478 22.833 170.334 22.2621 171.413 22.04C173.094 21.6911 174.966 22.5158 175.981 24.0067C176.203 24.3239 176.012 24.7363 175.632 24.768C173.951 24.9583 172.301 25.1169 170.398 25.3073Z" fill="#F7F7F7"/>
<path d="M84.4336 87.8942C84.3702 81.4231 84.275 74.952 84.7826 68.4809C84.9729 66.1653 85.3218 63.9131 85.988 61.6926C86.6858 59.3452 87.8912 57.3151 89.8897 55.7925C92.237 53.9844 94.5527 53.7623 97.0269 55.3484C100.262 57.3785 102.356 60.2651 102.673 64.1986C102.832 65.9749 102.8 67.7513 102.8 69.496C102.768 72.2557 102.515 74.9837 102.578 77.7117C102.673 81.5182 102.895 85.3248 103.149 89.1313C103.403 92.684 103.403 96.2051 103.149 99.7578C102.895 103.215 102.737 106.673 101.88 110.035C101.341 112.097 100.675 114.096 99.7232 116.031C97.3758 120.884 91.2854 121.423 87.8278 117.331C86.4638 115.714 85.7659 113.842 85.3535 111.812C84.9412 109.718 84.7508 107.593 84.7191 105.468C84.624 99.5992 84.5288 93.7626 84.4336 87.8942Z" fill="#070606"/>
<path d="M110.636 89.2887C110.351 83.008 110.287 77.3299 110.414 71.6518C110.478 68.7335 110.7 65.8152 111.334 62.9286C111.874 60.4543 112.952 58.2339 114.316 56.1403C115.553 54.2687 117.488 53.3805 119.645 52.9364C121.929 52.4923 123.928 54.3956 124.689 56.1085C126.053 59.0903 127.1 62.199 127.417 65.498C127.924 70.6368 127.956 75.7756 127.829 80.9144C127.702 86.6876 127.893 92.4291 128.273 98.2024C128.495 101.565 128.622 104.927 128.464 108.321C128.337 110.732 127.766 113.048 126.687 115.237C125.292 118.123 122.912 119.646 119.836 120.09C116.505 120.566 113.142 118.599 111.652 115.363C110.985 113.904 110.605 112.35 110.414 110.764C110.161 108.48 110.034 106.164 110.161 103.849C110.383 99.8518 110.478 95.855 110.636 91.8899C110.636 90.8114 110.636 89.7646 110.636 89.2887Z" fill="#070606"/>
<path d="M85.6083 149.462C85.2911 149.621 85.069 149.653 84.9739 149.779C81.8018 153.332 77.8049 155.521 73.3957 157.075C71.0483 157.9 68.6375 158.471 66.4171 159.645C66.0998 159.803 65.7192 159.645 65.4971 159.296C65.3068 158.947 65.3702 158.598 65.5923 158.312C65.9095 157.868 66.417 157.646 66.9246 157.456C68.5106 156.917 70.1284 156.377 71.7144 155.806C74.9183 154.696 78.0269 153.459 80.7232 151.334C81.7066 150.572 82.6582 149.779 83.483 148.828C87.226 144.577 87.9556 139.692 86.1158 134.426C85.2593 131.952 83.8636 129.795 82.0238 127.955C76.536 122.436 69.9698 119.644 62.1347 120.089C60.961 120.152 59.8508 120.374 58.7406 120.723C58.3916 120.818 58.011 120.723 57.8206 120.374C57.5986 119.898 57.8206 119.518 58.233 119.232C58.8992 118.756 59.6922 118.598 60.4852 118.503C66.6391 117.583 72.2854 119.01 77.5511 122.182C78.82 122.975 79.9936 123.927 81.199 124.847C81.6431 125.196 82.0872 125.354 82.6582 125.037C85.8938 123.229 89.3196 123.451 92.7455 124.371C94.9025 124.942 96.8692 125.957 98.8677 126.972C100.2 127.638 101.596 128.304 102.991 128.844C105.497 129.795 108.035 129.7 110.541 128.717C112.032 128.146 113.396 127.321 114.76 126.464C116.853 125.132 119.011 123.927 121.421 123.134C123.039 122.626 124.689 122.309 126.402 122.372C127.321 122.404 128.241 122.436 128.971 122.912C130.335 123.8 131.128 123.197 132.111 122.246C136.457 117.963 141.532 114.728 147.179 112.38C148.162 111.968 149.146 111.492 150.256 111.619C150.605 111.651 150.954 111.778 151.049 112.19C151.112 112.666 150.954 113.078 150.446 113.205C143.88 115.045 138.392 118.725 133.444 123.292C130.747 125.767 128.559 128.653 127.29 132.174C124.847 138.899 127.068 145.212 132.302 149.304C136.203 152.317 140.676 153.427 145.561 152.952C146.259 152.888 146.988 152.793 147.686 152.698C148.638 152.539 149.59 152.349 150.224 151.461C150.351 151.27 150.636 151.175 150.954 151.302C151.334 151.461 151.493 151.778 151.525 152.127C151.588 152.698 151.429 153.237 150.922 153.491C150.192 153.808 149.463 154.157 148.701 154.316C141.754 155.743 135.474 154.506 130.081 149.684C129.954 149.557 129.827 149.431 129.701 149.335C129.288 148.986 128.907 149.05 128.559 149.431C126.909 151.175 125.006 152.634 122.976 153.935C120.089 155.806 116.917 156.885 113.491 157.107C107.052 157.519 100.707 157.075 94.5853 154.95C93.3165 154.506 92.1111 153.967 90.9057 153.459C88.6852 152.507 87.0357 151.048 85.6083 149.462ZM109.367 155.331C111.493 155.426 113.681 155.267 115.87 154.823C116.505 154.696 116.822 154.347 116.727 153.745C116.441 151.651 116.124 149.526 115.363 147.527C114.728 145.814 113.491 144.704 111.778 144.26C108.765 143.467 105.815 143.752 102.991 145.116C101.183 146.005 100.105 147.464 99.9145 149.462C99.7876 150.604 99.7876 151.778 99.8193 152.92C99.851 154.22 100.041 154.474 101.31 154.664C103.943 155.013 106.576 155.394 109.367 155.331ZM122.944 124.656C122.309 124.847 121.612 125.005 120.977 125.291C120.089 125.671 119.201 126.084 118.344 126.528C115.838 127.828 113.586 129.637 110.922 130.62C110.573 130.747 110.287 131.032 110.319 131.413C110.414 133.158 110.256 134.966 110.826 136.679C111.302 138.138 112.222 139.089 113.713 139.534C115.458 140.073 117.202 140.041 118.979 139.787C121.199 139.47 122.658 138.201 123.261 135.981C123.515 135.029 123.8 134.109 123.769 133.126C123.705 130.81 123.642 128.526 123.515 126.211C123.451 125.671 123.388 125.132 122.944 124.656ZM106.449 131.476C103.245 131.127 100.454 129.827 97.7257 128.368C96.7106 127.828 95.6321 127.384 94.5853 126.909C94.2681 126.75 93.9192 126.655 93.602 126.56C93.253 126.464 92.8407 126.56 92.8407 127.004C92.7772 129.383 92.5552 131.762 93.2848 134.109C93.824 135.886 94.8074 137.313 96.3934 138.233C98.1064 139.216 100.01 139.724 101.976 139.787C104.07 139.851 105.339 138.994 106.005 137.028C106.576 135.251 106.766 133.411 106.449 131.476Z" fill="#0A0A09"/>
<path d="M156.313 119.107C158.248 118.79 160.342 119.329 162.372 119.805C165.005 120.408 167.321 121.835 168.811 124.214C170.778 127.355 170.715 130.685 168.907 133.794C167.194 136.744 164.719 138.996 161.706 140.709C158.153 142.708 154.347 143.754 150.35 144.103C146.48 144.421 142.737 143.532 139.47 141.375C135.631 138.838 134.267 134.651 136.266 130.21C137.661 127.101 139.914 124.754 142.769 123.041C146.829 120.535 151.206 118.885 156.313 119.107Z" fill="#FF5C1A"/>
<path d="M62.8314 124.944C67.0186 124.722 70.5396 125.991 73.7435 128.274C76.7252 130.4 78.4064 133.413 78.7554 136.998C79.0726 140.138 77.8989 142.93 75.8688 145.309C73.9021 147.624 71.3326 148.893 68.446 149.718C62.99 151.272 57.9147 150.321 53.2517 147.244C51.2532 145.911 49.572 144.167 48.5569 141.914C47.1612 138.901 47.1929 135.919 48.5887 132.937C49.9527 129.987 52.1414 127.894 55.0915 126.562C57.5974 125.42 60.1986 124.69 62.8314 124.944Z" fill="#FF5C1A"/>
<path d="M109.367 155.332C106.576 155.395 103.943 155.015 101.31 154.666C100.041 154.507 99.8511 154.253 99.8194 152.921C99.7877 151.779 99.7877 150.605 99.9145 149.463C100.105 147.465 101.215 146.006 102.991 145.118C105.815 143.754 108.765 143.436 111.778 144.261C113.491 144.705 114.76 145.815 115.363 147.528C116.092 149.527 116.409 151.652 116.727 153.746C116.822 154.38 116.473 154.697 115.87 154.824C113.681 155.268 111.493 155.427 109.367 155.332Z" fill="#F7F7F7"/>
<path d="M122.944 124.658C123.388 125.134 123.451 125.705 123.483 126.213C123.578 128.497 123.673 130.812 123.737 133.128C123.769 134.111 123.483 135.063 123.229 135.983C122.627 138.203 121.167 139.472 118.947 139.789C117.202 140.043 115.426 140.075 113.681 139.536C112.19 139.06 111.302 138.108 110.795 136.681C110.224 134.968 110.382 133.16 110.287 131.415C110.255 131.034 110.541 130.749 110.89 130.622C113.586 129.639 115.807 127.831 118.312 126.53C119.169 126.086 120.057 125.674 120.945 125.293C121.611 125.007 122.309 124.849 122.944 124.658Z" fill="#F7F7F7"/>
<path d="M106.447 131.476C106.733 133.411 106.543 135.251 105.972 137.027C105.337 138.994 104.037 139.882 101.943 139.787C99.9764 139.724 98.0731 139.216 96.3602 138.233C94.7424 137.313 93.7591 135.885 93.2515 134.109C92.5537 131.762 92.744 129.383 92.8074 127.004C92.8074 126.559 93.1881 126.464 93.5687 126.559C93.9177 126.623 94.2349 126.75 94.5521 126.908C95.5989 127.384 96.6774 127.797 97.6925 128.368C100.452 129.827 103.244 131.096 106.447 131.476Z" fill="#F7F7F7"/>
</svg>
