<svg width="305" height="328" viewBox="0 0 305 328" fill="none" xmlns="http://www.w3.org/2000/svg">
<path d="M133.665 246.795C133.918 245.971 134.077 245.178 134.363 244.448C135.092 242.703 136.202 241.371 138.232 241.244C140.199 241.149 141.944 241.625 142.959 243.528C143.118 243.845 143.34 244.131 143.625 244.543C147.939 240.324 151.524 235.852 151.365 229.412C151.333 228.365 151.365 227.287 151.492 226.208C151.873 223.512 153.014 221.133 154.823 219.071C156.313 217.39 158.026 216.026 159.93 214.852C162.34 213.361 164.942 212.156 167.543 211.077C170.017 210.062 172.301 208.73 174.204 206.763C175.346 205.59 176.171 204.257 176.647 202.703C177.408 200.229 176.551 198.326 174.268 197.184C172.491 196.327 170.556 195.978 168.621 195.693C167.479 195.534 166.242 195.09 165.227 195.407C164.212 195.725 163.451 196.803 162.626 197.628C152.634 207.303 140.675 213.076 127.13 215.867C117.265 217.898 107.4 217.898 97.5027 216.026C91.5074 214.947 85.4804 213.425 79.6755 211.204C73.1726 208.698 67.0822 205.495 61.6262 201.117C60.6746 200.356 59.8815 200.229 58.7396 200.641C51.3803 203.369 44.9092 207.43 39.6752 213.361C36.2811 217.168 34.9488 221.545 35.5198 226.621C36.2494 233.282 38.6284 239.341 41.864 245.114C44.5603 249.904 47.7324 254.408 50.7776 259.008C51.4754 260.023 52.2685 261.006 53.6008 261.546C53.9497 261.038 54.2986 260.435 54.711 259.96C55.9798 258.437 58.8347 257.898 60.5794 258.818C61.7214 259.42 62.4192 260.467 62.895 261.641C63.0854 262.117 63.1805 262.656 63.3074 263.195C63.4343 263.703 63.6881 263.956 64.2273 263.925C66.3843 263.925 68.4462 264.432 70.5081 264.94C74.2512 265.86 77.3598 267.858 79.6437 270.967C83.3234 275.947 85.8293 281.498 87.352 287.493C87.8912 289.65 87.4788 291.459 85.8293 293.076C84.2116 294.631 82.5621 296.09 80.7857 297.422C76.3765 300.721 71.7769 303.735 67.1139 306.653C59.1202 311.633 51.5389 317.184 43.6721 322.387C41.6737 323.719 39.707 325.051 37.4865 326.003C36.5983 326.383 35.6467 326.669 34.7267 326.986C33.2041 327.494 31.9353 327.018 30.8251 325.971C30.4444 325.59 30.0638 325.21 29.7465 324.797C25.4959 319.437 22.2921 313.568 21.0867 306.748C20.7695 305.003 20.6743 303.227 20.6426 301.451C20.5792 298.025 21.848 295.043 23.8147 292.315C24.3857 291.522 24.9884 290.761 25.5276 290.031C25.2739 289.302 24.576 289.206 24.1636 288.731C23.4658 287.906 23.8147 286.669 24.8615 286.415C25.4642 286.256 26.1304 286.161 26.7013 286.288C28.6998 286.796 30.0955 285.907 31.396 284.575C31.5864 284.385 31.745 284.194 31.9353 283.972C31.4912 283.179 30.5713 283.306 29.9686 282.83C29.5245 282.482 29.2073 282.101 29.2707 281.498C29.3342 280.927 29.7148 280.547 30.2224 280.293C30.7933 280.007 31.396 279.912 32.0305 280.007C32.6332 280.102 33.2676 280.166 33.8386 280.388C35.3612 280.991 36.5031 280.578 37.6451 279.436C38.6602 278.453 39.8338 277.628 40.9441 276.74C41.0075 276.677 41.0392 276.581 41.1661 276.391C40.4048 275.757 39.6118 275.122 38.8505 274.424C37.8671 273.504 37.0424 272.426 36.8838 271.03C36.5983 268.81 37.2962 267.002 39.1677 265.701C39.5166 265.447 40.0242 265.447 40.2145 264.94C40.2779 264.464 39.929 264.147 39.707 263.798C38.565 262.117 37.423 260.435 36.2176 258.754C32.3794 253.393 29.239 247.62 26.3524 241.72C23.2437 235.471 21.848 228.841 22.4507 221.863C22.9265 216.407 24.7029 211.522 28.446 207.398C32.6966 202.671 37.6451 198.801 42.9108 195.312C45.1312 193.853 47.32 192.33 49.5087 190.808C49.7942 190.617 50.0163 190.364 50.3652 190.046C46.4318 185.542 43.45 180.498 40.8172 175.264C36.5983 166.954 34.1558 158.072 33.109 148.841C32.9821 147.794 32.8552 146.716 32.76 145.669C32.6966 145.034 32.4111 144.685 31.7767 144.654C30.5396 144.527 29.3024 144.368 28.097 144.114C25.1787 143.512 22.5459 142.275 20.1668 140.498C16.8678 138.024 14.1398 134.979 11.729 131.68C6.49503 124.511 2.6885 116.644 0.912126 107.889C-0.229832 102.179 -0.42016 96.4377 1.03901 90.7279C1.89548 87.4289 3.32292 84.3837 5.32135 81.624C7.25633 78.9594 9.38165 76.4534 11.9511 74.3598C20.6109 67.2543 30.0955 61.6397 40.9123 58.4676C46.749 56.7547 52.7126 55.9934 58.803 56.5009C62.7999 56.8498 66.6698 57.8015 70.5081 58.9434C73.2995 59.7682 76.0593 60.7515 78.8824 61.608C80.5637 62.1155 82.2766 62.5913 84.0212 62.972C89.1283 64.0505 94.0768 63.3526 98.9618 61.7031C102.388 60.4977 105.782 58.9434 109.176 57.3574C113.934 55.1686 118.756 53.1068 123.736 51.489C127.035 50.4105 130.397 49.6809 133.918 49.6174C138.803 49.4906 143.181 50.8863 147.178 53.646C149.081 54.9466 150.984 56.2471 152.951 57.4843C154.061 58.1821 155.298 58.7531 156.504 59.2606C157.487 59.673 158.502 59.9268 159.549 60.244C160.183 59.5778 160.183 58.7531 160.437 58.0235C162.277 52.1234 167.765 48.1266 173.887 48.2852C176.393 48.3486 178.518 49.3637 180.295 51.1718C181.31 52.1868 182.103 53.3605 182.801 54.5976C183.149 55.2003 183.562 55.2003 184.133 54.8831C185.053 54.3756 186.004 53.8363 186.956 53.3605C191.936 50.9497 196.98 50.6008 202.119 52.853C202.785 53.1385 203.387 53.2019 204.149 53.0116C206.813 52.3137 209.605 52.282 212.333 52.0282C216.044 51.6793 219.787 51.6476 223.499 51.711C224.926 51.7427 226.322 51.9648 227.654 52.4723C230.572 53.5826 232.222 55.7713 232.539 58.88C232.825 62.0521 231.365 64.3677 228.701 65.922C226.829 67.0006 224.736 67.4764 222.642 67.8253C222.325 67.8888 221.976 68.0156 221.691 68.1425C221.627 68.1742 221.627 68.5232 221.691 68.5549C222.325 68.8404 222.991 69.0942 223.657 69.3162C225.592 70.0141 227.369 71.0291 228.859 72.4566C229.97 73.5034 230.858 74.7088 231.397 76.1362C232.158 78.1346 231.714 79.7524 230.097 81.1481C229.335 81.7826 228.479 82.2584 227.559 82.6073C225.814 83.2735 224.006 83.7493 222.103 83.7493C219.692 83.7493 217.313 83.6541 214.902 83.6224C214.49 83.6224 214.046 83.6224 213.697 83.6224C213.475 84.0982 213.633 84.4154 213.792 84.7326C214.014 85.3036 214.3 85.8746 214.426 86.4773C214.966 88.7929 214.077 90.4424 211.889 91.394C210.81 91.8381 209.7 92.0919 208.526 92.1871C204.625 92.536 200.723 92.4726 196.853 91.6478C193.173 90.8548 190.096 89.015 187.781 86.0015C187.464 85.5891 187.178 85.1133 186.861 84.7009C186.544 84.3202 186.131 84.2251 185.687 84.5106C185.243 84.7961 184.767 85.0181 184.323 85.3353C182.896 86.3821 181.405 87.302 180.041 88.4757C178.423 89.9031 176.583 90.9817 174.363 91.2037C172.935 91.3623 171.508 91.172 170.207 90.5693C165.068 88.1902 161.896 84.352 161.484 78.5153C161.389 77.3733 161.357 77.3099 160.279 77.3099C158.851 77.3099 157.424 77.3416 156.028 77.3416C151.175 77.3099 146.512 76.3265 142.071 74.3281C138.994 72.9641 135.98 71.4732 132.903 70.0458C131.064 69.1893 129.16 68.428 127.13 68.1108C123.895 67.6033 120.754 68.1425 117.677 68.999C115.457 69.6334 113.331 70.5533 111.301 71.6636C109.366 72.7421 107.431 73.8206 105.496 74.8991C100.389 77.6588 94.965 78.9594 89.1283 78.8008C82.5938 78.6422 76.2496 77.5637 69.9688 75.9142C63.688 74.2647 57.3756 72.9007 50.9045 72.2028C46.2415 71.6953 41.6736 72.1076 37.1375 73.1227C35.3929 73.5034 33.7751 74.233 32.2208 75.1211C23.4658 80.1965 18.3587 87.651 17.6926 97.8651C17.4388 101.925 17.4705 106.017 18.1367 110.078C18.7394 113.757 20.2302 116.993 22.5776 119.88C25.4642 123.432 28.9218 126.319 32.4428 129.174C32.7918 129.428 33.1724 129.618 33.6482 129.903C34.4413 129.237 34.3778 128.254 34.5681 127.461C36.4714 119.689 39.929 112.679 44.592 106.176C51.0314 97.1355 59.5643 90.9182 69.8419 86.8897C78.8507 83.3686 88.1767 81.4019 97.8199 80.8627C102.8 80.5772 107.749 80.6406 112.729 81.0213C115.298 81.2116 117.804 81.6874 120.342 82.2901C122.753 82.8928 125.227 83.1148 127.669 83.6224C134.711 85.0816 141.595 87.08 148.129 90.1886C151.777 91.9016 155.076 94.122 158.026 96.8501C161.389 99.927 164.466 103.226 167.13 106.906C168.621 108.999 170.144 111.093 171.666 113.155C175.663 118.642 178.772 124.606 181.31 130.887C183.054 135.201 184.26 139.61 184.577 144.273C184.672 145.542 184.862 145.954 186.29 146.145C187.432 146.303 188.542 146.652 189.684 146.874C192 147.318 193.903 146.493 195.33 144.685C196.028 143.797 196.567 142.75 197.138 141.767C197.836 140.625 198.502 139.483 199.2 138.341C200.152 136.755 201.643 136.089 203.419 135.994C206.147 135.803 208.717 136.279 211.191 137.453C213.284 138.436 215.219 139.705 217.059 141.069C218.55 142.179 220.104 143.226 221.691 144.21C223.055 145.066 224.545 145.637 226.163 145.891C229.24 146.367 231.778 145.478 233.649 142.909C234.823 141.323 235.584 139.515 236.187 137.675C237.488 133.773 238.122 129.745 238.82 125.748C239.105 124.162 239.423 122.608 239.74 121.053C240.343 117.881 241.516 114.931 243.166 112.14C244.339 110.141 245.576 108.206 246.814 106.239C247.829 104.59 249.32 103.543 251.159 102.909C254.458 101.799 257.821 101.037 261.278 100.752C262.769 100.625 264.292 100.435 265.783 100.276C269.304 99.8953 272.444 98.4678 275.331 96.4694C276.314 95.7715 276.98 94.9468 277.297 93.7414C277.868 91.5844 278.344 89.4273 278.408 87.2069C278.503 84.1934 278.439 81.1799 278.122 78.1664C278.027 77.2782 277.773 77.1513 276.885 77.2782C276.695 77.3099 276.536 77.3416 276.346 77.3733C271.556 78.5787 268.067 76.4534 265.275 72.8372C264.102 71.3463 263.499 69.6017 263.245 67.6984C263.086 66.6199 263.213 65.5731 263.531 64.558C263.689 64.0822 264.228 63.6064 263.911 63.0989C263.657 62.6865 263.118 62.401 262.706 62.0838C262.579 61.9569 262.42 61.8618 262.293 61.7666C257.599 58.3724 255.822 53.7412 256.425 48.0631C256.584 46.5405 257.059 45.1131 257.948 43.8442C259.121 42.1313 260.739 40.9893 262.833 41.0845C264.419 41.1479 265.243 40.5135 265.846 39.1812C266.322 38.1344 267.178 37.3097 268.098 36.5801C270.224 34.9306 272.032 34.9623 274.125 36.6435C274.538 36.9925 274.918 37.3731 275.394 37.8172C276.79 36.6435 278.027 35.2478 280.057 35.0258C282.024 34.8354 283.483 35.7236 284.72 36.8973C285.513 36.9925 285.957 36.5167 286.497 36.2312C291.382 33.6935 296.616 37.1194 297.599 41.4334C298.329 44.6055 297.694 47.5873 296.394 50.5056C295.696 52.0282 294.681 53.3605 293.539 54.6928C294.173 55.1686 294.744 55.6127 295.283 56.0568C297.345 57.738 298.741 59.8633 299.407 62.4327C300.264 65.7 299.661 68.7769 297.662 71.5367C295.854 74.0109 293.666 76.0411 290.938 77.4685C288.749 78.6105 288.717 78.6739 289.034 81.1799C289.383 84.0982 289.859 86.9848 290.303 89.8714C290.811 93.107 291.191 96.3742 291.16 99.6732C291.128 104.622 288.907 108.111 284.593 110.395C280.755 112.393 276.663 113.472 272.412 114.075C268.987 114.55 265.529 114.804 262.071 115.185C260.929 115.312 259.788 115.47 258.646 115.692C256.457 116.105 254.998 117.405 254.205 119.499C253.348 121.751 252.904 124.098 252.682 126.509C252.111 132.505 251.635 138.531 251.096 144.558C250.842 147.572 250.398 150.554 249.668 153.472C248.336 158.896 244.847 162.354 238.059 163.115C233.142 163.686 228.542 162.608 224.228 160.229C220.961 158.421 217.979 156.2 215.156 153.726C214.014 152.743 212.872 151.759 211.667 150.839C209.795 149.38 207.797 149.285 205.671 150.268C203.102 151.442 201.008 153.155 199.264 155.344C198.693 156.042 198.217 156.771 197.709 157.501C195.362 160.958 191.619 161.973 187.337 160.704C186.258 160.387 185.211 159.848 183.974 159.309C182.103 168.698 178.328 177.263 173.253 185.225C173.919 186.05 174.775 186.303 175.568 186.684C177.313 187.54 179.089 188.397 180.802 189.285C183.752 190.839 185.719 193.345 187.051 196.327C188.193 198.865 187.908 201.561 187.4 204.194C186.924 206.7 185.687 208.825 183.974 210.729C182.578 212.251 181.056 213.583 179.311 214.662C177.186 215.963 175.092 217.295 172.935 218.5C170.842 219.674 168.875 221.038 166.972 222.497C165.988 223.258 165.1 224.115 164.339 225.098C163.419 226.304 162.721 227.636 162.563 229.19C162.436 230.618 162.277 232.013 162.15 233.441C161.928 236.201 161.262 238.833 160.057 241.371C159.422 242.703 158.439 243.814 158.375 245.463C158.344 246.224 157.519 246.954 157.043 247.715C157.106 248.255 157.582 248.35 157.931 248.572C161.04 250.665 161.421 254.282 158.819 257.01C158.026 257.834 157.107 258.532 156.123 259.389C156.758 260.245 157.709 260.721 158.471 261.387C159.264 262.085 160.12 262.751 160.945 263.385C161.294 263.671 161.738 263.734 162.182 263.608C163.038 263.385 163.895 263.163 164.783 263.005C165.576 262.878 166.369 262.814 167.13 263.227C167.606 263.481 168.019 263.83 168.05 264.432C168.082 265.035 167.828 265.479 167.321 265.733C166.686 266.05 166.052 266.336 165.259 266.684C165.957 267.731 166.94 268.302 167.765 269.032C168.114 269.349 168.59 269.286 169.034 269.286C170.017 269.222 170.969 269.19 171.952 269.19C172.618 269.19 173.157 269.508 173.379 270.174C173.601 270.84 173.379 271.379 172.84 271.823C172.491 272.109 172.142 272.363 171.793 272.585C171.825 273.219 172.237 273.568 172.586 273.98C176.361 278.326 177.281 283.401 176.361 288.953C175.156 296.153 171.857 302.339 167.321 307.985C166.94 308.461 166.496 308.905 165.988 309.286C165.1 309.984 164.117 310.301 163.007 309.984C162.055 309.73 161.135 309.476 160.215 309.095C158.312 308.302 156.567 307.287 154.886 306.114C148.859 302.022 142.864 297.898 136.805 293.838C134.077 291.998 131.317 290.253 128.526 288.509C124.148 285.781 119.898 282.894 115.806 279.754C114.188 278.516 112.665 277.152 111.238 275.693C109.842 274.298 109.43 272.68 109.874 270.808C110.064 269.952 110.255 269.064 110.508 268.239C111.936 263.544 114.029 259.167 116.757 255.043C119.485 250.887 123.324 248.413 128.177 247.43C129.953 247.113 131.761 246.732 133.665 246.795ZM146.639 268.588C147.368 268.873 148.066 269.032 148.891 268.619C151.809 267.129 154.823 265.923 157.931 264.908C158.248 264.813 158.629 264.718 158.756 264.147C158.217 263.703 157.646 263.163 157.075 262.688C155.584 261.45 153.998 260.404 152.031 259.928C149.113 259.198 146.385 257.993 143.752 256.502C142.198 255.646 140.643 254.821 139.248 253.711C138.74 253.298 138.201 253.076 137.535 253.298C137.313 253.076 137.091 252.854 136.9 252.664C136.9 252.473 136.964 252.283 136.868 252.124C136.171 250.856 135.124 249.936 134.077 248.984C133.506 248.477 132.776 248.477 132.047 248.635C131.349 248.762 130.651 248.889 129.953 249.016C126.781 249.555 123.799 250.412 121.23 252.537C119.327 254.123 118.09 256.09 116.789 258.088C115.996 259.293 116.059 259.579 117.138 260.594C119.041 262.434 120.088 264.718 120.722 267.255C121.103 268.746 121.071 270.237 121.008 271.728C120.945 273.029 121.42 273.853 122.499 274.551C126.496 277.152 130.493 279.785 134.426 282.482C138.169 285.019 141.817 287.652 145.528 290.221C146.099 290.634 146.639 291.11 147.21 291.49C148.256 292.156 148.7 292.093 149.43 291.046C151.397 288.16 153.839 285.749 156.821 283.909C157.202 283.687 157.519 283.37 157.868 283.084C158.153 282.83 158.312 282.482 158.185 282.133C157.741 280.832 157.487 279.405 156.282 278.453C155.647 278.77 155.108 279.056 154.537 279.309C153.903 279.595 153.205 279.817 152.57 280.102C151.999 280.356 151.397 280.483 150.762 280.388C149.715 280.229 148.986 279.595 148.574 278.643C148.161 277.692 148.954 277.152 149.525 276.645C150.191 276.074 150.953 275.598 151.682 275.122C152.031 274.9 152.602 274.995 152.666 274.424C149.969 271.696 150.318 272.109 147.558 273.473C146.829 273.822 146.099 274.139 145.275 274.012C144.482 273.885 144.037 273.219 144.259 272.458C144.545 271.474 145.084 270.713 145.972 270.205C146.765 269.888 146.575 269.19 146.639 268.588ZM104.354 82.6708C92.9983 82.5439 82.3717 84.3202 72.0941 88.0316C61.4041 91.9333 52.3637 98.0872 45.7974 107.508C44.8458 108.904 43.8624 110.268 43.0059 111.727C37.201 121.37 34.2509 131.838 34.3144 143.099C34.3461 148.27 35.2026 153.345 36.408 158.357C39.0091 169.206 43.7038 179.071 50.6824 187.826C56.3922 194.995 63.1488 200.927 71.2059 205.304C81.9911 211.173 93.601 214.123 105.718 215.36C113.363 216.121 120.976 215.518 128.462 213.742C136.107 211.934 143.466 209.365 150.096 205.114C158.566 199.69 165.798 193.028 171.349 184.559C177.218 175.582 181.341 166.002 182.578 155.28C183.435 148.048 182.927 140.911 180.421 134.027C177.979 127.334 174.839 120.99 170.683 115.153C169.034 112.837 167.352 110.554 165.703 108.238C162.943 104.4 159.708 100.974 156.187 97.8334C153.712 95.6447 151.016 93.8366 148.034 92.3457C143.244 89.9666 138.201 88.3488 133.062 86.9214C127.923 85.4939 122.657 84.7961 117.455 83.6858C112.983 82.7342 108.446 82.6073 104.354 82.6708ZM163.578 77.1196C163.578 77.3416 163.514 77.5954 163.546 77.8492C163.609 78.2298 163.514 78.547 163.324 78.8325C162.975 79.34 163.102 79.8476 163.229 80.3868C164.339 84.9229 167.194 87.8096 171.54 89.3004C172.935 89.7763 174.331 89.6811 175.695 89.1101C177.503 88.3171 179.153 87.302 180.263 85.5891C180.548 85.145 180.834 84.574 181.405 84.574C182.769 84.574 183.625 83.4955 184.736 83.0197C185.433 82.7025 185.846 82.2267 185.814 81.4019C185.782 79.7841 186.607 78.5153 187.686 77.4051C188.32 76.7706 188.891 76.1045 189.621 75.5652C190.192 75.1529 190.414 74.7088 190.35 74.0109C190.16 71.6001 190.699 69.2528 191.016 66.8737C191.08 66.271 191.302 65.6683 191.524 65.0973C191.714 64.6532 192.444 64.4629 192.92 64.7801C193.332 65.0339 193.459 65.4145 193.142 65.8903C192.951 66.1758 192.666 66.493 192.634 66.8102C192.222 69.4431 191.714 72.0759 192 74.7405C192.19 76.6755 193.078 78.2933 194.569 79.5621C197.361 81.9729 201.23 81.624 203.483 78.7056C204.117 77.8809 204.688 76.9292 205.132 75.9776C207.099 71.6953 207.733 67.1274 207.321 62.4645C207.067 59.451 205.513 57.1353 203.007 55.4541C201.199 54.2487 199.232 53.5826 197.043 53.3288C193.015 52.8847 189.303 53.7412 185.814 55.7713C185.211 56.1202 184.482 56.3423 184.165 57.0402C183.879 57.6746 184.355 58.2456 184.418 58.8483C184.45 59.102 184.482 59.3875 184.418 59.6413C184.355 60.1171 184.069 60.4343 183.657 60.6881C183.372 60.8784 182.896 60.6881 182.801 60.3709C182.642 59.7682 182.991 59.1655 182.705 58.531C181.627 56.1837 180.485 53.8998 178.55 52.0917C177.503 51.1083 176.266 50.3787 174.807 50.1884C169.129 49.3954 163.546 53.0116 161.896 58.531C161.294 60.5612 161.389 60.6881 163.387 60.7198C164.18 60.7198 164.973 60.7198 165.766 60.6564C166.432 60.5929 166.75 60.3391 166.908 59.5461C167.701 55.9616 171.222 54.3439 174.521 55.8348C175.854 56.4375 176.869 57.3891 177.63 58.6262C178.264 59.6096 178.677 60.6881 178.962 61.7983C180.358 67.1274 180.358 72.4883 179.026 77.8492C178.804 78.7691 178.328 79.6573 177.884 80.5454C177.567 81.1799 177.059 81.6874 176.456 82.0998C175.41 82.7976 174.331 82.8611 173.189 82.2584C172.142 81.6874 171.413 80.7992 170.683 79.911C169.795 78.8008 169.224 77.5002 168.05 76.612C166.623 76.7706 165.132 76.9292 163.578 77.1196ZM65.401 266.05C62.895 266.018 62.895 266.018 61.2455 268.048C60.3891 269.127 60.3256 269.159 61.0869 270.269C63.4977 273.885 62.4192 277.85 59.945 280.198C58.3906 281.657 56.868 283.148 55.0282 284.226C53.9497 284.861 52.9029 285.495 51.8561 286.161C50.9996 286.7 50.9362 287.049 51.6023 287.779C52.0782 288.318 52.4588 288.889 52.7126 289.587C52.9663 290.285 52.4588 291.078 51.6975 291.11C51.2851 291.141 50.8093 291.078 50.3969 290.951C49.6674 290.666 48.9378 290.317 48.2399 289.904C47.4469 289.428 46.7173 289.555 46.0194 290.063C45.6705 290.317 45.2899 290.57 44.9726 290.856C44.4651 291.3 44.4651 291.807 45.0361 292.125C46.2415 292.727 47.32 293.489 48.1447 294.567C48.8109 295.424 48.684 296.217 47.7958 296.851C46.2732 297.961 44.8458 297.581 43.3231 296.788C40.2462 295.17 40.8172 295.107 39.1677 298.279C39.136 298.342 39.1043 298.437 39.0725 298.532C38.4698 299.865 38.4698 299.896 39.6435 300.689C40.2145 301.102 40.8172 301.451 41.4199 301.863C43.3549 303.132 45.1312 304.591 46.4001 306.59C46.7807 307.192 47.2566 307.731 47.6689 308.302C48.462 309.381 48.8109 309.476 49.8577 308.778C50.8093 308.144 51.6975 307.383 52.6491 306.716C59.7864 301.609 67.0188 296.661 74.4098 291.934C75.9006 290.983 76.4716 290.063 76.3447 288.35C76.2496 286.764 76.1861 285.178 76.662 283.592C77.3281 281.34 78.2797 279.309 79.9609 277.628C80.8491 276.74 80.8491 276.359 80.2147 275.249C79.612 274.171 79.0093 273.06 78.248 272.109C77.2647 270.84 76.1861 269.635 74.7904 268.841C71.8404 267.097 68.7317 266.113 65.401 266.05ZM267.305 52.2186C265.973 53.0116 264.609 53.3922 263.245 53.8046C262.864 53.9315 262.579 53.6777 262.357 53.3605C262.103 52.9799 262.262 52.3772 262.674 52.2186C263.309 51.9331 264.006 51.711 264.673 51.489C266.037 51.0449 267.274 50.3153 268.257 49.2685C269.97 47.4287 269.621 45.1448 267.464 43.9077C266.671 43.4636 265.846 43.2415 264.958 43.0512C260.993 42.1313 258.582 44.5104 258.075 47.8093C257.789 49.7443 257.853 51.6793 258.297 53.6143C258.677 55.2955 259.439 56.7864 260.676 57.9918C261.627 58.9434 262.579 59.8633 263.626 60.6564C265.18 61.8618 265.212 61.83 266.798 60.7515C267.813 60.0537 268.86 59.3558 269.938 58.7531C270.668 58.3407 271.334 58.4676 271.841 59.0703C272.127 59.3875 272.381 59.7682 272.064 60.244C271.841 60.5612 271.556 60.7515 271.175 60.5929C270.731 60.4343 270.319 60.4343 269.938 60.7198C268.701 61.608 267.432 62.401 266.29 63.3526C265.307 64.1774 264.799 65.3193 264.768 66.6516C264.736 71.3781 269.621 76.39 274.221 75.819C277.9 75.3432 278.249 75.3115 277.044 71.6318C276.727 71.3781 276.378 71.505 276.029 71.5684C275.236 71.6636 274.443 71.8539 273.65 71.8539C271.366 71.8222 270.129 70.0775 270.763 67.8888C271.144 66.5565 272 65.5414 273.11 64.7484C277.171 61.9252 281.58 60.3391 286.592 60.7832C288.051 60.9101 289.352 61.4494 290.398 62.4962C292.175 64.2408 292.302 66.2075 290.747 68.1742C290.525 68.4597 290.303 68.7452 290.049 68.9673C288.59 70.1092 288.051 71.5684 288.336 73.3765C288.432 74.0744 288.336 74.8039 288.368 75.5018C288.4 76.1997 288.781 76.4217 289.415 76.1362C291.857 74.9625 293.888 73.2496 295.569 71.156C299.122 66.6834 298.36 60.7198 293.792 57.3256C292.714 56.5326 291.54 55.8665 290.113 56.0251C288.558 56.2154 287.353 55.5175 286.37 54.4073C286.084 54.0584 285.862 53.6777 285.513 53.1385C282.785 55.5175 280.184 54.6928 277.583 53.4874C277.044 53.9949 276.536 54.5342 275.965 54.9149C274.094 56.2154 271.302 56.7547 269.24 54.3756C268.638 53.7412 268.067 53.075 267.305 52.2186ZM205.386 54.5659C205.386 55.3907 205.83 55.6127 206.084 55.9299C207.955 58.087 208.939 60.5929 208.939 63.4478C208.939 64.4312 208.907 65.3828 208.939 66.3661C208.939 67.0323 209.224 67.3178 209.89 67.2861C214.934 67.0957 219.946 66.6199 224.863 65.3511C225.973 65.0656 227.051 64.6849 228.035 64.0188C230.446 62.4327 231.27 59.673 230.065 57.0719C229.304 55.4224 227.971 54.4708 226.258 53.9949C224.704 53.5826 223.15 53.3922 221.532 53.3922C216.171 53.5191 210.81 53.8998 205.386 54.5659ZM212.428 69.2528C211.54 69.2528 210.652 69.221 209.763 69.2528C208.844 69.2845 208.653 69.4114 208.495 70.2678C208.019 73.091 207.131 75.7556 205.735 78.2615C205.386 78.8642 205.513 79.118 206.211 79.4669C207.575 80.1013 208.875 80.9895 210.303 81.3385C211.825 81.7191 213.475 81.624 215.061 81.7508C215.854 81.8143 216.647 81.9095 217.44 81.9729C219.756 82.1315 222.039 82.0681 224.323 81.624C225.624 81.3702 226.893 80.9578 228.035 80.26C229.906 79.118 230.223 77.9443 229.177 76.0411C228.447 74.7088 227.4 73.6303 226.131 72.7421C224.514 71.6001 222.706 70.9022 220.802 70.4264C218.074 69.7603 215.283 69.3479 212.428 69.2528ZM46.5587 268.397C45.5119 268.08 44.6554 267.763 43.8307 267.541C43.228 267.382 42.6253 267.224 42.0226 267.192C40.6586 267.097 39.5801 267.636 38.9456 268.873C38.2795 270.142 38.5333 271.379 39.4215 272.331C41.2613 274.298 43.45 275.503 46.3049 274.805C47.2566 274.583 48.1765 274.266 49.0647 273.822C50.6507 273.029 52.205 272.204 53.7911 271.379C55.853 270.301 57.661 268.873 59.3423 267.287C59.9132 266.748 60.4842 266.145 60.8649 265.479C61.9434 263.671 61.1821 261.133 59.3423 260.182C57.7245 259.357 55.282 259.991 54.4572 262.021C54.3304 262.339 54.2352 262.688 54.0449 263.005C53.8545 263.322 54.0131 263.893 53.347 263.988C52.8077 263.417 52.3319 262.783 51.7292 262.307C50.619 261.45 49.3819 261.038 48.0179 261.704C46.8125 262.307 46.5587 263.385 46.5587 264.623C46.5587 265.765 46.5587 266.906 46.5587 268.397ZM190.477 77.0244C189.843 77.6588 189.272 78.1981 188.701 78.7373C188.637 78.8008 188.574 78.8642 188.51 78.9277C187.305 80.26 187.146 81.7191 188.003 83.3369C189.811 86.6359 192.571 88.7612 196.155 89.6494C200.501 90.7279 204.91 91.0451 209.351 90.1886C210.049 90.0618 210.747 89.8714 211.381 89.5542C212.491 89.0467 212.904 88.0633 212.587 86.8897C212.238 85.6525 211.54 84.6375 210.588 83.8127C209.097 82.5121 207.321 81.6874 205.481 81.053C204.593 80.7675 203.8 80.8309 203.007 81.4654C201.04 83.0831 198.788 83.0514 196.441 82.3535C194.569 81.7826 193.173 80.6406 192.031 79.0863C191.556 78.4836 191.397 77.6271 190.477 77.0244ZM143.371 247.271C142.959 246.288 142.705 245.653 142.388 245.019C141.658 243.528 140.199 242.64 138.803 242.767C137.313 242.894 136.234 243.972 135.727 245.685C135.504 246.415 135.568 247.081 135.822 247.747C136.202 248.794 136.9 249.523 137.693 250.285C141.056 253.425 145.053 255.55 149.24 257.232C152.729 258.596 154.727 257.739 157.233 255.423C158.185 254.535 158.629 253.362 158.058 252.029C157.519 250.824 156.25 250.063 154.823 250.126C153.744 250.19 152.761 250.538 151.746 250.919C151.302 251.078 150.826 251.458 150.286 251.046C150.286 250.443 150.286 249.809 150.286 249.206C150.35 245.178 150.382 246.193 147.051 244.892C146.29 244.607 145.655 244.765 145.116 245.304C144.608 245.844 144.101 246.446 143.371 247.271ZM61.0869 274.551C61.0552 273.758 60.9918 272.711 60.4208 271.76C59.4692 270.205 58.8347 270.11 57.2804 271.125C53.6959 273.441 50.0797 275.661 45.8608 276.645C42.9425 277.343 40.5634 278.992 38.4381 281.054C38.1843 281.308 38.2795 281.752 38.6602 281.879C42.0226 282.989 45.3216 284.321 48.4937 285.907C49.0647 286.193 49.5087 286.034 49.9846 285.749C52.2368 284.321 54.4889 282.894 56.7094 281.435C57.8197 280.705 58.7713 279.754 59.6278 278.738C60.5477 277.628 60.9918 276.296 61.0869 274.551ZM285.83 38.8323C285.989 39.2447 286.148 39.657 286.306 40.0694C287.67 43.7173 288.273 47.397 286.877 51.2035C286.401 52.4723 287.702 53.9949 289.129 54.0901C290.779 54.217 292.048 53.646 293.031 52.3137C294.554 50.2836 295.601 48.0631 295.823 45.5254C295.949 44.1931 296.045 42.8609 295.601 41.5603C294.903 39.5936 293.57 38.1979 291.604 37.5952C289.51 36.9607 287.575 37.3097 285.83 38.8323ZM278.535 49.1733C278.471 49.6174 278.376 49.9664 278.344 50.3153C278.249 51.4573 278.535 51.9648 279.518 52.4089C282.309 53.7095 284.974 52.5358 285.704 49.4906C286.528 46.0647 285.926 42.7974 284.276 39.7205C283.895 39.0226 283.388 38.3882 282.754 37.8807C281.263 36.6118 279.708 36.5484 278.122 37.6903C276.504 38.864 276.314 39.5619 277.044 41.4651C278.027 43.9711 278.725 46.5405 278.535 49.1733ZM266.639 41.4017C267.21 42.0996 268.035 42.2264 268.701 42.6705C270.826 44.1614 271.556 46.6357 270.414 48.983C270.16 49.554 269.78 50.0298 269.431 50.5691C269.177 50.9814 269.145 51.4255 269.304 51.8379C270.002 53.6777 271.968 54.5976 273.84 54.0584C275.045 53.7095 275.775 52.9164 276.251 51.7745C278.059 47.3335 275.68 40.6087 272.698 38.1027C271.619 37.1828 270.446 37.1194 269.272 37.9441C268.067 38.8006 267.052 39.9108 266.639 41.4017ZM24.1319 295.329C24.7029 295.424 25.1153 295.487 25.5594 295.519C29.1121 295.836 32.4428 296.946 35.6149 298.564C35.9321 298.723 36.2494 298.881 36.5666 299.008C36.9155 299.135 37.2644 299.072 37.4548 298.723C37.772 298.088 38.0892 297.454 38.343 296.819C38.5967 296.185 39.1677 295.677 39.0408 294.853C38.4698 294.599 37.9306 294.313 37.3596 294.091C35.2343 293.267 33.0773 292.41 30.9202 291.681C29.7783 291.268 28.6363 290.253 27.4626 290.729C26.3524 291.173 25.7497 292.442 25.0201 293.457C24.6712 293.965 24.2588 294.44 24.1319 295.329ZM172.84 278.041C172.333 276.613 171.318 275.503 170.366 274.393C169.478 273.346 169.383 273.314 168.114 273.79C165.893 274.615 163.641 275.408 161.421 276.296C160.215 276.772 158.851 276.962 157.868 277.945C158.375 279.151 158.883 280.324 159.39 281.53C159.422 281.625 159.454 281.72 159.517 281.752C159.739 281.847 160.025 282.069 160.215 282.006C160.786 281.815 161.325 281.498 161.896 281.213C164.688 279.849 167.606 278.897 170.715 278.516C171.381 278.421 172.111 278.548 172.84 278.041ZM31.3643 287.176C32.8869 287.684 34.3144 288.064 35.7101 288.572C37.7085 289.302 39.6435 290.095 41.6102 290.856C42.0226 291.014 42.4667 291.173 42.8473 290.856C43.6721 290.158 44.6554 289.619 45.3533 288.477C42.3081 287.24 39.4532 286.066 36.5983 284.924C36.1225 284.734 35.5832 284.607 35.1074 284.417C34.7585 284.29 34.4095 284.321 34.124 284.575C33.1724 285.336 32.0939 285.971 31.3643 287.176ZM151.65 271.696C152.348 272.299 153.046 272.87 153.681 273.473C154.283 274.044 154.854 273.98 155.616 273.663C158.471 272.426 161.389 271.411 164.339 270.491C164.688 270.364 165.227 270.491 165.449 269.761C164.846 269 163.958 268.397 163.165 267.731C162.626 267.287 162.118 267.255 161.452 267.477C158.344 268.556 155.33 269.793 152.348 271.157C152.126 271.221 151.936 271.443 151.65 271.696ZM177.979 75.3749C175.473 75.026 173.221 75.597 170.969 75.819C170.239 75.8825 170.08 76.2631 170.524 76.8975C171.191 77.8492 171.857 78.7691 172.586 79.689C172.967 80.1648 173.443 80.5772 174.014 80.8309C174.648 81.1164 175.219 81.053 175.758 80.6406C176.361 80.2282 176.71 79.6255 176.996 78.9594C177.471 77.8809 177.725 76.7706 177.979 75.3749ZM273.776 70.2044C276.885 70.1092 277.012 69.9506 276.695 66.9054C276.663 66.4613 276.631 66.0172 276.568 65.5731C276.504 65.1607 276.187 64.9387 275.807 65.0973C274.316 65.7317 273.015 66.5882 272.317 68.1425C271.778 69.3796 272.412 70.2678 273.776 70.2044ZM170.398 60.3074C172.301 60.1171 173.95 59.9585 175.6 59.7999C175.981 59.7682 176.139 59.3558 175.949 59.0386C174.934 57.5477 173.094 56.7547 171.381 57.0719C170.302 57.2939 169.446 57.8649 168.843 58.8165C168.399 59.5144 168.78 60.3074 169.541 60.3391C169.954 60.3074 170.302 60.3074 170.398 60.3074Z" fill="#0A0A09"/>
<path d="M104.355 82.6695C108.447 82.606 112.983 82.7329 117.424 83.6846C122.626 84.7948 127.892 85.4927 133.03 86.9201C138.169 88.3476 143.213 89.9653 148.003 92.3444C150.953 93.8353 153.681 95.6434 156.155 97.8321C159.676 100.973 162.912 104.398 165.671 108.237C167.321 110.552 169.002 112.836 170.651 115.152C174.775 120.988 177.947 127.301 180.39 134.026C182.896 140.909 183.403 148.047 182.547 155.279C181.31 166.001 177.186 175.58 171.318 184.557C165.766 193.027 158.534 199.72 150.064 205.113C143.403 209.363 136.044 211.933 128.431 213.741C120.945 215.517 113.332 216.12 105.687 215.359C93.5694 214.153 81.9595 211.171 71.1743 205.303C63.0855 200.926 56.3289 194.962 50.6508 187.825C43.7039 179.07 38.9775 169.236 36.3763 158.356C35.1709 153.344 34.3145 148.269 34.2827 143.098C34.2193 131.805 37.1694 121.369 42.9743 111.726C43.8308 110.299 44.8141 108.903 45.7658 107.507C52.3637 98.0859 61.3725 91.932 72.0625 88.0303C82.3718 84.319 92.9984 82.5426 104.355 82.6695ZM84.4337 122.892C84.5289 128.728 84.624 134.597 84.7192 140.433C84.7509 142.559 84.9412 144.684 85.3536 146.778C85.766 148.808 86.4639 150.679 87.8279 152.297C91.2854 156.421 97.3759 155.882 99.7232 150.997C100.675 149.062 101.341 147.063 101.88 145.001C102.768 141.639 102.895 138.181 103.149 134.724C103.403 131.171 103.403 127.65 103.149 124.097C102.864 120.291 102.642 116.484 102.578 112.678C102.515 109.95 102.768 107.19 102.8 104.462C102.832 102.685 102.832 100.909 102.673 99.1644C102.356 95.2627 100.263 92.3761 97.027 90.3143C94.521 88.7599 92.2371 88.9503 89.8897 90.7584C87.923 92.281 86.7176 94.3111 85.988 96.6585C85.3219 98.8789 84.973 101.131 84.7826 103.447C84.2751 109.95 84.3703 116.421 84.4337 122.892ZM110.635 124.287C110.635 124.732 110.667 125.81 110.635 126.857C110.508 130.854 110.382 134.851 110.159 138.816C110.033 141.131 110.159 143.415 110.413 145.731C110.604 147.317 110.984 148.871 111.65 150.33C113.11 153.566 116.504 155.533 119.834 155.057C122.943 154.613 125.29 153.09 126.686 150.204C127.765 148.015 128.336 145.699 128.462 143.288C128.621 139.926 128.494 136.532 128.272 133.169C127.892 127.396 127.701 121.655 127.828 115.881C127.955 110.743 127.923 105.604 127.416 100.465C127.098 97.166 126.02 94.0573 124.688 91.0756C123.926 89.3943 121.928 87.4594 119.644 87.9035C117.487 88.3158 115.552 89.204 114.315 91.1073C112.951 93.2009 111.872 95.4213 111.333 97.8956C110.699 100.782 110.477 103.669 110.413 106.619C110.255 112.329 110.35 118.007 110.635 124.287ZM85.6074 184.462C87.0348 186.08 88.6843 187.507 90.7779 188.364C92.015 188.872 93.2204 189.442 94.4575 189.855C100.611 191.98 106.956 192.424 113.363 192.012C116.789 191.79 119.961 190.711 122.848 188.84C124.878 187.539 126.75 186.08 128.431 184.335C128.78 183.955 129.192 183.891 129.573 184.24C129.7 184.367 129.826 184.494 129.953 184.589C135.346 189.411 141.627 190.68 148.574 189.22C149.335 189.062 150.096 188.745 150.794 188.396C151.333 188.142 151.492 187.603 151.397 187.032C151.333 186.683 151.175 186.366 150.826 186.207C150.54 186.08 150.255 186.175 150.096 186.366C149.462 187.254 148.51 187.444 147.559 187.603C146.861 187.73 146.163 187.793 145.433 187.856C140.548 188.332 136.044 187.222 132.174 184.209C126.94 180.117 124.719 173.836 127.162 167.079C128.431 163.558 130.62 160.672 133.316 158.197C138.264 153.629 143.752 149.95 150.318 148.11C150.826 147.983 150.984 147.571 150.921 147.095C150.858 146.651 150.509 146.556 150.128 146.524C149.018 146.429 148.034 146.873 147.051 147.285C141.405 149.633 136.329 152.836 131.984 157.15C131 158.134 130.207 158.705 128.843 157.817C128.114 157.341 127.162 157.309 126.274 157.277C124.561 157.214 122.911 157.531 121.294 158.039C118.914 158.8 116.757 160.037 114.632 161.369C113.268 162.226 111.936 163.051 110.413 163.622C107.907 164.605 105.401 164.7 102.864 163.748C101.468 163.209 100.104 162.575 98.7399 161.877C96.7415 160.894 94.7748 159.847 92.6177 159.276C89.1919 158.388 85.7977 158.166 82.5304 159.942C81.9595 160.259 81.5471 160.101 81.0713 159.752C79.8659 158.863 78.6922 157.88 77.4233 157.087C72.1576 153.915 66.5113 152.456 60.3574 153.407C59.5644 153.534 58.7714 153.661 58.1052 154.137C57.7246 154.422 57.5026 154.803 57.6929 155.279C57.8515 155.628 58.2638 155.723 58.6128 155.628C59.723 155.279 60.8333 155.057 62.0069 154.993C69.8737 154.518 76.44 157.309 81.896 162.86C83.7358 164.7 85.1316 166.889 85.988 169.331C87.8278 174.629 87.0983 179.482 83.3552 183.733C82.5304 184.653 81.5788 185.477 80.5954 186.239C77.8992 188.332 74.7905 189.601 71.5867 190.711C70.0006 191.251 68.3829 191.79 66.7968 192.361C66.2893 192.519 65.8135 192.773 65.4645 193.217C65.2425 193.534 65.179 193.883 65.3694 194.201C65.5597 194.55 65.9721 194.708 66.2893 194.55C68.5097 193.376 70.9205 192.805 73.2679 191.98C77.6771 190.426 81.674 188.205 84.8461 184.684C85.0681 184.653 85.2585 184.621 85.6074 184.462ZM156.314 154.105C151.206 153.883 146.861 155.533 142.769 158.007C139.914 159.72 137.662 162.067 136.266 165.176C134.267 169.617 135.631 173.804 139.47 176.342C142.737 178.499 146.48 179.419 150.35 179.07C154.347 178.721 158.153 177.674 161.706 175.676C164.72 173.994 167.194 171.71 168.907 168.76C170.715 165.652 170.778 162.321 168.812 159.181C167.321 156.833 165.005 155.374 162.372 154.771C160.342 154.327 158.217 153.788 156.314 154.105ZM62.8317 159.942C60.1988 159.688 57.5977 160.386 55.06 161.56C52.1417 162.892 49.9529 164.986 48.5572 167.936C47.1615 170.949 47.1615 173.899 48.5255 176.913C49.5723 179.165 51.2218 180.91 53.2202 182.242C57.8832 185.319 62.9586 186.27 68.4146 184.716C71.3012 183.891 73.8706 182.591 75.8373 180.307C77.8674 177.928 79.0728 175.136 78.7239 171.996C78.3433 168.411 76.6938 165.398 73.712 163.273C70.5399 160.989 67.0188 159.72 62.8317 159.942Z" fill="#C8F0FF"/>
<path d="M163.578 77.1181C165.133 76.9278 166.624 76.7375 168.115 76.5789C169.257 77.4671 169.859 78.7676 170.747 79.8779C171.477 80.7661 172.207 81.6542 173.253 82.2252C174.395 82.8596 175.442 82.7645 176.521 82.0666C177.123 81.6542 177.631 81.1467 177.948 80.5123C178.392 79.6558 178.836 78.7676 179.09 77.816C180.422 72.4551 180.422 67.0943 179.027 61.7652C178.741 60.6549 178.297 59.5764 177.694 58.5931C176.933 57.3559 175.918 56.4043 174.586 55.8016C171.287 54.3107 167.766 55.9602 166.973 59.513C166.782 60.306 166.465 60.5915 165.831 60.6232C165.038 60.6866 164.245 60.6866 163.452 60.6866C161.453 60.6549 161.358 60.528 161.961 58.4979C163.61 52.9784 169.193 49.3622 174.871 50.1553C176.33 50.3456 177.536 51.0752 178.614 52.0585C180.517 53.8666 181.659 56.1505 182.77 58.4979C183.055 59.1006 182.706 59.735 182.865 60.3377C182.96 60.6549 183.436 60.8135 183.721 60.6549C184.102 60.4011 184.419 60.0839 184.483 59.6081C184.514 59.3544 184.514 59.0689 184.483 58.8151C184.387 58.2124 183.912 57.6414 184.229 57.007C184.546 56.3091 185.276 56.0871 185.878 55.7382C189.368 53.708 193.079 52.8198 197.108 53.2956C199.265 53.5494 201.263 54.2155 203.071 55.4209C205.577 57.0704 207.131 59.4178 207.385 62.4313C207.798 67.0943 207.163 71.6304 205.196 75.9445C204.752 76.8961 204.213 77.8477 203.547 78.6725C201.295 81.5908 197.425 81.9397 194.633 79.5289C193.174 78.2601 192.286 76.6423 192.064 74.7073C191.778 72.0428 192.318 69.4099 192.698 66.7771C192.762 66.4599 193.016 66.1427 193.206 65.8572C193.555 65.3814 193.428 65.0007 192.984 64.7469C192.508 64.4614 191.778 64.62 191.588 65.0641C191.366 65.6351 191.144 66.2378 191.081 66.8405C190.795 69.2196 190.256 71.5669 190.414 73.9777C190.478 74.6439 190.256 75.1197 189.685 75.5321C188.987 76.0396 188.384 76.7375 187.75 77.3719C186.671 78.4821 185.847 79.751 185.878 81.3687C185.878 82.2252 185.498 82.701 184.8 82.9865C183.69 83.4941 182.833 84.5409 181.469 84.5409C180.898 84.5409 180.613 85.1118 180.327 85.5559C179.217 87.2689 177.567 88.2839 175.759 89.077C174.395 89.6797 173 89.7748 171.604 89.2673C167.258 87.7764 164.403 84.8581 163.293 80.3537C163.166 79.8461 163.039 79.3069 163.388 78.7993C163.61 78.4821 163.674 78.1649 163.61 77.816C163.515 77.5939 163.578 77.3719 163.578 77.1181Z" fill="#F7F7F7"/>
<path d="M65.4007 266.051C68.7632 266.114 71.8718 267.098 74.7267 268.779C76.1224 269.604 77.201 270.809 78.1843 272.046C78.9456 273.03 79.5483 274.14 80.151 275.187C80.7854 276.297 80.7854 276.677 79.8973 277.566C78.216 279.247 77.2644 281.277 76.5983 283.529C76.1224 285.115 76.1859 286.701 76.2811 288.287C76.3762 290 75.837 290.92 74.3461 291.872C66.9551 296.598 59.6909 301.547 52.5854 306.654C51.6655 307.32 50.7456 308.05 49.794 308.716C48.7789 309.414 48.43 309.318 47.6052 308.24C47.1929 307.669 46.717 307.13 46.3364 306.527C45.0675 304.529 43.3229 303.069 41.3562 301.801C40.7535 301.42 40.1508 301.039 39.5798 300.627C38.4379 299.834 38.4379 299.802 39.0088 298.47C39.0406 298.375 39.0723 298.311 39.104 298.216C40.7535 295.044 40.1508 295.107 43.2595 296.725C44.7821 297.518 46.2095 297.899 47.7321 296.789C48.5886 296.154 48.7472 295.361 48.081 294.505C47.2563 293.426 46.1778 292.665 44.9724 292.062C44.3697 291.777 44.3697 291.269 44.9089 290.793C45.2262 290.508 45.6068 290.254 45.9558 290C46.6536 289.493 47.3832 289.366 48.1762 289.842C48.8741 290.222 49.6037 290.603 50.3333 290.889C50.7139 291.047 51.1897 291.079 51.6338 291.047C52.3951 290.984 52.9027 290.222 52.6489 289.524C52.3951 288.858 52.0145 288.287 51.5386 287.716C50.8725 286.955 50.9359 286.638 51.7924 286.099C52.8392 285.432 53.886 284.798 54.9645 284.164C56.8361 283.085 58.3587 281.594 59.8813 280.135C62.3555 277.788 63.434 273.854 61.0232 270.206C60.2937 269.096 60.3254 269.064 61.1818 267.986C62.8631 266.019 62.8631 266.019 65.4007 266.051Z" fill="#8A68FF"/>
<path d="M146.068 270.269C145.148 270.777 144.641 271.538 144.355 272.521C144.133 273.282 144.609 273.949 145.37 274.076C146.227 274.202 146.925 273.917 147.654 273.536C150.414 272.172 150.033 271.76 152.761 274.488C152.698 275.091 152.095 274.964 151.778 275.186C151.048 275.693 150.255 276.137 149.621 276.708C149.05 277.216 148.257 277.755 148.669 278.707C149.082 279.658 149.811 280.261 150.858 280.451C151.492 280.547 152.095 280.42 152.666 280.166C153.3 279.88 153.998 279.658 154.633 279.373C155.204 279.119 155.743 278.834 156.377 278.516C157.583 279.468 157.805 280.896 158.281 282.196C158.408 282.545 158.249 282.894 157.963 283.148C157.646 283.433 157.297 283.75 156.917 283.972C153.935 285.812 151.492 288.223 149.526 291.11C148.828 292.157 148.384 292.22 147.305 291.554C146.702 291.173 146.195 290.697 145.624 290.285C141.944 287.684 138.265 285.083 134.522 282.545C130.588 279.849 126.591 277.216 122.594 274.615C121.516 273.917 121.04 273.092 121.104 271.792C121.167 270.301 121.199 268.81 120.818 267.319C120.184 264.75 119.137 262.497 117.234 260.658C116.155 259.611 116.123 259.357 116.885 258.152C118.185 256.153 119.422 254.155 121.326 252.6C123.895 250.475 126.877 249.587 130.049 249.079C130.747 248.952 131.445 248.826 132.143 248.699C132.872 248.572 133.602 248.54 134.173 249.048C135.219 249.999 136.298 250.919 136.964 252.188C137.028 252.315 136.964 252.537 136.996 252.727C136.552 252.822 136.235 253.108 135.949 253.489C134.775 255.138 134.902 256.978 134.934 258.849C134.934 260.15 135.346 261.292 136.235 262.244C137.472 263.608 138.709 265.003 140.327 265.987C141.976 267.002 143.594 268.112 145.212 269.159C145.656 269.381 146.068 269.666 146.068 270.269Z" fill="#8A68FF"/>
<path d="M267.306 52.2188C268.068 53.0753 268.639 53.7414 269.21 54.4076C271.24 56.7549 274.063 56.2474 275.934 54.9468C276.505 54.5345 276.981 54.0269 277.552 53.5194C280.153 54.7565 282.754 55.5813 285.482 53.1705C285.831 53.7097 286.053 54.1221 286.339 54.4393C287.322 55.5813 288.496 56.2474 290.082 56.0571C291.509 55.8985 292.683 56.5646 293.762 57.3576C298.361 60.7518 299.122 66.7153 295.538 71.188C293.857 73.3133 291.827 74.9945 289.384 76.1682C288.75 76.4537 288.369 76.2316 288.337 75.5338C288.306 74.8359 288.401 74.1063 288.306 73.4085C288.02 71.6004 288.591 70.1412 290.019 68.9992C290.304 68.7772 290.526 68.4917 290.716 68.2062C292.271 66.2395 292.144 64.2728 290.367 62.5282C289.321 61.4814 288.02 60.9421 286.561 60.8152C281.549 60.3711 277.108 61.9572 273.08 64.7803C271.969 65.5417 271.113 66.5567 270.732 67.9207C270.098 70.1412 271.335 71.8859 273.619 71.8859C274.412 71.8859 275.205 71.6955 275.998 71.6004C276.347 71.5687 276.696 71.4418 277.013 71.6638C278.218 75.3435 277.869 75.3752 274.19 75.851C269.558 76.422 264.673 71.41 264.737 66.6836C264.737 65.383 265.244 64.2094 266.259 63.3846C267.433 62.433 268.702 61.6082 269.907 60.7518C270.288 60.4663 270.7 60.4663 271.145 60.6249C271.525 60.7518 271.811 60.5932 272.033 60.276C272.35 59.8001 272.096 59.4195 271.811 59.1023C271.303 58.5313 270.637 58.3727 269.907 58.7851C268.829 59.3878 267.814 60.0856 266.767 60.7835C265.181 61.862 265.149 61.8937 263.595 60.6883C262.548 59.8636 261.565 58.9437 260.645 58.0238C259.439 56.8184 258.678 55.3275 258.266 53.6463C257.822 51.7113 257.727 49.7763 258.044 47.8413C258.551 44.5423 260.962 42.1633 264.927 43.0832C265.784 43.2735 266.64 43.4955 267.433 43.9396C269.59 45.145 269.939 47.4607 268.226 49.3005C267.243 50.3473 266.006 51.0769 264.642 51.521C263.976 51.743 263.309 51.9651 262.643 52.2505C262.231 52.4091 262.104 53.0118 262.326 53.3925C262.516 53.7097 262.834 53.9318 263.214 53.8366C264.61 53.3925 265.974 53.0118 267.306 52.2188Z" fill="#F7F7F7"/>
<path d="M205.386 54.5645C210.811 53.8984 216.203 53.5177 221.596 53.4226C223.213 53.3909 224.8 53.5812 226.322 54.0253C228.003 54.5011 229.367 55.4527 230.129 57.1022C231.334 59.7033 230.509 62.4948 228.098 64.0491C227.115 64.6835 226.037 65.0959 224.926 65.3814C220.01 66.6185 214.998 67.0943 209.954 67.3164C209.256 67.3481 209.002 67.0626 209.002 66.3965C209.002 65.4131 209.034 64.4615 209.002 63.4781C208.971 60.6233 208.019 58.1173 206.148 55.9603C205.799 55.6113 205.386 55.3893 205.386 54.5645Z" fill="#F7F7F7"/>
<path d="M212.429 69.2529C215.284 69.3481 218.075 69.7605 220.835 70.4583C222.738 70.9341 224.546 71.632 226.164 72.774C227.401 73.6622 228.448 74.7089 229.209 76.073C230.256 77.9762 229.939 79.1499 228.067 80.2919C226.925 80.9897 225.657 81.4021 224.356 81.6559C222.072 82.0682 219.788 82.1634 217.472 82.0048C216.679 81.9413 215.886 81.8462 215.093 81.7827C213.507 81.6559 211.858 81.751 210.335 81.3704C208.908 80.9897 207.607 80.1332 206.243 79.4988C205.577 79.1816 205.45 78.9278 205.767 78.2934C207.163 75.7875 208.051 73.1229 208.527 70.2997C208.654 69.4433 208.876 69.3164 209.796 69.2847C210.652 69.2529 211.541 69.2529 212.429 69.2529Z" fill="#F7F7F7"/>
<path d="M46.559 268.397C46.559 266.938 46.559 265.796 46.559 264.654C46.559 263.449 46.8445 262.338 48.0182 261.736C49.3822 261.038 50.6193 261.482 51.7295 262.338C52.3322 262.814 52.808 263.449 53.3473 264.02C54.0134 263.924 53.8548 263.354 54.0452 263.036C54.2355 262.719 54.3307 262.37 54.4575 262.053C55.2823 260.023 57.7248 259.388 59.3426 260.213C61.1824 261.133 61.9437 263.702 60.8652 265.511C60.4528 266.177 59.9135 266.779 59.3426 267.319C57.6614 268.905 55.8215 270.3 53.7914 271.411C52.2371 272.235 50.651 273.06 49.065 273.853C48.2085 274.297 47.2886 274.583 46.3052 274.837C43.4503 275.534 41.2616 274.329 39.4218 272.362C38.5019 271.411 38.2798 270.174 38.9459 268.905C39.5804 267.668 40.6589 267.128 42.0229 267.223C42.6256 267.255 43.26 267.414 43.831 267.572C44.6875 267.763 45.5122 268.048 46.559 268.397Z" fill="#F7F7F7"/>
<path d="M190.478 77.0234C191.397 77.6579 191.556 78.4826 192.032 79.117C193.174 80.6714 194.57 81.8133 196.441 82.3843C198.757 83.0822 201.009 83.0822 203.007 81.4961C203.8 80.8617 204.593 80.7665 205.482 81.0837C207.321 81.7182 209.098 82.5429 210.589 83.8435C211.572 84.6682 212.238 85.6833 212.587 86.9204C212.904 88.0624 212.492 89.0457 211.382 89.585C210.747 89.8705 210.049 90.0925 209.352 90.2194C204.911 91.0759 200.501 90.7904 196.156 89.6801C192.539 88.7602 189.78 86.6666 188.003 83.3676C187.115 81.7499 187.305 80.3224 188.511 78.9584C188.574 78.895 188.638 78.8315 188.701 78.7681C189.272 78.1971 189.843 77.6261 190.478 77.0234Z" fill="#F7F7F7"/>
<path d="M143.372 247.271C144.102 246.447 144.578 245.844 145.149 245.305C145.688 244.765 146.322 244.607 147.084 244.892C150.383 246.193 150.383 245.178 150.319 249.206C150.319 249.809 150.319 250.443 150.319 251.046C150.859 251.49 151.303 251.11 151.778 250.919C152.762 250.539 153.777 250.19 154.855 250.126C156.283 250.063 157.552 250.792 158.091 252.029C158.662 253.362 158.249 254.535 157.266 255.424C154.76 257.739 152.73 258.627 149.272 257.232C145.085 255.582 141.088 253.425 137.726 250.285C136.933 249.555 136.235 248.794 135.854 247.747C135.601 247.049 135.537 246.383 135.759 245.685C136.267 243.972 137.345 242.925 138.836 242.767C140.232 242.64 141.691 243.528 142.421 245.019C142.706 245.622 142.96 246.288 143.372 247.271Z" fill="#F7F7F7"/>
<path d="M61.0873 274.55C60.9921 276.295 60.5163 277.595 59.5647 278.737C58.7082 279.752 57.7566 280.704 56.6463 281.433C54.4259 282.893 52.1737 284.32 49.9215 285.748C49.4774 286.033 49.0333 286.192 48.4306 285.906C45.2585 284.32 41.9595 282.988 38.5971 281.878C38.2164 281.751 38.1213 281.307 38.375 281.053C40.5003 278.991 42.8794 277.341 45.7978 276.644C50.0167 275.66 53.6646 273.44 57.2173 271.124C58.8034 270.109 59.4378 270.204 60.3577 271.759C60.9921 272.71 61.0873 273.757 61.0873 274.55Z" fill="#F8D8EB"/>
<path d="M137.567 253.329C138.233 253.107 138.741 253.361 139.28 253.742C140.676 254.852 142.23 255.677 143.784 256.533C146.417 258.024 149.145 259.229 152.064 259.959C154.03 260.435 155.585 261.481 157.107 262.719C157.71 263.194 158.281 263.734 158.788 264.178C158.63 264.717 158.281 264.812 157.964 264.939C154.855 265.954 151.81 267.16 148.923 268.65C148.098 269.063 147.432 268.904 146.671 268.619C145.307 267.35 143.626 266.589 142.103 265.574C140.644 264.59 139.185 263.607 137.979 262.306C135.315 259.42 135.188 256.438 137.567 253.329Z" fill="#F8D8EB"/>
<path d="M285.831 38.8316C287.576 37.309 289.511 36.96 291.604 37.6262C293.571 38.2606 294.903 39.6563 295.601 41.5913C296.045 42.8919 295.95 44.2242 295.823 45.5564C295.601 48.0941 294.554 50.3146 293.032 52.3447C292.048 53.6453 290.748 54.2163 289.13 54.1211C287.703 54.026 286.402 52.5033 286.878 51.2345C288.305 47.428 287.671 43.7483 286.307 40.1004C286.148 39.6563 285.99 39.244 285.831 38.8316Z" fill="#F7F7F7"/>
<path d="M278.535 49.1743C278.726 46.5415 278.059 44.0038 277.108 41.4978C276.378 39.5946 276.569 38.8967 278.186 37.723C279.772 36.5811 281.295 36.6445 282.818 37.9133C283.452 38.4209 283.96 39.0553 284.34 39.7532C285.99 42.8301 286.561 46.1291 285.768 49.5232C285.038 52.5685 282.373 53.7421 279.582 52.4416C278.599 51.9975 278.313 51.4582 278.408 50.348C278.377 49.9673 278.44 49.6184 278.535 49.1743Z" fill="#F7F7F7"/>
<path d="M266.64 41.4026C267.052 39.9117 268.067 38.8332 269.304 37.945C270.478 37.1203 271.62 37.1837 272.73 38.1036C275.712 40.6096 278.091 47.3345 276.283 51.7754C275.807 52.9174 275.109 53.7104 273.872 54.0593C272.001 54.6303 270.002 53.6787 269.336 51.8388C269.177 51.4265 269.177 50.9824 269.463 50.57C269.812 50.0625 270.161 49.5549 270.446 48.9839C271.556 46.6366 270.859 44.1623 268.733 42.6715C268.067 42.1956 267.211 42.1005 266.64 41.4026Z" fill="#F7F7F7"/>
<path d="M24.1318 295.328C24.2904 294.408 24.6711 293.932 25.0517 293.456C25.7813 292.441 26.3523 291.172 27.4943 290.728C28.6997 290.252 29.8099 291.268 30.9518 291.68C33.1089 292.441 35.2342 293.266 37.3912 294.091C37.9622 294.313 38.5015 294.598 39.0724 294.852C39.231 295.708 38.6283 296.216 38.3746 296.819C38.1208 297.485 37.8036 298.119 37.4864 298.722C37.2961 299.103 36.9471 299.166 36.5982 299.007C36.281 298.881 35.9638 298.722 35.6466 298.563C32.4745 296.914 29.1438 295.835 25.591 295.518C25.1152 295.486 24.7028 295.423 24.1318 295.328Z" fill="#F7F7F7"/>
<path d="M172.841 278.04C172.111 278.579 171.382 278.42 170.716 278.516C167.607 278.896 164.689 279.848 161.897 281.212C161.358 281.497 160.787 281.783 160.216 282.005C160.026 282.068 159.74 281.878 159.518 281.751C159.455 281.719 159.423 281.593 159.391 281.529C158.884 280.324 158.376 279.15 157.869 277.945C158.852 276.93 160.216 276.771 161.421 276.295C163.642 275.407 165.862 274.614 168.115 273.789C169.383 273.313 169.479 273.345 170.367 274.392C171.35 275.502 172.333 276.612 172.841 278.04Z" fill="#F7F7F7"/>
<path d="M31.3647 287.177C32.0943 285.972 33.1728 285.337 34.0927 284.576C34.3782 284.354 34.7272 284.291 35.0761 284.417C35.5836 284.608 36.0912 284.735 36.567 284.925C39.4219 286.067 42.2768 287.241 45.322 288.478C44.6559 289.62 43.6408 290.159 42.816 290.857C42.4354 291.174 41.9913 291.047 41.5789 290.857C39.6122 290.096 37.6455 289.303 35.6788 288.573C34.3148 288.065 32.9191 287.685 31.3647 287.177Z" fill="#F7F7F7"/>
<path d="M151.65 271.697C151.968 271.443 152.126 271.253 152.348 271.126C155.33 269.762 158.344 268.525 161.452 267.447C162.118 267.225 162.626 267.256 163.165 267.7C163.958 268.367 164.846 268.969 165.449 269.731C165.259 270.46 164.719 270.365 164.339 270.46C161.389 271.412 158.439 272.395 155.616 273.632C154.886 273.949 154.315 274.013 153.681 273.442C153.014 272.871 152.348 272.3 151.65 271.697Z" fill="#F7F7F7"/>
<path d="M177.98 75.3739C177.726 76.7697 177.472 77.8799 176.996 78.9584C176.711 79.6246 176.33 80.2273 175.759 80.6396C175.22 81.0203 174.649 81.1154 174.015 80.83C173.444 80.5762 172.968 80.1638 172.587 79.688C171.889 78.7998 171.191 77.8482 170.525 76.8966C170.081 76.2621 170.24 75.8815 170.969 75.818C173.253 75.596 175.474 75.025 177.98 75.3739Z" fill="#F7F7F7"/>
<path d="M137.566 253.329C135.187 256.47 135.314 259.452 137.947 262.307C139.152 263.607 140.58 264.59 142.071 265.574C143.593 266.589 145.275 267.35 146.639 268.619C146.575 269.222 146.766 269.92 146.068 270.3C146.068 269.698 145.655 269.38 145.179 269.095C143.53 268.048 141.944 266.97 140.294 265.923C138.677 264.939 137.44 263.544 136.202 262.18C135.346 261.228 134.934 260.086 134.902 258.785C134.87 256.914 134.743 255.074 135.917 253.425C136.202 253.044 136.488 252.758 136.964 252.663C137.154 252.885 137.376 253.107 137.566 253.329Z" fill="#191918"/>
<path d="M273.777 70.2044C272.444 70.2361 271.81 69.348 272.349 68.1426C273.047 66.5882 274.348 65.7318 275.839 65.0973C276.219 64.9387 276.536 65.1608 276.6 65.5731C276.663 66.0172 276.663 66.4613 276.727 66.9054C277.012 69.9824 276.885 70.1093 273.777 70.2044Z" fill="#F7F7F7"/>
<path d="M170.398 60.3073C170.271 60.3073 169.922 60.3073 169.573 60.3073C168.78 60.2756 168.431 59.5142 168.875 58.7847C169.478 57.833 170.334 57.2621 171.413 57.04C173.094 56.6911 174.966 57.5158 175.981 59.0067C176.203 59.3239 176.012 59.7363 175.632 59.768C173.951 59.9583 172.301 60.1169 170.398 60.3073Z" fill="#F7F7F7"/>
<path d="M84.4336 122.894C84.3702 116.423 84.275 109.952 84.7826 103.481C84.9729 101.165 85.3218 98.9131 85.988 96.6926C86.6858 94.3452 87.8912 92.3151 89.8897 90.7925C92.237 88.9844 94.5527 88.7623 97.0269 90.3484C100.262 92.3785 102.356 95.2651 102.673 99.1986C102.832 100.975 102.8 102.751 102.8 104.496C102.768 107.256 102.515 109.984 102.578 112.712C102.673 116.518 102.895 120.325 103.149 124.131C103.403 127.684 103.403 131.205 103.149 134.758C102.895 138.215 102.737 141.673 101.88 145.035C101.341 147.097 100.675 149.096 99.7232 151.031C97.3758 155.884 91.2854 156.423 87.8278 152.331C86.4638 150.714 85.7659 148.842 85.3535 146.812C84.9412 144.718 84.7508 142.593 84.7191 140.468C84.624 134.599 84.5288 128.763 84.4336 122.894Z" fill="#070606"/>
<path d="M110.636 124.289C110.351 118.008 110.287 112.33 110.414 106.652C110.478 103.734 110.7 100.815 111.334 97.9286C111.874 95.4543 112.952 93.2339 114.316 91.1403C115.553 89.2687 117.488 88.3805 119.645 87.9364C121.929 87.4923 123.928 89.3956 124.689 91.1085C126.053 94.0903 127.1 97.199 127.417 100.498C127.924 105.637 127.956 110.776 127.829 115.914C127.702 121.688 127.893 127.429 128.273 133.202C128.495 136.565 128.622 139.927 128.464 143.321C128.337 145.732 127.766 148.048 126.687 150.237C125.292 153.123 122.912 154.646 119.836 155.09C116.505 155.566 113.142 153.599 111.652 150.363C110.985 148.904 110.605 147.35 110.414 145.764C110.161 143.48 110.034 141.164 110.161 138.849C110.383 134.852 110.478 130.855 110.636 126.89C110.636 125.811 110.636 124.765 110.636 124.289Z" fill="#070606"/>
<path d="M85.6083 184.462C85.2911 184.621 85.069 184.653 84.9739 184.779C81.8018 188.332 77.8049 190.521 73.3957 192.075C71.0483 192.9 68.6375 193.471 66.4171 194.645C66.0998 194.803 65.7192 194.645 65.4971 194.296C65.3068 193.947 65.3702 193.598 65.5923 193.312C65.9095 192.868 66.417 192.646 66.9246 192.456C68.5106 191.917 70.1284 191.377 71.7144 190.806C74.9183 189.696 78.0269 188.459 80.7232 186.334C81.7066 185.572 82.6582 184.779 83.483 183.828C87.226 179.577 87.9556 174.692 86.1158 169.426C85.2593 166.952 83.8636 164.795 82.0238 162.955C76.536 157.436 69.9698 154.644 62.1347 155.089C60.961 155.152 59.8508 155.374 58.7406 155.723C58.3916 155.818 58.011 155.723 57.8206 155.374C57.5986 154.898 57.8206 154.518 58.233 154.232C58.8992 153.756 59.6922 153.598 60.4852 153.503C66.6391 152.583 72.2854 154.01 77.5511 157.182C78.82 157.975 79.9936 158.927 81.199 159.847C81.6431 160.196 82.0872 160.354 82.6582 160.037C85.8938 158.229 89.3196 158.451 92.7455 159.371C94.9025 159.942 96.8692 160.957 98.8677 161.972C100.2 162.638 101.596 163.304 102.991 163.844C105.497 164.795 108.035 164.7 110.541 163.717C112.032 163.146 113.396 162.321 114.76 161.464C116.853 160.132 119.011 158.927 121.421 158.134C123.039 157.626 124.689 157.309 126.402 157.372C127.321 157.404 128.241 157.436 128.971 157.912C130.335 158.8 131.128 158.197 132.111 157.246C136.457 152.963 141.532 149.728 147.179 147.38C148.162 146.968 149.146 146.492 150.256 146.619C150.605 146.651 150.954 146.778 151.049 147.19C151.112 147.666 150.954 148.078 150.446 148.205C143.88 150.045 138.392 153.725 133.444 158.292C130.747 160.767 128.559 163.653 127.29 167.174C124.847 173.899 127.068 180.212 132.302 184.304C136.203 187.317 140.676 188.427 145.561 187.952C146.259 187.888 146.988 187.793 147.686 187.698C148.638 187.539 149.59 187.349 150.224 186.461C150.351 186.27 150.636 186.175 150.954 186.302C151.334 186.461 151.493 186.778 151.525 187.127C151.588 187.698 151.429 188.237 150.922 188.491C150.192 188.808 149.463 189.157 148.701 189.316C141.754 190.743 135.474 189.506 130.081 184.684C129.954 184.557 129.827 184.431 129.701 184.335C129.288 183.986 128.907 184.05 128.559 184.431C126.909 186.175 125.006 187.634 122.976 188.935C120.089 190.806 116.917 191.885 113.491 192.107C107.052 192.519 100.707 192.075 94.5853 189.95C93.3165 189.506 92.1111 188.967 90.9057 188.459C88.6852 187.507 87.0357 186.048 85.6083 184.462ZM109.367 190.331C111.493 190.426 113.681 190.267 115.87 189.823C116.505 189.696 116.822 189.347 116.727 188.745C116.441 186.651 116.124 184.526 115.363 182.527C114.728 180.814 113.491 179.704 111.778 179.26C108.765 178.467 105.815 178.752 102.991 180.116C101.183 181.005 100.105 182.464 99.9145 184.462C99.7876 185.604 99.7876 186.778 99.8193 187.92C99.851 189.22 100.041 189.474 101.31 189.664C103.943 190.013 106.576 190.394 109.367 190.331ZM122.944 159.656C122.309 159.847 121.612 160.005 120.977 160.291C120.089 160.671 119.201 161.084 118.344 161.528C115.838 162.828 113.586 164.637 110.922 165.62C110.573 165.747 110.287 166.032 110.319 166.413C110.414 168.158 110.256 169.966 110.826 171.679C111.302 173.138 112.222 174.089 113.713 174.534C115.458 175.073 117.202 175.041 118.979 174.787C121.199 174.47 122.658 173.201 123.261 170.981C123.515 170.029 123.8 169.109 123.769 168.126C123.705 165.81 123.642 163.526 123.515 161.211C123.451 160.671 123.388 160.132 122.944 159.656ZM106.449 166.476C103.245 166.127 100.454 164.827 97.7257 163.368C96.7106 162.828 95.6321 162.384 94.5853 161.909C94.2681 161.75 93.9192 161.655 93.602 161.56C93.253 161.464 92.8407 161.56 92.8407 162.004C92.7772 164.383 92.5552 166.762 93.2848 169.109C93.824 170.886 94.8074 172.313 96.3934 173.233C98.1064 174.216 100.01 174.724 101.976 174.787C104.07 174.851 105.339 173.994 106.005 172.028C106.576 170.251 106.766 168.411 106.449 166.476Z" fill="#0A0A09"/>
<path d="M156.313 154.107C158.248 153.79 160.342 154.329 162.372 154.805C165.005 155.408 167.321 156.835 168.811 159.214C170.778 162.355 170.715 165.685 168.907 168.794C167.194 171.744 164.719 173.996 161.706 175.709C158.153 177.708 154.347 178.754 150.35 179.103C146.48 179.421 142.737 178.532 139.47 176.375C135.631 173.838 134.267 169.651 136.266 165.21C137.661 162.101 139.914 159.754 142.769 158.041C146.829 155.535 151.206 153.885 156.313 154.107Z" fill="#FF5C1A"/>
<path d="M62.8314 159.944C67.0186 159.722 70.5396 160.991 73.7435 163.274C76.7252 165.4 78.4064 168.413 78.7554 171.998C79.0726 175.138 77.8989 177.93 75.8688 180.309C73.9021 182.624 71.3326 183.893 68.446 184.718C62.99 186.272 57.9147 185.321 53.2517 182.244C51.2532 180.911 49.572 179.167 48.5569 176.914C47.1612 173.901 47.1929 170.919 48.5887 167.937C49.9527 164.987 52.1414 162.894 55.0915 161.562C57.5974 160.42 60.1986 159.69 62.8314 159.944Z" fill="#FF5C1A"/>
<path d="M109.367 190.332C106.576 190.395 103.943 190.015 101.31 189.666C100.041 189.507 99.8511 189.253 99.8194 187.921C99.7877 186.779 99.7877 185.605 99.9145 184.463C100.105 182.465 101.215 181.006 102.991 180.118C105.815 178.754 108.765 178.436 111.778 179.261C113.491 179.705 114.76 180.815 115.363 182.528C116.092 184.527 116.409 186.652 116.727 188.746C116.822 189.38 116.473 189.697 115.87 189.824C113.681 190.268 111.493 190.427 109.367 190.332Z" fill="#F7F7F7"/>
<path d="M122.944 159.658C123.388 160.134 123.451 160.705 123.483 161.213C123.578 163.497 123.673 165.812 123.737 168.128C123.769 169.111 123.483 170.063 123.229 170.983C122.627 173.203 121.167 174.472 118.947 174.789C117.202 175.043 115.426 175.075 113.681 174.536C112.19 174.06 111.302 173.108 110.795 171.681C110.224 169.968 110.382 168.16 110.287 166.415C110.255 166.034 110.541 165.749 110.89 165.622C113.586 164.639 115.807 162.831 118.312 161.53C119.169 161.086 120.057 160.674 120.945 160.293C121.611 160.007 122.309 159.849 122.944 159.658Z" fill="#F7F7F7"/>
<path d="M106.447 166.476C106.733 168.411 106.543 170.251 105.972 172.027C105.337 173.994 104.037 174.882 101.943 174.787C99.9764 174.724 98.0731 174.216 96.3602 173.233C94.7424 172.313 93.7591 170.885 93.2515 169.109C92.5537 166.762 92.744 164.383 92.8074 162.004C92.8074 161.559 93.1881 161.464 93.5687 161.559C93.9177 161.623 94.2349 161.75 94.5521 161.908C95.5989 162.384 96.6774 162.797 97.6925 163.368C100.452 164.827 103.244 166.096 106.447 166.476Z" fill="#F7F7F7"/>
<path d="M59.4711 19.2437C51.9351 20.5446 47.1803 25.0752 44.758 32.2075C44.5786 32.7906 44.3991 33.4186 44.1748 34.0017C44.0851 34.1812 43.7711 34.3157 43.5917 34.3157C43.4123 34.3157 43.0983 34.0914 43.0534 33.9568C42.9188 33.3288 42.874 32.7008 42.8291 32.1177C41.8871 24.806 38.3434 19.468 31.3009 16.6868C30.8523 16.5074 30.4037 16.2832 30 16.1037C30.1346 15.386 30.628 15.2515 31.0766 15.1617C38.8817 13.9057 43.502 9.15085 45.8345 1.83913C46.0588 1.16627 46.1037 0.358857 46.9111 0C48.7951 10.4966 50.8585 11.3937 52.294 13.2329C54.1331 15.5654 56.69 16.956 59.3814 17.9877C59.4711 18.3914 59.4711 18.84 59.4711 19.2437Z" fill="#0A0A09"/>
<path d="M217.265 258.2L218.655 259.099L243.346 215.58L241.109 214.192C236.699 211.455 231.514 209.566 226.689 211.478C222.104 213.295 216.72 217.061 212.482 224.222C208.802 230.439 207.356 236.542 207.028 241.592C206.573 248.611 211.36 254.379 217.265 258.2Z" fill="#4BD178" stroke="black" stroke-width="0.5"/>
<path d="M243.769 244.132C240.47 250.227 236.042 254.952 231.562 257.668C227.077 260.388 222.585 261.072 219.108 259.19C215.632 257.308 213.748 253.174 213.572 247.931C213.397 242.694 214.931 236.404 218.23 230.308C221.53 224.213 225.957 219.489 230.437 216.772C234.923 214.052 239.415 213.369 242.891 215.251C246.368 217.133 248.252 221.267 248.428 226.51C248.603 231.746 247.069 238.037 243.769 244.132Z" fill="#4BD178" stroke="black" stroke-width="0.5"/>
<path d="M241.948 243.123C239.169 248.259 235.456 252.247 231.713 254.548C227.963 256.854 224.231 257.442 221.36 255.889C218.49 254.335 216.942 250.889 216.822 246.488C216.702 242.096 218.011 236.806 220.79 231.671C223.57 226.535 227.283 222.547 231.026 220.246C234.776 217.94 238.508 217.352 241.379 218.905C244.249 220.459 245.797 223.906 245.917 228.306C246.037 232.699 244.728 237.988 241.948 243.123Z" stroke="black" stroke-width="0.5"/>
<path d="M238.716 218.358C241.7 220.21 246 227.309 239.333 240.889C233.469 252.308 225.136 255.086 220.506 255.395" stroke="black" stroke-width="0.5"/>
<path d="M261.894 181.584C262.598 186.122 264.24 189.805 266.082 192.623C269.237 197.452 275.319 198.617 281.05 197.961L274.951 162.885C270.071 163.537 265.04 165.306 263.126 169.842C261.88 172.794 261.141 176.724 261.894 181.584Z" fill="#4BD178" stroke="black" stroke-width="0.5"/>
<path d="M288.017 178.398C288.956 183.229 288.658 187.814 287.429 191.317C286.197 194.827 284.052 197.205 281.326 197.735C278.601 198.265 275.72 196.865 273.263 194.073C270.81 191.285 268.815 187.147 267.875 182.316C266.935 177.486 267.234 172.901 268.463 169.398C269.695 165.888 271.84 163.51 274.566 162.98C277.291 162.45 280.171 163.85 282.629 166.642C285.082 169.43 287.077 173.568 288.017 178.398Z" fill="#4BD178" stroke="black" stroke-width="0.5"/>
<path d="M286.56 178.667C287.351 182.736 287.113 186.592 286.101 189.535C285.086 192.485 283.315 194.467 281.071 194.903C278.828 195.339 276.443 194.166 274.397 191.811C272.355 189.463 270.689 185.977 269.897 181.908C269.106 177.84 269.344 173.983 270.356 171.04C271.371 168.09 273.142 166.108 275.385 165.672C277.629 165.236 280.014 166.409 282.06 168.764C284.102 171.112 285.768 174.598 286.56 178.667Z" stroke="black" stroke-width="0.5"/>
<path d="M273.661 166.504C276.138 166.173 281.71 168.131 284.184 178.607C286.122 187.534 282.798 192.827 280.393 195.089" stroke="black" stroke-width="0.5"/>
<path d="M229.321 241.073C231.146 241.646 232.917 241.073 233.552 239.566C234.14 238.17 233.592 236.996 231.602 235.653L233.104 232.087C233.933 232.631 234.291 233.481 234.164 234.632L235.225 234.509C235.304 233.045 234.69 231.876 233.488 231.174L234.012 229.93L233.072 229.534L232.554 230.765C230.85 230.21 229.277 230.817 228.735 232.103C228.148 233.499 228.794 234.862 230.36 235.977L228.753 239.792C227.482 239.062 227.007 237.755 227.189 236.123L226.148 236.238C225.921 238.209 226.772 239.821 228.381 240.677L227.857 241.921L228.797 242.317L229.321 241.073ZM230.75 235.05C229.659 234.201 229.325 233.409 229.715 232.483C230.105 231.556 231.048 231.286 232.181 231.649L230.75 235.05ZM232.549 239.242C232.113 240.279 231.053 240.63 229.693 240.188L231.224 236.552C232.627 237.55 232.927 238.343 232.549 239.242Z" fill="black"/>
<path d="M279.047 184.457C280.269 184.093 281.035 183.116 280.823 182.046C280.627 181.055 279.887 180.611 278.287 180.611L277.786 178.08C278.447 178.072 278.962 178.408 279.322 179.091L279.862 178.628C279.36 177.789 278.584 177.372 277.658 177.432L277.484 176.55L276.817 176.681L276.989 177.554C275.841 177.883 275.198 178.806 275.378 179.718C275.574 180.709 276.44 181.221 277.72 181.253L278.256 183.961C277.281 184.031 276.531 183.486 276.023 182.516L275.491 182.968C276.1 184.142 277.171 184.715 278.38 184.588L278.554 185.471L279.221 185.339L279.047 184.457ZM277.59 180.596C276.671 180.533 276.191 180.22 276.061 179.563C275.931 178.905 276.352 178.404 277.113 178.182L277.59 180.596ZM280.148 182.241C280.294 182.977 279.839 183.566 278.923 183.829L278.413 181.249C279.56 181.277 280.022 181.603 280.148 182.241Z" fill="black"/>
</svg>
