<svg width="8" height="8" viewBox="0 0 8 8" fill="none" xmlns="http://www.w3.org/2000/svg">
<path fill-rule="evenodd" clip-rule="evenodd" d="M3.9999 0C4.13251 0 4.25969 0.0526785 4.35345 0.146447C4.44722 0.240215 4.4999 0.367392 4.4999 0.5V6.293L6.6459 4.146C6.69239 4.09951 6.74758 4.06264 6.80832 4.03748C6.86906 4.01232 6.93416 3.99937 6.9999 3.99937C7.06564 3.99937 7.13074 4.01232 7.19148 4.03748C7.25222 4.06264 7.30741 4.09951 7.3539 4.146C7.40039 4.19249 7.43726 4.24768 7.46242 4.30842C7.48758 4.36916 7.50053 4.43426 7.50053 4.5C7.50053 4.56574 7.48758 4.63084 7.46242 4.69158C7.43726 4.75232 7.40039 4.80751 7.3539 4.854L4.3539 7.854C4.30745 7.90056 4.25228 7.93751 4.19153 7.96271C4.13079 7.98792 4.06567 8.00089 3.9999 8.00089C3.93413 8.00089 3.86901 7.98792 3.80827 7.96271C3.74752 7.93751 3.69234 7.90056 3.6459 7.854L0.645899 4.854C0.599411 4.80751 0.562535 4.75232 0.537376 4.69158C0.512217 4.63084 0.499268 4.56574 0.499268 4.5C0.499268 4.43426 0.512217 4.36916 0.537376 4.30842C0.562535 4.24768 0.599411 4.19249 0.645899 4.146C0.739786 4.05211 0.867124 3.99937 0.999899 3.99937C1.06564 3.99937 1.13074 4.01232 1.19148 4.03748C1.25222 4.06264 1.30741 4.09951 1.3539 4.146L3.4999 6.293V0.5C3.4999 0.367392 3.55258 0.240215 3.64635 0.146447C3.74011 0.0526785 3.86729 0 3.9999 0Z" fill="black"/>
</svg>
