<svg width="157" height="276" viewBox="0 0 157 276" fill="none" xmlns="http://www.w3.org/2000/svg">
<path d="M17.4271 256.672C3.43837 240.988 12.6582 232.474 19.0167 230.178L94.2578 241.306C118.632 276.277 34.913 276.277 17.4271 256.672Z" fill="#AE97FE" stroke="black" stroke-width="2"/>
<path d="M73.0421 265.123L78.4557 272.341C79.0251 273.101 80.0331 273.383 80.9142 273.031C81.6269 272.746 82.1271 272.094 82.2185 271.332L83.2973 262.342C83.5216 260.473 82.7321 258.626 81.2258 257.496C80.073 256.631 78.6166 256.276 77.1953 256.513L76.4415 256.639C74.3818 256.982 72.7103 258.493 72.1609 260.507C71.7266 262.099 72.0519 263.803 73.0421 265.123Z" fill="white" stroke="black" stroke-width="2"/>
<path d="M48.8628 263.522L51.4451 272.167C51.7166 273.077 52.5646 273.691 53.5132 273.665C54.2805 273.644 54.9752 273.206 55.3246 272.522L59.4469 264.461C60.3041 262.784 60.2023 260.778 59.1799 259.197C58.3974 257.987 57.1538 257.15 55.7383 256.88L54.9875 256.738C52.9363 256.347 50.8454 257.186 49.633 258.886C48.6748 260.23 48.3905 261.941 48.8628 263.522Z" fill="white" stroke="black" stroke-width="2"/>
<path d="M25.8149 257.752L26.7156 266.73C26.8104 267.674 27.5269 268.437 28.4633 268.591C29.2207 268.716 29.9857 268.417 30.4581 267.812L36.0304 260.676C37.1892 259.191 37.4687 257.202 36.7636 255.456C36.2241 254.12 35.1612 253.063 33.8222 252.531L33.112 252.248C31.1716 251.477 28.9598 251.906 27.4478 253.346C26.2527 254.484 25.6501 256.11 25.8149 257.752Z" fill="white" stroke="black" stroke-width="2"/>
<path d="M10.7253 240.182L2.90597 244.684C2.08357 245.157 1.68123 246.124 1.92465 247.041C2.12155 247.783 2.70775 248.358 3.45323 248.541L12.2469 250.698C14.0756 251.146 16.0047 250.586 17.3081 249.227C18.3056 248.187 18.834 246.784 18.7706 245.345L18.7369 244.581C18.645 242.495 17.3474 240.653 15.4141 239.865C13.8859 239.241 12.1556 239.358 10.7253 240.182Z" fill="white" stroke="black" stroke-width="2"/>
<path d="M98.0655 249.719L105.885 254.221C106.707 254.695 107.11 255.661 106.866 256.578C106.669 257.32 106.083 257.896 105.338 258.078L96.5438 260.235C94.7152 260.684 92.7861 260.123 91.4827 258.764C90.4852 257.724 89.9567 256.322 90.0202 254.882L90.0538 254.119C90.1458 252.033 91.4433 250.191 93.3767 249.402C94.9048 248.779 96.6352 248.896 98.0655 249.719Z" fill="white" stroke="black" stroke-width="2"/>
<path d="M129.231 145.398C125.109 157.47 120.237 177.228 116.639 193.025C113.986 204.675 110.974 216.45 104.517 226.504C91.6877 246.481 77.9425 248.915 68.8242 249.784C23.2548 250.843 10.8917 218.344 10.0089 199.975C7.46553 178.356 16.3675 142.925 21.1363 127.912C22.8319 119.434 28.9079 111.663 31.7339 108.837C50.8094 100.782 54.1653 115.372 53.4588 123.673L48.16 145.398V155.466L59.2875 160.235L74.124 162.884L86.841 155.466L93.7294 145.398L100.088 127.912C103.479 115.619 109.979 110.073 112.805 108.837C134 103.008 136.649 123.673 129.231 145.398Z" fill="#4BD178" stroke="black" stroke-width="2"/>
<path d="M82.6014 193.088C93.1989 190.968 95.1418 182.313 94.7886 178.78C85.7807 176.661 67.7649 180.371 67.235 183.55C67.6589 192.028 77.6559 193.441 82.6014 193.088Z" fill="#F8D8EB" stroke="black" stroke-width="2"/>
<path d="M49.2167 143.278C39.8909 147.941 35.4399 168.889 34.3802 178.78C28.8694 207.181 42.6816 207.217 50.2765 203.684C55.3219 199.36 59.9247 189.27 63.4483 179.186C68.1322 165.78 74.6669 143.687 60.7777 140.73C57.6082 140.056 53.6849 141.044 49.2167 143.278Z" fill="#4BD178" stroke="black" stroke-width="2"/>
<path d="M84.1893 142.218C101.993 141.371 96.5531 165.886 91.6076 178.25C74.1217 178.25 64.4073 182.842 62.9943 186.198L68.8229 153.876L69.8827 150.166C74.5456 142.536 81.3633 141.688 84.1893 142.218Z" fill="#4BD178" stroke="black" stroke-width="2"/>
<path d="M50.8082 178.25C56.3189 173.587 61.5823 177.014 63.5252 179.31C62.2546 186.516 55.9308 196.443 52.9277 200.505C41.2704 198.915 43.9198 184.079 50.8082 178.25Z" fill="#F8D8EB" stroke="black" stroke-width="2"/>
<path d="M115.451 181.43C96.1988 177.014 58.2243 173.693 60.3438 195.736C61.2275 201.035 67.234 211.421 84.19 210.573C83.1303 214.459 82.0705 223.82 86.3096 230.178" stroke="black" stroke-width="2"/>
<path d="M74.6693 88.2145L78.4085 86.1384L45.9955 35.0165L41.8067 37.4464C37.3175 40.0507 33.2537 43.7078 32.3725 48.8223C31.3264 54.8942 31.9276 63.4647 37.6612 72.8849C42.7845 81.3023 49.368 86.6066 55.068 89.7372C61.2323 93.123 68.5205 91.6285 74.6693 88.2145Z" fill="#FFE768" stroke="black" stroke-width="0.5"/>
<path d="M76.7623 50.7809C81.3969 57.7777 83.9254 65.202 84.2771 71.5412C84.6292 77.8874 82.8011 83.0943 78.792 85.7499C74.7828 88.4055 69.2753 88.0575 63.5693 85.2577C57.8695 82.461 52.0198 77.2366 47.3852 70.2398C42.7506 63.2429 40.2221 55.8186 39.8704 49.4794C39.5183 43.1333 41.3463 37.9264 45.3555 35.2708C49.3646 32.6152 54.8721 32.9631 60.5781 35.7629C66.2779 38.5597 72.1277 43.784 76.7623 50.7809Z" fill="#FFE768" stroke="black" stroke-width="0.5"/>
<path d="M74.65 52.1509C78.5554 58.0469 80.7046 64.2883 81.0326 69.6051C81.361 74.9295 79.8639 79.2723 76.55 81.4673C73.2361 83.6624 68.6534 83.3468 63.8789 80.9674C59.1113 78.5914 54.2027 74.1776 50.2973 68.2817C46.3919 62.3857 44.2427 56.1442 43.9147 50.8275C43.5863 45.503 45.0834 41.1603 48.3973 38.9652C51.7112 36.7701 56.2939 37.0858 61.0684 39.4652C65.836 41.8412 70.7446 46.2549 74.65 52.1509Z" stroke="black" stroke-width="0.5"/>
<path d="M46.3273 41.5395C50.002 39.4079 60.0276 38.8556 70.7331 53.6999C79.5885 66.4582 77.8127 76.9356 75.5081 82.0539" stroke="black" stroke-width="0.5"/>
<path d="M66.0395 65.6663C67.6237 64.3793 68.1561 62.4667 67.1886 61.0157C66.2921 59.6711 64.9253 59.4671 62.5601 60.448L60.2701 57.0134C61.2419 56.5962 62.2093 56.7781 63.159 57.5679L63.6737 56.5517C62.4178 55.6199 61.0155 55.478 59.6843 56.1348L58.8854 54.9367L57.9802 55.5403L58.7701 56.7251C57.2748 57.9145 56.8888 59.6718 57.7143 60.9098C58.6108 62.2543 60.2039 62.4805 62.1164 61.7438L64.5662 65.4179C63.1684 66.1192 61.7262 65.7731 60.3815 64.6505L59.8713 65.6446C61.4911 67.0068 63.4259 67.1975 65.1343 66.2699L65.9332 67.468L66.8384 66.8644L66.0395 65.6663ZM61.5217 60.8519C60.1239 61.3223 59.2231 61.1538 58.6284 60.2619C58.0337 59.3699 58.3487 58.3715 59.3382 57.5771L61.5217 60.8519ZM66.31 61.7169C66.9757 62.7153 66.6651 63.8646 65.4715 64.8144L63.1371 61.3133C64.8499 60.6519 65.733 60.8516 66.31 61.7169Z" fill="black"/>
<path d="M104.611 56.4171C102.506 60.5781 101.682 64.5883 101.534 68.0035C101.281 73.8544 105.61 78.4141 110.726 81.2636L126.447 48.7135C122.035 46.364 116.837 44.8474 112.574 47.4577C109.8 49.1562 106.865 51.9613 104.611 56.4171Z" fill="#FFE768" stroke="black" stroke-width="0.5"/>
<path d="M128.053 69.2463C125.969 73.7886 123.01 77.3952 119.922 79.559C116.829 81.7268 113.651 82.4203 111.086 81.2443C108.522 80.0682 106.973 77.2072 106.598 73.4484C106.223 69.6965 107.025 65.1009 109.108 60.5586C111.191 56.0163 114.15 52.4096 117.238 50.2458C120.332 48.078 123.51 47.3846 126.075 48.5606C128.639 49.7366 130.187 52.5976 130.563 56.3564C130.938 60.1083 130.136 64.704 128.053 69.2463Z" fill="#FFE768" stroke="black" stroke-width="0.5"/>
<path d="M126.692 68.6066C124.937 72.4323 122.459 75.4741 119.882 77.3037C117.299 79.1377 114.663 79.7259 112.552 78.7578C110.441 77.7897 109.167 75.4088 108.872 72.2545C108.577 69.1079 109.265 65.2449 111.019 61.4191C112.773 57.5934 115.252 54.5517 117.829 52.722C120.412 50.888 123.048 50.2998 125.159 51.2679C127.27 52.2361 128.544 54.6169 128.839 57.7712C129.134 60.9178 128.446 64.7809 126.692 68.6066Z" stroke="black" stroke-width="0.5"/>
<path d="M123.242 50.9374C125.481 52.1298 128.92 57.0417 124.763 67.1496C121.081 75.6617 115.206 78.062 111.884 78.5056" stroke="black" stroke-width="0.5"/>
<path d="M116.752 69.7161C118.079 70.1745 119.389 69.7916 119.885 68.7002C120.345 67.689 119.969 66.8167 118.538 65.7912L119.713 63.2079C120.309 63.6242 120.554 64.2551 120.437 65.0963L121.217 65.0282C121.306 63.9568 120.88 63.0863 120.014 62.5471L120.424 61.646L119.743 61.3362L119.337 62.2274C118.1 61.7855 116.934 62.1975 116.511 63.1287C116.05 64.1399 116.496 65.1524 117.62 66.0021L116.363 68.7656C115.447 68.2036 115.125 67.2358 115.293 66.0433L114.528 66.1059C114.32 67.546 114.91 68.7451 116.072 69.4064L115.662 70.3075L116.342 70.6173L116.752 69.7161ZM117.925 65.3313C117.144 64.6856 116.915 64.0983 117.22 63.4275C117.526 62.7566 118.223 62.5784 119.046 62.8682L117.925 65.3313ZM119.157 68.4415C118.815 69.1924 118.032 69.428 117.044 69.0753L118.242 66.442C119.249 67.2025 119.453 67.7907 119.157 68.4415Z" fill="black"/>
</svg>
