<svg width="24" height="24" viewBox="0 0 24 24" fill="none" xmlns="http://www.w3.org/2000/svg">
<path fill-rule="evenodd" clip-rule="evenodd" d="M4.5 2C3.11929 2 2 3.11929 2 4.5V7C2 7.55228 2.44772 8 3 8C3.55228 8 4 7.55228 4 7V4.5C4 4.22386 4.22386 4 4.5 4H7C7.55228 4 8 3.55228 8 3C8 2.44772 7.55228 2 7 2H4.5ZM19.5 2C20.8807 2 22 3.11929 22 4.5V7C22 7.55228 21.5523 8 21 8C20.4477 8 20 7.55228 20 7V4.5C20 4.22386 19.7761 4 19.5 4H17C16.4477 4 16 3.55228 16 3C16 2.44772 16.4477 2 17 2H19.5ZM2 19.5C2 20.8807 3.11929 22 4.5 22H7C7.55228 22 8 21.5523 8 21C8 20.4477 7.55228 20 7 20H4.5C4.22386 20 4 19.7761 4 19.5V17C4 16.4477 3.55228 16 3 16C2.44772 16 2 16.4477 2 17V19.5ZM19.5 22C20.8807 22 22 20.8807 22 19.5V17C22 16.4477 21.5523 16 21 16C20.4477 16 20 16.4477 20 17V19.5C20 19.7761 19.7761 20 19.5 20H17C16.4477 20 16 20.4477 16 21C16 21.5523 16.4477 22 17 22H19.5ZM9 12C9 10.3431 10.3431 9 12 9C13.6569 9 15 10.3431 15 12C15 13.6569 13.6569 15 12 15C10.3431 15 9 13.6569 9 12ZM12 7C9.23858 7 7 9.23858 7 12C7 14.7614 9.23858 17 12 17C14.7614 17 17 14.7614 17 12C17 9.23858 14.7614 7 12 7Z" fill="black"/>
</svg>
