<svg width="66" height="62" viewBox="0 0 66 62" fill="none" xmlns="http://www.w3.org/2000/svg">
<path d="M46.6666 47.4805V61.9805C76.8266 20.6084 63.4222 4.46436 52.9499 1.56386C25.9608 -2.65319 11.4746 10.5897 4.77274 23.6437C0.393404 32.1738 -0.422444 43.2986 5.96412 50.4507C16.2024 61.9163 36.0473 54.2615 46.6666 47.4805Z" fill="#FF5C1A"/>
<path d="M45.75 25.2302C44.906 25.597 44.013 25.8386 43.0992 25.9474C44.0595 25.3851 44.7817 24.4917 45.1303 23.4349C44.2224 23.9658 43.2307 24.3383 42.1978 24.5365C41.7629 24.0806 41.2397 23.718 40.6603 23.4706C40.0808 23.2232 39.4571 23.0963 38.827 23.0974C36.2761 23.0974 34.2117 25.1318 34.2117 27.6396C34.2099 27.9884 34.2499 28.3362 34.3308 28.6755C32.5016 28.5898 30.7104 28.1232 29.0719 27.3055C27.4333 26.4879 25.9835 25.3372 24.8152 23.9271C24.4053 24.6181 24.1885 25.4065 24.1875 26.2099C24.1875 27.7849 25.0092 29.1771 26.25 29.9927C25.5149 29.9753 24.7948 29.7807 24.1509 29.4255V29.4818C24.1509 31.6849 25.7447 33.5177 27.8541 33.9349C27.4574 34.0407 27.0486 34.0942 26.6381 34.0943C26.3468 34.0948 26.0562 34.0665 25.7705 34.0099C26.3569 35.8146 28.0636 37.1271 30.0853 37.1646C28.4425 38.4307 26.4256 39.115 24.3516 39.1099C23.9834 39.1094 23.6156 39.0875 23.25 39.0443C25.3599 40.3916 27.8126 41.1042 30.3159 41.0974C38.8172 41.0974 43.4616 34.174 43.4616 28.1693C43.4616 27.9724 43.4564 27.7755 43.447 27.5834C44.3485 26.9421 45.1283 26.1453 45.75 25.2302Z" fill="black"/>
</svg>
