<svg width="324" height="88" viewBox="0 0 324 88" fill="none" xmlns="http://www.w3.org/2000/svg">
<path d="M34.1207 46.8245L31.2447 45.4993C30.6581 45.2291 30.1417 44.8305 29.734 44.3336L29.5027 44.0514C28.8791 43.291 28.6147 42.3016 28.7774 41.3351L28.8068 41.1608C28.8967 40.6267 29.14 40.1296 29.5075 39.7292C30.0464 39.1421 30.8103 38.8073 31.6116 38.8073H31.9694C32.5738 38.8073 33.1688 38.956 33.701 39.2397L34.7222 39.7843L36.4077 40.4378C37.4434 40.8392 38.5069 41.1664 39.59 41.4168L39.8901 41.4862C41.4188 41.8394 42.9833 42.0179 44.5531 42.0179H44.8133C46.161 42.0179 47.5047 41.8695 48.8191 41.5753L49.158 41.4995C50.5194 41.1951 51.8336 40.711 53.0653 40.0604L54.6867 39.2039C55.1833 38.9414 55.7215 38.7649 56.2785 38.6823L57.0778 38.5635C57.833 38.4512 58.603 38.6345 59.2246 39.0742C59.8667 39.5285 60.2976 40.2194 60.4209 40.9915L60.4416 41.1217C60.5759 41.9639 60.3682 42.8247 59.8643 43.5158L59.538 43.9631C59.067 44.6092 58.4335 45.1221 57.7005 45.4506L54.7641 46.7664C53.5264 47.3209 52.2252 47.7241 50.889 47.9668L48.8348 48.3399C45.9294 48.8674 42.9553 48.9038 40.0378 48.4475L38.9104 48.2713C37.2538 48.012 35.6415 47.5251 34.1207 46.8245Z" fill="white"/>
<path fill-rule="evenodd" clip-rule="evenodd" d="M41.2075 17.1974H52.6782L53.1146 11.1469C53.2354 9.46928 53.7333 7.83963 54.5712 6.37692C55.8541 4.13801 57.8708 2.40042 60.2869 1.4521L60.4002 1.40761C63.2048 0.306877 66.3293 0.31704 69.1264 1.436L69.5925 1.62244C71.6959 2.46393 73.4751 3.94593 74.6727 5.85443C75.7952 7.64329 76.3542 9.72293 76.2784 11.8279L76.0848 17.1974L80.1601 17.7479C81.9592 17.9908 83.6632 18.6941 85.104 19.7885C86.7042 21.0036 87.9149 22.6517 88.5903 24.5336L88.6951 24.8248C89.5632 27.2438 89.5813 29.8823 88.746 32.3127L88.4779 33.0927C87.8739 34.8503 86.8091 36.4175 85.3926 37.6337C83.7728 39.0242 81.7645 39.8946 79.6338 40.1289L74.5346 40.6903L74.0698 46.8321L78.6402 47.7178C80.32 48.0437 81.891 48.7804 83.2096 49.8614C84.8277 51.1881 85.9957 52.9746 86.5555 54.9797L86.6843 55.4412C87.3511 57.829 87.2343 60.3651 86.3503 62.683L86.1388 63.2374C85.4433 65.0605 84.2517 66.6572 82.6961 67.8502C81.1109 69.0659 79.2117 69.8136 77.2166 70.0073L72.3647 70.4785L71.8891 75.659C71.6919 77.8085 71.0154 79.8881 69.9085 81.7473C68.6869 83.7992 66.8133 85.3919 64.5805 86.2765L64.1832 86.434C61.6604 87.4337 58.8598 87.5069 56.2874 86.6404C53.85 85.8196 51.7656 84.205 50.3733 82.0599L50.3182 81.9751C49.0289 79.9886 48.3844 77.6587 48.471 75.2984L48.6479 70.4785H37.3324L36.8323 75.9266C36.6512 77.8994 36.0228 79.8058 34.9942 81.5042L34.7481 81.9105C33.7982 83.4785 32.4769 84.7932 30.8981 85.7407C29.1244 86.8057 27.0898 87.3688 25.0158 87.3688H24.2612C22.0765 87.3688 19.9466 86.6893 18.1726 85.4262C16.7096 84.3848 15.544 82.9855 14.789 81.3653L14.5163 80.7799C13.6199 78.8561 13.2204 76.7417 13.3539 74.6268L13.6156 70.4785L9.34687 69.7588C7.3728 69.4259 5.52705 68.5684 4.00666 67.2775C2.68096 66.1518 1.64323 64.7311 0.978417 63.1319L0.818571 62.7474C0.162067 61.1682 -0.105649 59.4567 0.0375414 57.7547C0.199336 55.8313 0.880093 53.9865 2.00855 52.4134L2.35324 51.9327C3.73244 50.0101 5.66365 48.5426 7.89584 47.7213C9.21825 47.2347 10.6177 46.9857 12.0283 46.9857H14.8557L15.4757 40.5367L12.061 40.1805C10.4349 40.011 8.87458 39.4531 7.5141 38.5546C6.42513 37.8355 5.48758 36.9138 4.75355 35.8404L4.46358 35.4163C3.25124 33.6436 2.55547 31.5742 2.45265 29.4354L2.44645 29.3066C2.35047 27.31 2.79663 25.3243 3.73851 23.5566C4.72312 21.7085 6.21089 20.1708 8.03301 19.118L8.25071 18.9922C9.94216 18.0148 11.8468 17.4563 13.8028 17.364L17.3358 17.1974L17.9591 11.0237C18.1606 9.02804 18.8579 7.10494 19.981 5.43622C21.0913 3.7865 22.5955 2.42302 24.3545 1.47709L24.646 1.32045C26.2574 0.453903 28.0711 0 29.9047 0C31.8196 0 33.7104 0.498136 35.3699 1.44456C37.0607 2.40889 38.46 3.80378 39.4232 5.48456L39.6057 5.80326C40.6556 7.63549 41.2075 9.7062 41.2075 11.813V17.1974ZM34.5417 23.3393H58.2585L59.0113 12.774C59.1242 11.1885 59.8986 9.7212 61.1482 8.72411L61.346 8.56608C63.3441 6.97173 66.1937 6.97173 68.1917 8.56608C69.5478 9.6481 70.301 11.3062 70.219 13.0291L69.7292 23.3393H76.2625C77.8281 23.3393 79.3215 23.9913 80.378 25.1358C82.2672 27.1826 82.3316 30.3 80.5279 32.4213L80.4384 32.5268C79.3486 33.8085 77.7434 34.5483 76.0517 34.5483H68.7991L67.249 53.1277H74.2231C75.8938 53.1277 77.4781 53.8627 78.5478 55.1341C80.269 57.1803 80.2708 60.1694 78.5771 62.2385C77.4975 63.5573 75.8641 64.3367 74.1499 64.3367H66.474L65.7163 75.4714C65.6069 77.0755 64.7809 78.552 63.4685 79.4976C61.6412 80.814 59.1773 80.8837 57.2817 79.6657C55.6755 78.6335 54.7326 76.8431 54.797 74.9478L55.1582 64.3367H31.4416L30.5572 75.476C30.4298 77.0792 29.6007 78.547 28.2874 79.493C26.4484 80.8179 23.9752 80.8955 22.0524 79.6926C20.3813 78.647 19.3917 76.7998 19.4584 74.8432L19.8159 64.3367H13.002C11.4209 64.3367 9.91603 63.6639 8.86997 62.4895C7.12481 60.5304 7.02595 57.6211 8.63421 55.55L8.77608 55.3672C9.87266 53.9551 11.5692 53.1277 13.3677 53.1277H20.7459L22.2959 34.5483H15.3434C13.4814 34.5483 11.7347 33.6551 10.6563 32.1517L10.5755 32.039C9.15837 30.0634 9.21118 27.4024 10.7056 25.4833C11.7586 24.1313 13.3851 23.3393 15.109 23.3393H23.0712L23.9536 12.7234C24.0828 11.1681 24.8506 9.73352 26.0775 8.75458L26.3304 8.55269C28.3125 6.97114 31.1446 6.99051 33.1045 8.59899C34.3999 9.66225 35.1154 11.2669 35.0363 12.9316L34.5417 23.3393Z" fill="white"/>
<path d="M127.411 66.6181H118.759V23.7953H149.026V32.366H127.411V40.9364H140.374V49.5069H127.411V66.6181ZM158.613 66.6181H150.383V34.6354H152.373L155.086 38.4281C156.412 37.2335 157.92 36.3177 159.608 35.6806C161.296 35.0238 163.044 34.6953 164.853 34.6953H172.119V42.8177H164.853C163.989 42.8177 163.175 42.9769 162.411 43.2956C161.648 43.6141 160.985 44.052 160.422 44.6094C159.859 45.1668 159.417 45.8239 159.095 46.5805C158.774 47.3369 158.613 48.1433 158.613 48.9993V66.6181ZM206.607 66.6181H204.617L201.421 62.2282C200.637 62.925 199.804 63.582 198.919 64.1993C198.055 64.7964 197.141 65.3242 196.176 65.782C195.211 66.2199 194.216 66.5683 193.191 66.8271C192.186 67.086 191.161 67.2153 190.116 67.2153C187.845 67.2153 185.705 66.8372 183.695 66.0806C181.705 65.3242 179.957 64.229 178.449 62.7957C176.962 61.3423 175.786 59.5705 174.922 57.4802C174.058 55.3899 173.626 53.0108 173.626 50.343C173.626 47.8545 174.058 45.5751 174.922 43.5047C175.786 41.4141 176.962 39.6224 178.449 38.1293C179.957 36.6362 181.705 35.4816 183.695 34.6653C185.705 33.8292 187.845 33.4111 190.116 33.4111C191.161 33.4111 192.196 33.5405 193.221 33.7993C194.246 34.0581 195.241 34.4165 196.206 34.8744C197.171 35.3322 198.085 35.8697 198.949 36.487C199.834 37.104 200.658 37.7711 201.421 38.4877L204.617 34.6953H206.607V66.6181ZM198.316 50.343C198.316 49.2282 198.095 48.1531 197.653 47.118C197.231 46.0628 196.648 45.1371 195.904 44.3408C195.161 43.5245 194.287 42.8776 193.282 42.3997C192.297 41.9019 191.242 41.6531 190.116 41.6531C188.991 41.6531 187.926 41.8422 186.921 42.2206C185.936 42.5989 185.072 43.1563 184.328 43.8928C183.605 44.6293 183.032 45.5452 182.61 46.6401C182.188 47.7152 181.977 48.9495 181.977 50.343C181.977 51.7365 182.188 52.9809 182.61 54.0759C183.032 55.1509 183.605 56.0567 184.328 56.7935C185.072 57.53 185.936 58.0874 186.921 58.4657C187.926 58.844 188.991 59.0329 190.116 59.0329C191.242 59.0329 192.297 58.7942 193.282 58.3163C194.287 57.8187 195.161 57.1716 195.904 56.3752C196.648 55.5589 197.231 54.6333 197.653 53.5982C198.095 52.543 198.316 51.4578 198.316 50.343ZM221.137 66.6181H212.907V34.6354H214.897L217.61 37.7412C218.937 36.5466 220.434 35.631 222.103 34.9938C223.79 34.3368 225.549 34.0083 227.377 34.0083C229.346 34.0083 231.207 34.3866 232.954 35.143C234.702 35.8798 236.231 36.905 237.538 38.2188C238.843 39.513 239.869 41.036 240.612 42.7878C241.375 44.5199 241.759 46.3714 241.759 48.3423V66.6181H233.527V48.3423C233.527 47.5061 233.366 46.7198 233.044 45.9831C232.725 45.2267 232.281 44.5697 231.719 44.0123C231.157 43.4549 230.504 43.0169 229.759 42.6982C229.016 42.3798 228.222 42.2206 227.377 42.2206C226.513 42.2206 225.699 42.3798 224.936 42.6982C224.171 43.0169 223.51 43.4549 222.945 44.0123C222.383 44.5697 221.942 45.2267 221.62 45.9831C221.298 46.7198 221.137 47.5061 221.137 48.3423V66.6181ZM255.926 66.6181H247.637V21.9141H255.926V50.1043L268.197 34.6953H277.663L266.96 48.0138L277.663 66.6181H268.197L261.654 55.0015L255.926 62.527V66.6181ZM289.208 66.6181H280.918V21.9141H289.208V66.6181ZM303.287 78.8019V70.5899L307.87 70.6495C308.674 70.6495 309.448 70.5202 310.191 70.2614C310.935 70.0025 311.618 69.6441 312.242 69.1863C312.884 68.7283 313.446 68.1809 313.929 67.5438C314.412 66.9267 314.804 66.2498 315.104 65.5131C314.2 65.8914 313.276 66.2697 312.332 66.648C311.406 67.0261 310.471 67.2153 309.528 67.2153C307.539 67.2153 305.669 66.8669 303.92 66.1701C302.172 65.4733 300.635 64.4878 299.307 63.2138C298.002 61.9198 296.966 60.357 296.203 58.5253C295.46 56.674 295.087 54.6033 295.087 52.3141V34.6354H303.287V52.3141C303.287 53.4488 303.448 54.4441 303.77 55.3003C304.112 56.1364 304.564 56.843 305.126 57.4206C305.689 57.978 306.341 58.396 307.087 58.6747C307.85 58.9534 308.663 59.0928 309.528 59.0928C310.372 59.0928 311.166 58.9036 311.909 58.5253C312.672 58.1271 313.336 57.6097 313.898 56.9726C314.463 56.3354 314.904 55.6188 315.225 54.8224C315.547 54.0062 315.708 53.1701 315.708 52.3141V34.6354H323.999V62.5867C323.977 64.8362 323.536 66.9466 322.672 68.9174C321.807 70.8885 320.621 72.6105 319.115 74.0838C317.627 75.5568 315.889 76.7216 313.898 77.5776C311.909 78.4336 309.779 78.8617 307.508 78.8617L303.287 78.8019Z" fill="white"/>
</svg>
