<svg width="132" height="36" viewBox="0 0 132 36" fill="none" xmlns="http://www.w3.org/2000/svg">
<path d="M13.9008 19.074L12.7291 18.5342C12.4902 18.4241 12.2798 18.2617 12.1137 18.0592L12.0194 17.9443C11.7654 17.6345 11.6577 17.2314 11.724 16.8376L11.7359 16.7666C11.7726 16.549 11.8717 16.3465 12.0214 16.1834C12.241 15.9442 12.5522 15.8078 12.8786 15.8078H13.0244C13.2707 15.8078 13.513 15.8684 13.7299 15.984L14.1459 16.2058L14.8326 16.4721C15.2546 16.6356 15.6878 16.7689 16.1291 16.8709L16.2514 16.8992C16.8742 17.0431 17.5116 17.1158 18.1511 17.1158H18.2571C18.8062 17.1158 19.3536 17.0554 19.8891 16.9355L20.0272 16.9046C20.5818 16.7806 21.1173 16.5834 21.6191 16.3183L22.2796 15.9694C22.4819 15.8624 22.7012 15.7905 22.9281 15.7569L23.2538 15.7085C23.5615 15.6627 23.8752 15.7374 24.1284 15.9165C24.39 16.1016 24.5656 16.3831 24.6158 16.6976L24.6242 16.7507C24.6789 17.0938 24.5943 17.4445 24.389 17.7261L24.2561 17.9083C24.0642 18.1715 23.8061 18.3805 23.5075 18.5143L22.3112 19.0504C21.8069 19.2763 21.2768 19.4406 20.7324 19.5394L19.8955 19.6914C18.7118 19.9063 17.5002 19.9212 16.3116 19.7353L15.8522 19.6635C15.1773 19.5579 14.5204 19.3595 13.9008 19.074Z" fill="black"/>
<path fill-rule="evenodd" clip-rule="evenodd" d="M16.7883 7.00636H21.4616L21.6393 4.54133C21.6886 3.85786 21.8914 3.19393 22.2328 2.59801C22.7555 1.68586 23.5771 0.97795 24.5614 0.591597L24.6076 0.573473C25.7502 0.125024 27.0231 0.129165 28.1627 0.585038L28.3526 0.660996C29.2095 1.00383 29.9344 1.6076 30.4223 2.38515C30.8796 3.11394 31.1074 3.96121 31.0765 4.81878L30.9976 7.00636L32.6579 7.23066C33.3909 7.32961 34.0851 7.61615 34.6721 8.06201C35.324 8.55707 35.8173 9.22849 36.0925 9.9952L36.1351 10.1138C36.4888 11.0994 36.4962 12.1743 36.1559 13.1645L36.0467 13.4822C35.8006 14.1983 35.3668 14.8368 34.7897 15.3323C34.1298 15.8988 33.3116 16.2534 32.4435 16.3489L30.3661 16.5776L30.1767 19.0798L32.0387 19.4406C32.723 19.5734 33.3631 19.8736 33.9003 20.314C34.5595 20.8545 35.0354 21.5823 35.2635 22.3992L35.3159 22.5872C35.5876 23.56 35.54 24.5933 35.1798 25.5376L35.0937 25.7634C34.8104 26.5062 34.3249 27.1567 33.6911 27.6428C33.0453 28.1381 32.2715 28.4427 31.4587 28.5216L29.482 28.7135L29.2882 30.8241C29.2079 31.6999 28.9323 32.5471 28.4813 33.3046C27.9836 34.1405 27.2203 34.7894 26.3107 35.1498L26.1488 35.214C25.121 35.6212 23.98 35.6511 22.932 35.298C21.9389 34.9636 21.0897 34.3058 20.5225 33.4319L20.5001 33.3974C19.9748 32.588 19.7122 31.6388 19.7475 30.6772L19.8196 28.7135H15.2095L15.0058 30.9331C14.932 31.7369 14.676 32.5136 14.2569 33.2055L14.1567 33.371C13.7697 34.0099 13.2314 34.5455 12.5882 34.9315C11.8655 35.3654 11.0366 35.5948 10.1916 35.5948H9.88423C8.99415 35.5948 8.12643 35.318 7.40366 34.8034C6.80764 34.3791 6.33274 33.809 6.02517 33.1489L5.91407 32.9104C5.54886 32.1266 5.38611 31.2652 5.44048 30.4036L5.54711 28.7135L3.808 28.4203C3.00374 28.2847 2.25177 27.9353 1.63235 27.4094C1.09224 26.9508 0.669464 26.372 0.398616 25.7205L0.333493 25.5638C0.0660274 24.9205 -0.0430422 24.2232 0.0152947 23.5298C0.0812112 22.7462 0.358558 21.9946 0.818299 21.3537L0.958732 21.1578C1.52063 20.3746 2.30742 19.7767 3.21683 19.4421C3.7556 19.2438 4.32572 19.1424 4.90045 19.1424H6.05233L6.30494 16.515L4.91374 16.3699C4.25125 16.3008 3.61558 16.0736 3.06131 15.7075C2.61765 15.4145 2.23569 15.039 1.93664 14.6017L1.8185 14.4289C1.32458 13.7067 1.04112 12.8636 0.99923 11.9923L0.996705 11.9397C0.9576 11.1263 1.13937 10.3173 1.5231 9.59716C1.92424 8.84424 2.53037 8.21778 3.27272 7.78886L3.36141 7.7376C4.05052 7.33937 4.82648 7.11184 5.62337 7.07426L7.06277 7.00636L7.3167 4.49113C7.39877 3.6781 7.68287 2.89462 8.14045 2.21476C8.59278 1.54265 9.20562 0.98716 9.92223 0.601778L10.041 0.537964C10.6975 0.184924 11.4364 0 12.1835 0C12.9636 0 13.7339 0.202945 14.41 0.588527C15.0989 0.981403 15.6689 1.54969 16.0613 2.23446L16.1357 2.3643C16.5634 3.11076 16.7883 3.95439 16.7883 4.81271V7.00636ZM14.0726 9.50862H23.735L24.0417 5.20424C24.0877 4.5583 24.4032 3.9605 24.9123 3.55428L24.9929 3.48989C25.807 2.84034 26.9679 2.84034 27.7819 3.48989C28.3344 3.93072 28.6412 4.60624 28.6078 5.30815L28.4083 9.50862H31.07C31.7078 9.50862 32.3163 9.77425 32.7467 10.2405C33.5164 11.0744 33.5426 12.3445 32.8078 13.2087L32.7713 13.2517C32.3273 13.7739 31.6733 14.0753 30.9841 14.0753H28.0294L27.3978 21.6447H30.2391C30.9198 21.6447 31.5653 21.9441 32.001 22.4621C32.7023 23.2957 32.703 24.5135 32.013 25.3565C31.5732 25.8938 30.9077 26.2113 30.2093 26.2113H27.0821L26.7734 30.7477C26.7288 31.4012 26.3923 32.0028 25.8576 32.388C25.1132 32.9243 24.1093 32.9527 23.337 32.4565C22.6827 32.036 22.2986 31.3065 22.3248 30.5344L22.4719 26.2113H12.8096L12.4493 30.7496C12.3973 31.4027 12.0596 32.0007 11.5245 32.3861C10.7753 32.9259 9.76771 32.9575 8.98435 32.4675C8.30352 32.0415 7.90034 31.2889 7.9275 30.4918L8.07318 26.2113H5.29712C4.65298 26.2113 4.03988 25.9372 3.6137 25.4587C2.90271 24.6606 2.86243 23.4753 3.51765 22.6315L3.57545 22.5571C4.02221 21.9818 4.71338 21.6447 5.44611 21.6447H8.45207L9.08353 14.0753H6.25102C5.49245 14.0753 4.78083 13.7114 4.34147 13.0989L4.30856 13.053C3.7312 12.2481 3.75271 11.164 4.36157 10.3821C4.79057 9.83129 5.45321 9.50862 6.15555 9.50862H9.39939L9.75891 5.18362C9.81155 4.55 10.1244 3.96552 10.6242 3.56669L10.7272 3.48444C11.5348 2.8401 12.6886 2.84799 13.487 3.5033C14.0148 3.93648 14.3063 4.59025 14.2741 5.26844L14.0726 9.50862Z" fill="black"/>
<path d="M51.9085 27.1425H48.3835V9.69613H60.7148V13.1879H51.9085V16.6796H57.1898V20.1712H51.9085V27.1425ZM64.6204 27.1425H61.2674V14.1125H62.0781L63.1834 15.6576C63.7239 15.171 64.338 14.7978 65.0258 14.5383C65.7135 14.2707 66.4259 14.1369 67.1628 14.1369H70.1228V17.446H67.1628C66.8108 17.446 66.4791 17.5109 66.168 17.6407C65.8568 17.7705 65.5867 17.9489 65.3573 18.176C65.1281 18.4031 64.948 18.6707 64.817 18.979C64.686 19.2872 64.6204 19.6157 64.6204 19.9644V27.1425ZM84.1735 27.1425H83.3629L82.061 25.354C81.7416 25.6379 81.4019 25.9056 81.0415 26.157C80.6895 26.4003 80.3169 26.6153 79.9239 26.8018C79.5309 26.9803 79.1256 27.1222 78.708 27.2277C78.2985 27.3331 77.881 27.3858 77.4552 27.3858C76.53 27.3858 75.6579 27.2317 74.8391 26.9235C74.0285 26.6153 73.3161 26.1692 72.702 25.5852C72.0962 24.9931 71.6171 24.2712 71.265 23.4196C70.913 22.568 70.7369 21.5988 70.7369 20.5119C70.7369 19.4981 70.913 18.5694 71.265 17.7259C71.6171 16.8742 72.0962 16.1442 72.702 15.5359C73.3161 14.9276 74.0285 14.4572 74.8391 14.1247C75.6579 13.784 76.53 13.6137 77.4552 13.6137C77.881 13.6137 78.3027 13.6664 78.7202 13.7718C79.1379 13.8773 79.5432 14.0233 79.9362 14.2098C80.3293 14.3963 80.7018 14.6153 81.0539 14.8668C81.4141 15.1182 81.7498 15.39 82.061 15.6819L83.3629 14.1369H84.1735V27.1425ZM80.7959 20.5119C80.7959 20.0577 80.7058 19.6197 80.5257 19.198C80.3538 18.7681 80.1163 18.391 79.8133 18.0665C79.5104 17.734 79.1542 17.4704 78.7448 17.2757C78.3436 17.0729 77.9138 16.9715 77.4552 16.9715C76.9967 16.9715 76.5628 17.0486 76.1533 17.2027C75.7521 17.3568 75.4 17.5839 75.097 17.884C74.8023 18.1841 74.569 18.5572 74.3969 19.0033C74.225 19.4413 74.139 19.9441 74.139 20.5119C74.139 21.0796 74.225 21.5866 74.3969 22.0327C74.569 22.4707 74.8023 22.8397 75.097 23.1399C75.4 23.4399 75.7521 23.667 76.1533 23.8211C76.5628 23.9753 76.9967 24.0522 77.4552 24.0522C77.9138 24.0522 78.3436 23.955 78.7448 23.7603C79.1542 23.5576 79.5104 23.2939 79.8133 22.9694C80.1163 22.6369 80.3538 22.2598 80.5257 21.8381C80.7058 21.4082 80.7959 20.9661 80.7959 20.5119ZM90.0934 27.1425H86.7405V14.1125H87.551L88.6565 15.3778C89.1969 14.8911 89.8068 14.5181 90.4868 14.2585C91.1741 13.9908 91.891 13.857 92.6357 13.857C93.4379 13.857 94.1961 14.0111 94.9076 14.3193C95.62 14.6194 96.2425 15.0371 96.7753 15.5724C97.3071 16.0996 97.7248 16.7201 98.0276 17.4338C98.3384 18.1395 98.4947 18.8938 98.4947 19.6968V27.1425H95.1412V19.6968C95.1412 19.3561 95.0756 19.0358 94.9444 18.7356C94.8142 18.4275 94.6336 18.1598 94.4045 17.9327C94.1754 17.7056 93.9095 17.5272 93.6059 17.3973C93.3032 17.2676 92.9798 17.2027 92.6357 17.2027C92.2835 17.2027 91.952 17.2676 91.6412 17.3973C91.3295 17.5272 91.06 17.7056 90.83 17.9327C90.6009 18.1598 90.4213 18.4275 90.2901 18.7356C90.1589 19.0358 90.0934 19.3561 90.0934 19.6968V27.1425ZM104.267 27.1425H100.89V8.92969H104.267V20.4146L109.266 14.1369H113.122L108.762 19.5629L113.122 27.1425H109.266L106.6 22.4098L104.267 25.4758V27.1425ZM117.826 27.1425H114.448V8.92969H117.826V27.1425ZM123.562 32.1063V28.7606L125.429 28.7849C125.757 28.7849 126.072 28.7322 126.375 28.6268C126.678 28.5213 126.956 28.3753 127.21 28.1888C127.472 28.0022 127.701 27.7792 127.898 27.5196C128.094 27.2682 128.254 26.9925 128.376 26.6923C128.008 26.8464 127.632 27.0006 127.247 27.1547C126.87 27.3087 126.489 27.3858 126.104 27.3858C125.294 27.3858 124.532 27.2438 123.82 26.96C123.108 26.6761 122.481 26.2746 121.941 25.7555C121.409 25.2284 120.987 24.5917 120.676 23.8454C120.373 23.0912 120.221 22.2476 120.221 21.3149V14.1125H123.562V21.3149C123.562 21.7772 123.628 22.1827 123.759 22.5315C123.898 22.8722 124.082 23.1601 124.311 23.3953C124.54 23.6224 124.806 23.7928 125.11 23.9063C125.421 24.0198 125.752 24.0766 126.104 24.0766C126.449 24.0766 126.772 23.9996 127.075 23.8454C127.385 23.6832 127.656 23.4724 127.885 23.2128C128.115 22.9532 128.295 22.6613 128.426 22.3368C128.557 22.0043 128.623 21.6636 128.623 21.3149V14.1125H132V25.5001C131.991 26.4165 131.812 27.2763 131.459 28.0793C131.107 28.8823 130.624 29.5839 130.01 30.1841C129.404 30.7842 128.696 31.2588 127.885 31.6075C127.075 31.9562 126.207 32.1307 125.282 32.1307L123.562 32.1063Z" fill="black"/>
</svg>
