<svg width="167" height="292" viewBox="0 0 167 292" fill="none" xmlns="http://www.w3.org/2000/svg">
<path d="M78.5941 93.9302L83.1417 91.4053L48.7468 37.1576L43.884 39.9786C39.3948 42.5828 35.3423 46.2326 34.3769 51.332C33.1525 57.7991 33.6675 67.0967 39.9029 77.3414C45.5146 86.5613 52.7773 92.2613 58.9556 95.5381C65.1688 98.8334 72.4453 97.3442 78.5941 93.9302Z" fill="#FFE768" stroke="black" stroke-width="0.5"/>
<path d="M81.4075 53.8773C86.3267 61.3039 89.0109 69.1847 89.3843 75.9146C89.758 82.6515 87.8177 88.1835 83.557 91.0057C79.2963 93.8279 73.4457 93.4566 67.3884 90.4844C61.3372 87.5153 55.1279 81.9695 50.2086 74.5429C45.2894 67.1164 42.6052 59.2356 42.2318 52.5056C41.8581 45.7687 43.7985 40.2368 48.0591 37.4146C52.3198 34.5924 58.1704 34.9637 64.2278 37.9359C70.2789 40.905 76.4882 46.4508 81.4075 53.8773Z" fill="#FFE768" stroke="black" stroke-width="0.5"/>
<path d="M79.166 55.3312C83.3114 61.5895 85.5932 68.2151 85.9414 73.8602C86.2901 79.5128 84.701 84.1278 81.178 86.4614C77.6549 88.795 72.7857 88.4579 67.7169 85.9318C62.6549 83.4091 57.4443 78.7235 53.2989 72.4652C49.1535 66.2069 46.8718 59.5812 46.5236 53.9362C46.1749 48.2836 47.764 43.6686 51.287 41.335C54.81 39.0014 59.6793 39.3385 64.7481 41.8646C69.81 44.3873 75.0206 49.0729 79.166 55.3312Z" stroke="black" stroke-width="0.5"/>
<path d="M49.0989 44.0794C52.9982 41.8174 63.6369 41.2314 74.9969 56.9833C84.3938 70.5217 82.5094 81.6397 80.0639 87.071" stroke="black" stroke-width="0.5"/>
<path d="M69.3629 68.7849C70.9471 67.4979 71.4794 65.5853 70.5119 64.1343C69.6155 62.7897 68.2487 62.5857 65.8835 63.5666L63.5935 60.132C64.5653 59.7148 65.5327 59.8967 66.4824 60.6865L66.9971 59.6703C65.7412 58.7384 64.3389 58.5965 63.0076 59.2534L62.2088 58.0553L61.3036 58.6589L62.0935 59.8437C60.5981 61.033 60.2122 62.7904 61.0377 64.0284C61.9341 65.3729 63.5273 65.5991 65.4398 64.8624L67.8896 68.5365C66.4918 69.2378 65.0496 68.8917 63.7049 67.7691L63.1947 68.7632C64.8145 70.1254 66.7493 70.3161 68.4577 69.3885L69.2565 70.5866L70.1618 69.983L69.3629 68.7849ZM64.8451 63.9704C63.4473 64.4409 62.5465 64.2724 61.9518 63.3804C61.3571 62.4885 61.6721 61.49 62.6616 60.6956L64.8451 63.9704ZM69.6333 64.8355C70.2991 65.8339 69.9885 66.9832 68.7949 67.933L66.4604 64.4318C68.1733 63.7705 69.0564 63.9702 69.6333 64.8355Z" fill="black"/>
<path d="M110.946 59.8666C108.713 64.2821 107.839 68.5375 107.682 72.1615C107.412 78.3701 112.006 83.2086 117.435 86.2324L134.117 51.6921L133.964 51.6102C129.383 49.1707 123.993 47.599 119.544 50.27C116.557 52.0628 113.378 55.0594 110.946 59.8666Z" fill="#FFE768" stroke="black" stroke-width="0.5"/>
<path d="M135.835 73.4867C133.623 78.3087 130.482 82.1382 127.203 84.4362C123.918 86.738 120.539 87.4769 117.811 86.2258C115.083 84.9746 113.438 81.9322 113.039 77.9409C112.641 73.9564 113.493 69.0771 115.704 64.255C117.916 59.433 121.057 55.6035 124.337 53.3055C127.622 51.0037 131 50.2648 133.729 51.5159C136.457 52.7671 138.101 55.8095 138.5 59.8008C138.898 63.7853 138.046 68.6646 135.835 73.4867Z" fill="#FFE768" stroke="black" stroke-width="0.5"/>
<path d="M134.391 72.8078C132.528 76.8694 129.897 80.0994 127.16 82.0427C124.416 83.9904 121.614 84.6178 119.367 83.5872C117.119 82.5566 115.766 80.0236 115.452 76.6738C115.139 73.3317 115.87 69.2297 117.732 65.1681C119.595 61.1065 122.227 57.8765 124.964 55.9332C127.707 53.9854 130.509 53.3581 132.757 54.3887C135.004 55.4193 136.357 57.9523 136.671 61.3021C136.984 64.6442 136.254 68.7461 134.391 72.8078Z" stroke="black" stroke-width="0.5"/>
<path d="M130.717 54.0519C133.093 55.3173 136.742 60.5295 132.33 71.2554C128.423 80.2879 122.19 82.835 118.664 83.3057" stroke="black" stroke-width="0.5"/>
<path d="M124.107 73.2929C125.433 73.7512 126.744 73.3684 127.24 72.277C127.7 71.2657 127.324 70.3935 125.893 69.3679L127.068 66.7847C127.664 67.2009 127.909 67.8319 127.792 68.673L128.572 68.605C128.661 67.5335 128.235 66.6631 127.369 66.1239L127.778 65.2227L127.098 64.913L126.692 65.8041C125.455 65.3622 124.289 65.7742 123.865 66.7054C123.405 67.7167 123.851 68.7291 124.975 69.5789L123.718 72.3423C122.801 71.7804 122.48 70.8125 122.648 69.62L121.882 69.6826C121.674 71.1227 122.265 72.3219 123.426 72.9832L123.016 73.8843L123.697 74.194L124.107 73.2929ZM125.28 68.908C124.498 68.2623 124.27 67.6751 124.575 67.0042C124.88 66.3334 125.578 66.1552 126.401 66.4449L125.28 68.908ZM126.512 72.0182C126.17 72.7692 125.386 73.0047 124.399 72.6521L125.597 70.0188C126.604 70.7792 126.808 71.3674 126.512 72.0182Z" fill="black"/>
<path d="M18.4316 272.366C3.58751 255.723 13.3711 246.689 20.1184 244.252L99.96 256.06C125.825 293.17 36.9867 293.17 18.4316 272.366Z" fill="#AE97FE" stroke="black" stroke-width="2"/>
<path d="M77.447 281.334L83.1917 288.993C83.7959 289.799 84.8655 290.099 85.8005 289.725C86.5567 289.423 87.0875 288.731 87.1845 287.923L88.3293 278.383C88.5673 276.399 87.7295 274.439 86.1311 273.24C84.9078 272.323 83.3624 271.946 81.8542 272.197L81.0542 272.331C78.8687 272.695 77.095 274.298 76.512 276.436C76.0512 278.125 76.3962 279.933 77.447 281.334Z" fill="white" stroke="black" stroke-width="2"/>
<path d="M51.7894 279.635L54.5294 288.809C54.8176 289.774 55.7174 290.425 56.724 290.398C57.5383 290.375 58.2754 289.91 58.6462 289.185L63.0205 280.631C63.9302 278.852 63.8222 276.723 62.7372 275.045C61.9069 273.761 60.5873 272.873 59.0852 272.587L58.2885 272.435C56.1119 272.021 53.8932 272.911 52.6066 274.715C51.5898 276.141 51.2881 277.957 51.7894 279.635Z" fill="white" stroke="black" stroke-width="2"/>
<path d="M27.3321 273.512L28.2879 283.039C28.3885 284.041 29.1488 284.851 30.1425 285.014C30.9462 285.146 31.758 284.829 32.2592 284.187L38.1723 276.614C39.4019 275.04 39.6984 272.929 38.9503 271.076C38.3778 269.658 37.2499 268.536 35.829 267.971L35.0754 267.672C33.0164 266.853 30.6693 267.308 29.0649 268.836C27.7967 270.044 27.1573 271.77 27.3321 273.512Z" fill="white" stroke="black" stroke-width="2"/>
<path d="M11.3199 254.867L3.0225 259.645C2.14982 260.147 1.72288 261.173 1.98118 262.146C2.19012 262.933 2.81216 263.544 3.60322 263.738L12.9346 266.026C14.8751 266.502 16.9221 265.907 18.3052 264.466C19.3637 263.362 19.9245 261.874 19.8571 260.346L19.8214 259.536C19.7239 257.322 18.347 255.368 16.2954 254.531C14.6738 253.869 12.8376 253.994 11.3199 254.867Z" fill="white" stroke="black" stroke-width="2"/>
<path d="M104 264.988L112.298 269.765C113.17 270.268 113.597 271.293 113.339 272.267C113.13 273.054 112.508 273.664 111.717 273.858L102.386 276.147C100.445 276.623 98.3982 276.028 97.015 274.586C95.9566 273.483 95.3958 271.994 95.4631 270.467L95.4989 269.656C95.5964 267.443 96.9733 265.489 99.0249 264.652C100.646 263.99 102.483 264.114 104 264.988Z" fill="white" stroke="black" stroke-width="2"/>
<path d="M137.072 154.288C132.604 167.373 127.306 188.968 123.466 205.899C120.824 217.552 117.765 229.297 111.432 239.429C97.6523 261.478 82.786 264.122 72.9713 265.057C24.6156 266.181 11.4966 231.695 10.5598 212.203C7.8609 189.262 17.3071 151.664 22.3676 135.733C24.1669 126.737 30.6143 118.49 33.6131 115.491C53.855 106.945 57.4161 122.426 56.6664 131.235L51.0436 154.288V164.972L62.8514 170.032L78.5951 172.844L92.0897 164.972L99.3993 154.288L106.147 135.733C109.745 122.689 116.642 116.803 119.641 115.491C142.132 109.306 144.944 131.235 137.072 154.288Z" fill="#4BD178" stroke="black" stroke-width="2"/>
<path d="M87.5908 204.894C98.8363 202.645 100.898 193.46 100.523 189.712C90.9645 187.463 71.8471 191.399 71.2848 194.773C71.7347 203.769 82.3429 205.269 87.5908 204.894Z" fill="#F8D8EB" stroke="black" stroke-width="2"/>
<path d="M52.1648 152.039C42.2687 156.987 37.5456 179.216 36.4211 189.711C30.5734 219.849 45.2301 219.887 53.2893 216.139C58.8495 211.373 63.9031 200.01 67.6934 188.906C72.281 175.467 78.9926 154.66 65.6868 149.699C62.1278 148.372 57.5143 149.364 52.1648 152.039Z" fill="#4BD178" stroke="black" stroke-width="2"/>
<path d="M89.2758 150.914C108.168 150.015 102.396 176.029 97.1476 189.149C78.5926 189.149 68.2842 194.022 66.7848 197.583L72.9698 163.284L74.0944 159.348C79.0424 151.251 86.277 150.352 89.2758 150.914Z" fill="#4BD178" stroke="black" stroke-width="2"/>
<path d="M53.8537 189.149C59.7013 184.201 65.2866 187.837 67.3483 190.273C66 197.92 59.2895 208.454 56.1028 212.765C43.7327 211.078 46.5441 195.334 53.8537 189.149Z" fill="#F8D8EB" stroke="black" stroke-width="2"/>
<path d="M122.449 192.523C102.02 187.837 61.7232 184.314 63.9723 207.704C64.91 213.327 71.2838 224.348 89.2766 223.448C88.152 227.572 87.0275 237.505 91.5257 244.252" stroke="black" stroke-width="2"/>
</svg>
