<svg width="39" height="47" viewBox="0 0 39 47" fill="none" xmlns="http://www.w3.org/2000/svg">
<path d="M14.1923 31.9746C14.1923 34.8197 13.8509 38.0063 12.9404 41.1928" stroke="black" stroke-width="2" stroke-linecap="round"/>
<path d="M22.7559 33.8184C22.7559 35.753 22.7559 37.3463 23.6663 40.1914" stroke="black" stroke-width="2" stroke-linecap="round"/>
<path d="M23.8229 40.1299C26.5921 39.5609 32.2899 39.1739 32.9273 42.1784C33.7239 45.9339 23.4389 46.6777 23.439 40.1299" stroke="black" stroke-width="2" stroke-linecap="round"/>
<path d="M3.99231 43.0656C4.57922 40.2987 9.45786 40.4081 12.3887 40.8871C12.8138 40.9566 13.1414 41.3098 13.1391 41.7406C13.1072 47.6593 3.22555 46.6803 3.99231 43.0656Z" stroke="black" stroke-width="2" stroke-linecap="round"/>
<path d="M16.4873 8.92803H24.231V5.0562L26.0747 1.92186L28.2872 2.29061H31.2372L31.9746 4.50309V8.92803L35.4777 8.55929L37.5058 10.0343V13.353L35.4777 15.7498L31.6059 16.6717L31.2372 22.756L34.3715 22.3873L35.4777 23.8622L37.5058 26.0747L36.3996 28.1028L34.0027 29.3934L30.4997 29.7622V35.2934L29.0247 36.7683H25.3372C25.0422 36.7683 23.9852 35.1704 23.4935 34.3715L22.5716 30.4997L21.281 29.7622L15.1967 30.4997L14.2748 32.7121V35.2934L13.353 37.3215H10.7718L8.37492 36.7683L6.71556 34.3715L7.08431 30.4997L3.39685 29.7622L1.73749 28.1028L1 26.9966L1.73749 24.231L2.84373 22.756L7.08431 22.0185L7.8218 17.2248L5.0562 16.1186L2.84373 15.7498L1.73749 12.9842C2.16769 12.1238 3.10185 10.3293 3.39685 10.0343C3.69184 9.73928 4.99475 9.4197 5.60932 9.29678L8.37492 8.92803V5.7937L9.29678 2.84373L12.4311 1L16.4873 2.84373V5.7937V8.92803Z" fill="white"/>
<path d="M16.1185 8.74444H24.2309L24.7841 4.5039C25.2267 1.99643 27.5497 1.49248 28.6559 1.55394C31.0159 1.40644 31.9746 3.58201 32.159 4.68824V8.74444H33.4496C34.3715 8.74444 37.8746 9.11323 37.8746 12.6163C37.8746 15.4188 35.785 16.3652 34.7402 16.4881H31.6059L31.2372 22.2037H32.5278C33.2653 22.2037 37.1371 22.7568 36.9527 26.2599C36.8052 29.0624 34.5559 29.8859 33.4496 29.9474H30.684L30.3153 33.8192C30.1309 35.1713 29.0616 37.8016 26.2591 37.5067C23.4566 37.2117 22.6331 34.9254 22.5716 33.8192L22.756 29.9474H14.828L14.2748 34.3723C14.0905 35.2942 13.1686 37.5067 10.0343 37.5067C7.5268 37.5067 6.6541 35.2942 6.53119 34.1879L6.71556 29.9474H4.13434C3.08956 29.7015 1 28.5461 1 25.8912C1 23.2362 3.08956 22.3266 4.13434 22.2037H7.08431L7.63742 16.4881H5.97807C4.74891 16.4881 2.21685 15.7875 1.92185 12.9851C1.62686 10.1826 3.8885 8.99029 5.05619 8.74444H8.19053L8.55918 5.61014C8.3748 4.5039 9.1123 1.36953 12.431 1.18515C15.086 1.03766 16.1185 3.45909 16.3028 4.68824L16.1185 8.74444Z" fill="#AE97FE" stroke="black" stroke-width="2"/>
<path d="M14.2749 19.0686C16.1801 20.1134 21.1704 21.5761 25.8904 19.0686" stroke="black" stroke-width="2" stroke-linecap="round"/>
</svg>
