<svg width="39" height="39" viewBox="0 0 39 39" fill="none" xmlns="http://www.w3.org/2000/svg">
<path d="M16.1185 8.74444H24.2309L24.7841 4.5039C25.2267 1.99643 27.5497 1.49248 28.6559 1.55394C31.0159 1.40644 31.9746 3.58201 32.159 4.68824V8.74444H33.4496C34.3715 8.74444 37.8746 9.11323 37.8746 12.6163C37.8746 15.4188 35.785 16.3652 34.7402 16.4881H31.6059L31.2372 22.2037H32.5278C33.2653 22.2037 37.1371 22.7568 36.9527 26.2599C36.8052 29.0624 34.5559 29.8859 33.4496 29.9474H30.684L30.3153 33.8192C30.1309 35.1713 29.0616 37.8016 26.2591 37.5067C23.4566 37.2117 22.6331 34.9254 22.5716 33.8192L22.756 29.9474H14.828L14.2748 34.3723C14.0905 35.2942 13.1686 37.5067 10.0343 37.5067C7.5268 37.5067 6.6541 35.2942 6.53119 34.1879L6.71556 29.9474H4.13434C3.08956 29.7015 1 28.5461 1 25.8912C1 23.2362 3.08956 22.3266 4.13434 22.2037H7.08431L7.63742 16.4881H5.97807C4.74891 16.4881 2.21685 15.7875 1.92185 12.9851C1.62686 10.1826 3.8885 8.99029 5.05619 8.74444H8.19053L8.55918 5.61014C8.3748 4.5039 9.1123 1.36953 12.431 1.18515C15.086 1.03766 16.1185 3.45909 16.3028 4.68824L16.1185 8.74444Z" fill="#AE97FE" stroke="black" stroke-width="2"/>
</svg>
