<svg width="24" height="24" viewBox="0 0 24 24" fill="none" xmlns="http://www.w3.org/2000/svg">
<path opacity="0.4" d="M16.19 2H7.81C4.17 2 2 4.17 2 7.81V16.18C2 19.83 4.17 22 7.81 22H16.18C19.82 22 21.99 19.83 21.99 16.19V7.81C22 4.17 19.83 2 16.19 2Z" fill="#292D32" fill-opacity="0.66"/>
<path d="M18.82 10.58C19.22 10.58 19.55 10.25 19.55 9.85001C19.55 9.45001 19.22 9.12001 18.82 9.12001H15.21L15.6 5.62001C15.64 5.22001 15.36 4.86001 14.95 4.81001C14.55 4.77001 14.19 5.05001 14.14 5.46001L13.73 9.12001H10.9L11.29 5.62001C11.33 5.22001 11.05 4.86001 10.64 4.81001C10.24 4.77001 9.88001 5.05001 9.83001 5.46001L9.43001 9.12001H5.90001C5.50001 9.12001 5.17001 9.45001 5.17001 9.85001C5.17001 10.25 5.50001 10.58 5.90001 10.58H9.27001L8.95001 13.43H5.18001C4.78001 13.43 4.45001 13.76 4.45001 14.16C4.45001 14.56 4.78001 14.89 5.18001 14.89H8.79001L8.40001 18.39C8.36001 18.79 8.64001 19.15 9.05001 19.2C9.08001 19.2 9.10001 19.2 9.13001 19.2C9.50001 19.2 9.81001 18.92 9.86001 18.55L10.27 14.89H13.11L12.72 18.39C12.68 18.79 12.96 19.15 13.37 19.2C13.4 19.2 13.42 19.2 13.45 19.2C13.82 19.2 14.13 18.92 14.18 18.55L14.59 14.89H18.12C18.52 14.89 18.85 14.56 18.85 14.16C18.85 13.76 18.52 13.43 18.12 13.43H14.75L15.07 10.58H18.82ZM13.26 13.42H10.42L10.74 10.57H13.58L13.26 13.42Z" fill="#292D32" fill-opacity="0.66"/>
</svg>
