<svg width="1179" height="454" viewBox="0 0 1179 454" fill="none" xmlns="http://www.w3.org/2000/svg">
<path d="M270.374 256.449L264.986 321.449L293.782 321.608C301.241 321.759 308.341 324.833 313.555 330.168C318.769 335.504 321.678 342.673 321.657 350.133C321.637 357.592 318.687 364.745 313.443 370.051C308.2 375.357 301.082 378.391 293.623 378.5H293.481L260.246 378.323L256.374 424.84C255.779 431.95 252.534 438.576 247.282 443.406C242.03 448.236 235.156 450.916 228.021 450.916C227.224 450.916 226.426 450.916 225.62 450.827C218.103 450.198 211.143 446.609 206.27 440.851C201.397 435.092 199.01 427.635 199.633 420.117L203.177 378.022L189.594 377.951L114.937 377.552L110.994 424.84C110.401 431.943 107.163 438.564 101.92 443.393C96.6778 448.223 89.8131 450.907 82.6854 450.916C81.8791 450.916 81.0905 450.916 80.2931 450.827C72.7743 450.2 65.8122 446.613 60.9375 440.854C56.0627 435.095 53.6741 427.636 54.2969 420.117L57.841 377.26L41.6178 377.171L31.3664 377.109C27.6314 377.099 23.9349 376.354 20.488 374.915C17.0411 373.477 13.9113 371.374 11.2772 368.726C8.64315 366.078 6.55647 362.937 5.13628 359.482C3.71609 356.028 2.99021 352.327 3.0001 348.592C3.00999 344.857 3.75544 341.161 5.1939 337.714C6.63236 334.267 8.73567 331.137 11.3837 328.503C14.0318 325.869 17.1727 323.782 20.6272 322.362C24.0816 320.942 27.782 320.216 31.517 320.226H31.6588L62.5813 320.385L68.0038 255.386L42.052 255.253C34.5088 255.234 27.282 252.22 21.9614 246.873C16.6409 241.526 13.6624 234.284 13.6812 226.741C13.7 219.198 16.7145 211.971 22.0617 206.65C27.4088 201.33 34.6505 198.351 42.1937 198.37H42.3443L72.7352 198.521L76.0313 158.942C76.3408 155.218 77.3806 151.592 79.0914 148.271C80.8023 144.949 83.1506 141.997 86.0022 139.583C88.8539 137.169 92.1531 135.341 95.7115 134.202C99.2699 133.063 103.018 132.636 106.741 132.945C110.465 133.255 114.09 134.295 117.412 136.006C120.733 137.716 123.685 140.065 126.099 142.916C128.513 145.768 130.342 149.067 131.481 152.626C132.62 156.184 133.047 159.932 132.737 163.655L129.813 198.822L218.044 199.291L221.411 158.942C221.721 155.218 222.761 151.592 224.472 148.271C226.182 144.949 228.531 141.997 231.382 139.583C234.234 137.169 237.533 135.341 241.092 134.202C244.65 133.063 248.398 132.636 252.121 132.945C255.845 133.255 259.471 134.295 262.792 136.006C266.114 137.716 269.066 140.065 271.48 142.916C273.893 145.768 275.722 149.067 276.861 152.626C278 156.184 278.427 159.932 278.117 163.655L275.132 199.602L304.441 199.761C311.985 199.78 319.211 202.794 324.532 208.142C329.852 213.489 332.831 220.73 332.812 228.274C332.793 235.817 329.779 243.044 324.432 248.364C319.085 253.685 311.843 256.663 304.3 256.644C304.25 256.654 304.199 256.654 304.149 256.644L270.374 256.449Z" fill="white" stroke="black" stroke-width="5" stroke-miterlimit="10"/>
<path d="M497.286 381.404C487.69 375.707 479.096 367.05 475.613 356.232C473.824 351.047 473.602 345.451 474.976 340.141C476.426 334.984 479.315 330.346 483.304 326.771C487.022 323.296 491.872 321.284 496.958 321.109C502.124 321.109 507.741 323.475 510.178 328.251C510.742 329.265 511.053 330.401 511.082 331.562C511.112 332.722 510.859 333.872 510.346 334.914C509.318 336.845 507.565 338.289 505.473 338.927C504.526 339.25 503.502 339.264 502.547 338.968C501.592 338.672 500.755 338.081 500.157 337.279C498.721 335.339 498.828 332.672 499.501 330.475C501.149 325.159 506.651 321.951 511.79 320.728C518.338 319.16 525.081 320.489 531.469 322.261C533.152 322.731 534.827 323.236 536.51 323.741C538.194 324.246 538.85 321.676 537.21 321.18C529.821 318.947 522.059 316.608 514.253 317.636C508.104 318.416 501.592 321.251 498.305 326.78C495.549 331.378 495.363 338.936 501.131 341.337C506.058 343.384 511.675 339.433 513.288 334.79C515.343 328.88 510.629 323.006 505.632 320.498C502.945 319.224 500.011 318.553 497.037 318.533C494.063 318.513 491.121 319.145 488.417 320.383C477.262 325.212 470.288 337.953 471.582 349.914C472.947 362.85 481.523 373.784 491.881 381.103C493.201 382.042 494.539 382.875 495.966 383.761C496.269 383.923 496.624 383.962 496.955 383.868C497.286 383.774 497.568 383.556 497.741 383.258C497.915 382.961 497.966 382.608 497.884 382.274C497.803 381.939 497.594 381.65 497.304 381.466L497.286 381.404Z" fill="black"/>
<path d="M215.865 180.672C203.198 191.071 191.098 202.142 179.617 213.837C176.339 217.186 173.111 220.579 169.933 224.017C168.772 225.266 170.65 227.154 171.811 225.895C182.926 213.852 194.68 202.414 207.022 191.633C210.566 188.549 214.14 185.522 217.743 182.551C219.063 181.47 217.176 179.6 215.865 180.672Z" fill="black"/>
<path d="M200.908 213.986C189.481 226.467 178.735 239.555 168.719 253.193C167.709 254.575 170.012 255.904 171.014 254.531C180.905 241.08 191.514 228.172 202.796 215.865C203.948 214.606 202.069 212.719 200.908 213.986Z" fill="black"/>
<path d="M959.582 293.802C973.608 255.454 983.859 230.087 983.345 208.379C982.831 186.671 943.722 169.27 951.448 152.798C959.174 136.327 994.545 109.675 1001.75 127.157C1008.95 144.638 1018.47 202.115 1033.7 186.131C1048.93 170.147 1069.53 122.824 1086.2 138.719C1102.88 154.615 1127.1 177.829 1111.77 186.99C1096.44 196.152 1039.11 220.367 1035.14 234.836C1031.17 249.305 1037.54 345.59 1024.76 350.995C1011.98 356.4 964.145 342.56 963.897 332.388C963.649 322.217 959.582 293.802 959.582 293.802Z" fill="black" stroke="black" stroke-width="2.54" stroke-miterlimit="10"/>
<path d="M840.198 273.192C853.099 197.728 862.597 116.027 886.351 116.027C910.106 116.027 930.467 121.565 924.353 145.798C918.24 170.031 886.015 243.075 898.57 255.879C911.125 268.682 942.871 256.57 960.326 256.57C981.361 256.57 990.186 348.655 953.539 352.111C916.893 355.566 855.128 334.806 850.378 319.593C845.629 304.38 840.198 273.192 840.198 273.192Z" fill="black" stroke="black" stroke-width="2.57" stroke-miterlimit="10"/>
<path d="M551.591 196.996C561.665 169.857 576.134 97.9023 608.173 97.9023C640.212 97.9023 662.017 115.269 662.017 134.23C662.017 153.191 642.639 249.485 662.017 230.896C681.394 212.307 706.319 142.727 724.73 147.954C743.142 153.182 754.04 156.46 742.451 181.305C730.862 206.149 666.11 344.538 653.157 354.001C642.01 362.152 613.462 351.972 608.173 331.673C600.899 303.781 613.09 219.041 598.099 227.405C583.107 235.769 574.769 296.373 574.769 296.373L551.591 196.996Z" fill="black" stroke="black" stroke-width="2.57" stroke-miterlimit="10"/>
<path d="M425.491 161.936C430.922 135.719 439.667 102.227 458.788 94.1904C480.053 85.2326 535.483 87.7932 546.337 121.657C557.191 155.522 604.026 346.709 581.628 358.272C559.229 369.835 530.238 359.982 528.014 349.332C525.639 337.814 526.242 260.224 507.936 254.039C491.394 248.449 471.006 246.366 466.94 256.6C462.873 266.834 445.223 332.072 445.223 332.072L397.714 295.435L425.491 161.936Z" fill="black" stroke="black" stroke-width="2.54" stroke-miterlimit="10"/>
<path d="M312.575 128.436C336.852 116.723 366.534 103.627 406.264 117.937C445.994 132.246 456.024 195.021 425.695 213.947C395.366 232.873 360.935 235.557 373.02 250.691C385.106 265.824 454.172 322.778 438.817 342.714C423.462 362.65 407.549 364.147 398.343 352.611C389.137 341.075 336.073 252.489 336.392 275.021C336.71 297.553 358.427 347.676 344.596 354.029C341.132 355.606 327.62 357.856 323.739 357.351C310.546 355.668 300.038 345.425 297.353 332.392L273.847 218.785C270.289 201.572 272.09 183.682 279.008 167.524C285.926 151.366 297.628 137.715 312.54 128.41L312.575 128.436Z" fill="black" stroke="black" stroke-width="3" stroke-miterlimit="10"/>
<path d="M715.604 42.3649C730.826 33.5045 751.657 35.507 764.726 47.4152C777.476 59.0223 781.862 79.1086 774.898 94.942C773.125 98.9823 770.29 102.916 766.338 105.052C763.193 106.753 759.091 106.824 756.406 104.236C751.976 99.9481 752.623 91.4953 756.858 87.3133C763.317 80.9338 774.206 82.3958 781.782 85.6475C788.934 88.7885 795.161 93.7124 799.866 99.9481C809.364 112.353 813.334 129.285 808.965 144.427C808.436 146.268 807.782 148.071 807.007 149.823C806.316 151.373 808.611 152.729 809.302 151.17C816.311 135.363 813.865 116.57 804.65 102.163C800.103 94.9175 793.773 88.9596 786.265 84.859C778.114 80.5263 767.402 78.1162 758.798 82.6616C757.039 83.5572 755.48 84.799 754.213 86.3124C752.946 87.8259 751.998 89.5798 751.427 91.4687C750.37 94.9335 750.507 98.6528 751.816 102.03C752.421 103.655 753.413 105.108 754.705 106.264C755.997 107.421 757.551 108.245 759.232 108.667C764.035 109.73 768.616 107.435 771.938 104.077C778.592 97.3343 781.029 86.8614 780.799 77.6378C780.591 68.2099 777.499 59.0721 771.938 51.4555C760.42 35.9766 738.685 30.2351 720.734 37.0132C718.503 37.8514 716.346 38.8739 714.284 40.07C713.993 40.254 713.785 40.5437 713.703 40.878C713.622 41.2123 713.673 41.5653 713.846 41.8626C714.02 42.1599 714.302 42.3784 714.633 42.4721C714.964 42.5658 715.319 42.5273 715.622 42.3649H715.604Z" fill="black"/>
<path d="M562.197 193.832C572.218 167.197 586.616 96.625 618.513 96.625C650.41 96.625 672.127 113.655 672.127 132.261C672.127 150.868 652.838 245.328 672.127 227.067C691.416 208.805 716.251 140.616 734.583 145.729C752.915 150.841 763.769 154.066 752.233 178.432C740.697 202.798 676.22 338.565 663.32 347.85C652.226 355.825 623.803 345.866 618.531 325.948C611.292 298.587 623.43 215.46 608.501 223.664C593.571 231.869 585.278 291.322 585.278 291.322L562.197 193.832Z" fill="#C8F0FF" stroke="black" stroke-width="3" stroke-miterlimit="10"/>
<path d="M703.111 195.389C699.416 171.794 690.893 135.201 709.216 129.061C727.539 122.921 755.706 116.47 760.118 136.433C764.531 156.395 775.048 223.016 779.771 209.521C784.493 196.027 790.633 116.027 810.994 116.027C831.355 116.027 861.888 121.689 849.679 145.647C837.469 169.606 805.297 227.215 815.744 236.669C826.19 246.123 884.322 274.583 874.133 297.354C865.087 317.573 844.708 342.692 827.306 324.989C808.248 305.612 777.113 237.192 777.113 255.586C777.113 273.98 798.829 342.187 773.719 349.559C748.609 356.931 732.962 350.17 728.248 332.361C723.534 314.552 703.111 195.389 703.111 195.389Z" fill="black" stroke="black" stroke-width="2.56" stroke-miterlimit="10"/>
<path d="M1077.58 324.329C1089.02 324.329 1098.3 315.055 1098.3 303.614C1098.3 292.173 1089.02 282.898 1077.58 282.898C1066.14 282.898 1056.87 292.173 1056.87 303.614C1056.87 315.055 1066.14 324.329 1077.58 324.329Z" stroke="black" stroke-width="2.5" stroke-miterlimit="10"/>
<path d="M1077.58 317.29C1085.14 317.29 1091.26 311.165 1091.26 303.61C1091.26 296.055 1085.14 289.93 1077.58 289.93C1070.03 289.93 1063.9 296.055 1063.9 303.61C1063.9 311.165 1070.03 317.29 1077.58 317.29Z" stroke="black" stroke-width="2.5" stroke-miterlimit="10"/>
<path d="M1062.95 318.012L1049.12 324.135C1046.82 325.163 1044.53 326.226 1042.2 327.2C1040.19 328.168 1037.99 328.691 1035.76 328.733C1034.88 328.723 1034 328.533 1033.18 328.175C1032.37 327.817 1031.64 327.299 1031.03 326.651C1030.42 325.857 1030.08 324.893 1030.04 323.893C1030 322.892 1030.28 321.906 1030.83 321.069C1031.99 319.264 1033.64 317.833 1035.59 316.949C1037.61 315.895 1039.71 315 1041.8 314.052L1057.2 306.963C1058.49 306.37 1057.36 304.465 1056.08 305.059L1040.68 312.147C1036.46 314.078 1031.02 315.824 1028.78 320.263C1028.28 321.156 1027.98 322.149 1027.91 323.17C1027.83 324.192 1027.98 325.217 1028.34 326.175C1028.71 327.132 1029.28 327.998 1030.01 328.711C1030.75 329.424 1031.63 329.967 1032.6 330.302C1037.32 332.162 1042.2 329.628 1046.48 327.732L1064.05 319.926C1065.36 319.341 1064.23 317.436 1062.94 318.012H1062.95Z" fill="black"/>
<path d="M1039.7 315.299C1041.59 319.009 1043.29 322.815 1044.79 326.702C1044.87 326.981 1045.06 327.217 1045.31 327.361C1045.57 327.504 1045.87 327.545 1046.15 327.473C1046.43 327.396 1046.67 327.211 1046.82 326.956C1046.96 326.702 1047 326.401 1046.93 326.118C1045.36 322.049 1043.59 318.066 1041.61 314.183C1040.96 312.907 1039.05 314.032 1039.71 315.299H1039.7Z" fill="black"/>
<path d="M965.324 287.558C980.253 249.557 991.107 224.446 991.107 202.73C991.107 181.013 952.423 162.681 960.566 146.396C968.708 130.111 1004.68 104.292 1011.47 122.012C1018.26 139.733 1026.4 197.325 1042.01 181.731C1057.62 166.137 1079.34 119.292 1095.62 135.586C1111.91 151.88 1135.56 175.626 1120 184.442C1104.44 193.258 1046.58 216.082 1042.26 230.463C1037.93 244.843 1042.01 341.287 1029.12 346.347C1016.23 351.406 968.717 336.467 968.717 326.287C968.717 316.106 965.324 287.558 965.324 287.558Z" fill="#4BD178" stroke="black" stroke-width="3" stroke-miterlimit="10"/>
<path d="M849.944 268.55C862.845 194.576 872.343 114.496 896.098 114.496C919.852 114.496 940.213 119.927 934.1 143.682C927.986 167.436 895.761 239.028 908.316 251.583C920.871 264.138 952.618 252.265 970.073 252.265C991.107 252.265 999.932 342.525 963.286 345.919C926.639 349.312 864.874 328.951 860.125 314.022C855.376 299.092 849.944 268.55 849.944 268.55Z" fill="#AE97FE" stroke="black" stroke-width="3" stroke-miterlimit="10"/>
<path d="M435.237 155.733C440.669 129.516 449.414 96.0236 468.534 87.9873C489.799 79.0295 545.229 81.5901 556.083 115.454C566.937 149.318 613.773 340.506 591.374 352.069C568.975 363.632 540.454 353.664 537.76 343.129C534.996 332.311 535.988 254.021 517.683 247.836C501.14 242.245 480.753 240.163 476.686 250.397C472.619 260.631 454.969 325.869 454.969 325.869L407.46 289.232L435.237 155.733Z" fill="#C8F0FF" stroke="black" stroke-width="3" stroke-miterlimit="10"/>
<path d="M712.858 191.815C708.871 167.006 700.639 132.628 718.962 126.594C737.286 120.56 765.453 114.19 769.865 133.842C774.277 153.494 784.795 218.999 789.544 205.708C794.293 192.418 800.407 113.773 820.768 113.773C841.129 113.773 871.661 119.347 859.452 142.897C847.242 166.448 815.07 223.11 825.517 232.387C835.963 241.663 894.06 269.671 883.88 292.052C874.833 311.934 854.455 336.637 837.053 319.235C817.994 300.177 786.833 232.865 786.833 251.011C786.833 269.157 808.549 336.167 783.439 343.415C758.329 350.663 742.682 344.018 737.968 326.51C733.254 309.002 712.858 191.815 712.858 191.815Z" fill="#AE97FE" stroke="black" stroke-width="3" stroke-miterlimit="10"/>
<path d="M322.525 123.473C346.811 111.751 376.484 98.6642 416.223 112.974C455.961 127.283 465.982 190.058 435.645 208.984C405.307 227.91 370.894 230.594 382.97 245.728C395.047 260.861 464.131 317.815 448.776 337.751C433.421 357.687 417.499 359.175 408.293 347.648C399.087 336.121 346.031 247.526 346.342 270.058C346.652 292.59 368.386 342.713 354.555 349.066C351.091 350.643 337.579 352.884 333.698 352.388C320.496 350.705 309.997 340.462 307.312 327.429L283.841 213.822C280.282 196.61 282.082 178.721 288.998 162.563C295.915 146.404 307.615 132.753 322.525 123.447V123.473Z" fill="#4BD178" stroke="black" stroke-width="3" stroke-miterlimit="10"/>
<path d="M204.55 105.655C229.262 98.5665 283.115 91.8504 294.438 112.282C302.536 126.902 316.678 156.07 290.947 164.558C265.217 173.046 243.013 169.493 244.803 180.507C246.592 191.52 250.695 212.129 259.67 206.556C268.646 200.983 279.836 198.343 286.482 207.132C293.127 215.921 298 233.846 287.873 240.119C277.745 246.392 254.354 250.237 257.606 265.956C260.858 281.674 296.441 343.04 280.829 352.725C265.217 362.409 240.851 365.661 231.875 352.441C225.948 343.723 171.085 174.349 168.241 156.194C165.396 138.039 165.91 116.695 204.55 105.655Z" fill="black" stroke="black" stroke-width="2.54" stroke-miterlimit="10"/>
<path d="M215.369 102.608C240.08 95.5202 293.933 88.8129 305.257 109.236C313.355 123.855 327.496 153.024 301.766 161.468C276.035 169.911 253.831 166.412 255.621 177.416C257.411 188.421 261.513 209.039 270.489 203.465C279.464 197.892 290.655 195.252 297.3 204.041C303.945 212.831 308.818 230.764 298.691 237.028C288.564 243.293 265.119 247.191 268.406 262.892C271.694 278.592 307.241 339.976 291.629 349.67C276.017 359.363 251.652 362.597 242.676 349.386C236.749 340.659 181.885 171.294 179.041 153.13C176.197 134.966 176.711 113.684 215.369 102.608Z" fill="#4BD178" stroke="black" stroke-width="2.96" stroke-miterlimit="10"/>
<path d="M1108.12 165.878C1109.03 166.705 1109.7 167.769 1110.05 168.953C1110.4 170.137 1110.41 171.394 1110.09 172.586C1109.47 175.456 1107.5 177.698 1105.22 179.443C1102.51 181.355 1099.67 183.084 1096.73 184.618L1086.88 190.235C1086.57 190.414 1086.35 190.706 1086.26 191.048C1086.18 191.389 1086.23 191.752 1086.4 192.056C1086.58 192.36 1086.87 192.581 1087.22 192.67C1087.56 192.759 1087.92 192.709 1088.23 192.53L1099.58 186.053C1102.67 184.281 1105.85 182.607 1108.44 180.179C1110.85 178.093 1112.43 175.208 1112.87 172.054C1113.1 170.581 1112.96 169.074 1112.46 167.67C1111.96 166.266 1111.12 165.008 1110.01 164.009C1108.7 162.928 1106.81 164.797 1108.13 165.887L1108.12 165.878Z" fill="black"/>
<path d="M1079.12 193.698L1075.71 196.436C1075.46 196.686 1075.32 197.023 1075.32 197.375C1075.32 197.726 1075.46 198.063 1075.71 198.314C1075.96 198.562 1076.29 198.702 1076.64 198.704H1077C1077.22 198.646 1077.43 198.526 1077.58 198.358L1081.02 195.549C1081.15 195.427 1081.25 195.281 1081.31 195.12C1081.38 194.958 1081.41 194.785 1081.41 194.61C1081.41 194.258 1081.27 193.92 1081.02 193.671C1080.77 193.421 1080.43 193.281 1080.08 193.281H1079.74C1079.51 193.341 1079.31 193.461 1079.14 193.627L1079.12 193.698Z" fill="black"/>
<path d="M954.877 267.992C957.322 266.431 960.233 265.769 963.112 266.12C965.992 266.47 968.659 267.812 970.657 269.915C972.67 272.173 973.885 275.031 974.113 278.048C974.512 281.593 974.653 285.137 974.777 288.681C974.919 292.816 974.94 296.95 974.839 301.085C974.795 302.795 977.453 302.795 977.498 301.085C977.586 297.018 977.577 292.943 977.435 288.885C977.379 284.865 977.11 280.852 976.629 276.861C975.743 270.393 971.091 264.714 964.455 263.571C960.681 262.893 956.79 263.645 953.539 265.679C952.095 266.566 953.424 268.887 954.877 267.974V267.992Z" fill="black"/>
<path d="M974.175 313.392V317.458C974.175 317.811 974.315 318.149 974.564 318.398C974.813 318.647 975.151 318.788 975.504 318.788C975.855 318.783 976.19 318.641 976.439 318.393C976.687 318.145 976.828 317.81 976.833 317.458V313.392C976.833 313.039 976.693 312.701 976.444 312.452C976.194 312.203 975.856 312.062 975.504 312.062C975.151 312.062 974.813 312.203 974.564 312.452C974.315 312.701 974.175 313.039 974.175 313.392Z" fill="black"/>
<path d="M844.921 127.042C846.149 127.303 847.28 127.899 848.19 128.764C849.1 129.629 849.754 130.728 850.077 131.941C850.964 135.051 849.759 138.365 848.571 141.236C845.754 148.04 842.75 154.783 839.844 161.552C839.215 163.023 841.368 164.299 842.006 162.819L847.074 151.035C848.651 147.367 850.405 143.734 851.743 139.978C852.868 136.814 853.427 133.315 852.08 130.134C851.527 128.756 850.647 127.534 849.515 126.574C848.383 125.614 847.034 124.944 845.585 124.623C844.008 124.304 843.335 126.723 844.921 127.042Z" fill="black"/>
<path d="M836.317 169.96L835.006 175.4C834.933 175.733 834.991 176.081 835.167 176.372C835.344 176.664 835.625 176.876 835.954 176.966C836.282 177.056 836.633 177.016 836.933 176.855C837.233 176.694 837.46 176.424 837.566 176.1L838.878 170.66C838.951 170.327 838.893 169.979 838.716 169.688C838.54 169.396 838.258 169.184 837.93 169.094C837.601 169.004 837.251 169.044 836.951 169.205C836.65 169.366 836.424 169.636 836.317 169.96Z" fill="black"/>
<path d="M693.879 265.62C690.485 276.392 686.459 286.954 681.82 297.251C679.522 302.337 677.083 307.358 674.501 312.314C672.49 316.359 670.118 320.214 667.413 323.832C664.276 327.855 660.325 331.346 655.576 333.215C654.043 333.818 654.69 336.317 656.267 335.714C665.242 332.214 670.948 324.249 675.405 316.08C680.863 305.975 685.675 295.534 689.812 284.82C692.175 278.742 694.348 272.587 696.333 266.356C696.829 264.77 694.34 264.087 693.843 265.664L693.879 265.62Z" fill="black"/>
<path d="M637.261 334.712C639.292 336.571 641.971 337.557 644.722 337.458C644.9 337.473 645.08 337.451 645.249 337.393C645.418 337.335 645.573 337.242 645.705 337.121C645.836 337 645.942 336.853 646.013 336.689C646.085 336.525 646.122 336.348 646.122 336.169C646.122 335.99 646.085 335.813 646.013 335.65C645.942 335.486 645.836 335.339 645.705 335.218C645.573 335.096 645.418 335.004 645.249 334.946C645.08 334.888 644.9 334.865 644.722 334.88C644.438 334.88 644.146 334.88 643.836 334.88H643.41H643.198C643.357 334.88 643.366 334.88 643.198 334.88C642.635 334.782 642.081 334.64 641.541 334.455L641.142 334.304C641.435 334.419 641.018 334.242 640.965 334.216C640.708 334.1 640.46 333.959 640.212 333.817C639.964 333.675 639.742 333.516 639.512 333.347C639.282 333.179 639.397 333.268 639.512 333.347L639.352 333.214C639.246 333.126 639.14 333.037 639.042 332.94C638.923 332.819 638.78 332.724 638.623 332.658C638.466 332.593 638.298 332.559 638.128 332.559C637.959 332.558 637.79 332.591 637.633 332.656C637.476 332.721 637.333 332.815 637.213 332.935C637.092 333.055 636.997 333.198 636.931 333.354C636.866 333.511 636.832 333.679 636.832 333.849C636.831 334.019 636.864 334.187 636.929 334.345C636.994 334.502 637.088 334.645 637.208 334.765L637.261 334.712Z" fill="black"/>
<path d="M649.471 111.377C655.897 118.171 659.999 126.831 661.184 136.107C661.388 137.737 663.966 137.755 663.771 136.107C662.545 126.169 658.174 116.883 651.296 109.605C650.153 108.392 648.328 110.226 649.471 111.431V111.377Z" fill="black"/>
<path d="M749.052 130.871C757.195 134.167 760.092 142.85 762.289 150.603C762.395 150.905 762.611 151.154 762.894 151.302C763.178 151.45 763.506 151.484 763.814 151.399C764.122 151.313 764.385 151.114 764.551 150.841C764.717 150.568 764.773 150.242 764.708 149.93C763.388 145.296 762.05 140.538 759.321 136.48C757.002 132.91 753.652 130.129 749.716 128.506C748.228 127.894 747.572 130.278 749.052 130.916V130.871Z" fill="black"/>
<path d="M915.6 127.564C917.975 129.783 919.83 132.501 921.031 135.522C922.232 138.543 922.749 141.792 922.546 145.037C922.44 146.738 925.098 146.738 925.204 145.037C925.409 141.443 924.824 137.847 923.489 134.504C922.154 131.16 920.102 128.15 917.478 125.686C916.229 124.516 914.341 126.395 915.6 127.564Z" fill="black"/>
<path d="M577.507 262.242C579.279 271.693 580.756 281.162 581.937 290.648C582.513 295.318 583.054 299.996 583.461 304.683C583.88 308.743 583.946 312.831 583.656 316.902C583.34 321.483 581.923 325.92 579.527 329.838C578.641 331.238 580.865 332.496 581.76 331.14C586.385 323.875 586.793 315.067 586.19 306.721C585.517 297.205 584.223 287.698 582.806 278.262C581.973 272.68 581.039 267.112 580.006 261.56C579.704 259.93 577.215 260.621 577.516 262.242H577.507Z" fill="black"/>
<path d="M362.795 124.199C370.49 122.397 378.356 121.429 386.257 121.311C393.771 121.205 401.533 121.577 408.258 125.28C411.77 127.343 415.091 129.715 418.181 132.369C419.493 133.432 421.389 131.562 420.06 130.49C417.177 128.053 414.134 125.812 410.951 123.783C407.678 121.785 404.079 120.378 400.319 119.627C392.415 118.095 383.98 118.44 376.015 119.3C371.343 119.797 366.706 120.584 362.131 121.656C360.465 122.046 361.165 124.607 362.84 124.217L362.795 124.199Z" fill="black"/>
<path d="M425.553 143.116L425.765 143.276L425.491 143.072C426.341 143.727 427.103 144.49 427.759 145.34L427.555 145.065C427.934 145.563 428.278 146.087 428.583 146.634C428.764 146.934 429.055 147.153 429.394 147.242C429.733 147.331 430.094 147.285 430.399 147.112C430.699 146.928 430.916 146.636 431.005 146.296C431.094 145.956 431.048 145.594 430.878 145.287C429.873 143.548 428.515 142.039 426.891 140.857C426.737 140.767 426.567 140.71 426.39 140.687C426.214 140.664 426.034 140.677 425.863 140.724C425.533 140.823 425.252 141.041 425.074 141.335C424.983 141.488 424.924 141.659 424.901 141.835C424.878 142.012 424.892 142.192 424.941 142.363C425.046 142.69 425.262 142.969 425.553 143.152V143.116Z" fill="black"/>
<path d="M240.682 106.105C248.728 103.624 257.517 103.225 265.899 103.349C274.077 103.464 283.212 103.845 289.955 109.046C293.236 111.726 295.886 115.096 297.716 118.917C298.505 120.432 300.8 119.094 300.011 117.57C298.256 114.001 295.852 110.789 292.923 108.098C289.526 105.126 285.427 103.068 281.015 102.117C276.794 101.276 272.506 100.817 268.203 100.744C263.51 100.58 258.811 100.696 254.132 101.09C249.332 101.395 244.579 102.217 239.956 103.544C238.326 104.04 239.07 106.61 240.665 106.105H240.682Z" fill="black"/>
<path d="M300.587 125.014L301.269 126.37C301.35 126.521 301.469 126.65 301.615 126.742C301.742 126.859 301.898 126.941 302.067 126.981C302.238 127.025 302.418 127.025 302.589 126.981C302.766 126.973 302.937 126.918 303.086 126.821C303.383 126.642 303.601 126.357 303.697 126.024L303.75 125.67C303.747 125.436 303.683 125.206 303.564 125.005L302.882 123.641C302.801 123.491 302.686 123.363 302.545 123.268C302.415 123.155 302.26 123.073 302.093 123.029C301.745 122.956 301.381 123.006 301.065 123.171C300.767 123.344 300.548 123.627 300.454 123.96V124.314C300.455 124.55 300.516 124.782 300.631 124.987L300.587 125.014Z" fill="black"/>
<path d="M514.342 101.629C520.81 101.097 527.013 103.764 531.788 108.035C536.963 112.66 540.108 118.951 542.243 125.463C543.519 129.335 544.476 133.295 545.424 137.265C545.805 138.877 548.295 138.195 547.905 136.574C546.133 129.193 544.308 121.697 540.56 115.025C537.242 108.853 531.996 103.936 525.621 101.026C522.082 99.4478 518.207 98.769 514.342 99.0503C512.694 99.1832 512.677 101.77 514.342 101.629Z" fill="black"/>
<path d="M549.075 147.088L551.618 156.081C551.725 156.391 551.946 156.649 552.237 156.802C552.527 156.955 552.865 156.992 553.182 156.905C553.498 156.818 553.77 156.614 553.942 156.335C554.114 156.055 554.173 155.72 554.107 155.399L551.564 146.397C551.46 146.082 551.238 145.819 550.945 145.663C550.652 145.508 550.311 145.47 549.991 145.559C549.671 145.648 549.398 145.856 549.228 146.14C549.057 146.425 549.002 146.764 549.075 147.088Z" fill="black"/>
<path d="M923.839 89.1722C913.818 89.1722 901.272 89.0393 895.584 79.2132C893.369 75.3767 892.793 70.6542 895.354 66.8088C898.171 62.6001 903.576 59.9775 908.29 58.551C918.036 55.5916 928.952 57.0359 937.945 61.661C940.311 62.8748 942.703 64.319 944.289 66.4898C945.61 68.3539 946.442 70.5201 946.708 72.7895C947.337 77.7513 945.76 82.5358 943.111 86.7268C941.44 89.2791 939.513 91.6541 937.36 93.815C936.279 94.9314 935.163 96.0213 934.047 97.1022C933.068 98.2359 931.906 99.1973 930.609 99.9464C927.641 101.267 928.057 96.7301 927.951 95.0998C927.773 92.8758 926.861 90.1734 924.345 89.7836C922.67 89.5089 921.943 92.0695 923.636 92.3531C925.833 92.7164 925.248 96.42 925.408 97.9883C925.674 100.372 926.932 102.87 929.661 102.888C932.673 102.888 935.065 99.8932 937.024 97.9794C939.185 95.9189 941.209 93.7199 943.084 91.3962C946.628 86.966 949.207 81.8093 949.499 76.0501C949.765 70.663 947.842 65.3646 943.501 62.0154C938.982 58.5155 933.054 56.3979 927.49 55.2992C921.915 54.1607 916.168 54.1607 910.593 55.2992C905.001 56.3793 899.8 58.9369 895.531 62.7065C893.597 64.4381 892.205 66.6913 891.521 69.1951C890.838 71.699 890.892 74.347 891.677 76.8209C892.59 79.6102 894.108 82.1634 896.122 84.2984C898.136 86.4334 900.597 88.0976 903.328 89.1722C909.805 91.8746 916.982 91.9012 923.884 91.8835C924.236 91.8835 924.574 91.7435 924.824 91.4942C925.073 91.245 925.213 90.9069 925.213 90.5544C925.213 90.202 925.073 89.8639 924.824 89.6147C924.574 89.3654 924.236 89.2254 923.884 89.2254L923.839 89.1722Z" fill="black"/>
<path d="M919.763 72.8085C920.481 69.61 923.361 66.4468 926.931 67.7316C930.635 69.0606 929.749 73.7566 927.942 76.2375C926.785 77.8251 925.321 79.1631 923.635 80.1715C922.822 80.6331 921.911 80.8969 920.977 80.9415C920.043 80.9862 919.111 80.8104 918.257 80.4284C916.466 79.6456 914.837 78.5336 913.455 77.1501C912.223 75.9805 910.939 74.492 910.708 72.7643C910.522 71.258 911.249 69.3176 912.959 69.1669C915.209 68.972 916.751 71.32 917.796 72.9414C918.683 74.3768 921.022 73.0478 920.091 71.6035C918.691 69.4327 916.999 67.1734 914.314 66.6329C913.173 66.3778 911.978 66.5307 910.937 67.0648C909.896 67.5989 909.076 68.4806 908.617 69.5568C906.367 74.5363 911.01 79.1614 914.819 81.6334C917.018 83.2107 919.746 83.8657 922.422 83.4586C924.964 82.9447 927.171 81.0486 928.881 79.1968C930.72 77.3694 931.88 74.9686 932.168 72.3921C932.269 71.2195 932.079 70.04 931.615 68.9582C931.152 67.8764 930.429 66.9255 929.51 66.1899C928.407 65.4184 927.114 64.9628 925.771 64.8722C924.429 64.7817 923.086 65.0596 921.89 65.676C920.68 66.3476 919.632 67.2751 918.818 68.3937C918.003 69.5124 917.443 70.7953 917.176 72.1529C916.804 73.8186 919.365 74.5274 919.746 72.8528L919.763 72.8085Z" fill="black"/>
<path d="M473.912 199.45C471.089 191.976 468.933 184.267 467.471 176.413C466.301 169.963 465.841 162.325 470.537 157.098C474.967 152.162 481.984 150.373 488.142 148.636C492.105 147.519 496.099 146.527 500.121 145.659C503.506 144.865 506.935 144.274 510.39 143.887C516.442 143.329 523.3 143.78 527.819 148.317C530.229 150.745 531.637 153.961 532.736 157.177C534.03 160.916 535.102 164.735 536.014 168.58C536.985 172.344 537.684 176.173 538.105 180.037C538.407 183.395 538.336 186.983 536.9 190.102C534.065 196.304 526.906 198.378 520.899 200.141C513.062 202.448 505.11 204.338 497.073 205.803C490.074 207.079 482.011 207.92 476.402 202.693C475.277 201.711 474.371 200.503 473.744 199.149C473.062 197.589 470.776 198.936 471.449 200.495C472.778 203.543 475.614 205.944 478.537 207.442C482.088 209.086 486.008 209.771 489.905 209.427C494.165 209.085 498.394 208.43 502.558 207.468C506.87 206.582 511.158 205.578 515.423 204.456C519.321 203.419 523.247 202.383 527.039 200.992C530.253 199.933 533.227 198.253 535.793 196.047C541.552 190.731 541.348 182.66 540.125 175.536C539.377 171.22 538.404 166.947 537.21 162.733C536.245 158.88 534.91 155.129 533.223 151.533C531.686 148.337 529.251 145.658 526.215 143.825C523.339 142.253 520.148 141.345 516.876 141.167C509.354 140.555 501.654 142.478 494.406 144.241C490.286 145.242 486.175 146.341 482.126 147.644C478.789 148.621 475.598 150.039 472.636 151.861C469.69 153.694 467.329 156.332 465.832 159.463C464.423 162.822 463.817 166.462 464.06 170.096C464.309 173.98 464.902 177.834 465.832 181.614C466.771 185.787 467.896 189.925 469.207 194.018C469.875 196.086 470.59 198.153 471.352 200.221C471.945 201.807 474.515 201.107 473.912 199.512V199.45Z" fill="black"/>
<path d="M499.147 192.687C495.577 192.273 492.21 190.808 489.474 188.478C486.737 186.148 484.754 183.059 483.774 179.601C481.692 171.627 485.688 162.988 492.573 158.646C495.804 156.687 499.528 155.693 503.305 155.783C507.083 155.872 510.756 157.041 513.891 159.151C520.456 163.51 523.203 171.875 521.191 179.397C520.03 183.72 517.26 187.435 513.447 189.781C509.15 192.35 504.107 193.378 499.147 192.696C497.455 192.51 497.464 195.168 499.147 195.354C508.743 196.409 518.888 192.094 522.804 182.844C526.206 174.799 524.39 164.804 517.842 158.921C514.6 156.028 510.594 154.129 506.302 153.45C502.009 152.771 497.613 153.342 493.636 155.093C485.316 158.894 479.716 168.1 480.673 177.244C481.683 186.99 489.604 194.194 499.147 195.381C500.848 195.549 500.83 192.891 499.147 192.687Z" fill="black"/>
<path d="M504.215 183.786C502.359 184.063 500.464 183.846 498.719 183.159C496.974 182.471 495.441 181.336 494.274 179.868C493.106 178.4 492.346 176.65 492.069 174.795C491.792 172.94 492.008 171.044 492.696 169.299C493.506 167.177 494.999 165.385 496.94 164.205C502.256 161.077 510.045 163.726 512.313 169.441C514.581 175.156 510.674 182.466 504.649 183.715L504.215 183.786Z" fill="white"/>
<path d="M503.843 182.5C501.905 182.768 499.932 182.423 498.2 181.513C496.468 180.603 495.065 179.174 494.186 177.427C493.306 175.679 492.996 173.701 493.298 171.768C493.6 169.835 494.498 168.045 495.868 166.649C498.606 163.876 502.957 163.557 506.386 165.222C508.033 165.944 509.414 167.164 510.334 168.71C511.254 170.256 511.667 172.051 511.516 173.843C511.327 175.92 510.478 177.882 509.092 179.44C507.706 180.998 505.857 182.071 503.816 182.5C502.133 182.784 502.841 185.353 504.516 185.07C509.194 184.281 512.862 180.196 513.89 175.678C514.443 173.354 514.238 170.915 513.305 168.717C512.373 166.519 510.762 164.676 508.707 163.459C504.684 161.005 499.164 160.801 495.292 163.654C493.151 165.275 491.614 167.566 490.929 170.163C490.243 172.759 490.448 175.511 491.51 177.977C492.572 180.444 494.431 182.483 496.789 183.769C499.146 185.054 501.867 185.512 504.516 185.07C504.847 184.963 505.123 184.733 505.288 184.428C505.453 184.122 505.494 183.765 505.402 183.43C505.3 183.112 505.085 182.842 504.798 182.671C504.511 182.499 504.171 182.439 503.843 182.5Z" fill="black"/>
<path d="M480.469 150.559L483.562 164.735C483.925 166.41 486.485 165.701 486.122 164.035L483.03 149.859C482.667 148.193 480.106 148.893 480.469 150.567V150.559Z" fill="black"/>
<path d="M488.612 191.468L492.856 207.071C492.973 207.384 493.203 207.642 493.501 207.795C493.799 207.947 494.143 207.982 494.465 207.893C494.788 207.804 495.065 207.597 495.243 207.314C495.421 207.031 495.486 206.691 495.426 206.362L491.181 190.741C491.065 190.428 490.834 190.17 490.537 190.018C490.239 189.865 489.895 189.83 489.572 189.919C489.25 190.008 488.972 190.215 488.795 190.498C488.617 190.781 488.552 191.121 488.612 191.45V191.468Z" fill="black"/>
<path d="M505.101 144.215L507.706 155.211C508.096 156.877 510.656 156.168 510.267 154.502L507.662 143.515C507.272 141.85 504.702 142.55 505.101 144.215Z" fill="black"/>
<path d="M516.353 189.747C516.935 193.559 517.712 197.338 518.684 201.07C518.786 201.4 519.012 201.678 519.316 201.844C519.619 202.01 519.975 202.051 520.308 201.959C520.641 201.866 520.925 201.648 521.1 201.35C521.275 201.052 521.326 200.697 521.244 200.361C520.276 196.629 519.499 192.849 518.914 189.038C518.811 188.707 518.584 188.429 518.279 188.263C517.974 188.098 517.617 188.058 517.284 188.152C516.956 188.26 516.683 188.489 516.518 188.792C516.353 189.094 516.31 189.449 516.398 189.782L516.353 189.747Z" fill="black"/>
<path d="M479.265 149.901L479.087 147.119C479.087 146.392 478.759 145.258 479.087 144.585C479.415 143.911 480.337 143.575 480.93 143.256C481.73 142.831 482.555 142.458 483.402 142.139C487.097 140.769 490.858 139.586 494.673 138.595C496.569 138.081 498.483 137.612 500.396 137.177C502.1 136.681 503.859 136.401 505.633 136.345C509.115 136.46 509.478 140.385 510.63 142.91C511.33 144.461 513.625 143.114 512.925 141.572C511.817 139.136 511.445 136.256 509.044 134.67C506.386 132.898 502.789 133.917 499.891 134.564C496.4 135.349 492.939 136.262 489.507 137.301C486.155 138.178 482.893 139.365 479.761 140.846C478.378 141.572 476.828 142.511 476.429 144.142C476.301 144.987 476.301 145.848 476.429 146.693L476.633 149.874C476.739 151.575 479.406 151.584 479.291 149.874L479.265 149.901Z" fill="black"/>
<path d="M469.81 155.37C469.409 154.354 469.112 153.3 468.924 152.225C468.92 152.142 468.92 152.059 468.924 151.976C468.924 151.835 468.924 151.817 468.924 151.914C468.924 152.012 468.924 151.711 468.924 151.666C468.915 151.525 468.915 151.383 468.924 151.241C468.924 151.17 468.924 150.825 468.924 151.117C468.924 150.993 468.977 150.878 469.004 150.763C469.075 150.453 468.898 150.896 469.004 150.656C469.049 150.568 469.099 150.482 469.155 150.399C468.986 150.665 469.155 150.399 469.243 150.328L469.358 150.222C469.234 150.32 469.217 150.337 469.296 150.284C469.376 150.231 469.5 150.116 469.598 150.107L469.465 150.16L469.66 150.098H469.757C469.908 150.098 469.89 150.098 469.695 150.098C469.801 150.085 469.908 150.085 470.014 150.098C470.298 150.098 469.828 150.018 470.076 150.098C470.324 150.178 470.36 150.196 470.156 150.098L470.475 150.275C470.552 150.328 470.534 150.311 470.422 150.222L470.537 150.328C470.599 150.39 470.794 150.674 470.634 150.417C470.696 150.514 470.752 150.615 470.803 150.718C470.971 151.02 470.741 150.488 470.847 150.825C470.998 151.303 471.104 151.799 471.263 152.278L471.609 150.984C471.565 150.984 471.193 151.312 471.423 151.144C471.332 151.214 471.237 151.279 471.139 151.339C471.074 151.379 471.006 151.415 470.936 151.445C471.086 151.392 471.086 151.383 470.936 151.445C470.785 151.507 470.794 151.445 470.936 151.445C470.794 151.445 470.785 151.445 470.936 151.445C471.032 151.443 471.126 151.474 471.201 151.533L471.06 151.445C471.219 151.578 471.246 151.595 471.148 151.498C471.255 151.649 471.29 151.684 471.237 151.604C471.213 151.571 471.192 151.535 471.175 151.498C471.251 151.61 471.285 151.745 471.272 151.879C471.272 151.737 471.272 151.782 471.272 152.021C471.236 152.145 471.172 152.26 471.086 152.357C471.217 152.236 471.322 152.089 471.394 151.926C471.467 151.763 471.506 151.587 471.509 151.409C471.512 151.23 471.479 151.053 471.412 150.887C471.346 150.722 471.246 150.572 471.12 150.445C470.994 150.319 470.843 150.22 470.678 150.153C470.512 150.086 470.335 150.053 470.157 150.056C469.978 150.059 469.802 150.098 469.639 150.171C469.476 150.244 469.329 150.349 469.208 150.479C468.993 150.725 468.837 151.017 468.753 151.332C468.668 151.648 468.656 151.978 468.719 152.299C468.781 152.619 468.916 152.921 469.113 153.182C469.31 153.442 469.563 153.654 469.855 153.802C471.148 154.555 472.513 153.713 473.496 152.871C473.665 152.707 473.785 152.499 473.845 152.271C473.904 152.043 473.9 151.804 473.833 151.578C473.659 150.902 473.449 150.237 473.204 149.584C472.918 148.941 472.454 148.394 471.866 148.007C471.276 147.613 470.582 147.402 469.872 147.402C469.163 147.402 468.469 147.613 467.879 148.007C467.285 148.443 466.821 149.034 466.54 149.715C466.259 150.396 466.17 151.142 466.284 151.87C466.456 153.303 466.82 154.707 467.365 156.043C467.407 156.216 467.484 156.379 467.59 156.521C467.696 156.664 467.83 156.784 467.984 156.874C468.137 156.963 468.307 157.022 468.483 157.045C468.66 157.068 468.839 157.055 469.01 157.008C469.182 156.96 469.342 156.879 469.481 156.769C469.621 156.658 469.736 156.521 469.822 156.365C469.907 156.209 469.96 156.037 469.978 155.86C469.996 155.683 469.978 155.504 469.925 155.335L469.81 155.37Z" fill="black"/>
<path d="M518.701 139.864C518.64 139.765 518.586 139.662 518.542 139.554L518.675 139.873C518.606 139.708 518.558 139.536 518.533 139.359L518.586 139.713C518.56 139.516 518.56 139.317 518.586 139.12L518.533 139.474C518.567 139.299 518.614 139.128 518.675 138.96L518.542 139.279C518.596 139.156 518.664 139.04 518.746 138.934L518.533 139.2C518.604 139.111 518.684 139.031 518.772 138.96L518.507 139.164C518.578 139.109 518.655 139.061 518.737 139.022L518.418 139.155C518.484 139.129 518.552 139.112 518.622 139.102H518.276H518.391L518.046 139.049C518.113 139.057 518.179 139.075 518.241 139.102L517.922 138.969C517.981 138.996 518.037 139.029 518.09 139.067L517.824 138.863C517.885 138.914 517.941 138.971 517.993 139.031L517.789 138.765C517.868 138.878 517.933 139 517.984 139.129L517.851 138.81C518.028 139.291 518.179 139.782 518.303 140.28L518.79 141.937C518.832 142.11 518.909 142.273 519.015 142.415C519.122 142.558 519.255 142.678 519.409 142.767C519.562 142.857 519.732 142.916 519.909 142.939C520.085 142.962 520.264 142.949 520.435 142.902C520.607 142.854 520.767 142.773 520.906 142.662C521.046 142.552 521.162 142.415 521.247 142.259C521.332 142.103 521.385 141.931 521.403 141.754C521.421 141.577 521.403 141.398 521.351 141.229L520.784 139.288C520.65 138.65 520.423 138.035 520.11 137.463C519.831 137.028 519.412 136.7 518.923 136.533C518.403 136.377 517.844 136.431 517.364 136.683C517.01 136.873 516.703 137.138 516.462 137.46C516.222 137.781 516.055 138.151 515.972 138.544C515.751 139.448 515.894 140.403 516.371 141.202C516.46 141.353 516.577 141.484 516.716 141.59C516.856 141.695 517.014 141.772 517.183 141.816C517.352 141.86 517.529 141.87 517.702 141.846C517.875 141.822 518.041 141.764 518.192 141.676C518.343 141.588 518.474 141.47 518.58 141.331C518.685 141.192 518.762 141.033 518.806 140.864C518.85 140.695 518.86 140.519 518.836 140.346C518.812 140.172 518.754 140.006 518.666 139.855L518.701 139.864Z" fill="black"/>
<path d="M518.861 150.701L518.746 150.585L518.959 150.86C518.902 150.786 518.854 150.706 518.817 150.621L518.95 150.931C518.913 150.837 518.886 150.739 518.87 150.638L518.923 150.993C518.905 150.878 518.905 150.762 518.923 150.647L518.879 151.002C518.896 150.862 518.932 150.725 518.985 150.594L518.852 150.913C518.904 150.782 518.975 150.659 519.065 150.55L518.861 150.816C518.941 150.711 519.033 150.615 519.136 150.532L518.87 150.745C518.955 150.679 519.047 150.622 519.145 150.576L518.826 150.709C518.959 150.656 519.099 150.621 519.242 150.603L518.888 150.647C519.035 150.63 519.184 150.63 519.331 150.647L518.976 150.603C519.132 150.624 519.284 150.665 519.428 150.727L519.109 150.594C519.244 150.649 519.372 150.721 519.49 150.807L519.215 150.603C519.321 150.683 519.416 150.775 519.499 150.878L519.286 150.603C519.357 150.701 519.419 150.805 519.472 150.913L519.34 150.594C519.377 150.704 519.407 150.817 519.428 150.931L519.375 150.576C519.388 150.715 519.388 150.854 519.375 150.993V150.638C519.358 150.776 519.323 150.91 519.269 151.037L519.402 150.727C519.346 150.852 519.277 150.971 519.198 151.082L519.402 150.816C519.331 150.904 519.251 150.984 519.162 151.055L519.428 150.842C519.346 150.906 519.257 150.959 519.162 151.002L519.481 150.869C519.385 150.909 519.284 150.936 519.18 150.949L519.534 150.904C519.423 150.918 519.31 150.918 519.198 150.904L519.552 150.949C519.425 150.93 519.3 150.897 519.18 150.851L519.499 150.984C519.383 150.931 519.273 150.866 519.171 150.789L519.437 151.002C519.349 150.931 519.268 150.851 519.198 150.763L519.402 151.028C519.343 150.948 519.292 150.862 519.251 150.771L519.384 151.082C519.339 150.99 519.312 150.891 519.304 150.789V151.144C519.307 150.966 519.267 150.789 519.189 150.63C519.132 150.468 519.038 150.323 518.914 150.204C518.664 149.957 518.327 149.817 517.975 149.814C517.623 149.819 517.287 149.958 517.036 150.204C516.908 150.324 516.807 150.47 516.74 150.632C516.673 150.794 516.641 150.968 516.646 151.144C516.667 151.532 516.776 151.911 516.965 152.251C517.061 152.411 517.171 152.562 517.293 152.703C517.353 152.772 517.418 152.837 517.488 152.898C517.779 153.139 518.109 153.33 518.462 153.465C518.733 153.56 519.018 153.608 519.304 153.607C519.966 153.601 520.601 153.341 521.076 152.88C521.478 152.482 521.752 151.973 521.865 151.418C521.936 151.035 521.936 150.641 521.865 150.258C521.813 149.98 521.714 149.713 521.572 149.469C521.337 149.081 521.016 148.751 520.634 148.505C520.252 148.26 519.819 148.105 519.367 148.052C518.916 147.999 518.459 148.049 518.03 148.2C517.602 148.35 517.213 148.596 516.894 148.92C516.639 149.22 516.439 149.561 516.3 149.93C516.196 150.214 516.139 150.513 516.132 150.816C516.115 151.157 516.171 151.498 516.296 151.816C516.422 152.133 516.613 152.421 516.859 152.659C517.045 152.845 517.283 152.971 517.541 153.022C517.8 153.073 518.067 153.046 518.31 152.945C518.553 152.843 518.761 152.671 518.906 152.452C519.052 152.232 519.128 151.974 519.127 151.711C519.121 151.359 518.982 151.024 518.737 150.771L518.861 150.701Z" fill="black"/>
<path d="M510.213 389.591C513.78 385.808 517.706 382.381 521.935 379.357C523.823 377.853 525.962 376.695 528.253 375.937C529.438 375.646 530.671 375.607 531.872 375.822C533.073 376.037 534.216 376.502 535.226 377.186C537.187 378.482 538.974 380.024 540.542 381.776C542.314 383.613 544.004 385.509 545.61 387.464C549.026 391.456 552.072 395.75 554.71 400.294C556.107 402.529 556.938 405.072 557.129 407.701C557.106 410.178 556.194 412.565 554.559 414.426C552.993 416.26 551.283 417.966 549.447 419.53C547.468 421.302 545.436 423.015 543.351 424.669C539.665 427.575 534.65 431.571 529.839 428.753C527.739 427.53 526.064 425.572 524.416 423.818C522.591 421.869 520.819 419.863 519.1 417.802C515.275 413.374 511.724 408.717 508.468 403.856C507.059 401.658 505.562 398.858 506.022 396.156C506.483 393.454 508.459 391.416 510.24 389.591C511.232 388.563 509.664 386.994 508.672 388.022C506.771 389.786 505.262 391.929 504.241 394.313C503.479 396.759 503.685 399.404 504.817 401.703C505.947 404.102 507.357 406.359 509.017 408.428C510.789 410.79 512.594 413.153 514.431 415.516C517.954 420.211 521.854 424.611 526.091 428.673C527.846 430.458 530.148 431.603 532.63 431.925C535.368 432.156 538.052 430.986 540.329 429.568C542.707 428.008 544.977 426.292 547.125 424.429C549.358 422.577 551.556 420.655 553.62 418.643C555.585 416.899 557.197 414.793 558.369 412.441C559.423 409.945 559.601 407.166 558.874 404.556C558.102 401.91 556.921 399.402 555.374 397.122C553.797 394.641 552.105 392.231 550.324 389.892C547.047 385.351 543.312 381.158 539.178 377.381C537.007 375.503 534.499 373.89 531.593 373.536C528.687 373.181 525.861 374.28 523.389 375.777C517.963 379.19 513.006 383.298 508.645 387.996C507.661 389.023 509.221 390.592 510.213 389.591Z" fill="black"/>
<path d="M530.335 393.819L524.133 399.268C523.612 399.723 523.219 400.306 522.992 400.96C522.765 401.613 522.712 402.315 522.838 402.995C522.964 403.675 523.265 404.311 523.711 404.839C524.157 405.368 524.733 405.772 525.382 406.01L533.428 408.979C534.102 409.234 534.833 409.303 535.543 409.176C536.253 409.05 536.916 408.734 537.461 408.262C538.006 407.789 538.413 407.178 538.639 406.493C538.865 405.808 538.901 405.075 538.744 404.371L536.892 395.963C536.744 395.281 536.421 394.65 535.953 394.132C535.486 393.614 534.891 393.227 534.228 393.01C533.565 392.794 532.857 392.754 532.174 392.896C531.491 393.038 530.857 393.356 530.335 393.819V393.819Z" stroke="black" stroke-width="2.5" stroke-miterlimit="10"/>
<path d="M377.849 172.461L379.143 183.094L383.776 182.163C384.99 181.916 386.252 182.162 387.285 182.846C388.318 183.53 389.036 184.596 389.283 185.809C389.53 187.023 389.284 188.285 388.601 189.318C387.917 190.35 386.851 191.069 385.637 191.316L380.321 192.388L381.207 199.99C381.349 201.153 381.049 202.327 380.366 203.279C379.684 204.231 378.668 204.891 377.521 205.129L377.131 205.191C375.902 205.339 374.665 204.992 373.691 204.228C372.718 203.464 372.088 202.344 371.939 201.115L371.106 194.231L368.918 194.674L356.903 197.084L357.789 204.819C357.931 205.981 357.631 207.153 356.948 208.104C356.265 209.054 355.25 209.713 354.103 209.949L353.713 210.011C352.484 210.159 351.247 209.812 350.274 209.048C349.3 208.284 348.67 207.164 348.521 205.935L347.635 198.927L344.977 199.45L343.329 199.786C342.728 199.909 342.109 199.911 341.507 199.794C340.905 199.677 340.332 199.442 339.821 199.104C338.788 198.42 338.069 197.354 337.822 196.14C337.576 194.927 337.821 193.665 338.505 192.632C339.189 191.599 340.255 190.88 341.468 190.634L346.439 189.632L345.154 179L340.981 179.833C339.852 179.897 338.737 179.55 337.844 178.854C336.952 178.159 336.343 177.163 336.129 176.052C335.916 174.94 336.113 173.79 336.685 172.813C337.256 171.837 338.162 171.101 339.236 170.742L344.127 169.759L343.347 163.282C343.236 162.072 343.602 160.866 344.366 159.922C345.13 158.977 346.232 158.367 347.438 158.221C348.645 158.076 349.86 158.407 350.827 159.143C351.793 159.88 352.435 160.964 352.615 162.165L353.315 167.916L367.491 165.063L366.694 158.462C366.577 157.249 366.938 156.038 367.702 155.088C368.465 154.139 369.569 153.525 370.779 153.378C371.988 153.231 373.207 153.563 374.176 154.302C375.144 155.042 375.785 156.131 375.962 157.337L376.679 163.22L381.393 162.272C381.994 162.149 382.613 162.146 383.215 162.262C383.818 162.379 384.391 162.613 384.903 162.951C385.414 163.289 385.855 163.725 386.198 164.233C386.541 164.741 386.781 165.312 386.904 165.913C387.027 166.514 387.03 167.134 386.914 167.736C386.797 168.338 386.563 168.911 386.225 169.423C385.887 169.935 385.451 170.375 384.943 170.718C384.434 171.062 383.863 171.302 383.263 171.424L377.849 172.461Z" fill="white" stroke="black" stroke-width="3" stroke-miterlimit="10"/>
<path d="M1142.43 230.413C1149.46 237.326 1155.13 245.498 1159.13 254.504L1160.29 252.502L1129.2 249.773L1129.87 252.254L1137.71 248.453L1141.64 246.548C1142.74 246.007 1144.18 245.556 1144.98 244.572C1145.79 243.589 1145.63 242.552 1145.48 241.453C1145.29 240.027 1145.09 238.6 1144.9 237.174L1143.73 228.393C1143.63 228.054 1143.4 227.767 1143.1 227.593C1142.79 227.42 1142.43 227.373 1142.09 227.463C1141.75 227.566 1141.47 227.793 1141.3 228.098C1141.12 228.402 1141.07 228.762 1141.16 229.102L1142.17 236.598L1142.69 240.452C1142.77 241.072 1142.89 241.701 1142.94 242.33C1142.98 242.959 1142.94 242.959 1142.39 243.216C1137.83 245.573 1133.14 247.7 1128.52 249.941C1127.23 250.562 1128.01 252.307 1129.2 252.413L1160.29 255.142C1161.39 255.24 1161.8 253.964 1161.43 253.14C1157.31 243.938 1151.51 235.587 1144.32 228.517C1143.1 227.321 1141.21 229.199 1142.43 230.396V230.413Z" fill="black"/>
<path d="M1143.93 245.168C1148.66 248.122 1153.3 251.167 1157.85 254.303C1159.27 255.278 1160.6 252.974 1159.2 252.008C1154.61 248.872 1149.97 245.827 1145.28 242.873C1143.82 241.987 1142.49 244.256 1143.93 245.168Z" fill="black"/>
<path d="M1137.94 238.684C1135.21 235.857 1132.3 233.217 1129.22 230.781C1126.24 228.433 1123.12 226.182 1119.48 225.004C1116.15 223.855 1112.51 224.007 1109.29 225.429C1107.83 226.143 1106.55 227.192 1105.56 228.491C1104.58 229.79 1103.91 231.303 1103.62 232.907C1103.34 234.496 1103.47 236.127 1103.98 237.655C1104.5 239.182 1105.38 240.559 1106.56 241.661C1108.93 243.832 1112.58 244.886 1115.15 242.441C1117.72 239.995 1117.36 235.849 1116.28 232.694C1115.23 229.64 1113.48 226.877 1111.16 224.632C1108.27 221.917 1104.65 220.111 1100.75 219.44C1096.85 218.769 1092.83 219.262 1089.21 220.857C1087.64 221.53 1089 223.825 1090.56 223.152C1094.44 221.467 1098.81 221.276 1102.83 222.615C1106.85 223.954 1110.23 226.729 1112.33 230.409C1113.65 232.659 1114.86 235.663 1114.42 238.312C1114.35 238.885 1114.14 239.434 1113.82 239.912C1113.5 240.39 1113.06 240.783 1112.56 241.059C1111.25 241.643 1109.68 240.828 1108.67 240.004C1107.73 239.22 1107.01 238.204 1106.57 237.057C1106.14 235.909 1106.01 234.669 1106.2 233.457C1106.45 232.127 1107.03 230.883 1107.89 229.843C1108.76 228.803 1109.88 228.004 1111.14 227.52C1113.81 226.631 1116.71 226.718 1119.32 227.768C1122.53 228.92 1125.35 231.055 1127.98 233.173C1130.83 235.471 1133.53 237.945 1136.07 240.58C1137.27 241.812 1139.15 239.925 1137.95 238.693L1137.94 238.684Z" fill="black"/>
<path d="M258.979 50.9783C257.834 51.6182 256.502 51.8425 255.211 51.6132C253.919 51.3839 252.746 50.7152 251.891 49.7202C251.149 48.7711 250.699 47.6263 250.597 46.4257C250.494 45.2251 250.744 44.0207 251.315 42.9597C251.871 41.8937 252.722 41.0106 253.767 40.4166C254.812 39.8225 256.007 39.5426 257.207 39.6105C259.635 39.6991 262.266 41.1434 263.126 43.5179C264.286 46.7342 261.549 49.5873 258.944 50.9783C257.437 51.7935 258.784 54.0883 260.29 53.2732C263.693 51.4479 266.564 47.957 265.952 43.9166C265.412 40.3725 262.063 37.7144 258.625 37.1031C256.923 36.7816 255.164 36.9536 253.556 37.5989C251.949 38.2441 250.559 39.3356 249.552 40.7447C248.541 42.1806 247.975 43.8828 247.926 45.6384C247.877 47.394 248.347 49.1251 249.277 50.6151C251.705 54.3718 256.419 55.2313 260.29 53.2732C261.85 52.5112 260.556 50.2429 258.979 50.9783Z" fill="black"/>
<path d="M262.904 68.6739C260.858 66.3985 259.559 63.5503 259.183 60.5136C258.983 59.0158 259.145 57.4919 259.657 56.0702C260.169 54.6484 261.015 53.3706 262.124 52.3444C263.256 51.2569 264.61 50.4285 266.093 49.9167C267.577 49.4049 269.153 49.2219 270.715 49.3804C272.276 49.5388 273.784 50.035 275.134 50.8344C276.484 51.6339 277.644 52.7175 278.534 54.0101C279.482 55.4189 281.786 54.0898 280.829 52.6722C277.373 47.5775 270.63 45.1586 264.827 47.4978C261.985 48.6271 259.594 50.6602 258.022 53.2835C256.575 55.8134 256.1 58.7837 256.684 61.6388C257.239 64.9673 258.747 68.0636 261.026 70.5523C262.195 71.8016 264.074 69.9144 262.904 68.6739Z" fill="black"/>
<path d="M278.099 39.9997C280.757 37.3416 283.238 34.6835 285.994 32.1671C286.243 31.9179 286.383 31.5801 286.383 31.2279C286.383 30.8757 286.243 30.5379 285.994 30.2887C285.74 30.0482 285.404 29.9141 285.055 29.9141C284.705 29.9141 284.369 30.0482 284.116 30.2887C281.36 32.7696 278.799 35.4986 276.221 38.1213C275.974 38.3716 275.836 38.709 275.836 39.0605C275.836 39.412 275.974 39.7493 276.221 39.9997C276.473 40.2422 276.81 40.3777 277.16 40.3777C277.51 40.3777 277.847 40.2422 278.099 39.9997Z" fill="black"/>
<path d="M276.505 33.1327C278.626 35.5497 281.003 37.7301 283.593 39.6362C283.899 39.8115 284.262 39.8595 284.604 39.77C284.945 39.6806 285.237 39.4607 285.418 39.1577C285.584 38.8508 285.627 38.4923 285.538 38.155C285.449 37.8176 285.235 37.5267 284.94 37.3414L284.479 36.9515L284.284 36.8098C284.435 36.9161 284.284 36.8097 284.213 36.7477C283.93 36.5262 283.637 36.2958 283.327 36.0566C282.734 35.5693 282.149 35.0554 281.555 34.5326C280.431 33.4893 279.36 32.3892 278.348 31.2366C278.097 30.9899 277.76 30.8516 277.409 30.8516C277.057 30.8516 276.72 30.9899 276.469 31.2366C276.229 31.4901 276.095 31.8263 276.095 32.1758C276.095 32.5253 276.229 32.8615 276.469 33.115L276.505 33.1327Z" fill="black"/>
<path d="M285.453 22.4285C285.99 19.4766 285.683 16.4332 284.567 13.648L282.344 14.9416L288.493 22.9159L291.567 26.7613C292.453 27.9574 293.525 30.1104 295.324 29.2687C295.627 29.0878 295.847 28.7952 295.936 28.4539C296.026 28.1126 295.978 27.7498 295.802 27.4435C295.618 27.1463 295.328 26.931 294.99 26.842C294.652 26.753 294.292 26.797 293.986 26.9651L293.853 27.0271L294.881 26.8942C295.129 27.0448 295.138 27.0005 294.881 26.7613L294.535 26.3182L293.853 25.4322L292.453 23.6601L289.724 20.116L284.257 13.0278C283.46 12 281.546 13.1252 282.033 14.3214C283.019 16.6426 283.326 19.1956 282.919 21.6843C282.837 22.02 282.889 22.3746 283.064 22.6728C283.238 22.971 283.523 23.1894 283.856 23.2816C284.189 23.3739 284.545 23.3327 284.848 23.1668C285.151 23.0009 285.378 22.7234 285.48 22.3931L285.453 22.4285Z" fill="black"/>
<path d="M292.657 32.9997C293.676 32.1136 294.721 31.2276 295.802 30.3416L295.988 30.1909C296.157 30.058 295.847 30.2973 295.988 30.1909L296.378 29.8897L297.211 29.2695C297.778 28.8619 298.345 28.4632 298.921 28.0733C299.212 27.8893 299.42 27.5997 299.502 27.2654C299.583 26.931 299.532 26.5781 299.359 26.2807C299.186 25.9834 298.904 25.7649 298.572 25.6713C298.241 25.5776 297.887 25.6161 297.583 25.7785C295.186 27.3902 292.903 29.1665 290.752 31.0947C290.503 31.3439 290.363 31.6817 290.363 32.0339C290.363 32.3861 290.503 32.7239 290.752 32.9731C291.006 33.2136 291.342 33.3477 291.691 33.3477C292.041 33.3477 292.377 33.2136 292.63 32.9731L292.657 32.9997Z" fill="black"/>
<path d="M316.713 33.2216C317.023 34.1076 316.359 35.1797 315.287 34.7809C314.589 34.3782 313.928 33.9157 313.311 33.3987C312.607 32.9662 311.854 32.6183 311.069 32.3621C307.454 31.2191 304.335 33.319 301.447 35.2328C295.294 39.3518 289.449 43.912 283.956 48.8777C278.41 53.8306 273.138 59.0848 268.008 64.4276C265.642 66.873 263.073 69.7438 259.511 70.2488C258.66 70.3469 257.798 70.2677 256.979 70.0161C256.16 69.7645 255.402 69.3459 254.753 68.7869C253.229 67.5996 251.82 66.244 250.385 64.9504C247.558 62.4163 244.705 59.8734 242.029 57.1887C239.664 54.823 237.644 52.094 237.776 48.5942C237.909 45.0944 240 41.6654 242.029 38.8479C244.058 36.0303 246.362 33.2127 248.692 30.5369C253.336 25.2127 258.399 20.2704 263.835 15.7578C266.564 13.4896 269.381 11.3395 272.287 9.30754C275.151 7.14214 278.209 5.2468 281.422 3.64581C283.058 2.80162 284.917 2.49173 286.739 2.75977C288.372 3.19866 289.885 3.99794 291.169 5.09888C294.042 7.33882 296.796 9.72852 299.418 12.258C304.75 17.3073 309.639 22.8062 314.028 28.6939C315.102 30.0845 315.996 31.6059 316.686 33.2216C317.324 34.7898 319.894 34.1076 319.256 32.5216C317.794 28.9154 315.251 25.9029 312.832 22.8993C310.413 19.8956 307.667 16.8211 304.858 13.9592C302.049 11.0973 299.249 8.46583 296.263 5.92291C293.508 3.56607 290.504 0.677609 286.783 0.110548C282.796 -0.509674 279.136 1.59022 275.894 3.65468C272.651 5.71913 269.585 7.83674 266.572 10.1227C260.454 14.7743 254.742 19.9378 249.499 25.5574C246.917 28.3277 244.463 31.2043 242.136 34.1873C239.743 37.2619 237.36 40.3895 235.934 44.0666C235.233 45.7791 234.924 47.6268 235.03 49.4742C235.135 51.3216 235.653 53.1219 236.545 54.7432C238.317 57.9152 241.321 60.3607 243.961 62.8061C246.968 65.7862 250.139 68.5964 253.459 71.2234C256.587 73.5271 260.477 73.3499 263.782 71.4715C267.086 69.5931 269.62 66.4389 272.252 63.7542C275.096 60.8569 277.967 58.0038 280.908 55.2128C286.745 49.6294 292.972 44.4685 299.542 39.7693C301.216 38.582 302.918 37.4302 304.654 36.3404C306.24 35.3392 307.959 34.3557 309.891 34.7898C310.755 35.0124 311.573 35.3842 312.309 35.8885C312.993 36.4603 313.746 36.9426 314.551 37.3239C315.214 37.5372 315.922 37.5674 316.6 37.4115C317.279 37.2555 317.902 36.9191 318.405 36.4379C318.907 35.9365 319.256 35.3036 319.413 34.6121C319.57 33.9207 319.527 33.199 319.291 32.5304C318.742 30.9002 316.181 31.6356 316.713 33.2216Z" fill="black"/>
<path d="M131.78 289.152C129.8 285.65 128.309 281.894 127.35 277.988C126.887 276.02 126.591 274.016 126.464 271.998C126.221 270.104 126.49 268.18 127.244 266.425C128.13 264.653 129.857 263.767 131.541 262.881C133.572 261.859 135.667 260.971 137.814 260.223C141.754 258.763 145.951 258.124 150.147 258.344C158.007 259 161.055 266.779 163.332 273.23C164.616 276.88 165.99 281.337 163.943 284.97C162.286 287.867 158.999 289.4 155.969 290.428C151.551 292.073 146.975 293.261 142.315 293.972C140.109 294.264 137.557 294.468 135.519 293.387C133.791 292.501 132.764 290.729 131.762 289.099C130.876 287.646 128.564 288.983 129.467 290.445C130.422 292.194 131.686 293.755 133.198 295.053C135.02 296.297 137.195 296.919 139.4 296.825C144.406 296.825 149.412 295.23 154.143 293.768C157.776 292.652 161.604 291.358 164.386 288.656C167.647 285.484 168.134 281.045 167.204 276.774C166.218 272.555 164.684 268.483 162.641 264.662C160.78 261.118 158.104 258.017 154.312 256.555C150.041 254.915 144.982 255.589 140.631 256.608C138.203 257.212 135.832 258.024 133.543 259.036C131.395 259.85 129.351 260.917 127.456 262.216C123.186 265.45 123.504 270.935 124.24 275.711C125.112 280.901 126.89 285.898 129.494 290.472C130.309 291.996 132.613 290.658 131.78 289.152Z" fill="black"/>
<path d="M137.956 278.643C143.16 276.871 148.429 275.341 153.763 274.053C155.428 273.645 154.72 271.085 153.054 271.483C147.738 272.777 142.472 274.31 137.256 276.082C135.643 276.631 136.37 279.201 137.956 278.643Z" fill="black"/>
<path d="M140.658 268.14C142.833 273.228 144.747 278.424 146.391 283.708C146.905 285.338 149.465 284.594 148.96 282.999C147.23 277.5 145.225 272.092 142.953 266.794C142.774 266.489 142.482 266.269 142.141 266.18C141.799 266.091 141.436 266.141 141.132 266.32C140.828 266.498 140.607 266.79 140.518 267.132C140.429 267.473 140.48 267.836 140.658 268.14Z" fill="black"/>
<path d="M344.835 90.1936C341.228 82.189 336.057 74.9861 329.627 69.0079C323.197 63.0297 315.637 58.3968 307.392 55.3814C305.779 54.7877 305.088 57.3572 306.683 57.942C314.596 60.8715 321.845 65.3527 328.002 71.1224C334.16 76.892 339.103 83.8339 342.541 91.5403C343.241 93.0997 345.526 91.7441 344.835 90.1936Z" fill="black"/>
<path d="M342.39 67.8299C338.291 61.6406 332.837 56.4654 326.442 52.6965C326.138 52.534 325.784 52.4956 325.452 52.5892C325.121 52.6829 324.839 52.9014 324.666 53.1987C324.493 53.496 324.441 53.849 324.523 54.1833C324.605 54.5177 324.813 54.8073 325.104 54.9913C331.106 58.5223 336.229 63.3695 340.086 69.1678C341.026 70.5943 343.329 69.2653 342.381 67.8299H342.39Z" fill="black"/>
<path d="M603.096 59.5424C600.973 54.2471 599.168 48.8297 597.691 43.3192C596.974 40.6611 596.282 38.003 595.795 35.2474C595.343 32.6868 595.166 29.8515 596.371 27.4592C598.382 23.4987 603.069 21.762 607.003 20.4596C612.286 18.6896 617.742 17.4867 623.28 16.8711C625.615 16.5143 627.997 16.6075 630.297 17.1458C632.564 17.8603 634.469 19.4218 635.613 21.5051C638.289 26.0328 640.303 30.9201 641.594 36.0183C642.29 38.5751 642.822 41.1735 643.189 43.7977C643.625 46.2382 643.744 48.7249 643.543 51.196C643.43 52.3841 643.054 53.532 642.44 54.556C641.827 55.5799 640.993 56.4541 639.999 57.1147C637.834 58.4932 635.533 59.6452 633.133 60.5525C627.501 62.8822 621.593 64.4783 615.554 65.3016C612.789 65.6738 609.635 66.0459 607.021 64.8055C604.895 63.8043 603.876 61.6069 603.025 59.5424C602.387 57.983 599.809 58.6564 600.465 60.2513C601.351 62.4043 602.316 64.6194 604.168 66.1168C606.28 67.6571 608.858 68.4236 611.469 68.2876C614.502 68.2021 617.52 67.8223 620.48 67.1534C623.396 66.577 626.272 65.8164 629.092 64.8763C631.959 63.9254 634.764 62.798 637.492 61.5006C639.902 60.3664 642.365 59.0994 644.048 56.9641C647.468 52.6048 646.308 46.1545 645.44 41.1307C644.411 35.2674 642.589 29.5712 640.026 24.1986C638.874 21.7797 637.642 19.2457 635.72 17.3319C633.865 15.5489 631.466 14.4385 628.906 14.1776C626.105 13.9235 623.282 14.0517 620.515 14.5586C617.473 14.9853 614.456 15.5769 611.478 16.3307C606.428 17.6331 600.775 19.166 596.752 22.6569C594.591 24.511 593.201 27.1053 592.853 29.9312C592.437 33.2096 593.226 36.5233 593.97 39.6776C595.617 46.6737 597.788 53.5362 600.465 60.207C601.156 61.8195 603.734 61.1373 603.096 59.5424Z" fill="black"/>
<path d="M614.854 53.4218C612.704 52.425 610.899 50.8108 609.67 48.7847C608.441 46.7586 607.842 44.4124 607.951 42.0452C608.138 39.6745 609.022 37.4121 610.491 35.5424C611.961 33.6726 613.95 32.279 616.209 31.5368C618.554 30.8324 621.055 30.8412 623.395 31.5622C625.735 32.2833 627.807 33.6839 629.349 35.586C630.836 37.4971 631.736 39.7985 631.94 42.2111C632.145 44.6236 631.645 47.0437 630.501 49.1777C627.258 54.8483 619.426 55.5128 613.959 52.9876C612.417 52.2788 611.061 54.5648 612.612 55.2825C618.433 57.9406 626.478 57.8608 631.086 52.8548C635.223 48.3448 635.631 41.4692 632.858 36.1619C631.424 33.5045 629.214 31.3474 626.523 29.9781C623.832 28.6088 620.787 28.0924 617.795 28.4977C614.909 28.9155 612.213 30.1837 610.051 32.1406C607.889 34.0975 606.359 36.6542 605.657 39.4845C604.936 42.6782 605.319 46.0219 606.743 48.9699C608.167 51.9179 610.548 54.2962 613.498 55.7166C615.04 56.4343 616.386 54.1395 614.836 53.4218H614.854Z" fill="black"/>
<path d="M562.79 80.8253C566.668 69.2023 574.935 59.5553 585.827 53.9431C587.351 53.1722 586.013 50.8774 584.489 51.6483C572.982 57.6008 564.259 67.818 560.185 80.1165C559.645 81.7468 562.214 82.4467 562.746 80.8253H562.79Z" fill="black"/>
<path d="M577.49 72.3928C580.072 67.1944 584.281 62.9817 589.478 60.3959C589.768 60.2172 589.98 59.9342 590.069 59.6048C590.158 59.2754 590.117 58.9245 589.956 58.6238C589.775 58.3364 589.492 58.1277 589.163 58.0391C588.835 57.9504 588.486 57.9884 588.184 58.1454C582.585 60.9495 578.043 65.4908 575.239 71.0903C575.071 71.3981 575.026 71.7587 575.115 72.0981C575.204 72.4375 575.42 72.73 575.718 72.9155C576.023 73.088 576.384 73.1345 576.723 73.0452C577.062 72.9558 577.353 72.7376 577.534 72.437L577.49 72.3928Z" fill="black"/>
<path d="M791.342 368.521C800.683 361.599 811.185 356.402 822.353 353.175L820.714 352.289C824.778 363.438 828.264 374.788 831.16 386.295L832.8 384.656L815.664 377.63C815.33 377.533 814.972 377.572 814.667 377.738C814.362 377.904 814.134 378.183 814.034 378.516C813.041 385.864 812.332 393.247 811.907 400.666L814.388 399.993C807.3 388.608 798.927 378.064 791.83 366.678C790.943 365.225 788.622 366.563 789.535 368.016C796.623 379.402 804.987 389.945 812.093 401.331C812.245 401.574 812.471 401.762 812.738 401.867C813.005 401.972 813.298 401.989 813.575 401.914C813.852 401.84 814.098 401.678 814.276 401.454C814.454 401.229 814.556 400.953 814.565 400.666C814.973 393.501 815.649 386.36 816.594 379.242L814.964 380.128L832.091 387.154C833.083 387.562 833.952 386.41 833.73 385.524C830.825 374.003 827.323 362.641 823.239 351.483C823.133 351.154 822.905 350.879 822.601 350.714C822.298 350.549 821.943 350.507 821.609 350.597C810.232 353.886 799.53 359.172 790.004 366.209C788.649 367.21 790.004 369.522 791.351 368.504L791.342 368.521Z" fill="black"/>
<path d="M1172.31 313.56C1175.03 313.56 1177.24 311.354 1177.24 308.633C1177.24 305.913 1175.03 303.707 1172.31 303.707C1169.59 303.707 1167.38 305.913 1167.38 308.633C1167.38 311.354 1169.59 313.56 1172.31 313.56Z" stroke="black" stroke-width="2" stroke-miterlimit="10" stroke-linecap="round"/>
<path d="M1131.14 271.84V289.374" stroke="black" stroke-width="2" stroke-miterlimit="10" stroke-linecap="round"/>
<path d="M1122.37 280.609H1139.9" stroke="black" stroke-width="2" stroke-miterlimit="10" stroke-linecap="round"/>
<path d="M1138.55 326.88C1135.03 326.88 1131.65 328.281 1129.15 330.773C1126.66 333.265 1125.26 336.646 1125.26 340.171C1125.26 336.646 1123.86 333.265 1121.37 330.773C1118.88 328.281 1115.5 326.88 1111.97 326.88C1115.5 326.88 1118.88 325.48 1121.37 322.988C1123.86 320.495 1125.26 317.115 1125.26 313.59C1125.26 317.115 1126.66 320.495 1129.15 322.988C1131.65 325.48 1135.03 326.88 1138.55 326.88Z" stroke="black" stroke-width="2" stroke-miterlimit="10" stroke-linecap="round"/>
<path d="M195.601 361.185C198.322 361.185 200.527 358.979 200.527 356.258C200.527 353.538 198.322 351.332 195.601 351.332C192.88 351.332 190.675 353.538 190.675 356.258C190.675 358.979 192.88 361.185 195.601 361.185Z" stroke="black" stroke-width="2" stroke-miterlimit="10" stroke-linecap="round"/>
<path d="M392.531 379.466C395.252 379.466 397.457 377.26 397.457 374.54C397.457 371.819 395.252 369.613 392.531 369.613C389.81 369.613 387.604 371.819 387.604 374.54C387.604 377.26 389.81 379.466 392.531 379.466Z" stroke="black" stroke-width="2" stroke-miterlimit="10" stroke-linecap="round"/>
<path d="M418.775 395.165C420.071 395.165 421.123 394.113 421.123 392.817C421.123 391.52 420.071 390.469 418.775 390.469C417.478 390.469 416.427 391.52 416.427 392.817C416.427 394.113 417.478 395.165 418.775 395.165Z" stroke="black" stroke-width="2" stroke-miterlimit="10" stroke-linecap="round"/>
<path d="M435.087 374.024C436.384 374.024 437.435 372.973 437.435 371.676C437.435 370.379 436.384 369.328 435.087 369.328C433.79 369.328 432.739 370.379 432.739 371.676C432.739 372.973 433.79 374.024 435.087 374.024Z" stroke="black" stroke-width="2" stroke-miterlimit="10" stroke-linecap="round"/>
<path d="M903.053 381.239C905.774 381.239 907.98 379.034 907.98 376.313C907.98 373.592 905.774 371.387 903.053 371.387C900.332 371.387 898.127 373.592 898.127 376.313C898.127 379.034 900.332 381.239 903.053 381.239Z" stroke="black" stroke-width="2" stroke-miterlimit="10" stroke-linecap="round"/>
<path d="M871.936 371.266C873.232 371.266 874.284 370.215 874.284 368.918C874.284 367.622 873.232 366.57 871.936 366.57C870.639 366.57 869.588 367.622 869.588 368.918C869.588 370.215 870.639 371.266 871.936 371.266Z" stroke="black" stroke-width="2" stroke-miterlimit="10" stroke-linecap="round"/>
<path d="M697.884 93.2155C699.181 93.2155 700.232 92.1643 700.232 90.8675C700.232 89.5708 699.181 88.5195 697.884 88.5195C696.587 88.5195 695.536 89.5708 695.536 90.8675C695.536 92.1643 696.587 93.2155 697.884 93.2155Z" stroke="black" stroke-width="2" stroke-miterlimit="10" stroke-linecap="round"/>
<path d="M628.49 26.3717C629.786 26.3717 630.838 25.3205 630.838 24.0238C630.838 22.727 629.786 21.6758 628.49 21.6758C627.193 21.6758 626.142 22.727 626.142 24.0238C626.142 25.3205 627.193 26.3717 628.49 26.3717Z" stroke="black" stroke-width="2" stroke-miterlimit="10" stroke-linecap="round"/>
<path d="M201.44 301.352L187.21 311.585" stroke="black" stroke-width="2" stroke-miterlimit="10" stroke-linecap="round"/>
<path d="M189.204 299.352L199.438 313.59" stroke="black" stroke-width="2" stroke-miterlimit="10" stroke-linecap="round"/>
<path d="M709.021 346.215L694.792 356.449" stroke="black" stroke-width="2" stroke-miterlimit="10" stroke-linecap="round"/>
<path d="M696.794 344.211L707.028 358.449" stroke="black" stroke-width="2" stroke-miterlimit="10" stroke-linecap="round"/>
<path d="M161.09 339.505C160.071 338.079 158.781 336.869 157.293 335.944C155.805 335.019 154.148 334.398 152.419 334.115C150.69 333.833 148.922 333.895 147.216 334.299C145.511 334.702 143.903 335.439 142.483 336.466C143.909 335.447 145.119 334.157 146.044 332.669C146.969 331.181 147.591 329.524 147.873 327.795C148.156 326.066 148.093 324.298 147.69 322.592C147.287 320.887 146.55 319.279 145.523 317.859C146.542 319.284 147.833 320.494 149.321 321.418C150.81 322.342 152.466 322.963 154.196 323.244C155.925 323.526 157.693 323.463 159.398 323.059C161.102 322.655 162.71 321.918 164.129 320.89C162.702 321.908 161.491 323.199 160.565 324.688C159.639 326.177 159.017 327.834 158.735 329.565C158.452 331.295 158.515 333.064 158.919 334.77C159.324 336.476 160.061 338.085 161.09 339.505V339.505Z" stroke="black" stroke-width="2" stroke-miterlimit="10" stroke-linecap="round"/>
<path d="M536.458 66.2363C538.268 66.2363 539.736 64.7686 539.736 62.958C539.736 61.1475 538.268 59.6797 536.458 59.6797C534.647 59.6797 533.179 61.1475 533.179 62.958C533.179 64.7686 534.647 66.2363 536.458 66.2363Z" stroke="black" stroke-width="2" stroke-miterlimit="10" stroke-linecap="round"/>
<path d="M540.347 26.3789L530.867 33.1925" stroke="black" stroke-width="2" stroke-miterlimit="10" stroke-linecap="round"/>
<path d="M532.196 25.043L539.018 34.5324" stroke="black" stroke-width="2" stroke-miterlimit="10" stroke-linecap="round"/>
<path d="M513.465 51.7918C512.785 50.8418 511.925 50.0356 510.932 49.4195C509.94 48.8034 508.836 48.3895 507.683 48.2018C506.53 48.014 505.352 48.0561 504.215 48.3255C503.078 48.5949 502.006 49.0864 501.061 49.7716C502.011 49.0921 502.817 48.2314 503.433 47.2391C504.049 46.2467 504.463 45.1424 504.651 43.9896C504.838 42.8367 504.796 41.6582 504.527 40.5216C504.257 39.3851 503.766 38.3131 503.081 37.3672C503.76 38.3172 504.621 39.1234 505.613 39.7395C506.606 40.3556 507.71 40.7695 508.863 40.9572C510.016 41.1449 511.194 41.1029 512.331 40.8335C513.467 40.5641 514.539 40.0726 515.485 39.3873C514.535 40.0669 513.729 40.9276 513.113 41.9199C512.497 42.9122 512.083 44.0166 511.895 45.1694C511.707 46.3222 511.749 47.5008 512.019 48.6373C512.288 49.7738 512.78 50.8459 513.465 51.7918Z" stroke="black" stroke-width="2" stroke-miterlimit="10" stroke-linecap="round"/>
</svg>
