<svg width="24" height="23" viewBox="0 0 24 23" fill="none" xmlns="http://www.w3.org/2000/svg">
<path d="M11.7039 18.8551C11.2577 18.8551 10.8877 18.4851 10.8877 18.0389V14.7742C10.8877 14.328 11.2577 13.958 11.7039 13.958C12.1501 13.958 12.5201 14.328 12.5201 14.7742V18.0389C12.5201 18.4851 12.1501 18.8551 11.7039 18.8551Z" fill="#070928"/>
<path d="M17.798 23H5.60971C3.62911 23 1.82263 21.4765 1.49616 19.5285L0.0488004 10.8552C-0.190613 9.50581 0.473215 7.7755 1.55057 6.91579L9.09209 0.876053C10.5503 -0.299247 12.8465 -0.288365 14.3156 0.886936L21.8572 6.91579C22.9236 7.7755 23.5766 9.50581 23.3589 10.8552L21.9116 19.5176C21.5851 21.4438 19.7351 23 17.798 23ZM11.693 1.63782C11.1162 1.63782 10.5394 1.81194 10.115 2.1493L2.57352 8.19992C1.96411 8.68963 1.52881 9.8214 1.6594 10.594L3.10676 19.2565C3.30264 20.3991 4.4453 21.3676 5.60971 21.3676H17.798C18.9624 21.3676 20.1051 20.3991 20.301 19.2456L21.7483 10.5832C21.868 9.8214 21.4327 8.66786 20.8342 8.18903L13.2927 2.16018C12.8574 1.81194 12.2698 1.63782 11.693 1.63782Z" fill="#070928"/>
</svg>
