<svg width="198" height="108" viewBox="0 0 198 108" fill="none" xmlns="http://www.w3.org/2000/svg">
<path d="M10 45L25 25V60L10 80V45Z" fill="#C8F0FF" stroke="black" stroke-width="2"/>
<path d="M178 86.5L190.5 66C179.167 63.8333 156.1 59.5 154.5 59.5C152.9 59.5 134.5 58.1667 125.5 57.5L106 50.5L65.5 37L32 50.5L25.5 59.5L10 81C83 42 110 94 139.5 94C171.063 94 175 84.8333 178 86.5Z" fill="#AE97FE" stroke="black" stroke-width="2"/>
<path d="M190.5 32.0743V66.0743C179 66.0743 165 75.0745 153.5 77.5745C142 80.0745 130 79.832 96.5 59.5745C67.9238 42.2943 37.3333 51.7411 25 59.5745V24.5744C58 7.33412 93.7171 19.7791 106.5 29.8337C117 38.0927 138.5 49.832 162.5 38.5743C172.646 33.8149 185 31.5743 190.5 32.0743Z" fill="white" stroke="black" stroke-width="2"/>
<path d="M139 2L130 30.5L154 22.5V11.5L139 2Z" fill="#C8F0FF" stroke="black" stroke-width="2"/>
<path d="M130 30.5L153.5 11.5" stroke="black" stroke-width="2"/>
<circle cx="8.5" cy="44.5" r="7.5" fill="#C8F0FF" stroke="black" stroke-width="2"/>
<path d="M174.755 101.53L165.255 106.03C164.422 99.5305 165.155 86.3312 174.755 85.5312C184.355 84.7313 183.422 73.5302 181.755 68.0297C180.955 56.0297 191.422 53.6964 196.755 54.0297V64.0301C194.255 64.0301 189.755 62.0301 191.255 74.5301C192.755 87.0301 187.755 91.0301 180.755 92.5301C175.155 93.7301 174.422 99.0301 174.755 101.53Z" fill="#C8F0FF" stroke="black" stroke-width="2"/>
<path d="M34.3016 42V27.1H44.5016V29.8H37.4016V33.58H43.5016V36.28H37.4016V42H34.3016Z" fill="black"/>
<path d="M56.2371 42V27.1H62.3571C63.3838 27.1 64.2904 27.28 65.0771 27.64C65.8771 28 66.5038 28.5333 66.9571 29.24C67.4104 29.9467 67.6371 30.82 67.6371 31.86C67.6371 32.8733 67.4038 33.74 66.9371 34.46C66.4704 35.1667 65.8438 35.7 65.0571 36.06L68.4571 42H64.9771L61.9571 36.6H59.3371V42H56.2371ZM59.3371 33.9H62.3771C63.0304 33.9 63.5504 33.7133 63.9371 33.34C64.3371 32.9667 64.5371 32.4733 64.5371 31.86C64.5371 31.2333 64.3371 30.7333 63.9371 30.36C63.5504 29.9867 63.0304 29.8 62.3771 29.8H59.3371V33.9Z" fill="black"/>
<path d="M76.3734 45L81.4534 30.1H85.5534L90.6334 45H87.3534L86.3534 41.96H80.6534L79.6534 45H76.3734ZM81.5334 39.26H85.4734L83.5134 33.22L81.5334 39.26Z" fill="black"/>
<path d="M109.495 40.1H112.595V55H110.195L103.495 45.98V55H100.395V40.1H102.775L109.495 49.06V40.1Z" fill="black"/>
<path d="M124.491 66V51.1H127.591V56.8L132.351 51.1H135.911L131.331 56.6L136.711 66H133.231L129.331 59.02L127.591 61.12V66H124.491Z" fill="black"/>
<path d="M148.497 66V51.1H151.597V63.3H158.297V66H148.497Z" fill="black"/>
<path d="M170.469 60V53.5L165.489 45.1H168.969L172.009 50.4L175.029 45.1H178.509L173.569 53.48V60H170.469Z" fill="black"/>
</svg>
