<svg width="283" height="85" viewBox="0 0 283 85" fill="none" xmlns="http://www.w3.org/2000/svg">
<path d="M233.565 62.5903C237.674 51.3561 240.677 43.9245 240.526 37.5651C240.376 31.2056 228.918 26.1076 231.182 21.2822C233.445 16.4568 243.807 8.64886 245.918 13.7702C248.028 18.8915 250.816 35.7299 255.278 31.0472C259.74 26.3646 265.775 12.5009 270.66 17.1576C275.545 21.8143 282.639 28.6151 278.148 31.299C273.658 33.983 256.864 41.0771 255.701 45.3158C254.538 49.5546 256.402 77.7622 252.659 79.3456C248.916 80.929 234.901 76.8745 234.829 73.8946C234.756 70.9147 233.565 62.5903 233.565 62.5903Z" fill="black" stroke="black" stroke-width="2.54" stroke-miterlimit="10"/>
<path d="M198.59 56.5522C202.369 34.4445 205.152 10.5095 212.111 10.5095C219.07 10.5095 225.035 12.1318 223.244 19.2311C221.453 26.3304 212.012 47.7294 215.69 51.4802C219.368 55.231 228.669 51.6826 233.782 51.6826C239.945 51.6826 242.53 78.6599 231.794 79.6722C221.058 80.6845 202.964 74.6028 201.572 70.1459C200.181 65.6891 198.59 56.5522 198.59 56.5522Z" fill="black" stroke="black" stroke-width="2.57" stroke-miterlimit="10"/>
<path d="M114.04 34.2301C116.991 26.2795 121.23 5.19971 130.616 5.19971C140.002 5.19971 146.39 10.2873 146.39 15.8421C146.39 21.3969 140.714 49.6071 146.39 44.1613C152.067 38.7155 159.369 18.3314 164.763 19.8629C170.157 21.3943 173.349 22.3547 169.954 29.6331C166.559 36.9115 147.59 77.4538 143.795 80.2261C140.529 82.6141 132.166 79.6316 130.616 73.6849C128.485 65.5136 132.057 40.6882 127.665 43.1386C123.273 45.5889 120.83 63.3436 120.83 63.3436L114.04 34.2301Z" fill="black" stroke="black" stroke-width="2.57" stroke-miterlimit="10"/>
<path d="M77.099 23.9593C78.6902 16.2786 81.2521 6.46682 86.8536 4.11251C93.0833 1.48825 109.322 2.23841 112.502 12.1592C115.682 22.08 129.402 78.0902 122.841 81.4776C116.279 84.865 107.785 81.9786 107.134 78.8585C106.438 75.4841 106.615 52.7535 101.252 50.9417C96.4059 49.3038 90.4331 48.6938 89.2417 51.6918C88.0503 54.6899 82.8796 73.8021 82.8796 73.8021L68.9614 63.0688L77.099 23.9593Z" fill="black" stroke="black" stroke-width="2.54" stroke-miterlimit="10"/>
<path d="M44.0189 14.1451C51.1311 10.7136 59.8267 6.87714 71.4659 11.0692C83.105 15.2613 86.0434 33.6519 77.1583 39.1963C68.2731 44.7407 58.1862 45.5272 61.7268 49.9607C65.2673 54.3942 85.5009 71.0794 81.0025 76.9197C76.5041 82.7601 71.8422 83.1988 69.1453 79.8191C66.4484 76.4395 50.9027 50.4876 50.9961 57.0885C51.0896 63.6894 57.4516 78.3733 53.3997 80.2345C52.3848 80.6965 48.4264 81.3558 47.2894 81.2078C43.4244 80.7147 40.3459 77.714 39.5594 73.8957L32.673 40.6136C31.6307 35.5709 32.1583 30.3299 34.185 25.5962C36.2117 20.8625 39.64 16.8635 44.0085 14.1373L44.0189 14.1451Z" fill="black" stroke="black" stroke-width="3" stroke-miterlimit="10"/>
<path d="M117.147 33.303C120.083 25.5003 124.301 4.82544 133.646 4.82544C142.99 4.82544 149.352 9.81439 149.352 15.2654C149.352 20.7164 143.702 48.3892 149.352 43.0395C155.003 37.6897 162.279 17.7131 167.65 19.2109C173.02 20.7086 176.2 21.6534 172.82 28.7916C169.441 35.9298 150.552 75.7039 146.772 78.4242C143.522 80.7603 135.195 77.8427 133.651 72.0076C131.53 63.992 135.086 39.6391 130.713 42.0427C126.339 44.4463 123.909 61.8635 123.909 61.8635L117.147 33.303Z" fill="#C8F0FF" stroke="black" stroke-miterlimit="10"/>
<path d="M158.429 33.7593C157.347 26.8469 154.85 16.1266 160.218 14.3278C165.586 12.529 173.837 10.6393 175.13 16.4874C176.423 22.3356 179.504 41.8527 180.887 37.8994C182.271 33.9462 184.07 10.5095 190.035 10.5095C196 10.5095 204.944 12.1682 201.367 19.187C197.791 26.2058 188.366 43.0831 191.426 45.8527C194.486 48.6223 211.517 56.9597 208.532 63.6307C205.881 69.5541 199.911 76.9129 194.813 71.7267C189.23 66.0499 180.109 46.0058 180.109 51.3945C180.109 56.7832 186.471 76.765 179.114 78.9246C171.758 81.0842 167.174 79.1037 165.793 73.8863C164.412 68.6689 158.429 33.7593 158.429 33.7593Z" fill="black" stroke="black" stroke-width="2.56" stroke-miterlimit="10"/>
<path d="M235.247 60.7611C239.621 49.6281 242.8 42.2719 242.8 35.9098C242.8 29.5477 231.467 24.1772 233.853 19.4063C236.238 14.6354 246.777 7.07149 248.765 12.2629C250.754 17.4543 253.139 34.3264 257.713 29.758C262.286 25.1895 268.648 11.466 273.419 16.2395C278.19 21.013 285.118 27.9695 280.56 30.5523C276.002 33.135 259.052 39.8216 257.785 44.0344C256.519 48.2472 257.713 76.5015 253.936 77.9836C250.159 79.4658 236.241 75.0894 236.241 72.107C236.241 69.1245 235.247 60.7611 235.247 60.7611Z" fill="#4BD178" stroke="black" stroke-miterlimit="10"/>
<path d="M201.446 55.1929C205.225 33.5213 208.008 10.0613 214.967 10.0613C221.926 10.0613 227.891 11.6524 226.1 18.6115C224.309 25.5706 214.868 46.544 218.546 50.2221C222.224 53.9002 231.525 50.422 236.638 50.422C242.801 50.422 245.386 76.8644 234.65 77.8586C223.914 78.8527 205.82 72.8878 204.428 68.514C203.037 64.1403 201.446 55.1929 201.446 55.1929Z" fill="#AE97FE" stroke="black" stroke-miterlimit="10"/>
<path d="M79.9535 22.1419C81.5446 14.4612 84.1066 4.64944 89.7081 2.29513C95.9378 -0.329129 112.177 0.42103 115.356 10.3418C118.536 20.2626 132.257 76.2728 125.695 79.6602C119.133 83.0476 110.778 80.1274 109.988 77.0411C109.179 73.8718 109.469 50.9361 104.107 49.1243C99.2603 47.4864 93.2876 46.8764 92.0962 49.8745C90.9048 52.8725 85.7341 71.9847 85.7341 71.9847L71.8159 61.2514L79.9535 22.1419Z" fill="#C8F0FF" stroke="black" stroke-miterlimit="10"/>
<path d="M161.285 32.7124C160.117 25.4444 157.705 15.373 163.073 13.6054C168.441 11.8377 176.693 9.97136 177.986 15.7286C179.278 21.4859 182.359 40.676 183.751 36.7824C185.142 32.8889 186.933 9.84937 192.898 9.84937C198.863 9.84937 207.808 11.4821 204.231 18.3815C200.654 25.2808 191.229 41.8804 194.289 44.5981C197.35 47.3158 214.37 55.5208 211.387 62.0776C208.737 67.9024 202.767 75.1392 197.669 70.0412C192.086 64.4579 182.956 44.7383 182.956 50.0543C182.956 55.3703 189.319 75.0016 181.962 77.1249C174.606 79.2482 170.022 77.3014 168.641 72.1723C167.26 67.0432 161.285 32.7124 161.285 32.7124Z" fill="#AE97FE" stroke="black" stroke-miterlimit="10"/>
<path d="M46.9334 12.6911C54.0482 9.25694 62.7413 5.42308 74.383 9.61515C86.0248 13.8072 88.9605 32.1978 80.0728 37.7422C71.1851 43.2867 61.1034 44.0732 64.6413 48.5066C68.1793 52.9401 88.418 69.6253 83.9196 75.4657C79.4213 81.306 74.7568 81.7421 72.0599 78.3651C69.3629 74.9881 53.8198 49.0336 53.9107 55.6345C54.0015 62.2354 60.3688 76.9193 56.3169 78.7804C55.302 79.2424 51.3435 79.8991 50.2066 79.7538C46.339 79.2606 43.2631 76.26 42.4766 72.4417L35.6006 39.1595C34.558 34.1171 35.0852 28.8763 37.1114 24.1427C39.1376 19.409 42.5654 15.4097 46.9334 12.6833V12.6911Z" fill="#4BD178" stroke="black" stroke-miterlimit="10"/>
<path d="M12.3719 7.47102C19.6114 5.39446 35.3881 3.42691 38.7054 9.41261C41.0779 13.6955 45.2206 22.2406 37.6827 24.7273C30.1448 27.214 23.6399 26.1731 24.1642 29.3996C24.6886 32.626 25.8904 38.6636 28.5199 37.0309C31.1493 35.3982 34.4277 34.6247 36.3745 37.1997C38.3213 39.7746 39.7489 45.0257 36.782 46.8635C33.8151 48.7012 26.9624 49.8278 27.915 54.4326C28.8677 59.0374 39.292 77.0152 34.7184 79.8523C30.1448 82.6895 23.0066 83.6421 20.3771 79.7693C18.6406 77.2151 2.56796 27.5955 1.73474 22.2769C0.901514 16.9583 1.05206 10.7053 12.3719 7.47102Z" fill="black" stroke="black" stroke-width="2.54" stroke-miterlimit="10"/>
<path d="M15.5412 6.57869C22.7806 4.50212 38.5573 2.53717 41.8746 8.52028C44.2471 12.8032 48.3899 21.3483 40.8519 23.822C33.314 26.2957 26.8091 25.2704 27.3335 28.4943C27.8578 31.7181 29.0596 37.7583 31.6891 36.1256C34.3185 34.4929 37.5969 33.7194 39.5437 36.2944C41.4904 38.8693 42.9181 44.123 39.9512 45.9582C36.9843 47.7933 30.1161 48.9355 31.0791 53.5351C32.0421 58.1346 42.4561 76.1177 37.8824 78.9574C33.3088 81.7971 26.1706 82.7446 23.5411 78.8744C21.8046 76.3176 5.73198 26.7006 4.89875 21.3794C4.06553 16.0582 4.21608 9.82333 15.5412 6.57869Z" fill="#4BD178" stroke="black" stroke-miterlimit="10"/>
<path d="M277.079 25.1142C277.348 25.3563 277.544 25.668 277.646 26.0149C277.749 26.3617 277.753 26.7301 277.658 27.0791C277.477 27.9201 276.898 28.5768 276.231 29.0882C275.436 29.6482 274.606 30.1547 273.744 30.6041L270.858 32.2498C270.768 32.3021 270.704 32.3877 270.678 32.4877C270.652 32.5877 270.666 32.694 270.719 32.7832C270.771 32.8723 270.857 32.937 270.957 32.9631C271.057 32.9891 271.163 32.9744 271.252 32.9221L274.58 31.0246C275.483 30.5054 276.415 30.0149 277.175 29.3036C277.881 28.6926 278.342 27.8473 278.473 26.9234C278.54 26.4918 278.498 26.0505 278.352 25.6391C278.205 25.2277 277.959 24.8591 277.635 24.5665C277.251 24.2498 276.698 24.7975 277.085 25.1168L277.079 25.1142Z" fill="black"/>
<path d="M268.584 33.2641L267.584 34.0662C267.512 34.1394 267.471 34.2382 267.47 34.3413C267.471 34.4443 267.512 34.5429 267.584 34.6165C267.658 34.689 267.756 34.73 267.86 34.7307H267.963C268.029 34.7136 268.088 34.6786 268.135 34.6294L269.142 33.8066C269.178 33.7708 269.207 33.728 269.227 33.6807C269.247 33.6334 269.257 33.5826 269.256 33.5314C269.256 33.4282 269.215 33.3291 269.142 33.2561C269.069 33.1831 268.97 33.1421 268.867 33.1421H268.765C268.699 33.1597 268.639 33.1946 268.592 33.2433L268.584 33.2641Z" fill="black"/>
<path d="M232.187 55.0292C232.903 54.5719 233.756 54.3779 234.599 54.4807C235.443 54.5835 236.224 54.9765 236.81 55.5925C237.399 56.2542 237.755 57.0915 237.822 57.9754C237.939 59.0136 237.98 60.0519 238.017 61.0902C238.058 62.3015 238.064 63.5129 238.035 64.7242C238.022 65.2252 238.801 65.2252 238.814 64.7242C238.839 63.5328 238.837 62.3388 238.795 61.1499C238.779 59.9724 238.7 58.7967 238.559 57.6275C238.3 55.7327 236.937 54.0688 234.993 53.734C233.887 53.5355 232.747 53.7557 231.795 54.3518C231.372 54.6113 231.761 55.2914 232.187 55.024V55.0292Z" fill="black"/>
<path d="M237.84 68.3295V69.521C237.84 69.6242 237.881 69.7233 237.954 69.7963C238.027 69.8693 238.126 69.9103 238.23 69.9103C238.333 69.909 238.431 69.8675 238.504 69.7948C238.576 69.7221 238.618 69.6238 238.619 69.521V68.3295C238.619 68.2263 238.578 68.1272 238.505 68.0542C238.432 67.9812 238.333 67.9402 238.23 67.9402C238.126 67.9402 238.027 67.9812 237.954 68.0542C237.881 68.1272 237.84 68.2263 237.84 68.3295Z" fill="black"/>
<path d="M199.974 13.7364C200.334 13.813 200.665 13.9876 200.932 14.241C201.198 14.4943 201.39 14.8165 201.485 15.1718C201.744 16.0829 201.391 17.0537 201.043 17.8947C200.218 19.8882 199.338 21.8635 198.486 23.8467C198.302 24.2776 198.933 24.6513 199.12 24.2179L200.605 20.7656C201.067 19.6909 201.581 18.6267 201.973 17.5261C202.302 16.5994 202.466 15.5741 202.071 14.6423C201.909 14.2387 201.651 13.8808 201.32 13.5994C200.988 13.3181 200.593 13.1219 200.169 13.0278C199.706 12.9343 199.509 13.6429 199.974 13.7364Z" fill="black"/>
<path d="M197.454 26.31L197.07 27.9038C197.048 28.0013 197.065 28.1032 197.117 28.1886C197.168 28.274 197.251 28.3362 197.347 28.3625C197.444 28.3889 197.546 28.3772 197.634 28.33C197.722 28.2828 197.788 28.2036 197.82 28.1088L198.204 26.5151C198.225 26.4176 198.208 26.3156 198.157 26.2302C198.105 26.1448 198.022 26.0826 197.926 26.0563C197.83 26.0299 197.727 26.0416 197.639 26.0888C197.551 26.136 197.485 26.2152 197.454 26.31Z" fill="black"/>
<path d="M155.725 54.3344C154.731 57.4901 153.551 60.5844 152.192 63.6011C151.519 65.091 150.804 66.5619 150.048 68.0138C149.459 69.1988 148.764 70.3282 147.972 71.3882C147.053 72.5667 145.895 73.5894 144.504 74.1371C144.055 74.3136 144.244 75.0456 144.706 74.869C147.336 73.8437 149.007 71.5102 150.313 69.117C151.912 66.1567 153.322 63.098 154.534 59.9593C155.226 58.1786 155.863 56.3755 156.444 54.5498C156.589 54.0852 155.86 53.8853 155.715 54.3474L155.725 54.3344Z" fill="black"/>
<path d="M139.139 74.5751C139.733 75.1197 140.518 75.4087 141.324 75.3798C141.376 75.3841 141.429 75.3776 141.479 75.3606C141.528 75.3436 141.574 75.3165 141.612 75.281C141.651 75.2455 141.682 75.2024 141.703 75.1544C141.724 75.1064 141.735 75.0545 141.735 75.0021C141.735 74.9497 141.724 74.8979 141.703 74.8499C141.682 74.8019 141.651 74.7588 141.612 74.7233C141.574 74.6878 141.528 74.6607 141.479 74.6437C141.429 74.6267 141.376 74.6201 141.324 74.6245C141.241 74.6245 141.155 74.6245 141.065 74.6245H140.94H140.878C140.924 74.6245 140.927 74.6245 140.878 74.6245C140.713 74.5958 140.551 74.5541 140.392 74.4999L140.276 74.4557C140.361 74.4895 140.239 74.4376 140.224 74.4298C140.148 74.396 140.076 74.3545 140.003 74.313C139.93 74.2714 139.865 74.2247 139.798 74.1754C139.73 74.1261 139.764 74.152 139.798 74.1754L139.751 74.1365C139.72 74.1105 139.689 74.0846 139.66 74.056C139.625 74.0207 139.584 73.9927 139.538 73.9735C139.492 73.9544 139.442 73.9445 139.393 73.9443C139.343 73.9442 139.294 73.9539 139.248 73.9728C139.201 73.9918 139.16 74.0196 139.124 74.0547C139.089 74.0898 139.061 74.1315 139.042 74.1775C139.023 74.2234 139.013 74.2727 139.013 74.3224C139.013 74.3722 139.022 74.4215 139.041 74.4676C139.06 74.5136 139.088 74.5554 139.123 74.5907L139.139 74.5751Z" fill="black"/>
<path d="M171.889 14.8584C174.274 15.824 175.123 18.3678 175.767 20.639C175.798 20.7273 175.861 20.8005 175.944 20.8438C176.027 20.887 176.123 20.8972 176.214 20.8721C176.304 20.847 176.381 20.7886 176.43 20.7087C176.478 20.6288 176.495 20.5334 176.476 20.4418C176.089 19.0842 175.697 17.6903 174.897 16.5015C174.218 15.4555 173.237 14.6408 172.084 14.1653C171.648 13.9862 171.455 14.6845 171.889 14.8714V14.8584Z" fill="black"/>
<path d="M220.68 13.8895C221.376 14.5396 221.919 15.3358 222.271 16.2208C222.623 17.1058 222.774 18.0577 222.715 19.0082C222.684 19.5066 223.462 19.5066 223.493 19.0082C223.554 17.9553 223.382 16.9019 222.991 15.9225C222.6 14.943 221.999 14.0612 221.23 13.3392C220.864 12.9965 220.311 13.5468 220.68 13.8895Z" fill="black"/>
<path d="M121.633 53.3445C122.152 56.1132 122.584 58.8872 122.931 61.6663C123.099 63.0343 123.258 64.4048 123.377 65.7779C123.5 66.9672 123.519 68.1648 123.434 69.3574C123.341 70.6995 122.927 71.9995 122.225 73.1471C121.965 73.5573 122.617 73.9258 122.879 73.5287C124.234 71.4002 124.353 68.8201 124.177 66.3749C123.979 63.5871 123.6 60.8019 123.185 58.0375C122.941 56.4022 122.668 54.7712 122.365 53.1446C122.276 52.667 121.547 52.8695 121.635 53.3445H121.633Z" fill="black"/>
<path d="M58.731 12.9036C60.9851 12.3757 63.2896 12.092 65.6044 12.0574C67.8056 12.0263 70.0794 12.1353 72.0496 13.2203C73.0786 13.8245 74.0516 14.5194 74.9568 15.2969C75.341 15.6084 75.8964 15.0607 75.5071 14.7466C74.6627 14.0325 73.7712 13.376 72.8387 12.7816C71.8799 12.1962 70.8255 11.7841 69.7238 11.5643C67.4085 11.1152 64.9373 11.2164 62.6038 11.4682C61.235 11.6138 59.8765 11.8444 58.5363 12.1587C58.0483 12.2729 58.2534 13.023 58.744 12.9088L58.731 12.9036Z" fill="black"/>
<path d="M77.1169 18.4457L77.1792 18.4924L77.0987 18.4327C77.3478 18.6247 77.5712 18.848 77.7632 19.0972L77.7035 19.0167C77.8146 19.1626 77.9152 19.3161 78.0046 19.4762C78.0576 19.5642 78.1428 19.6281 78.2422 19.6543C78.3416 19.6805 78.4472 19.6669 78.5367 19.6163C78.6245 19.5624 78.688 19.4767 78.7141 19.3771C78.7402 19.2775 78.7269 19.1716 78.6769 19.0816C78.3826 18.5721 77.9846 18.1299 77.5088 17.7838C77.4637 17.7576 77.4139 17.7406 77.3622 17.7339C77.3105 17.7273 77.258 17.731 77.2077 17.7448C77.1112 17.7739 77.0289 17.8377 76.9767 17.9239C76.9499 17.9688 76.9327 18.0186 76.926 18.0704C76.9193 18.1222 76.9233 18.1748 76.9378 18.225C76.9683 18.3208 77.0318 18.4026 77.1169 18.456V18.4457Z" fill="black"/>
<path d="M22.9568 7.60278C25.3137 6.87598 27.8887 6.75918 30.3442 6.79552C32.74 6.82926 35.4162 6.94088 37.3915 8.46456C38.3528 9.24961 39.1291 10.2369 39.6654 11.3562C39.8964 11.8 40.5687 11.4081 40.3377 10.9616C39.8234 9.91603 39.1192 8.97511 38.2611 8.18681C37.2659 7.31603 36.0653 6.71305 34.7725 6.43471C33.5359 6.18833 32.2797 6.05368 31.0191 6.03238C29.6443 5.98434 28.2679 6.01815 26.8971 6.13362C25.4908 6.22294 24.0984 6.46401 22.744 6.85262C22.2663 6.99798 22.4844 7.75073 22.9516 7.60278H22.9568Z" fill="black"/>
<path d="M40.5067 13.1424L40.7066 13.5396C40.7303 13.5841 40.7652 13.6216 40.8078 13.6486C40.8452 13.6829 40.8908 13.707 40.9402 13.7186C40.9904 13.7315 41.0431 13.7315 41.0933 13.7186C41.1451 13.7163 41.1953 13.7002 41.2387 13.6719C41.3258 13.6195 41.3897 13.536 41.4178 13.4383L41.4334 13.3345C41.4325 13.2659 41.4137 13.1988 41.3789 13.1398L41.179 12.7401C41.1555 12.6963 41.1216 12.6588 41.0804 12.6311C41.0422 12.5978 40.9969 12.5738 40.948 12.561C40.8458 12.5394 40.7394 12.5541 40.6469 12.6025C40.5594 12.6533 40.4952 12.7362 40.4678 12.8335V12.9373C40.4681 13.0064 40.4859 13.0743 40.5197 13.1346L40.5067 13.1424Z" fill="black"/>
<path d="M103.128 6.29157C105.023 6.13583 106.84 6.91714 108.239 8.16827C109.755 9.52323 110.677 11.3662 111.302 13.274C111.676 14.4084 111.956 15.5686 112.234 16.7315C112.346 17.2039 113.075 17.0041 112.961 16.529C112.442 14.3668 111.907 12.1709 110.809 10.2163C109.837 8.40808 108.3 6.96769 106.433 6.11507C105.396 5.65269 104.261 5.45384 103.128 5.53622C102.645 5.57516 102.64 6.33311 103.128 6.29157Z" fill="black"/>
<path d="M113.303 19.6089L114.048 22.2436C114.08 22.3344 114.144 22.4099 114.23 22.4547C114.315 22.4995 114.414 22.5103 114.506 22.4849C114.599 22.4595 114.679 22.3998 114.729 22.3179C114.779 22.2359 114.797 22.1379 114.777 22.0437L114.032 19.4064C114.002 19.3142 113.937 19.2374 113.851 19.1917C113.765 19.146 113.665 19.135 113.572 19.161C113.478 19.187 113.398 19.248 113.348 19.3314C113.298 19.4147 113.282 19.5141 113.303 19.6089Z" fill="black"/>
<path d="M63.1412 27.0425L63.5202 30.1574L64.8778 29.8848C65.2333 29.8125 65.603 29.8845 65.9056 30.0848C66.2081 30.2851 66.4187 30.5974 66.491 30.9529C66.5633 31.3085 66.4913 31.6782 66.291 31.9808C66.0907 32.2833 65.7784 32.4939 65.4228 32.5662L63.8654 32.8803L64.125 35.1074C64.1667 35.448 64.0788 35.7919 63.8788 36.0708C63.6787 36.3496 63.3812 36.5431 63.0452 36.6129L62.931 36.6311C62.571 36.6743 62.2085 36.5728 61.9233 36.3489C61.6381 36.125 61.4534 35.797 61.4099 35.437L61.1659 33.4202L60.5247 33.5499L57.005 34.256L57.2645 36.522C57.3061 36.8624 57.2182 37.2059 57.0181 37.4843C56.818 37.7628 56.5205 37.9558 56.1847 38.0249L56.0705 38.0431C55.7105 38.0863 55.348 37.9848 55.0628 37.7609C54.7776 37.537 54.593 37.2091 54.5494 36.8491L54.2899 34.7959L53.5112 34.949L53.0283 35.0477C52.8523 35.0835 52.6709 35.0842 52.4945 35.0499C52.3182 35.0156 52.1503 34.9469 52.0005 34.8477C51.698 34.6474 51.4874 34.3351 51.4151 33.9795C51.3428 33.624 51.4148 33.2542 51.6151 32.9517C51.8154 32.6492 52.1277 32.4386 52.4832 32.3663L53.9394 32.073L53.5631 28.9581L52.3405 29.2021C52.0096 29.221 51.683 29.1191 51.4216 28.9154C51.1601 28.7116 50.9816 28.4199 50.9191 28.0944C50.8566 27.7689 50.9144 27.4317 51.0818 27.1456C51.2492 26.8595 51.5147 26.6439 51.8291 26.5389L53.262 26.2508L53.0335 24.3533C53.0012 23.9989 53.1083 23.6457 53.3321 23.3689C53.5559 23.0921 53.8788 22.9134 54.2322 22.8709C54.5856 22.8283 54.9417 22.9252 55.2249 23.1409C55.508 23.3566 55.6959 23.6743 55.7487 24.0263L55.9537 25.7109L60.1068 24.8751L59.8732 22.9413C59.8389 22.586 59.9449 22.2313 60.1685 21.953C60.3921 21.6747 60.7156 21.4949 61.07 21.4519C61.4243 21.4088 61.7815 21.5061 62.0652 21.7227C62.3489 21.9394 62.5366 22.2584 62.5883 22.6116L62.7986 24.3352L64.1795 24.0574C64.3556 24.0215 64.537 24.0206 64.7134 24.0547C64.8898 24.0889 65.0578 24.1574 65.2077 24.2565C65.3576 24.3555 65.4866 24.4832 65.5872 24.6321C65.6878 24.781 65.7581 24.9482 65.794 25.1243C65.83 25.3003 65.8309 25.4818 65.7968 25.6582C65.7626 25.8346 65.6941 26.0026 65.595 26.1525C65.4959 26.3024 65.3683 26.4314 65.2194 26.532C65.0705 26.6326 64.9033 26.7028 64.7272 26.7388L63.1412 27.0425Z" fill="white" stroke="black" stroke-miterlimit="10"/>
<path d="M56.7402 30.8132C57.5412 31.0842 59.5195 31.2684 61.0248 29.8372" stroke="black" stroke-linecap="round"/>
</svg>
