<svg width="24" height="24" viewBox="0 0 24 24" fill="none" xmlns="http://www.w3.org/2000/svg">
<path fill-rule="evenodd" clip-rule="evenodd" d="M2.3733 15.327C2.17779 15.5998 1.97778 15.7361 1.77325 15.7361C1.56892 15.7361 1.36439 15.6452 1.16006 15.4633C0.955527 15.2816 0.85326 15.1044 0.85326 14.9315C0.85326 14.7589 0.933347 14.5816 1.09332 14.3997L2.58665 12.2451L0.586693 11.5907C0.195491 11.4634 0 11.2542 0 10.9633C0 10.7997 0.0266961 10.6542 0.0800868 10.5269C0.186664 10.1453 0.408861 9.95441 0.746688 9.95441C0.817743 9.95441 0.942189 9.97248 1.12003 10.0088L3.1734 10.6908V8.45444C3.1734 7.90882 3.43995 7.63618 3.97327 7.63618C4.50676 7.63618 4.77335 7.90879 4.77335 8.45444V10.6908L6.77331 10.0088C6.95115 9.97248 7.10229 9.95441 7.22674 9.95441C7.35118 9.95441 7.49329 10.0451 7.65326 10.227C7.81344 10.4089 7.89332 10.6498 7.89332 10.9497C7.89332 11.2498 7.69782 11.4634 7.30663 11.5907L5.27996 12.2451L6.8 14.3997C6.94231 14.5633 7.01337 14.736 7.01337 14.9179C7.01337 15.0997 6.9111 15.2816 6.70677 15.4633C6.50224 15.6452 6.30222 15.7361 6.10672 15.7361C5.91123 15.7361 5.71552 15.5998 5.52003 15.327L3.94679 13.0634L2.3733 15.327ZM15.1475 13.0906L15.5743 10.9087H13.8668C13.5721 10.9087 13.3334 10.6647 13.3334 10.3633V9.81781C13.3334 9.51663 13.5721 9.27235 13.8668 9.27235H15.8942L16.3419 6.98354C16.3918 6.72857 16.6105 6.54522 16.8647 6.54522H17.3771C17.6716 6.54522 17.9104 6.78927 17.9104 7.09068C17.9104 7.12659 17.9069 7.16229 17.9 7.19758L17.4944 9.27241H19.6276L20.0753 6.98359C20.125 6.72862 20.3439 6.54528 20.5981 6.54528H21.1103C21.405 6.54528 21.6438 6.78933 21.6438 7.09073C21.6438 7.12665 21.6403 7.16235 21.6333 7.19763L21.2275 9.27246H23.4665C23.7612 9.27246 24 9.51672 24 9.81791V10.3634C24 10.6648 23.7612 10.9088 23.4665 10.9088H20.9076L20.4808 13.0907H22.3999C22.6946 13.0907 22.9332 13.335 22.9332 13.6362V14.1817C22.9332 14.4828 22.6946 14.7271 22.3999 14.7271H20.1609L19.7134 17.0159C19.6635 17.2709 19.4446 17.4544 19.1904 17.4544H18.6782C18.3835 17.4544 18.1449 17.2102 18.1449 16.909C18.1449 16.8731 18.1482 16.8372 18.1551 16.8019L18.5609 14.7271H16.4275L15.98 17.0159C15.9301 17.2708 15.7112 17.4544 15.457 17.4544H14.9448C14.6503 17.4544 14.4115 17.2101 14.4115 16.9089C14.4115 16.873 14.415 16.8371 14.4218 16.8018L14.8275 14.727H12.7999C12.5054 14.727 12.2665 14.4827 12.2665 14.1816V13.6361C12.2665 13.3349 12.5054 13.0906 12.7999 13.0906H15.1475ZM16.7477 13.0906H18.8809L19.3077 10.9087H17.1742L16.7477 13.0906ZM10.0112 6H11.5122C11.8067 6 12.0455 6.24405 12.0455 6.54545C12.0455 6.58074 12.0422 6.61602 12.0355 6.65067L10.8964 12.5671L10.7183 14.241C10.689 14.5178 10.4604 14.7274 10.1881 14.7274H9.66117C9.36648 14.7274 9.12783 14.4831 9.12783 14.1819C9.12783 14.1622 9.12886 14.1424 9.13091 14.1229L9.29643 12.5669L9.47837 6.52896C9.4872 6.2343 9.72311 6 10.0112 6ZM9.59992 18C9.01075 18 8.5333 17.5115 8.5333 16.9091C8.5333 16.3066 9.01075 15.8181 9.59992 15.8181C10.1891 15.8181 10.6665 16.3066 10.6665 16.9091C10.6665 17.5115 10.1891 18 9.59992 18Z" fill="black"/>
</svg>
