<svg width="375" height="276" viewBox="0 0 375 276" fill="none" xmlns="http://www.w3.org/2000/svg">
<rect x="-355" y="211.716" width="1292" height="59" transform="rotate(-9.16179 -355 211.716)" fill="#4B94F0" stroke="#215647" stroke-width="9.62296"/>
<path d="M-330.722 232.921L-325.146 232.022C-324.072 231.848 -323.577 232.303 -323.478 232.92L-323.475 232.935C-323.371 233.583 -323.732 234.16 -324.774 234.328L-330.35 235.227L-330.722 232.921ZM-329.93 237.833L-325.128 237.059C-323.311 236.766 -322.577 237.296 -322.346 238.733L-322.126 240.092C-322.06 240.503 -321.967 240.682 -321.833 240.806L-318.089 240.202L-318.102 240.123C-318.227 239.949 -318.402 239.669 -318.555 238.722L-318.833 237C-319.075 235.499 -320.244 234.78 -321.496 234.658C-320.76 234.296 -319.461 233.406 -319.731 231.732L-319.762 231.542C-320.034 229.852 -321.438 228.685 -325.355 229.317L-334.833 230.845L-332.938 242.597L-329.257 242.004L-329.93 237.833ZM-308.162 233.675L-312.617 234.393L-311.148 229.634L-308.162 233.675ZM-304.924 238.079L-300.959 237.44L-309.141 226.701L-313.912 227.471L-317.955 240.181L-314.212 239.577L-313.5 237.258L-306.376 236.109L-304.924 238.079ZM-295.297 236.705L-294.413 236.562C-289.406 235.755 -288.785 232.267 -289.177 229.835L-290.176 223.643L-293.872 224.239L-292.889 230.336C-292.601 232.121 -293.32 233.388 -295.247 233.699L-295.437 233.729C-297.98 234.139 -298.513 232.442 -298.645 231.929L-302.372 232.53L-302.357 232.625C-301.998 234.852 -300.194 237.495 -295.297 236.705ZM-288.618 223.391L-286.722 235.144L-274.18 233.121L-274.621 230.388L-283.53 231.825L-283.841 229.898L-275.295 228.52L-275.728 225.834L-284.274 227.213L-284.554 225.475L-275.803 224.064L-276.234 221.394L-288.618 223.391ZM-274.642 221.137L-272.747 232.89L-260.205 230.867L-260.645 228.134L-269.554 229.571L-269.865 227.644L-261.319 226.266L-261.753 223.58L-270.298 224.959L-270.578 223.221L-261.827 221.81L-262.258 219.14L-274.642 221.137ZM-249.167 229.087L-245.376 216.417L-249.198 217.034L-251.865 226.329L-257.586 218.387L-261.756 219.059L-253.748 229.825L-249.167 229.087ZM-239.903 215.535L-238.008 227.287L-225.466 225.264L-225.907 222.531L-234.816 223.968L-235.126 222.041L-226.581 220.663L-227.014 217.978L-235.56 219.356L-235.84 217.618L-227.089 216.207L-227.519 213.537L-239.903 215.535ZM-215.392 218.713L-219.847 219.431L-218.378 214.672L-215.392 218.713ZM-212.154 223.117L-208.189 222.478L-216.371 211.739L-221.142 212.509L-225.185 225.219L-221.442 224.615L-220.73 222.296L-213.606 221.147L-212.154 223.117ZM-205.419 212.712L-199.843 211.813C-198.769 211.64 -198.274 212.095 -198.175 212.711L-198.173 212.726C-198.068 213.374 -198.429 213.951 -199.471 214.119L-205.047 215.018L-205.419 212.712ZM-204.627 217.625L-199.825 216.85C-198.008 216.557 -197.275 217.087 -197.043 218.525L-196.824 219.883C-196.758 220.294 -196.664 220.473 -196.53 220.597L-192.787 219.994L-192.799 219.915C-192.925 219.74 -193.1 219.461 -193.252 218.513L-193.53 216.791C-193.772 215.291 -194.942 214.572 -196.193 214.449C-195.457 214.087 -194.158 213.197 -194.428 211.523L-194.459 211.333C-194.732 209.643 -196.135 208.476 -200.053 209.108L-209.53 210.636L-207.635 222.388L-203.954 221.795L-204.627 217.625ZM-193.549 208.059L-191.654 219.811L-188.021 219.225L-189.277 211.438L-180.044 217.938L-176.411 217.352L-178.306 205.6L-181.939 206.186L-180.747 213.579L-189.442 207.396L-193.549 208.059ZM-176.596 205.325L-174.701 217.077L-162.159 215.054L-162.6 212.321L-171.509 213.758L-171.82 211.831L-163.274 210.453L-163.707 207.767L-172.253 209.146L-172.533 207.408L-163.782 205.997L-164.212 203.327L-176.596 205.325ZM-160.725 214.823L-152.922 213.564C-146.048 212.472 -145.16 209.039 -145.567 206.511L-145.644 206.037C-146.069 203.399 -148.025 200.717 -154.833 201.815L-162.621 203.071L-160.725 214.823ZM-158.492 205.257L-154.669 204.641C-150.452 203.96 -149.653 205.695 -149.46 206.896L-149.445 206.991C-149.251 208.191 -149.508 210.113 -153.678 210.785L-157.501 211.402L-158.492 205.257ZM-136.405 201.581L-130.829 200.682C-129.755 200.509 -129.26 200.964 -129.161 201.58L-129.158 201.596C-129.054 202.243 -129.414 202.82 -130.457 202.988L-136.033 203.888L-136.405 201.581ZM-135.613 206.494L-130.811 205.719C-128.994 205.427 -128.26 205.956 -128.028 207.394L-127.809 208.752C-127.743 209.163 -127.649 209.342 -127.516 209.467L-123.772 208.863L-123.785 208.784C-123.91 208.61 -124.085 208.33 -124.238 207.382L-124.516 205.66C-124.758 204.16 -125.927 203.441 -127.179 203.319C-126.443 202.957 -125.144 202.067 -125.414 200.392L-125.445 200.203C-125.717 198.513 -127.121 197.345 -131.038 197.977L-140.516 199.506L-138.62 211.258L-134.94 210.664L-135.613 206.494ZM-116.335 207.874L-115.245 207.698C-109.338 206.746 -108.679 204.597 -108.993 202.654L-109.028 202.433C-109.405 200.096 -111.361 199.325 -115.799 199.944L-117.779 200.231C-120.201 200.589 -120.58 200.147 -120.659 199.658C-120.738 199.168 -120.616 198.614 -117.773 198.155L-117.52 198.114C-114.456 197.62 -114.035 198.525 -113.898 198.972L-110.075 198.356L-110.1 198.198C-110.386 196.429 -111.963 194.69 -117.523 195.587L-118.613 195.762C-123.952 196.623 -124.715 198.626 -124.432 200.38L-124.409 200.522C-124.113 202.354 -122.531 203.622 -118.12 203.041L-116.09 202.762C-113.363 202.387 -112.928 202.771 -112.819 203.45C-112.717 204.082 -112.965 204.754 -116.061 205.253L-116.282 205.289C-119.315 205.778 -119.914 204.675 -120.074 203.988L-123.912 204.607L-123.884 204.781C-123.635 206.329 -122.496 208.868 -116.335 207.874ZM-104.308 202.888L-108.115 203.502L-107.669 206.266L-103.862 205.652L-104.308 202.888ZM-99.0964 200.102L-98.7372 202.329L-90.1284 200.941L-89.7361 203.374L-86.103 202.788L-86.4954 200.355L-84.1102 199.97L-84.5509 197.238L-86.9361 197.622L-88.0061 190.988L-91.9708 191.628L-99.0964 200.102ZM-90.5692 198.208L-94.8814 198.904L-91.1653 194.512L-90.5692 198.208ZM-67.5823 193.496C-67.9186 191.411 -69.4834 187.839 -76.4494 188.962L-77.1444 189.074C-84.0946 190.195 -84.4727 194.081 -84.1364 196.166L-84.06 196.64C-83.7288 198.693 -82.1329 202.358 -75.1827 201.237L-74.4877 201.125C-67.5059 199.999 -67.1747 196.024 -67.5059 193.97L-67.5823 193.496ZM-71.383 194.449C-71.1665 195.792 -71.7132 197.728 -75.2989 198.306C-78.8846 198.884 -80.0198 197.171 -80.2338 195.845L-80.2644 195.655C-80.4809 194.312 -80.0004 192.468 -76.3358 191.877C-72.7343 191.296 -71.6352 192.886 -71.4187 194.228L-71.383 194.449ZM-50.2747 190.705C-50.611 188.62 -52.1758 185.047 -59.1418 186.171L-59.8368 186.283C-66.787 187.404 -67.1651 191.29 -66.8288 193.375L-66.7524 193.849C-66.4212 195.902 -64.8253 199.567 -57.8751 198.446L-57.1801 198.334C-50.1983 197.208 -49.8671 193.232 -50.1983 191.179L-50.2747 190.705ZM-54.0754 191.658C-53.8589 193.001 -54.4056 194.937 -57.9913 195.515C-61.577 196.093 -62.7122 194.38 -62.9262 193.053L-62.9568 192.864C-63.1733 191.521 -62.6928 189.677 -59.0282 189.086C-55.4267 188.505 -54.3276 190.094 -54.1111 191.437L-54.0754 191.658ZM-33.5933 194.319L-29.8022 181.65L-33.6248 182.266L-36.2908 191.561L-42.0124 183.619L-46.1825 184.291L-38.1742 195.058L-33.5933 194.319ZM-22.1283 180.201C-29.5682 181.401 -29.8067 185.248 -29.4678 187.349L-29.3914 187.823C-29.0577 189.892 -27.6065 193.564 -20.1667 192.364L-19.4875 192.255C-12.0792 191.06 -11.8402 187.115 -12.1739 185.046L-12.2503 184.572C-12.5892 182.471 -14.0566 178.899 -21.4491 180.092L-22.1283 180.201ZM-16.0867 185.304L-16.051 185.526C-15.8319 186.884 -16.3471 188.815 -20.2961 189.452C-24.2608 190.091 -25.3487 188.37 -25.5652 187.028L-25.5958 186.838C-25.8149 185.48 -25.366 183.641 -21.338 182.991C-17.3733 182.352 -16.3058 183.946 -16.0867 185.304ZM-2.24826 189.442C3.78577 188.469 4.32338 184.265 3.96672 182.054L3.04705 176.352L-0.633394 176.945L0.250612 182.426C0.495178 183.943 0.103319 185.935 -3.05586 186.444C-6.26242 186.961 -7.2448 185.191 -7.48937 183.675L-8.37338 178.194L-12.0696 178.79L-11.1499 184.492C-10.7933 186.703 -9.11947 190.55 -2.81691 189.533L-2.24826 189.442ZM14.5775 186.761C21.3065 185.675 21.9297 182.204 21.6903 180.719L21.6622 180.545L17.7606 181.174C17.725 181.456 17.6231 183.336 13.8162 183.95C10.3885 184.503 9.15852 182.805 8.93688 181.431L8.90631 181.241C8.66938 179.772 9.22022 178.063 12.7427 177.494C16.4863 176.891 17.2093 178.46 17.3551 178.76L21.2567 178.131L21.2286 177.957C20.9912 176.585 19.4397 173.497 12.6158 174.598L11.9682 174.702C5.03383 175.821 4.69545 179.651 5.03937 181.784L5.11325 182.242C5.45208 184.343 7.12182 187.963 13.9298 186.865L14.5775 186.761ZM23.6113 185.093L27.2918 184.499L26.5453 179.871L34.4433 178.597L35.1897 183.225L38.8701 182.632L36.9747 170.88L33.2943 171.473L33.9847 175.754L26.0868 177.028L25.3964 172.747L21.7159 173.341L23.6113 185.093ZM38.6842 170.604L40.5795 182.356L53.1215 180.333L52.6807 177.601L43.7719 179.038L43.4611 177.11L52.0066 175.732L51.5736 173.047L43.028 174.425L42.7477 172.688L51.4987 171.276L51.0681 168.607L38.6842 170.604ZM56.7708 170.426L62.3467 169.527C63.4209 169.353 63.9156 169.808 64.015 170.425L64.0175 170.44C64.122 171.088 63.7612 171.665 62.7187 171.833L57.1427 172.732L56.7708 170.426ZM57.5631 175.339L62.365 174.564C64.1816 174.271 64.9153 174.801 65.1471 176.238L65.3662 177.597C65.4325 178.008 65.5262 178.187 65.6597 178.311L69.4033 177.707L69.3906 177.629C69.2652 177.454 69.0905 177.175 68.9376 176.227L68.6599 174.505C68.4179 173.004 67.2485 172.285 65.9971 172.163C66.7329 171.801 68.0317 170.911 67.7617 169.237L67.7311 169.047C67.4585 167.357 66.0547 166.19 62.1373 166.822L52.6598 168.35L54.5552 180.102L58.2356 179.509L57.5631 175.339ZM107.513 159.503L109.409 171.255L113.042 170.669L111.786 162.882L121.019 169.383L124.652 168.797L122.757 157.045L119.123 157.631L120.316 165.023L111.62 158.841L107.513 159.503ZM124.466 156.769L126.362 168.521L138.904 166.498L138.463 163.766L129.554 165.203L129.243 163.275L137.789 161.897L137.356 159.212L128.81 160.59L128.53 158.853L137.281 157.441L136.85 154.772L124.466 156.769ZM140.337 166.267L144.018 165.674L143.271 161.045L151.169 159.772L151.916 164.4L155.596 163.806L153.701 152.054L150.02 152.648L150.711 156.928L142.813 158.202L142.122 153.922L138.442 154.515L140.337 166.267ZM165.945 157.21L161.491 157.929L162.96 153.17L165.945 157.21ZM169.184 161.615L173.149 160.975L164.967 150.237L160.196 151.007L156.152 163.717L159.896 163.113L160.608 160.794L167.732 159.645L169.184 161.615ZM176.667 148.35L178.562 160.102L191.104 158.08L190.663 155.347L181.754 156.784L181.444 154.857L189.989 153.478L189.556 150.793L181.011 152.171L180.73 150.434L189.481 149.022L189.051 146.353L176.667 148.35ZM201.178 151.528L196.723 152.246L198.192 147.488L201.178 151.528ZM204.416 155.933L208.381 155.293L200.199 144.555L195.429 145.324L191.385 158.034L195.128 157.431L195.84 155.112L202.964 153.963L204.416 155.933ZM211.151 145.528L216.727 144.628C217.801 144.455 218.296 144.91 218.395 145.526L218.398 145.542C218.502 146.189 218.141 146.766 217.099 146.934L211.523 147.834L211.151 145.528ZM211.943 150.44L216.745 149.666C218.562 149.373 219.295 149.903 219.527 151.34L219.746 152.698C219.813 153.109 219.906 153.288 220.04 153.413L223.783 152.809L223.771 152.73C223.645 152.556 223.471 152.276 223.318 151.328L223.04 149.607C222.798 148.106 221.629 147.387 220.377 147.265C221.113 146.903 222.412 146.013 222.142 144.338L222.111 144.149C221.839 142.459 220.435 141.291 216.517 141.923L207.04 143.452L208.935 155.204L212.616 154.61L211.943 150.44ZM223.021 140.874L224.916 152.626L228.549 152.04L227.293 144.253L236.526 150.754L240.159 150.168L238.264 138.416L234.631 139.002L235.823 146.394L227.128 140.212L223.021 140.874ZM239.974 138.14L241.869 149.892L254.411 147.869L253.97 145.137L245.061 146.574L244.751 144.646L253.296 143.268L252.863 140.583L244.317 141.961L244.037 140.224L252.788 138.812L252.358 136.143L239.974 138.14ZM255.845 147.638L263.648 146.38C270.522 145.287 271.41 141.854 271.003 139.327L270.926 138.853C270.501 136.215 268.545 133.532 261.737 134.63L253.949 135.886L255.845 147.638ZM258.078 138.072L261.901 137.456C266.118 136.776 266.917 138.511 267.11 139.711L267.126 139.806C267.319 141.007 267.062 142.928 262.892 143.601L259.069 144.217L258.078 138.072ZM280.165 134.397L285.741 133.498C286.815 133.324 287.31 133.779 287.409 134.395L287.412 134.411C287.516 135.059 287.156 135.636 286.113 135.804L280.537 136.703L280.165 134.397ZM280.958 139.309L285.76 138.535C287.576 138.242 288.31 138.772 288.542 140.209L288.761 141.568C288.827 141.978 288.921 142.158 289.054 142.282L292.798 141.678L292.785 141.599C292.66 141.425 292.485 141.145 292.332 140.198L292.054 138.476C291.812 136.975 290.643 136.256 289.392 136.134C290.127 135.772 291.426 134.882 291.156 133.208L291.126 133.018C290.853 131.328 289.449 130.161 285.532 130.792L276.054 132.321L277.95 144.073L281.63 143.479L280.958 139.309ZM300.235 140.69L301.325 140.514C307.232 139.561 307.891 137.413 307.577 135.47L307.542 135.249C307.165 132.911 305.209 132.141 300.771 132.759L298.791 133.046C296.369 133.404 295.99 132.963 295.911 132.473C295.832 131.983 295.954 131.429 298.797 130.971L299.05 130.93C302.114 130.436 302.535 131.34 302.673 131.788L306.495 131.171L306.47 131.013C306.184 129.244 304.607 127.505 299.047 128.402L297.957 128.578C292.618 129.439 291.855 131.442 292.138 133.195L292.161 133.337C292.457 135.17 294.039 136.438 298.45 135.856L300.48 135.577C303.207 135.202 303.642 135.586 303.751 136.265C303.853 136.897 303.605 137.569 300.509 138.068L300.288 138.104C297.255 138.593 296.656 137.491 296.496 136.803L292.658 137.422L292.686 137.596C292.936 139.144 294.074 141.683 300.235 140.69ZM312.262 135.703L308.455 136.317L308.901 139.081L312.708 138.467L312.262 135.703ZM326.046 136.527C331.843 135.592 332.765 133.369 332.444 131.378L332.426 131.268C332.133 129.451 330.708 128.855 329.719 128.755C330.447 128.443 331.469 127.646 331.27 126.414L331.255 126.319C331.051 125.055 330.039 123.404 323.752 124.417L323.089 124.524C316.85 125.531 316.829 128.419 317 129.477L317.025 129.635L320.864 129.016C320.886 128.753 320.71 127.663 323.87 127.154C327.092 126.634 327.441 127.193 327.51 127.62C327.574 128.015 327.414 128.43 326.103 128.641L322.138 129.281L322.579 132.013L326.733 131.343C328.123 131.119 328.45 131.536 328.524 131.994C328.6 132.468 328.546 133.336 325.197 133.876C321.974 134.396 321.527 132.928 321.45 132.649L317.58 133.273L317.6 133.4C317.794 134.6 318.906 137.678 325.303 136.647L326.046 136.527ZM349.265 126.267C348.929 124.182 347.364 120.609 340.398 121.733L339.703 121.845C332.753 122.966 332.375 126.852 332.711 128.937L332.788 129.411C333.119 131.464 334.715 135.129 341.665 134.008L342.36 133.896C349.342 132.77 349.673 128.794 349.342 126.741L349.265 126.267ZM345.465 127.22C345.681 128.563 345.135 130.499 341.549 131.077C337.963 131.655 336.828 129.942 336.614 128.615L336.583 128.426C336.367 127.083 336.847 125.239 340.512 124.648C344.113 124.067 345.213 125.656 345.429 126.999L345.465 127.22ZM366.573 123.475C366.237 121.39 364.672 117.818 357.706 118.941L357.011 119.053C350.061 120.174 349.683 124.06 350.019 126.145L350.095 126.619C350.427 128.673 352.022 132.337 358.973 131.216L359.668 131.104C366.649 129.978 366.981 126.003 366.649 123.949L366.573 123.475ZM362.772 124.429C362.989 125.771 362.442 127.707 358.856 128.285C355.271 128.864 354.136 127.151 353.922 125.824L353.891 125.634C353.674 124.292 354.155 122.448 357.82 121.856C361.421 121.276 362.52 122.865 362.737 124.208L362.772 124.429ZM383.254 127.089L387.046 114.42L383.223 115.037L380.557 124.332L374.835 116.389L370.665 117.062L378.674 127.828L383.254 127.089ZM394.719 112.972C387.28 114.172 387.041 118.019 387.38 120.12L387.456 120.594C387.79 122.663 389.241 126.335 396.681 125.135L397.36 125.025C404.769 123.83 405.008 119.886 404.674 117.817L404.597 117.343C404.259 115.242 402.791 111.67 395.399 112.862L394.719 112.972ZM400.761 118.075L400.797 118.296C401.016 119.655 400.501 121.585 396.552 122.222C392.587 122.862 391.499 121.141 391.283 119.798L391.252 119.609C391.033 118.25 391.482 116.411 395.51 115.762C399.474 115.122 400.542 116.717 400.761 118.075ZM414.599 122.212C420.634 121.239 421.171 117.036 420.814 114.825L419.895 109.122L416.214 109.716L417.098 115.197C417.343 116.713 416.951 118.705 413.792 119.215C410.585 119.732 409.603 117.962 409.358 116.445L408.474 110.964L404.778 111.56L405.698 117.263C406.054 119.474 407.728 123.321 414.031 122.304L414.599 122.212ZM431.425 119.531C438.154 118.446 438.777 114.974 438.538 113.49L438.51 113.316L434.608 113.945C434.573 114.226 434.471 116.107 430.664 116.72C427.236 117.273 426.006 115.575 425.785 114.201L425.754 114.012C425.517 112.543 426.068 110.833 429.59 110.265C433.334 109.661 434.057 111.23 434.203 111.531L438.104 110.902L438.076 110.728C437.839 109.356 436.287 106.268 429.464 107.368L428.816 107.473C421.882 108.591 421.543 112.422 421.887 114.554L421.961 115.012C422.3 117.113 423.97 120.734 430.778 119.636L431.425 119.531ZM440.459 117.863L444.14 117.27L443.393 112.642L451.291 111.368L452.037 115.996L455.718 115.403L453.823 103.65L450.142 104.244L450.832 108.525L442.935 109.798L442.244 105.518L438.564 106.111L440.459 117.863ZM455.532 103.375L457.427 115.127L469.969 113.104L469.529 110.371L460.62 111.808L460.309 109.881L468.854 108.503L468.421 105.818L459.876 107.196L459.596 105.458L468.346 104.047L467.916 101.377L455.532 103.375ZM473.619 103.197L479.194 102.297C480.269 102.124 480.763 102.579 480.863 103.195L480.865 103.211C480.97 103.859 480.609 104.435 479.566 104.604L473.99 105.503L473.619 103.197ZM474.411 108.109L479.213 107.335C481.029 107.042 481.763 107.572 481.995 109.009L482.214 110.367C482.28 110.778 482.374 110.958 482.507 111.082L486.251 110.478L486.238 110.399C486.113 110.225 485.938 109.945 485.785 108.997L485.508 107.276C485.266 105.775 484.096 105.056 482.845 104.934C483.581 104.572 484.879 103.682 484.609 102.007L484.579 101.818C484.306 100.128 482.902 98.9603 478.985 99.5921L469.508 101.121L471.403 112.873L475.083 112.279L474.411 108.109ZM535.861 102.477L539.652 89.8078L535.829 90.4243L533.163 99.7194L527.441 91.7771L523.271 92.4496L531.28 103.216L535.861 102.477ZM543.946 89.1153L540.265 89.7089L542.16 101.461L545.841 100.867L543.946 89.1153ZM553.848 99.7867L554.938 99.6109C560.846 98.6581 561.504 96.5099 561.191 94.567L561.155 94.3459C560.778 92.0081 558.822 91.2376 554.384 91.8562L552.405 92.143C549.983 92.5012 549.604 92.0599 549.525 91.5703C549.446 91.0806 549.567 90.5262 552.41 90.0677L552.663 90.0269C555.727 89.5327 556.149 90.4371 556.286 90.885L560.108 90.2685L560.083 90.1105C559.798 88.3414 558.221 86.6023 552.66 87.4991L551.571 87.6748C546.232 88.5359 545.469 90.5389 545.752 92.2923L545.774 92.4344C546.07 94.2667 547.652 95.535 552.064 94.9532L554.093 94.6745C556.82 94.2995 557.255 94.6832 557.365 95.3624C557.466 95.9942 557.218 96.6663 554.122 97.1656L553.901 97.2013C550.868 97.6904 550.269 96.5878 550.11 95.9004L546.271 96.5194L546.299 96.6932C546.549 98.2412 547.688 100.78 553.848 99.7867ZM562.939 98.1099L566.619 97.5163L565.873 92.8881L573.771 91.6143L574.517 96.2425L578.198 95.6489L576.302 83.8968L572.622 84.4904L573.312 88.771L565.414 90.0448L564.724 85.7641L561.043 86.3577L562.939 98.1099ZM588.547 89.0529L584.093 89.7713L585.562 85.0127L588.547 89.0529ZM591.786 93.4575L595.75 92.818L587.568 82.0798L582.798 82.8492L578.754 95.5592L582.498 94.9554L583.209 92.6365L590.333 91.4875L591.786 93.4575ZM594.409 80.9765L596.305 92.7286L608.151 90.818L607.68 87.8957L599.514 89.2128L598.09 80.3829L594.409 80.9765ZM612.38 78.0781L614.275 89.8303L626.817 87.8075L626.377 85.0748L617.468 86.5116L617.157 84.5846L625.703 83.2063L625.269 80.521L616.724 81.8993L616.444 80.1617L625.195 78.7504L624.764 76.0808L612.38 78.0781ZM636.891 81.256L632.437 81.9744L633.906 77.2158L636.891 81.256ZM640.13 85.6605L644.094 85.0211L635.912 74.2829L631.142 75.0522L627.098 87.7623L630.842 87.1585L631.553 84.8396L638.677 83.6906L640.13 85.6605ZM646.864 75.2555L652.44 74.3562C653.514 74.1829 654.009 74.638 654.108 75.254L654.111 75.2698C654.215 75.9174 653.855 76.4942 652.812 76.6624L647.236 77.5617L646.864 75.2555ZM647.656 80.168L652.458 79.3935C654.275 79.1006 655.009 79.6305 655.241 81.0679L655.46 82.4264C655.526 82.8371 655.62 83.0164 655.753 83.1407L659.497 82.537L659.484 82.458C659.359 82.2837 659.184 82.004 659.031 81.0562L658.753 79.3345C658.511 77.8339 657.342 77.1149 656.09 76.9926C656.826 76.6308 658.125 75.7407 657.855 74.0663L657.824 73.8768C657.552 72.1866 656.148 71.0192 652.231 71.651L642.753 73.1795L644.649 84.9317L648.329 84.3381L647.656 80.168ZM658.734 70.6021L660.63 82.3543L664.263 81.7683L663.007 73.981L672.24 80.4818L675.873 79.8959L673.977 68.1437L670.344 68.7297L671.536 76.1221L662.841 69.9398L658.734 70.6021ZM675.687 67.868L677.582 79.6201L690.124 77.5973L689.684 74.8647L680.775 76.3015L680.464 74.3744L689.009 72.9961L688.576 70.3108L680.031 71.6891L679.751 69.9515L688.502 68.5402L688.071 65.8707L675.687 67.868ZM691.558 77.3661L699.361 76.1076C706.235 75.0152 707.124 71.5819 706.716 69.0546L706.64 68.5807C706.214 65.9428 704.258 63.26 697.45 64.358L689.663 65.614L691.558 77.3661ZM693.791 67.8005L697.614 67.184C701.832 66.5038 702.63 68.2388 702.824 69.4392L702.839 69.534C703.033 70.7345 702.775 72.656 698.605 73.3286L694.782 73.9451L693.791 67.8005ZM722.303 67.4807L717.848 68.1991L719.318 63.4405L722.303 67.4807ZM725.542 71.8852L729.506 71.2458L721.324 60.5076L716.554 61.277L712.51 73.987L716.254 73.3832L716.965 71.0643L724.089 69.9153L725.542 71.8852ZM733.024 58.6206L734.92 70.3727L738.584 69.7817L737.833 65.1219L746.11 63.787L745.677 61.1017L737.4 62.4366L737.119 60.6991L745.602 59.331L745.171 56.6615L733.024 58.6206ZM750.741 58.5022L756.317 57.6029C757.391 57.4297 757.885 57.8847 757.985 58.5008L757.987 58.5166C758.092 59.1642 757.731 59.741 756.689 59.9091L751.113 60.8084L750.741 58.5022ZM751.533 63.4148L756.335 62.6403C758.151 62.3473 758.885 62.8773 759.117 64.3147L759.336 65.6731C759.402 66.0838 759.496 66.2632 759.63 66.3875L763.373 65.7837L763.36 65.7048C763.235 65.5305 763.06 65.2508 762.907 64.303L762.63 62.5812C762.388 61.0806 761.218 60.3617 759.967 60.2394C760.703 59.8776 762.002 58.9874 761.731 57.3131L761.701 57.1235C761.428 55.4334 760.025 54.266 756.107 54.8978L746.63 56.4263L748.525 68.1785L752.205 67.5849L751.533 63.4148ZM762.611 53.8489L764.506 65.601L777.048 63.5783L776.607 60.8456L767.698 62.2824L767.388 60.3553L775.933 58.9771L775.5 56.2918L766.954 57.67L766.674 55.9325L775.425 54.5211L774.995 51.8516L762.611 53.8489ZM776.586 51.5949L778.482 63.347L791.024 61.3243L790.583 58.5916L781.674 60.0284L781.363 58.1013L789.909 56.7231L789.476 54.0378L780.93 55.416L780.65 53.6785L789.401 52.2671L788.97 49.5976L776.586 51.5949ZM797.316 60.3094L805.12 59.0509C811.993 57.9585 812.882 54.5252 812.474 51.9978L812.398 51.5239C811.973 48.886 810.016 46.2033 803.208 47.3013L795.421 48.5572L797.316 60.3094ZM799.55 50.7437L803.372 50.1272C807.59 49.447 808.388 51.182 808.582 52.3825L808.597 52.4773C808.791 53.6778 808.534 55.5992 804.363 56.2718L800.541 56.8883L799.55 50.7437ZM816.778 47.8517L822.354 46.9524C823.428 46.7792 823.923 47.2342 824.022 47.8503L824.025 47.8661C824.129 48.5137 823.768 49.0905 822.726 49.2586L817.15 50.1579L816.778 47.8517ZM817.57 52.7642L822.372 51.9898C824.189 51.6968 824.922 52.2267 825.154 53.6642L825.373 55.0226C825.44 55.4333 825.533 55.6127 825.667 55.737L829.41 55.1332L829.398 55.0542C829.272 54.88 829.098 54.6002 828.945 53.6525L828.667 51.9307C828.425 50.4301 827.256 49.7111 826.004 49.5888C826.74 49.2271 828.039 48.3369 827.769 46.6625L827.738 46.473C827.466 44.7828 826.062 43.6155 822.144 44.2473L812.667 45.7758L814.562 57.5279L818.243 56.9343L817.57 52.7642ZM832.328 42.6048L828.648 43.1984L830.543 54.9505L834.224 54.3569L832.328 42.6048ZM834.031 42.3301L835.927 54.0822L839.56 53.4963L838.304 45.7089L847.537 52.2098L851.17 51.6238L849.274 39.8717L845.641 40.4577L846.834 47.8501L838.138 41.6677L834.031 42.3301ZM856.56 50.7545L855.666 45.2102L862.768 49.7533L867.57 48.9789L859.464 43.7386L865.359 37.2777L860.683 38.0318L855.454 43.8991L854.665 39.0024L850.984 39.596L852.88 51.3481L856.56 50.7545ZM865.812 37.2046L868.221 45.2111L870.338 44.8697L870.108 36.5117L865.812 37.2046ZM871.321 45.5377L867.498 46.1543L867.944 48.9185L871.766 48.302L871.321 45.5377Z" fill="#FEFBD6"/>
<path d="M101.2 163.856L94.5973 164.921L98.5137 159.498L94.2763 156.438L90.36 161.861L89.2944 155.254L84.1328 156.086L85.1983 162.693L79.7758 158.777L76.7154 163.014L82.138 166.93L75.5312 167.996L76.3637 173.158L82.9704 172.092L79.0541 177.515L83.2914 180.575L87.2078 175.152L88.2726 181.755L93.4342 180.922L92.3694 174.32L97.7919 178.236L100.852 173.999L95.4298 170.083L102.032 169.018L101.2 163.856Z" fill="#FFC13E"/>
</svg>
