<svg width="41" height="89" viewBox="0 0 41 89" fill="none" xmlns="http://www.w3.org/2000/svg">
<path d="M39.2991 1.68311C32.1081 1.68311 24.5049 1.94554 19.0222 7.42823C15.4544 10.996 14 14.6526 15 19.5C15.7022 22.9036 18.3355 24.8175 20.2238 25.9403C23.433 27.8485 27.6474 29.0602 31.2071 30.221C33.304 30.9048 35.2073 31.1711 37.1963 31.0846C39.2254 30.9964 33.1587 31.6059 31.1883 32.0985C23.5088 34.0184 16.9507 38.5725 10.949 43.5512C4.87307 48.5914 1.90513 54.628 2.00231 62.5C2.02674 64.4785 2.97357 69.2802 4.0016 71C6.75678 75.6091 8.98908 77.9501 13.3897 81.1573C16.4433 83.3828 20.5557 85.5116 24.2416 86.4331C27.4744 87.2413 37.5621 86.8461 34.2299 86.8461" stroke="url(#paint0_linear_3_202)" stroke-width="3" stroke-linecap="round"/>
<defs>
<linearGradient id="paint0_linear_3_202" x1="20.3714" y1="1.68311" x2="20.3714" y2="86.9427" gradientUnits="userSpaceOnUse">
<stop stop-color="#4B94F0"/>
<stop offset="0.34375" stop-color="#FFA4C4"/>
<stop offset="1" stop-color="#FF6434"/>
</linearGradient>
</defs>
</svg>
