<svg width="46" height="45" viewBox="0 0 46 45" fill="none" xmlns="http://www.w3.org/2000/svg">
<path d="M14.4334 43.4601C14.4334 31.2723 14.6004 19.0665 14.4334 6.87903C14.4115 5.27888 13.2336 0.599969 13.6732 2.1387C15.54 8.67235 18.984 14.1855 23.3775 19.3112C28.3048 25.0598 34.0389 30.0621 39.3873 35.4105C40.6091 36.6323 42.0496 38.7204 43.7251 39.3906C46.2177 40.3876 39.3528 36.1941 36.8829 35.1421C29.9029 32.1692 22.5045 30.0867 15.4173 27.3608C11.029 25.673 5.97084 26.1361 1.73292 24.3199C1.6779 24.2963 10.5029 21.1936 11.6608 20.8764C18.2922 19.0596 25.735 16.902 32.0084 14.079C35.1035 12.6862 30.7759 14.9182 29.8172 15.6442C24.7534 19.4782 21.0001 23.6866 17.3402 28.8813C16.4053 30.2084 10.8145 41.8502 11.2136 41.8502" stroke="#FFC13E" stroke-width="3" stroke-linecap="round"/>
</svg>
