<svg width="934" height="519" viewBox="0 0 934 519" fill="none" xmlns="http://www.w3.org/2000/svg">
<path d="M161.395 148.717C150.746 159.365 150.93 177.082 159.1 189.107C168.738 206.457 187.006 217.197 205.916 221.695C227.58 226.928 250.621 226.652 272.193 221.145C288.625 217.289 303.588 207.559 312.309 193.055C320.02 182.131 322.773 167.811 317.725 155.143C311.758 137.701 295.051 127.604 280.73 117.689C264.207 107.225 245.664 98.9629 232.537 84.0918C226.846 77.2988 223.541 65.3652 231.711 59.0312C241.717 51.4121 256.129 51.3203 266.869 57.4707C245.664 74.8203 263.381 111.355 291.379 105.848C309.922 103.186 316.256 89.6914 314.695 76.1055C305.057 31.6758 240.707 34.4297 209.863 42.6914C191.045 48.4746 170.758 59.3066 164.424 79.4102C152.674 123.105 222.807 141.006 242.543 165.424C262.463 190.393 213.627 206.916 193.707 195.992C189.393 193.514 179.662 188.189 190.402 189.383C206.375 188.373 213.994 168.178 206.834 155.143C199.031 139.904 177 135.682 163.965 146.605L162.68 147.615L161.395 148.717ZM327.639 46.8223C322.865 49.7598 323.6 76.4727 329.475 82.3477C331.77 83.8164 333.514 83.2656 335.258 82.4395C351.414 63.8965 372.986 51.8711 383.543 56.6445C394.742 60.959 395.109 124.85 391.713 165.883C388.867 187.455 383.727 205.355 375.281 212.883V219.309C391.162 223.623 406.951 225.643 422.648 225.643C422.924 225.643 423.199 225.643 423.475 225.643C423.75 225.643 424.025 225.643 424.301 225.643C439.998 225.643 455.787 223.623 471.668 219.309V212.883C463.223 205.355 458.082 187.455 455.236 165.883C451.84 124.85 452.207 60.959 463.406 56.6445C473.045 52.2383 505.816 70.2305 511.416 79.9609C512.793 80.6953 513.803 81.9805 517.107 79.9609C522.982 74.0859 523.441 49.5762 519.494 44.252C512.885 35.4395 329.842 34.3379 327.639 46.8223ZM620.012 36.6328C595.594 36.9082 555.57 48.75 553.184 54.625C551.439 57.1035 552.541 61.2344 555.203 62.5195C556.58 62.9785 558.049 63.9883 559.609 65.457C551.072 112.365 525.553 193.973 499.941 211.506V217.656C510.039 226.744 544.738 226.102 554.285 217.656V211.506C547.584 207.375 546.391 193.422 548.594 175.521C564.016 174.145 586.047 173.777 604.59 175.521C606.701 193.146 605.324 207.1 598.256 211.506V217.656C631.211 226.102 666.277 226.744 698.865 217.656V211.506C666.002 189.016 637.912 74.7285 638.463 42.5996C636.811 38.1934 629.65 36.541 620.012 36.6328ZM576.684 89.2324C588.066 109.152 597.521 136.967 602.295 161.109C586.506 161.66 567.596 161.844 550.705 161.752C556.58 141.098 563.924 110.162 576.316 89.875C576.408 89.6914 576.592 89.5078 576.684 89.2324ZM739.439 37.3672C716.766 36.9082 679.404 49.4844 675.732 55.3594C673.438 57.8379 673.438 61.877 675.549 63.2539C692.99 75.8301 721.906 137.793 721.906 137.793C729.25 164.047 729.525 191.77 715.297 212.516V219.125C746.967 227.57 779.188 228.213 811.592 219.125V212.516C795.619 192.596 795.068 167.26 800.025 138.068C800.025 138.068 827.473 71.6992 850.789 52.9727C851.982 51.5039 852.625 49.668 850.973 46.7305C843.996 37.459 814.438 33.1445 803.238 41.6816C799.842 46.0879 804.707 49.209 806.451 51.5039C818.293 66.7422 783.043 124.941 783.043 124.941C783.043 124.941 743.02 63.2539 754.861 43.334C754.494 38.8359 748.252 37.1836 739.439 37.3672ZM208.027 382.379C207.568 376.32 207.201 370.078 207.018 363.561C206.467 345.385 206.834 328.311 208.027 312.246C208.945 299.211 210.23 288.654 211.883 280.668C213.076 280.668 214.27 280.852 215.646 281.035C217.941 281.494 220.328 282.596 222.715 284.34C225.01 286.084 227.213 288.838 229.141 292.418C231.068 295.998 232.721 300.863 233.914 306.83C235.107 312.797 235.75 320.324 235.842 329.32C235.75 338.959 234.924 346.945 233.363 353.371C231.711 359.797 229.6 364.938 227.121 368.885C224.643 372.832 221.98 375.77 219.227 377.697C216.381 379.625 213.719 381.002 211.24 381.645C210.047 381.92 209.037 382.195 208.027 382.379ZM201.418 269.561C196.828 269.377 191.412 269.652 185.262 270.479C177.551 271.58 169.748 273.141 161.945 275.16C154.051 277.18 147.258 279.291 141.566 281.586C135.875 283.881 132.387 285.809 131.193 287.553C130.092 288.838 129.541 290.307 129.541 291.867C129.541 293.428 130.092 294.621 131.102 295.447C134.59 297.1 137.619 302.607 140.189 312.062C142.668 321.518 144.504 332.9 145.697 346.395C146.799 359.889 147.074 373.566 146.523 387.336C145.881 401.197 144.229 413.314 141.566 423.688C138.812 434.152 134.773 441.037 129.541 444.342L129.633 450.951C145.422 455.174 161.395 457.377 177.459 457.469C193.523 457.652 209.68 455.449 225.836 450.951V444.342C219.777 438.283 215.279 427.818 212.342 413.039C211.148 407.256 210.139 401.289 209.404 395.047C210.506 395.322 211.516 395.598 212.709 395.781C221.705 397.893 230.977 398.627 240.615 398.076C250.162 397.617 259.158 395.139 267.512 390.732C275.865 386.418 282.75 379.441 288.166 369.803C293.582 360.256 296.611 347.404 297.346 331.34C297.346 320.416 295.602 311.236 292.021 303.801C288.441 296.457 283.484 290.49 277.334 285.9C271.092 281.402 263.932 277.914 255.854 275.527C247.684 273.141 239.055 271.488 229.967 270.662C220.879 269.836 211.607 269.469 202.152 269.561H201.418ZM393.641 267.633C369.223 267.908 329.199 279.75 326.812 285.625C325.068 288.104 326.17 292.234 328.832 293.52C330.209 293.979 331.678 294.988 333.238 296.457C324.701 343.365 299.182 424.973 273.57 442.506V448.656C283.668 457.744 318.367 457.102 327.914 448.656V442.506C321.213 438.375 320.02 424.422 322.223 406.521C337.645 405.145 359.676 404.777 378.219 406.521C380.33 424.146 378.953 438.1 371.885 442.506V448.656C404.84 457.102 439.906 457.744 472.494 448.656V442.506C439.631 420.016 411.541 305.729 412.092 273.6C410.439 269.193 403.279 267.541 393.641 267.633ZM350.312 320.232C361.695 340.152 371.15 367.967 375.924 392.109C360.135 392.66 341.225 392.844 324.334 392.752C330.209 372.098 337.553 341.162 349.945 320.875C350.037 320.691 350.221 320.508 350.312 320.232ZM513.068 268.367C490.395 267.908 453.033 280.484 449.361 286.359C447.066 288.838 447.066 292.877 449.178 294.254C466.619 306.83 495.535 368.793 495.535 368.793C502.879 395.047 503.154 422.77 488.926 443.516V450.125C520.596 458.57 552.816 459.213 585.221 450.125V443.516C569.248 423.596 568.697 398.26 573.654 369.068C573.654 369.068 601.102 302.699 624.418 283.973C625.611 282.504 626.254 280.668 624.602 277.73C617.625 268.459 588.066 264.145 576.867 272.682C573.471 277.088 578.336 280.209 580.08 282.504C591.922 297.742 556.672 355.941 556.672 355.941C556.672 355.941 516.648 294.254 528.49 274.334C528.123 269.836 521.881 268.184 513.068 268.367ZM658.658 268C645.072 268 634.057 279.016 634.057 292.602C634.057 306.188 642.869 314.633 652.049 316.285C650.58 323.17 643.695 328.953 635.158 331.523C640.299 336.664 646.174 339.051 652.049 339.051C668.021 339.051 683.902 321.609 683.902 295.172C683.902 281.678 677.018 268 658.658 268ZM785.246 440.578C780.289 434.336 776.525 424.789 773.955 411.938C770.926 397.158 769.182 380.727 768.723 362.643C768.172 344.559 768.447 327.576 769.641 311.604C770.559 298.752 771.844 288.379 773.496 280.393C774.781 280.668 776.158 281.035 777.535 281.494C782.033 282.963 786.531 286.268 791.121 291.316C795.619 296.457 799.658 304.26 803.146 314.725C806.543 325.281 808.838 339.326 810.031 356.951C810.949 373.475 810.398 387.244 808.471 398.168C806.543 409.092 803.605 417.904 799.842 424.422C796.078 430.939 791.947 435.805 787.449 439.018C786.623 439.568 785.98 440.119 785.246 440.578ZM750.73 269.561C749.445 269.744 748.252 269.928 746.967 270.02C739.348 271.121 731.637 272.682 723.834 274.701C716.031 276.721 709.238 278.832 703.639 281.035C697.947 283.33 694.459 285.258 693.266 287.002C692.164 288.379 691.613 289.756 691.613 291.316C691.613 292.877 692.164 294.07 693.174 294.896C696.662 296.549 699.691 302.057 702.17 311.42C704.648 320.875 706.484 332.258 707.678 345.66C708.779 359.062 709.055 372.648 708.504 386.326C707.861 400.096 706.209 412.121 703.547 422.494C700.793 432.867 696.846 439.752 691.613 443.057L691.705 449.666C707.402 453.889 723.283 456.092 739.348 456.184C745.406 456.275 751.557 455.908 757.707 455.357L759.818 455.541C786.348 454.715 808.379 449.574 825.729 440.027C843.078 430.572 856.021 418.455 864.559 403.859C873.096 389.264 877.41 373.842 877.502 357.686C877.594 345.018 875.115 332.809 870.066 321.15C865.018 309.492 857.582 299.303 847.576 290.582C837.57 281.861 825.27 275.344 810.582 271.213C795.803 267.082 778.82 266.164 759.543 268.459C756.605 268.551 753.668 268.918 750.73 269.561Z" fill="url(#paint0_linear_74_400)"/>
<path d="M865.156 269.611C857.344 263.335 847.646 255.374 849.365 244.152C850.041 239.773 852.549 235.731 856.954 234.337C861.786 232.82 867.642 234.16 872.211 236C881.662 239.797 889.268 247.759 893.383 256.997C894.467 259.425 895.427 262.049 895.304 264.735C895.167 267.016 894.459 269.225 893.245 271.161C890.628 275.423 886.402 278.166 881.712 279.774C878.811 280.717 875.821 281.362 872.789 281.699C871.248 281.892 869.695 282.042 868.147 282.186C866.674 282.457 865.166 282.479 863.686 282.25C860.545 281.421 863.711 278.145 864.649 276.807C865.904 274.962 866.885 272.284 865.167 270.404C864.034 269.141 861.863 270.683 863.005 271.963C864.491 273.623 861.715 276.144 860.858 277.466C859.572 279.491 858.988 282.227 861.105 283.95C863.453 285.837 867.194 285 869.919 284.734C872.894 284.481 875.85 284.035 878.767 283.397C884.304 282.163 889.544 279.758 893.378 275.451C896.959 271.418 898.779 266.083 897.492 260.753C896.161 255.194 892.866 249.831 889.216 245.49C885.583 241.111 881.102 237.512 876.043 234.908C871.007 232.248 865.351 230.985 859.661 231.25C857.069 231.389 854.573 232.273 852.472 233.797C850.371 235.321 848.754 237.419 847.817 239.839C846.782 242.586 846.367 245.527 846.6 248.453C846.833 251.379 847.709 254.217 849.165 256.765C852.522 262.929 858.101 267.444 863.493 271.753C863.768 271.973 864.119 272.076 864.469 272.038C864.82 272 865.14 271.824 865.361 271.549C865.582 271.274 865.685 270.923 865.646 270.572C865.608 270.222 865.432 269.901 865.157 269.68L865.156 269.611Z" fill="white"/>
<path d="M872.227 254.301C874.789 252.256 879.015 251.594 880.994 254.832C883.049 258.187 879.418 261.293 876.455 262.095C874.559 262.609 872.579 262.735 870.634 262.466C869.711 262.316 868.835 261.951 868.079 261.401C867.323 260.851 866.707 260.13 866.28 259.298C865.374 257.565 864.8 255.678 864.589 253.734C864.362 252.051 864.292 250.086 865.195 248.595C865.993 247.304 867.775 246.246 869.202 247.2C871.079 248.457 870.81 251.253 870.61 253.172C870.402 254.846 873.058 255.275 873.237 253.566C873.505 250.997 873.6 248.176 871.846 246.073C871.116 245.16 870.088 244.53 868.943 244.295C867.797 244.06 866.605 244.233 865.573 244.785C860.7 247.258 861.423 253.771 862.845 258.084C863.572 260.691 865.288 262.91 867.629 264.268C869.933 265.46 872.841 265.364 875.334 264.991C877.912 264.718 880.32 263.573 882.158 261.744C882.971 260.893 883.562 259.855 883.878 258.721C884.194 257.588 884.225 256.393 883.97 255.244C883.593 253.952 882.871 252.788 881.881 251.876C880.89 250.964 879.67 250.34 878.351 250.072C876.988 249.838 875.589 249.904 874.254 250.266C872.919 250.629 871.679 251.278 870.62 252.169C869.287 253.235 870.839 255.391 872.185 254.324L872.227 254.301Z" fill="white"/>
<path d="M23.9698 202.978C22.8245 203.618 21.4932 203.843 20.2014 203.613C18.9096 203.384 17.7367 202.715 16.8816 201.72C16.1393 200.771 15.6895 199.626 15.5872 198.426C15.485 197.225 15.7346 196.021 16.3057 194.96C16.8614 193.894 17.7129 193.011 18.758 192.417C19.8031 191.822 20.9975 191.543 22.1978 191.611C24.6255 191.699 27.257 193.143 28.1165 195.518C29.2772 198.734 26.5393 201.587 23.9344 202.978C22.4281 203.793 23.7749 206.088 25.2812 205.273C28.6835 203.448 31.5543 199.957 30.9429 195.917C30.4025 192.373 27.0532 189.714 23.6154 189.103C21.9133 188.782 20.1547 188.954 18.5472 189.599C16.9396 190.244 15.55 191.336 14.5425 192.745C13.5313 194.181 12.9659 195.883 12.917 197.638C12.8682 199.394 13.338 201.125 14.2678 202.615C16.6955 206.372 21.4092 207.231 25.2812 205.273C26.8406 204.511 25.547 202.243 23.9698 202.978Z" fill="white"/>
<path d="M27.8952 220.674C25.8491 218.399 24.5503 215.55 24.1738 212.514C23.9735 211.016 24.1362 209.492 24.6482 208.07C25.1601 206.648 26.0063 205.371 27.1155 204.344C28.2467 203.257 29.6009 202.429 31.0842 201.917C32.5675 201.405 34.1444 201.222 35.7055 201.38C37.2667 201.539 38.7746 202.035 40.1248 202.834C41.475 203.634 42.6351 204.718 43.5247 206.01C44.4728 207.419 46.7765 206.09 45.8196 204.672C42.3641 199.578 35.6214 197.159 29.8178 199.498C26.976 200.627 24.5847 202.66 23.0131 205.284C21.5664 207.813 21.0908 210.784 21.6752 213.639C22.2299 216.967 23.738 220.064 26.0168 222.552C27.1864 223.802 29.0647 221.914 27.8952 220.674Z" fill="white"/>
<path d="M43.0901 192C45.7482 189.342 48.2291 186.683 50.9847 184.167C51.2335 183.918 51.3733 183.58 51.3733 183.228C51.3733 182.876 51.2335 182.538 50.9847 182.289C50.7311 182.048 50.395 181.914 50.0455 181.914C49.696 181.914 49.3598 182.048 49.1063 182.289C46.3507 184.77 43.7901 187.499 41.2117 190.121C40.965 190.372 40.8267 190.709 40.8267 191.06C40.8267 191.412 40.965 191.749 41.2117 192C41.4642 192.242 41.8008 192.378 42.1509 192.378C42.501 192.378 42.8376 192.242 43.0901 192Z" fill="white"/>
<path d="M41.4956 185.133C43.6171 187.55 45.9936 189.73 48.5838 191.636C48.8901 191.811 49.2529 191.86 49.5943 191.77C49.9356 191.681 50.2282 191.461 50.4091 191.158C50.5749 190.851 50.6178 190.492 50.5289 190.155C50.44 189.818 50.2262 189.527 49.9306 189.341L49.4699 188.952L49.275 188.81C49.4256 188.916 49.275 188.81 49.2041 188.748C48.9205 188.526 48.6282 188.296 48.318 188.057C47.7244 187.569 47.1396 187.055 46.546 186.533C45.4214 185.489 44.3508 184.389 43.3385 183.237C43.0882 182.99 42.7508 182.852 42.3994 182.852C42.0479 182.852 41.7105 182.99 41.4602 183.237C41.2196 183.49 41.0854 183.826 41.0854 184.176C41.0854 184.525 41.2196 184.861 41.4602 185.115L41.4956 185.133Z" fill="white"/>
<path d="M50.4442 174.429C50.9807 171.477 50.6736 168.433 49.5582 165.648L47.3343 166.942L53.4833 174.916L56.5578 178.761C57.4439 179.957 58.516 182.11 60.3146 181.269C60.6176 181.088 60.8375 180.795 60.927 180.454C61.0164 180.113 60.9684 179.75 60.7931 179.443C60.6092 179.146 60.3183 178.931 59.9804 178.842C59.6424 178.753 59.2831 178.797 58.9767 178.965L58.8438 179.027L59.8716 178.894C60.1197 179.045 60.1285 179 59.8716 178.761L59.526 178.318L58.8438 177.432L57.4439 175.66L54.7149 172.116L49.2481 165.028C48.4507 164 46.5368 165.125 47.0241 166.321C48.0093 168.643 48.3165 171.196 47.9102 173.684C47.8279 174.02 47.8796 174.375 48.0544 174.673C48.2292 174.971 48.5133 175.189 48.8464 175.282C49.1796 175.374 49.5355 175.333 49.8388 175.167C50.1421 175.001 50.3688 174.723 50.4708 174.393L50.4442 174.429Z" fill="white"/>
<path d="M57.6477 185C58.6666 184.114 59.7122 183.228 60.7931 182.342L60.9791 182.191C61.1475 182.058 60.8374 182.297 60.9791 182.191L61.369 181.89L62.2019 181.269C62.7689 180.862 63.336 180.463 63.9119 180.073C64.2028 179.889 64.4109 179.6 64.4925 179.265C64.5741 178.931 64.5229 178.578 64.3496 178.281C64.1762 177.983 63.8943 177.765 63.5632 177.671C63.232 177.578 62.8774 177.616 62.574 177.779C60.1765 179.39 57.8939 181.167 55.7427 183.095C55.4938 183.344 55.354 183.682 55.354 184.034C55.354 184.386 55.4938 184.724 55.7427 184.973C55.9963 185.214 56.3324 185.348 56.6819 185.348C57.0314 185.348 57.3676 185.214 57.6211 184.973L57.6477 185Z" fill="white"/>
<path d="M81.7038 185.222C82.0139 186.108 81.3494 187.18 80.2773 186.781C79.5799 186.378 78.9188 185.916 78.3014 185.399C77.5976 184.966 76.8452 184.618 76.0598 184.362C72.4447 183.219 69.3259 185.319 66.4375 187.233C60.2848 191.352 54.4393 195.912 48.9472 200.878C43.4006 205.831 38.1287 211.085 32.9986 216.428C30.6329 218.873 28.0634 221.744 24.5016 222.249C23.6505 222.347 22.7884 222.268 21.9695 222.016C21.1506 221.764 20.3927 221.346 19.7436 220.787C18.2196 219.6 16.8108 218.244 15.3754 216.95C12.549 214.416 9.69599 211.873 7.02018 209.189C4.65447 206.823 2.63428 204.094 2.76718 200.594C2.90009 197.094 4.99116 193.665 7.02018 190.848C9.04919 188.03 11.3528 185.213 13.6831 182.537C18.3263 177.213 23.3901 172.27 28.8254 167.758C31.5544 165.49 34.3719 163.34 37.2781 161.308C40.1417 159.142 43.1997 157.247 46.4131 155.646C48.0489 154.802 49.9082 154.492 51.7293 154.76C53.3623 155.199 54.8761 155.998 56.1595 157.099C59.0329 159.339 61.7863 161.729 64.4084 164.258C69.7412 169.307 74.6295 174.806 79.0191 180.694C80.0931 182.085 80.9863 183.606 81.6772 185.222C82.3151 186.79 84.8846 186.108 84.2467 184.522C82.7847 180.915 80.2418 177.903 77.823 174.899C75.4041 171.896 72.6574 168.821 69.8487 165.959C67.0399 163.097 64.2401 160.466 61.2541 157.923C58.4986 155.566 55.4949 152.678 51.7736 152.111C47.7865 151.49 44.1272 153.59 40.8843 155.655C37.6414 157.719 34.5757 159.837 31.5632 162.123C25.4447 166.774 19.7329 171.938 14.4894 177.557C11.9081 180.328 9.45381 183.204 7.1265 186.187C4.73421 189.262 2.35078 192.39 0.924273 196.067C0.223382 197.779 -0.0854974 199.627 0.0202872 201.474C0.126072 203.322 0.643842 205.122 1.53564 206.743C3.3077 209.915 6.31134 212.361 8.95172 214.806C11.9589 217.786 15.1299 220.596 18.45 223.223C21.5776 225.527 25.4673 225.35 28.7722 223.472C32.0771 221.593 34.6112 218.439 37.2427 215.754C40.0869 212.857 42.9576 210.004 45.8992 207.213C51.736 201.629 57.9628 196.468 64.5325 191.769C66.2071 190.582 67.9083 189.43 69.6449 188.34C71.2309 187.339 72.9498 186.356 74.8813 186.79C75.7454 187.012 76.564 187.384 77.3002 187.888C77.9834 188.46 78.7367 188.943 79.5419 189.324C80.2045 189.537 80.9125 189.567 81.591 189.411C82.2694 189.256 82.8931 188.919 83.3961 188.438C83.8974 187.937 84.2467 187.304 84.4035 186.612C84.5602 185.921 84.5182 185.199 84.2821 184.53C83.7328 182.9 81.1722 183.636 81.7038 185.222Z" fill="white"/>
<path d="M109.826 242.194C106.219 234.189 101.048 226.986 94.6181 221.008C88.188 215.03 80.6281 210.397 72.3823 207.381C70.7698 206.788 70.0787 209.357 71.6735 209.942C79.5871 212.872 86.8355 217.353 92.9932 223.122C99.1509 228.892 104.094 235.834 107.531 243.54C108.231 245.1 110.517 243.744 109.826 242.194Z" fill="white"/>
<path d="M107.381 219.83C103.282 213.641 97.8276 208.465 91.432 204.696C91.1286 204.534 90.7741 204.496 90.4429 204.589C90.1118 204.683 89.8298 204.901 89.6565 205.199C89.4832 205.496 89.4319 205.849 89.5135 206.183C89.5951 206.518 89.8033 206.807 90.0941 206.991C96.0967 210.522 101.22 215.37 105.077 221.168C106.016 222.594 108.32 221.265 107.372 219.83H107.381Z" fill="white"/>
<path d="M889.985 129.492C887.862 124.196 886.057 118.779 884.58 113.268C883.862 110.61 883.171 107.952 882.684 105.197C882.232 102.636 882.055 99.8007 883.26 97.4084C885.271 93.4479 889.958 91.7113 893.892 90.4088C899.175 88.6388 904.631 87.4359 910.169 86.8204C912.504 86.4635 914.886 86.5567 917.186 87.095C919.453 87.8095 921.358 89.371 922.502 91.4543C925.178 95.982 927.192 100.869 928.483 105.968C929.178 108.524 929.711 111.123 930.078 113.747C930.514 116.187 930.633 118.674 930.432 121.145C930.319 122.333 929.942 123.481 929.329 124.505C928.716 125.529 927.882 126.403 926.888 127.064C924.723 128.442 922.422 129.594 920.021 130.502C914.389 132.831 908.481 134.428 902.443 135.251C899.678 135.623 896.524 135.995 893.91 134.755C891.784 133.753 890.765 131.556 889.914 129.492C889.276 127.932 886.698 128.606 887.353 130.2C888.239 132.354 889.205 134.569 891.057 136.066C893.169 137.606 895.747 138.373 898.358 138.237C901.391 138.151 904.409 137.772 907.369 137.103C910.285 136.526 913.161 135.766 915.981 134.826C918.848 133.875 921.653 132.747 924.381 131.45C926.791 130.316 929.254 129.049 930.937 126.913C934.357 122.554 933.197 116.104 932.328 111.08C931.299 105.217 929.478 99.5204 926.915 94.1478C925.763 91.729 924.531 89.1949 922.609 87.2811C920.754 85.4982 918.355 84.3877 915.795 84.1268C912.994 83.8727 910.171 84.0009 907.404 84.5078C904.362 84.9346 901.345 85.5261 898.367 86.2799C893.316 87.5824 887.664 89.1152 883.641 92.6061C881.48 94.4602 880.09 97.0545 879.742 99.8805C879.326 103.159 880.115 106.473 880.859 109.627C882.506 116.623 884.677 123.485 887.353 130.156C888.045 131.769 890.623 131.087 889.985 129.492Z" fill="white"/>
<path d="M901.743 123.371C899.593 122.374 897.788 120.76 896.559 118.734C895.33 116.708 894.731 114.362 894.84 111.994C895.027 109.624 895.911 107.361 897.38 105.492C898.85 103.622 900.839 102.228 903.098 101.486C905.443 100.782 907.944 100.79 910.284 101.511C912.624 102.232 914.696 103.633 916.238 105.535C917.725 107.446 918.625 109.748 918.829 112.16C919.034 114.573 918.534 116.993 917.39 119.127C914.147 124.798 906.314 125.462 900.848 122.937C899.306 122.228 897.95 124.514 899.501 125.232C905.322 127.89 913.367 127.81 917.975 122.804C922.112 118.294 922.52 111.418 919.747 106.111C918.313 103.454 916.103 101.297 913.412 99.9273C910.721 98.558 907.676 98.0416 904.684 98.4469C901.798 98.8647 899.102 100.133 896.94 102.09C894.778 104.047 893.248 106.603 892.546 109.434C891.825 112.627 892.208 115.971 893.632 118.919C895.056 121.867 897.437 124.245 900.387 125.666C901.929 126.384 903.275 124.089 901.725 123.371H901.743Z" fill="white"/>
<path d="M849.679 150.775C853.557 139.152 861.824 129.504 872.716 123.892C874.24 123.121 872.902 120.827 871.378 121.597C859.871 127.55 851.148 137.767 847.074 150.066C846.534 151.696 849.103 152.396 849.635 150.775H849.679Z" fill="white"/>
<path d="M864.379 142.342C866.961 137.144 871.17 132.931 876.366 130.345C876.657 130.166 876.869 129.883 876.958 129.554C877.046 129.225 877.006 128.874 876.845 128.573C876.663 128.286 876.38 128.077 876.052 127.988C875.724 127.9 875.374 127.938 875.073 128.095C869.473 130.899 864.932 135.44 862.128 141.04C861.959 141.347 861.915 141.708 862.004 142.047C862.093 142.387 862.309 142.679 862.606 142.865C862.912 143.037 863.273 143.084 863.612 142.994C863.951 142.905 864.242 142.687 864.423 142.386L864.379 142.342Z" fill="white"/>
<path d="M915.378 96.321C916.675 96.321 917.726 95.2697 917.726 93.973C917.726 92.6762 916.675 91.625 915.378 91.625C914.082 91.625 913.031 92.6762 913.031 93.973C913.031 95.2697 914.082 96.321 915.378 96.321Z" fill="white" stroke="white" stroke-width="2" stroke-miterlimit="10" stroke-linecap="round"/>
<path d="M670.848 451.3C661.597 457.23 648.559 456.538 640.095 449.464C631.838 442.57 628.568 430.167 632.486 420.112C633.483 417.546 635.145 415.018 637.551 413.582C639.466 412.437 642.022 412.283 643.764 413.824C646.64 416.379 646.462 421.665 643.934 424.385C640.078 428.534 633.252 427.913 628.443 426.089C623.901 424.322 619.889 421.419 616.789 417.658C610.538 410.18 607.612 399.732 609.93 390.177C610.211 389.015 610.571 387.874 611.006 386.761C611.396 385.776 609.929 384.992 609.54 385.983C605.594 396.023 607.62 407.671 613.748 416.405C616.776 420.8 620.881 424.344 625.67 426.7C630.866 429.183 637.608 430.399 642.849 427.336C643.921 426.731 644.86 425.915 645.609 424.938C646.359 423.961 646.903 422.842 647.209 421.65C647.775 419.462 647.59 417.147 646.684 415.077C646.263 414.08 645.607 413.201 644.77 412.515C643.934 411.829 642.944 411.356 641.884 411.139C638.862 410.604 636.068 412.157 634.087 414.339C630.119 418.719 628.88 425.312 629.27 431.055C629.651 436.926 631.823 442.539 635.492 447.138C643.085 456.479 656.785 459.477 667.794 454.773C669.162 454.191 670.479 453.496 671.732 452.696C671.909 452.573 672.031 452.387 672.073 452.176C672.115 451.966 672.073 451.747 671.957 451.567C671.841 451.386 671.66 451.257 671.451 451.208C671.242 451.158 671.022 451.192 670.837 451.301L670.848 451.3Z" fill="white"/>
<path d="M309.016 229.97C318.357 223.048 328.859 217.851 340.027 214.624L338.388 213.738C342.452 224.887 345.938 236.237 348.835 247.744L350.474 246.105L333.338 239.079C333.004 238.982 332.646 239.021 332.341 239.187C332.036 239.353 331.808 239.632 331.708 239.965C330.715 247.313 330.006 254.697 329.581 262.116L332.062 261.442C324.974 250.057 316.601 239.513 309.504 228.128C308.618 226.674 306.296 228.012 307.209 229.465C314.297 240.851 322.661 251.395 329.767 262.78C329.919 263.023 330.145 263.211 330.412 263.317C330.679 263.422 330.972 263.438 331.249 263.364C331.526 263.289 331.772 263.128 331.95 262.903C332.128 262.678 332.23 262.402 332.239 262.116C332.647 254.951 333.323 247.809 334.268 240.691L332.638 241.577L349.765 248.604C350.757 249.011 351.626 247.859 351.404 246.973C348.499 235.452 344.997 224.09 340.913 212.932C340.807 212.603 340.579 212.328 340.275 212.163C339.972 211.999 339.617 211.957 339.283 212.046C327.906 215.335 317.204 220.621 307.678 227.658C306.323 228.659 307.678 230.972 309.025 229.953L309.016 229.97Z" fill="white"/>
<path d="M120.858 92.0171C111.262 86.32 102.667 77.6634 99.1853 66.8449C97.3959 61.6608 97.174 56.0642 98.5474 50.7546C99.9973 45.5973 102.886 40.9596 106.876 37.3844C110.593 33.9089 115.444 31.8976 120.53 31.7227C125.695 31.7227 131.313 34.0884 133.749 38.8641C134.314 39.8783 134.625 41.0143 134.654 42.1748C134.683 43.3353 134.431 44.4856 133.918 45.527C132.89 47.4582 131.137 48.902 129.045 49.5408C128.098 49.8631 127.074 49.8772 126.118 49.5811C125.163 49.285 124.327 48.694 123.728 47.8928C122.293 45.9524 122.399 43.2854 123.073 41.088C124.721 35.7719 130.223 32.5644 135.362 31.3417C141.91 29.7734 148.652 31.1025 155.041 32.8745C156.724 33.3441 158.399 33.8491 160.082 34.3542C161.766 34.8592 162.421 32.2897 160.782 31.7935C153.393 29.5607 145.631 27.2216 137.825 28.2494C131.676 29.0291 125.164 31.8644 121.877 37.3933C119.121 41.9918 118.935 49.5496 124.703 51.9508C129.629 53.9975 135.247 50.0458 136.859 45.403C138.915 39.4932 134.201 33.6188 129.204 31.1113C126.517 29.837 123.583 29.1664 120.609 29.1465C117.635 29.1266 114.693 29.7579 111.988 30.9961C100.833 35.825 93.8602 48.5661 95.1538 60.5275C96.5183 73.4636 105.095 84.3972 115.453 91.7159C116.773 92.6551 118.111 93.4879 119.537 94.374C119.841 94.5364 120.195 94.5749 120.527 94.4812C120.858 94.3875 121.14 94.169 121.313 93.8717C121.486 93.5744 121.538 93.2214 121.456 92.8871C121.374 92.5528 121.166 92.2632 120.875 92.0792L120.858 92.0171Z" fill="white"/>
<path d="M593.287 2.33594L583.806 9.14952" stroke="white" stroke-width="2" stroke-miterlimit="10" stroke-linecap="round"/>
<path d="M585.135 1L591.958 10.4894" stroke="white" stroke-width="2" stroke-miterlimit="10" stroke-linecap="round"/>
<path d="M566.404 27.7488C565.725 26.7988 564.864 25.9926 563.872 25.3765C562.88 24.7604 561.775 24.3465 560.622 24.1588C559.47 23.9711 558.291 24.0131 557.154 24.2825C556.018 24.5519 554.946 25.0434 554 25.7287C554.95 25.0491 555.756 24.1884 556.372 23.1961C556.988 22.2038 557.402 21.0994 557.59 19.9466C557.778 18.7938 557.736 17.6152 557.466 16.4787C557.197 15.3422 556.705 14.2701 556.02 13.3242C556.7 14.2742 557.56 15.0804 558.553 15.6965C559.545 16.3126 560.649 16.7265 561.802 16.9142C562.955 17.102 564.134 17.0599 565.27 16.7905C566.407 16.5211 567.479 16.0296 568.425 15.3444C567.475 16.0239 566.668 16.8846 566.052 17.8769C565.436 18.8693 565.022 19.9736 564.835 21.1264C564.647 22.2793 564.689 23.4578 564.958 24.5944C565.228 25.7309 565.719 26.8029 566.404 27.7488Z" fill="white" stroke="white" stroke-width="2" stroke-miterlimit="10" stroke-linecap="round"/>
<defs>
<linearGradient id="paint0_linear_74_400" x1="519.867" y1="-3.13871" x2="505.702" y2="433.49" gradientUnits="userSpaceOnUse">
<stop offset="0.0481061" stop-color="#FFADF2"/>
<stop offset="0.562245" stop-color="#EEFE8D"/>
<stop offset="1" stop-color="#A78EFF"/>
</linearGradient>
</defs>
</svg>
