<svg width="24" height="24" viewBox="0 0 24 24" fill="none" xmlns="http://www.w3.org/2000/svg">
<path opacity="0.4" d="M4.17001 15.3L8.70001 19.83C10.56 21.69 13.58 21.69 15.45 19.83L19.84 15.44C21.7 13.58 21.7 10.56 19.84 8.68999L15.3 4.16999C14.35 3.21999 13.04 2.70999 11.7 2.77999L6.70001 3.01999C4.70001 3.10999 3.11001 4.69999 3.01001 6.68999L2.77001 11.69C2.71001 13.04 3.22001 14.35 4.17001 15.3Z" fill="#292D32" fill-opacity="0.66"/>
<path d="M9.5 12.38C11.0906 12.38 12.38 11.0906 12.38 9.5C12.38 7.90942 11.0906 6.62 9.5 6.62C7.90942 6.62 6.62 7.90942 6.62 9.5C6.62 11.0906 7.90942 12.38 9.5 12.38Z" fill="#292D32" fill-opacity="0.66"/>
<path d="M13 17.75C12.81 17.75 12.62 17.68 12.47 17.53C12.18 17.24 12.18 16.76 12.47 16.47L16.47 12.47C16.76 12.18 17.24 12.18 17.53 12.47C17.82 12.76 17.82 13.24 17.53 13.53L13.53 17.53C13.38 17.68 13.19 17.75 13 17.75Z" fill="#292D32" fill-opacity="0.66"/>
</svg>
