<svg width="24" height="24" viewBox="0 0 24 24" fill="none" xmlns="http://www.w3.org/2000/svg">
<path fill-rule="evenodd" clip-rule="evenodd" d="M10.4142 3.17157C11.1643 2.42143 12.1817 2 13.2426 2H18.9999C20.6568 2 21.9999 3.34315 21.9999 5V10.7574C21.9999 11.8182 21.5785 12.8356 20.8284 13.5858L13.1213 21.2929C11.9497 22.4645 10.0502 22.4645 8.87862 21.2929L2.70705 15.1213C1.53547 13.9497 1.53548 12.0503 2.70705 10.8787L10.4142 3.17157ZM13.2426 4C12.7122 4 12.2034 4.21071 11.8284 4.58579L4.12126 12.2929C3.73074 12.6834 3.73074 13.3166 4.12126 13.7071L10.2928 19.8787C10.6834 20.2692 11.3165 20.2692 11.7071 19.8787L19.4142 12.1716C19.7892 11.7965 19.9999 11.2878 19.9999 10.7574V5C19.9999 4.44772 19.5522 4 18.9999 4H13.2426Z" fill="black"/>
<path d="M3.58582 9.99994L5.00003 8.58572L15.4142 18.9999L14 20.4142L3.58582 9.99994Z" fill="black"/>
<path fill-rule="evenodd" clip-rule="evenodd" d="M15 10C15.5523 10 16 9.55228 16 9C16 8.44772 15.5523 8 15 8C14.4477 8 14 8.44772 14 9C14 9.55228 14.4477 10 15 10ZM15 12C16.6569 12 18 10.6569 18 9C18 7.34315 16.6569 6 15 6C13.3431 6 12 7.34315 12 9C12 10.6569 13.3431 12 15 12Z" fill="black"/>
</svg>
