<svg width="24" height="24" viewBox="0 0 24 24" fill="none" xmlns="http://www.w3.org/2000/svg">
<path fill-rule="evenodd" clip-rule="evenodd" d="M16.0891 11.9584C16.0891 13.1283 16.5718 13.7722 16.9584 13.7652C17.3754 13.7576 17.8669 12.9787 17.8669 11.257C17.8669 7.95562 15.2425 5.64485 11.9868 5.60461C8.60331 5.56275 6.13357 7.96696 6.13357 12.309C6.13357 16.7752 10.6629 19.3667 13.9723 18.0575C14.5191 17.8412 15.1401 18.1029 15.3595 18.6422C15.5788 19.1816 15.3135 19.7941 14.7667 20.0104C10.1226 21.848 4 18.3449 4 12.309C4 6.79408 7.44183 3.44401 12.0133 3.50071C16.3814 3.55472 20 6.74105 20 11.2574C20 13.9836 18.8308 15.8363 16.9974 15.8695C16.1302 15.8852 15.3778 15.4746 14.8378 14.7868C14.1399 15.4258 13.2051 15.8166 12.1778 15.8166C10.0177 15.8166 8.26665 14.0895 8.26665 11.9588C8.26665 9.82818 10.0176 8.10109 12.1778 8.10109C14.3379 8.10109 16.0891 9.8277 16.0891 11.9584ZM12.178 13.7117C13.1599 13.7117 13.9558 12.9268 13.9558 11.9584C13.9558 10.9899 13.1599 10.2048 12.178 10.2048C11.1961 10.2048 10.4001 10.9899 10.4001 11.9584C10.4001 12.9269 11.1961 13.7117 12.178 13.7117Z" fill="black"/>
</svg>
