<svg width="24" height="19" viewBox="0 0 24 19" fill="none" xmlns="http://www.w3.org/2000/svg">
<path d="M23.25 2.72633C22.406 3.09305 21.513 3.33466 20.5992 3.44351C21.5595 2.88119 22.2817 1.98784 22.6303 0.931014C21.7224 1.46192 20.7307 1.83442 19.6978 2.03258C19.2629 1.57673 18.7397 1.21409 18.1603 0.966707C17.5808 0.719319 16.9571 0.592349 16.327 0.593514C13.7761 0.593514 11.7117 2.62789 11.7117 5.1357C11.7099 5.48453 11.7499 5.83232 11.8308 6.17164C10.0016 6.08589 8.2104 5.61926 6.57187 4.8016C4.93333 3.98395 3.48351 2.83328 2.31516 1.4232C1.90527 2.11419 1.6885 2.9026 1.6875 3.70601C1.6875 5.28101 2.50922 6.6732 3.75 7.48883C3.01487 7.47138 2.29481 7.27681 1.65094 6.92164V6.97789C1.65094 9.18101 3.24469 11.0138 5.35406 11.431C4.9574 11.5368 4.54864 11.5903 4.13812 11.5904C3.84683 11.5909 3.5562 11.5626 3.27047 11.506C3.85687 13.3107 5.56359 14.6232 7.58531 14.6607C5.94252 15.9268 3.9256 16.611 1.85156 16.606C1.48341 16.6055 1.11561 16.5836 0.75 16.5404C2.85993 17.8877 5.31255 18.6003 7.81594 18.5935C16.3172 18.5935 20.9616 11.6701 20.9616 5.66539C20.9616 5.46851 20.9564 5.27164 20.947 5.07945C21.8485 4.43823 22.6283 3.64138 23.25 2.72633Z" fill="black"/>
</svg>
