<svg width="28" height="28" viewBox="0 0 28 28" fill="none" xmlns="http://www.w3.org/2000/svg">
<path fill-rule="evenodd" clip-rule="evenodd" d="M8.16668 18.5516V22.161L14.0726 18.6711L14.6899 18.661C17.1444 18.6208 19.3534 18.3737 21.0051 18.1223C22.0475 17.9637 22.7718 17.2362 22.9292 16.3228C23.1474 15.0557 23.3333 13.4504 23.3333 11.6667C23.3333 9.88294 23.1474 8.27765 22.9292 7.01059C22.7718 6.09711 22.0475 5.36961 21.0051 5.21101C19.1986 4.93613 16.7281 4.66668 14 4.66668C11.272 4.66668 8.80144 4.93613 6.9949 5.21101C5.95251 5.36961 5.22819 6.09711 5.07085 7.01059C4.8526 8.27766 4.66668 9.88294 4.66668 11.6667C4.66668 13.4504 4.8526 15.0557 5.07085 16.3228C5.20748 17.116 5.76164 17.7518 6.5696 18.0205L8.16668 18.5516ZM2.77138 6.61451C3.10993 4.64903 4.67219 3.20423 6.64391 2.90422C8.53313 2.61677 11.1249 2.33334 14 2.33334C16.8752 2.33334 19.4669 2.61677 21.3561 2.90422C23.3278 3.20423 24.8901 4.64903 25.2286 6.61451C25.4646 7.98434 25.6667 9.72447 25.6667 11.6667C25.6667 13.6089 25.4646 15.349 25.2286 16.7188C24.8901 18.6843 23.3278 20.1291 21.3561 20.4291C19.6278 20.6921 17.3115 20.9517 14.7281 20.994L7.59352 25.2099C6.81581 25.6695 5.83334 25.1088 5.83334 24.2055V20.2346C4.25433 19.7096 3.062 18.406 2.77138 16.7188C2.53542 15.349 2.33334 13.6089 2.33334 11.6667C2.33334 9.72447 2.53542 7.98435 2.77138 6.61451Z" fill="white"/>
<path fill-rule="evenodd" clip-rule="evenodd" d="M8.16667 8.16666C7.52233 8.16666 7 8.68899 7 9.33332C7 9.97766 7.52233 10.5 8.16667 10.5H19.8333C20.4777 10.5 21 9.97766 21 9.33332C21 8.68899 20.4777 8.16666 19.8333 8.16666H8.16667ZM8.16667 12.8333C7.52233 12.8333 7 13.3557 7 14C7 14.6443 7.52233 15.1667 8.16667 15.1667H12.8333C13.4777 15.1667 14 14.6443 14 14C14 13.3557 13.4777 12.8333 12.8333 12.8333H8.16667Z" fill="white"/>
</svg>
