<svg width="231" height="335" viewBox="0 0 231 335" fill="none" xmlns="http://www.w3.org/2000/svg">
<path d="M175.286 126.818C195.674 148.735 179.109 167.381 168.278 173.965C181.9 201.208 152.825 237.85 123.508 229.589C114.156 226.953 106.797 221.36 102.654 216.651C93.7343 222.385 76.5321 229.394 58.0557 217.926C38.6872 202.635 46.5877 178.424 52.959 168.23C40.8537 161.859 36.3939 149.117 38.3052 135.737C47.4798 108.214 73.1344 110.252 84.8149 114.712C86.0892 105.58 94.4992 86.6792 117.945 84.1307C141.391 81.5822 147.253 106.005 147.253 118.535C160.505 116.496 171.463 123.207 175.286 126.818Z" fill="black"/>
<path d="M110.96 206.463C87.5676 206.846 65.5939 187.749 65.7089 161.02C65.7856 135.058 86.8006 116.037 110.73 115.922C134.468 115.807 156.25 134.368 156.326 161.135C156.365 188.861 133.471 207.038 110.96 206.463ZM111.804 147.023C111.842 147.023 111.881 147.023 111.919 147.023C112.187 152.583 112.302 158.182 112.763 163.743C113.261 169.802 117.096 173.752 122.503 174.442C128.332 175.209 133.739 170.338 133.509 164.586C133.202 156.878 132.474 149.17 131.668 141.5C131.477 139.698 131.285 137.857 130.633 136.132C128.716 131.07 123.193 128.73 118.246 130.916C115.447 132.143 113.568 134.291 112.609 137.167C111.919 139.199 111.382 141.27 111.765 143.456C111.996 144.607 111.804 145.834 111.804 147.023ZM82.4672 156.111C82.4289 156.111 82.4289 156.111 82.4289 156.111C82.6206 159.524 82.8891 162.976 82.9274 166.389C82.9658 168.383 83.541 170.185 84.3846 171.949C86.4555 176.321 91.5942 178.66 96.2344 177.586C100.491 176.589 104.019 172.256 103.751 167.347C103.367 160.368 102.754 153.427 102.102 146.486C101.91 144.453 101.641 142.421 101.181 140.465C100.568 137.704 98.8804 135.633 96.311 134.406C92.0543 132.335 86.9157 133.831 84.1546 137.972C82.5439 140.427 81.7386 143.226 81.892 146.179C82.0454 149.477 82.2755 152.775 82.4672 156.111ZM106.78 195.917C108.276 195.917 109.81 196.032 111.267 195.917C116.827 195.495 121.621 193.348 125.686 189.551C127.028 188.286 128.14 186.867 128.754 185.103C129.828 182.035 128.677 178.66 125.993 176.934C124.651 176.052 123.232 175.784 121.736 176.589C120.317 177.356 118.898 178.085 117.479 178.89C115.409 180.041 113.184 180.846 110.807 181.191C107.931 181.575 105.055 181.728 102.14 181.498C98.612 181.229 95.0839 181.038 91.9009 179.159C91.134 178.698 90.252 178.852 89.4083 179.197C87.7593 179.887 86.8773 181.153 86.7623 182.917C86.6089 185.524 87.4909 187.749 89.1782 189.704C91.7092 192.657 94.9305 194.498 98.6887 195.342C101.411 195.879 104.096 196.032 106.78 195.917ZM120.624 123.131C117.786 123.515 114.68 124.474 112.379 127.12C112.226 127.273 112.072 127.465 112.072 127.657C112.072 127.963 112.072 128.308 112.226 128.539C112.494 128.999 113.031 128.999 113.299 128.654C114.718 127.12 116.444 126.161 118.4 125.509C120.816 124.704 123.04 125.126 125.034 126.621C125.456 126.928 125.878 127.311 126.3 127.618C126.683 127.887 127.105 127.887 127.488 127.58C127.949 127.235 127.757 126.775 127.488 126.468C125.916 124.435 123.73 123.4 120.624 123.131ZM89.1399 131.491C91.249 131.415 93.0898 130.609 94.547 129.037C95.1222 128.424 95.6975 127.733 95.8125 126.851C95.8509 126.583 95.6591 126.161 95.429 126.046C95.2373 125.931 94.7387 125.931 94.5853 126.084C94.1252 126.506 93.78 127.081 93.3582 127.58C91.2107 130.034 88.603 130.188 86.072 128.078C85.9186 127.925 85.7652 127.772 85.6118 127.657C85.3434 127.427 85.0366 127.426 84.7298 127.618C84.308 127.887 84.1929 128.347 84.423 128.73C85.3817 130.571 87.1074 131.338 89.1399 131.491Z" fill="url(#paint0_linear_159_70)"/>
<path d="M223.225 22.2058L224.307 22.8994C226.089 24.0415 226.797 25.6506 227.345 27.0603L227.349 27.0701L227.353 27.0801C228.577 30.4368 229.255 33.9294 229.216 37.514C229.216 41.1749 229.1 44.8358 228.869 48.4967M223.225 22.2058L227.871 48.4377M223.225 22.2058L222.819 23.425L223.225 22.2058ZM228.869 48.4967C228.869 48.498 228.869 48.4994 228.869 48.5007L227.871 48.4377M228.869 48.4967C228.869 48.496 228.869 48.4954 228.869 48.4948L227.871 48.4377M228.869 48.4967C228.713 51.2167 228.403 53.8905 228.057 56.5801L228.057 56.5805C227.27 62.6834 225.068 68.2478 222.194 73.5309M227.871 48.4377C227.717 51.1221 227.411 53.7682 227.065 56.4526C226.298 62.3966 224.151 67.842 221.313 73.0574M222.194 73.5309C222.195 73.5296 222.195 73.5283 222.196 73.5271L221.313 73.0574M222.194 73.5309C222.193 73.5324 222.192 73.5339 222.191 73.5354L221.313 73.0574M222.194 73.5309C221.233 75.3372 220.272 77.1049 219.274 78.9103L219.268 78.9206L219.268 78.9205C218.146 80.8939 216.924 82.8685 215.414 84.6977M221.313 73.0574C220.354 74.8598 219.396 76.6239 218.399 78.4262C217.287 80.382 216.098 82.2995 214.64 84.0635M223.767 23.7413C224.092 23.9494 224.375 24.1756 224.625 24.4163C224.645 24.3006 224.675 24.1817 224.716 24.0575L223.767 23.7413ZM223.767 23.7413L223.228 24.5832C223.358 24.6668 223.481 24.754 223.596 24.8446C223.587 24.502 223.635 24.1386 223.767 23.7413ZM207.623 38.8889L207.623 38.889C207.776 39.8477 207.929 40.8064 208.236 41.6884M207.623 38.8889L212.416 41.0748M207.623 38.8889C206.511 32.3313 205.36 25.7738 203.174 19.4846C202.254 16.8386 201.18 14.2692 199.646 11.9299C197.921 9.32222 195.888 6.98298 193.319 5.14225M207.623 38.8889L193.319 5.14225M208.236 41.6884C208.581 42.6471 209.617 43.184 210.537 43.0306C211.496 42.8772 212.301 42.0718 212.416 41.0748M208.236 41.6884L209.181 41.3599C209.18 41.3579 209.179 41.356 209.179 41.354C209.178 41.3526 209.178 41.3511 209.177 41.3497L208.236 41.6884ZM212.416 41.0748L211.423 40.9602C211.422 40.9666 211.421 40.973 211.42 40.9794C211.42 40.9874 211.419 40.9955 211.419 41.0035L212.416 41.0748ZM208.166 90.2152L207.814 89.2789L208.166 90.2152ZM208.166 90.2152C211.144 89.0982 213.465 87.0832 215.414 84.6977M208.166 90.2152L214.64 84.0635M193.319 5.14225L193.902 4.33023C193.902 4.33008 193.902 4.32993 193.902 4.32978C193.901 4.32963 193.901 4.32948 193.901 4.32934L193.319 5.14225ZM215.414 84.6977C215.414 84.6971 215.415 84.6966 215.415 84.696L214.64 84.0635M215.414 84.6977C215.413 84.6986 215.412 84.6995 215.411 84.7004L214.64 84.0635M213.014 5.10301L213.019 5.11003C215.1 7.83201 216.491 10.86 217.438 14.0157C219.104 19.4036 220.267 24.9078 220.926 30.5276L220.927 30.5347C221.138 32.455 221.339 34.3748 221.541 36.2919C221.742 38.2072 221.943 40.1196 222.153 42.0317M222.153 42.0317C222.153 42.0293 222.152 42.0269 222.152 42.0245L221.16 42.1486L222.154 42.0392C222.153 42.0367 222.153 42.0342 222.153 42.0317ZM207.357 20.6223L208.313 20.3282L207.357 20.6215C207.357 20.6218 207.357 20.6221 207.357 20.6223ZM202.526 93.0982C202.527 93.0977 202.528 93.0972 202.529 93.0967C202.53 93.0964 202.531 93.0961 202.531 93.0958L202.101 92.1934L202.526 93.0982ZM203.71 95.3904L204.133 96.2966L203.75 95.3729C203.743 95.3756 203.737 95.3784 203.73 95.3811C203.723 95.3842 203.717 95.3873 203.71 95.3904ZM205.458 94.4985C205.455 94.4997 205.452 94.5009 205.45 94.5021C205.447 94.5032 205.445 94.5044 205.442 94.5056L205.859 95.4146L205.458 94.4985ZM204.428 105.585C204.43 105.584 204.433 105.583 204.436 105.582C204.439 105.581 204.441 105.58 204.444 105.578L204.056 104.657L204.428 105.585ZM175.081 103.112C175.078 103.114 175.076 103.117 175.073 103.119C175.071 103.122 175.069 103.124 175.066 103.126L175.793 103.813L175.081 103.112ZM186.238 95.8966C186.239 95.8977 186.239 95.8989 186.24 95.9001C186.24 95.9015 186.241 95.9029 186.241 95.9044L187.183 95.568L186.238 95.8966ZM185.013 95.0049L184.652 94.0724L184.988 95.0142C184.991 95.0131 184.995 95.012 184.998 95.0109C185.003 95.0089 185.008 95.0069 185.013 95.0049ZM175.921 93.7574C175.929 93.7614 175.938 93.7654 175.947 93.7694C175.958 93.7735 175.969 93.7776 175.979 93.7816L176.33 92.8453L175.921 93.7574ZM175.029 93.3312L175.448 92.4234L175.001 93.3179C175.005 93.32 175.01 93.3222 175.014 93.3245C175.019 93.3267 175.024 93.3289 175.029 93.3312ZM158.479 71.3482C158.479 71.3486 158.479 71.3489 158.479 71.3493C158.479 71.3499 158.479 71.3505 158.48 71.3511L159.457 71.14L158.479 71.3482ZM158.876 60.6762L159.84 60.9393L158.879 60.666C158.878 60.6677 158.878 60.6694 158.877 60.6711C158.877 60.6728 158.876 60.6745 158.876 60.6762ZM162.082 54.6399C162.081 54.6412 162.08 54.6426 162.079 54.6439C162.078 54.6453 162.076 54.6466 162.075 54.648L162.832 55.3021L162.082 54.6399ZM167.48 51.8118L167.549 52.8095L167.49 51.8112C167.488 51.8113 167.486 51.8114 167.485 51.8115C167.483 51.8116 167.481 51.8117 167.48 51.8118ZM172.226 55.7915C172.226 55.7906 172.226 55.7898 172.226 55.789C172.226 55.7883 172.226 55.7875 172.226 55.7868L171.23 55.8773L172.226 55.7915ZM180.822 71.441C180.82 71.4414 180.819 71.4418 180.817 71.4423C180.816 71.4427 180.814 71.4431 180.813 71.4435L181.086 72.4055L180.822 71.441ZM182.443 31.491C182.441 31.4902 182.44 31.4895 182.438 31.4888C182.436 31.4881 182.435 31.4874 182.433 31.4867L182.044 32.408L182.443 31.491ZM193.801 39.3871L193.012 40.001L193.807 39.3945C193.806 39.3932 193.805 39.3919 193.804 39.3906C193.803 39.3895 193.802 39.3883 193.801 39.3871ZM195.45 41.3812C195.444 41.3737 195.439 41.3663 195.433 41.3588C195.427 41.3526 195.422 41.3464 195.417 41.3402L194.661 41.9952L195.45 41.3812ZM196.835 42.3705L196.463 43.299L196.851 42.3774C196.848 42.3762 196.846 42.3749 196.843 42.3737C196.84 42.3727 196.837 42.3716 196.835 42.3705ZM198.473 41.6125C198.473 41.6135 198.472 41.6144 198.472 41.6154C198.472 41.6166 198.472 41.6179 198.472 41.6191L199.454 41.8034L198.473 41.6125ZM198.531 39.886C198.531 39.8896 198.531 39.8933 198.531 39.897C198.531 39.9004 198.531 39.9039 198.531 39.9074L199.531 39.886H198.531ZM189.959 16.8771C189.96 16.8782 189.961 16.8793 189.961 16.8803C189.962 16.8813 189.962 16.8823 189.963 16.8833L190.826 16.3784L189.959 16.8771ZM186.407 10.6963C186.407 10.6973 186.408 10.6983 186.408 10.6992C186.409 10.7002 186.409 10.7011 186.41 10.702L187.298 10.2426L186.407 10.6963ZM189.38 2.39183C189.378 2.39148 189.376 2.39113 189.373 2.39077C189.371 2.39047 189.369 2.39016 189.367 2.38985L189.215 3.37823L189.38 2.39183Z" fill="#FDFDFD" stroke="black" stroke-width="2"/>
<path d="M46.3865 285.473L46.3709 285.472C44.016 285.344 41.5834 284.245 39.43 282.953L39.4203 282.948L39.4204 282.948C38.0586 282.11 37.4648 280.69 37.7751 279.139C37.9753 278.138 38.2539 277.183 38.5188 276.274L38.5243 276.255L38.5264 276.248L38.5265 276.248C38.7276 275.578 39.0529 274.905 39.6244 274.415C40.223 273.902 40.9798 273.684 41.8428 273.735M46.3865 285.473L41.7852 274.733M46.3865 285.473L46.4021 285.473C46.503 285.476 46.602 285.478 46.6991 285.481C47.3026 285.499 47.8355 285.514 48.3225 285.39C48.935 285.233 49.4405 284.876 50.0896 284.394L50.0954 284.39L50.1012 284.385C54.2071 281.241 58.9313 279.444 64.0022 278.157C67.3174 277.335 70.6367 276.682 73.9893 276.023C75.4585 275.734 76.934 275.443 78.4184 275.137L78.4215 275.136C83.213 274.132 87.9896 272.755 92.1566 269.669L92.1581 269.668C96.5395 266.411 100.567 262.809 104.356 258.943L104.37 258.928L104.385 258.912C104.746 258.511 105.104 258.073 105.444 257.657L105.451 257.649L105.46 257.638L105.469 257.626C105.574 257.489 105.68 257.353 105.785 257.216C109.009 253.03 112.308 248.747 114.806 243.94L114.806 243.94C115.528 242.55 116.121 241.518 116.599 240.689C116.81 240.323 116.998 239.996 117.164 239.695C117.424 239.226 117.648 238.788 117.782 238.386C117.92 237.972 117.997 237.499 117.849 237.004C117.703 236.518 117.386 236.164 117.066 235.89C116.749 235.62 116.341 235.354 115.893 235.075C115.723 234.969 115.542 234.858 115.348 234.739C114.484 234.21 113.367 233.524 111.929 232.502L111.866 232.457L111.801 232.424C111.801 232.424 111.801 232.424 111.8 232.424C111.799 232.423 111.794 232.421 111.787 232.416C111.772 232.408 111.755 232.398 111.73 232.382L111.728 232.381C111.705 232.368 111.675 232.35 111.646 232.333C111.622 232.319 111.59 232.301 111.555 232.283C111.106 232.032 110.621 231.94 110.127 232.039C109.659 232.132 109.278 232.379 108.984 232.625L108.975 232.632L108.967 232.64C107.572 233.855 106.654 235.417 105.832 236.816C105.684 237.067 105.539 237.314 105.395 237.552C101.49 243.959 96.8866 249.647 90.9863 254.232L90.9831 254.235C87.2578 257.153 83.5811 259.962 79.4009 261.94C73.3457 264.778 66.9807 266.788 60.416 268.116L60.4111 268.117C60.1633 268.168 59.9154 268.219 59.6672 268.271C55.8479 269.063 51.9834 269.865 48.1516 270.769L48.1516 270.768L48.1437 270.77C48.0431 270.795 47.9405 270.82 47.8359 270.845C46.238 271.229 44.206 271.718 42.7829 273.439M46.3865 285.473L43.5492 274.081M41.8428 273.735C41.8432 273.735 41.8436 273.735 41.8439 273.735L41.7852 274.733M41.8428 273.735C41.8421 273.735 41.8414 273.735 41.8407 273.735L41.7852 274.733M41.8428 273.735C42.3279 273.761 42.626 273.621 42.7829 273.439M41.7852 274.733C42.4755 274.771 43.1274 274.58 43.5492 274.081M42.7829 273.439C42.7812 273.441 42.7795 273.443 42.7779 273.445L43.5492 274.081M42.7829 273.439C42.7839 273.437 42.7849 273.436 42.7859 273.435L43.5492 274.081" fill="#C8F0FF" stroke="black" stroke-width="2"/>
<path d="M159.509 287.038H159.602L159.693 287.021C160.284 286.91 161.526 286.722 162.803 286.529L162.841 286.523L162.878 286.514C163.329 286.41 163.723 286.176 163.999 285.797C164.254 285.446 164.347 285.053 164.377 284.72C164.468 283.924 164.37 283.178 164.232 282.505C164.162 282.167 164.079 281.835 164.001 281.524L163.995 281.499C163.918 281.192 163.846 280.906 163.786 280.62C163.563 279.526 163.348 278.423 163.132 277.316C162.426 273.697 161.71 270.031 160.702 266.443C157.645 255.393 151.105 246.603 142.554 239.335L142.552 239.333C135.729 233.563 127.875 229.605 119.874 226.104L119.87 226.103C116.442 224.617 113.144 223.001 110.161 220.877C107.822 219.19 105.488 217.506 103.155 215.785L103.152 215.783C102.84 215.554 102.404 215.27 101.88 215.182C101.283 215.081 100.713 215.249 100.212 215.654C98.6377 216.888 96.9132 217.861 95.109 218.879C94.7624 219.075 94.4128 219.272 94.0607 219.473C93.5305 219.761 93.1237 220.282 93.1102 220.945C93.097 221.594 93.4653 222.124 93.9486 222.442C94.1698 222.596 94.3854 222.725 94.5703 222.834C94.5922 222.847 94.6136 222.859 94.6344 222.872C94.8025 222.971 94.9374 223.05 95.0653 223.135L95.0734 223.141L95.0816 223.146C99.235 225.8 103.463 228.375 107.726 230.909L107.728 230.911C116.2 235.91 124.26 241.562 132.271 247.312C136.123 250.107 139.664 253.31 142.709 256.957C147.955 263.297 151.743 270.362 153.468 278.461C153.606 279.113 153.741 279.771 153.877 280.433C154.151 281.768 154.428 283.117 154.736 284.456C154.824 284.852 154.917 285.224 155.044 285.542C155.176 285.873 155.369 286.206 155.69 286.47C156.01 286.734 156.372 286.858 156.713 286.926C157.042 286.992 157.418 287.018 157.811 287.037L157.835 287.038H157.86H157.861H157.863H157.865H157.867H157.869H157.87H157.872H157.874H157.876H157.878H157.879H157.881H157.883H157.885H157.887H157.888H157.89H157.892H157.894H157.896H157.898H157.899H157.901H157.903H157.905H157.907H157.909H157.91H157.912H157.914H157.916H157.918H157.92H157.921H157.923H157.925H157.927H157.929H157.931H157.932H157.934H157.936H157.938H157.94H157.942H157.944H157.946H157.947H157.949H157.951H157.953H157.955H157.957H157.959H157.961H157.962H157.964H157.966H157.968H157.97H157.972H157.974H157.976H157.978H157.98H157.981H157.983H157.985H157.987H157.989H157.991H157.993H157.995H157.997H157.999H158.001H158.003H158.005H158.007H158.009H158.01H158.012H158.014H158.016H158.018H158.02H158.022H158.024H158.026H158.028H158.03H158.032H158.034H158.036H158.038H158.04H158.042H158.044H158.046H158.048H158.05H158.052H158.054H158.056H158.058H158.061H158.063H158.065H158.067H158.069H158.071H158.073H158.075H158.077H158.079H158.081H158.083H158.085H158.087H158.09H158.092H158.094H158.096H158.098H158.1H158.102H158.104H158.106H158.109H158.111H158.113H158.115H158.117H158.119H158.122H158.124H158.126H158.128H158.13H158.132H158.135H158.137H158.139H158.141H158.143H158.146H158.148H158.15H158.152H158.155H158.157H158.159H158.161H158.164H158.166H158.168H158.17H158.173H158.175H158.177H158.179H158.182H158.184H158.186H158.189H158.191H158.193H158.196H158.198H158.2H158.203H158.205H158.207H158.21H158.212H158.214H158.217H158.219H158.222H158.224H158.226H158.229H158.231H158.234H158.236H158.239H158.241H158.243H158.246H158.248H158.251H158.253H158.256H158.258H158.261H158.263H158.266H158.268H158.271H158.273H158.276H158.278H158.281H158.283H158.286H158.288H158.291H158.294H158.296H158.299H158.301H158.304H158.307H158.309H158.312H158.314H158.317H158.32H158.322H158.325H158.328H158.33H158.333H158.336H158.338H158.341H158.344H158.346H158.349H158.352H158.355H158.357H158.36H158.363H158.366H158.368H158.371H158.374H158.377H158.379H158.382H158.385H158.388H158.391H158.394H158.396H158.399H158.402H158.405H158.408H158.411H158.414H158.417H158.419H158.422H158.425H158.428H158.431H158.434H158.437H158.44H158.443H158.446H158.449H158.452H158.455H158.458H158.461H158.464H158.467H158.47H158.473H158.476H158.479H158.482H158.485H158.488H158.491H158.495H158.498H158.501H158.504H158.507H158.51H158.513H158.517H158.52H158.523H158.526H158.529H158.533H158.536H158.539H158.542H158.545H158.549H158.552H158.555H158.559H158.562H158.565H158.568H158.572H158.575H158.578H158.582H158.585H158.588H158.592H158.595H158.599H158.602H158.605H158.609H158.612H158.616H158.619H158.623H158.626H158.63H158.633H158.637H158.64H158.644H158.647H158.651H158.654H158.658H158.661H158.665H158.668H158.672H158.676H158.679H158.683H158.687H158.69H158.694H158.698H158.701H158.705H158.709H158.712H158.716H158.72H158.723H158.727H158.731H158.735H158.739H158.742H158.746H158.75H158.754H158.758H158.761H158.765H158.769H158.773H158.777H158.781H158.785H158.789H158.793H158.796H158.8H158.804H158.808H158.812H158.816H158.82H158.824H158.828H158.832H158.836H158.841H158.845H158.849H158.853H158.857H158.861H158.865H158.869H158.873H158.878H158.882H158.886H158.89H158.894H158.899H158.903H158.907H158.911H158.916H158.92H158.924H158.928H158.933H158.937H158.941H158.946H158.95H158.955H158.959H158.963H158.968H158.972H158.977H158.981H158.985H158.99H158.994H158.999H159.003H159.008H159.012H159.017H159.022H159.026H159.031H159.035H159.04H159.045H159.049H159.054H159.058H159.063H159.068H159.072H159.077H159.082H159.087H159.091H159.096H159.101H159.106H159.11H159.115H159.12H159.125H159.13H159.135H159.139H159.144H159.149H159.154H159.159H159.164H159.169H159.174H159.179H159.184H159.189H159.194H159.199H159.204H159.209H159.214H159.219H159.224H159.229H159.235H159.24H159.245H159.25H159.255H159.26H159.266H159.271H159.276H159.281H159.287H159.292H159.297H159.302H159.308H159.313H159.318H159.324H159.329H159.335H159.34H159.345H159.351H159.356H159.362H159.367H159.373H159.378H159.384H159.389H159.395H159.4H159.406H159.411H159.417H159.423H159.428H159.434H159.44H159.445H159.451H159.457H159.462H159.468H159.474H159.48H159.485H159.491H159.497H159.503H159.509ZM108.237 230.05C103.98 227.519 99.7616 224.949 95.62 222.303L132.856 246.501C124.842 240.749 116.75 235.073 108.237 230.05Z" fill="#C8F0FF" stroke="black" stroke-width="2"/>
<path d="M193.214 107.955C192.928 107.99 192.633 108.025 192.321 108.068C191.982 108.11 191.64 108.176 191.336 108.3C191.019 108.428 190.682 108.645 190.457 109.019C190.234 109.392 190.2 109.789 190.23 110.125C190.26 110.45 190.355 110.785 190.469 111.11C190.612 111.536 190.777 111.954 190.93 112.342C190.953 112.4 190.975 112.457 190.998 112.513C191.175 112.962 191.332 113.376 191.452 113.788L191.454 113.795L191.457 113.802C192.708 117.859 193.595 121.923 193.522 126.106C193.413 131.508 191.028 135.515 186.666 138.532L186.658 138.538L186.65 138.544C186.345 138.764 186.016 138.964 185.652 139.177C185.572 139.223 185.49 139.271 185.406 139.32C185.121 139.485 184.815 139.662 184.52 139.848C184.198 140.047 183.84 140.333 183.597 140.747C183.335 141.193 183.25 141.719 183.387 142.275C184.098 145.269 184.467 148.24 184.357 151.234C184.322 151.871 184.599 152.45 185.122 152.79C185.611 153.109 186.199 153.146 186.711 153.018L186.723 153.015L186.735 153.012C189.352 152.287 191.757 151.082 193.949 149.527L193.95 149.527C197.601 146.936 200.764 143.776 202.08 139.051C202.929 136.075 203.239 133.038 203.54 130.097C203.575 129.753 203.61 129.41 203.646 129.068C203.755 128.062 203.665 127.111 203.524 126.222C203.456 125.791 203.374 125.364 203.295 124.953L203.288 124.918C203.206 124.491 203.128 124.081 203.064 123.67L203.064 123.67C202.32 118.893 200.874 114.33 199.092 109.912L199.092 109.912L199.089 109.906C198.891 109.425 198.704 108.989 198.496 108.645C198.279 108.284 197.985 107.932 197.531 107.718C197.095 107.513 196.64 107.498 196.235 107.525C195.834 107.553 195.351 107.636 194.812 107.729L194.812 107.729L194.803 107.73C194.268 107.828 193.757 107.889 193.214 107.955Z" fill="#C8F0FF" stroke="black" stroke-width="2"/>
<path d="M111.802 147.021C111.802 145.833 111.955 144.644 111.764 143.493C111.38 141.269 111.917 139.198 112.607 137.204C113.566 134.328 115.445 132.18 118.245 130.953C123.191 128.729 128.714 131.068 130.631 136.169C131.283 137.894 131.475 139.735 131.667 141.537C132.472 149.207 133.2 156.915 133.507 164.623C133.737 170.376 128.33 175.246 122.501 174.479C117.094 173.789 113.259 169.839 112.761 163.78C112.3 158.219 112.185 152.659 111.917 147.06C111.879 147.021 111.84 147.021 111.802 147.021ZM114.563 138.201C115.215 138.623 115.56 138.201 115.905 138.086C119.318 137.051 122.003 138.7 123.076 141.768C123.537 143.071 123.843 144.452 124.035 145.832C124.534 149.552 124.956 153.272 125.339 157.03C125.492 158.718 125.531 160.443 125.454 162.169C125.301 166.081 122.731 168.381 118.743 168.343C118.053 168.343 117.324 167.921 116.634 168.458C118.705 171.488 121.006 172.6 124.495 172.293C128.292 171.986 131.053 169.148 131.245 165.39C131.283 164.432 131.245 163.473 131.206 162.476C130.938 154.768 130.056 147.06 129.212 139.39C129.097 138.431 128.905 137.473 128.56 136.59C127.41 133.561 124.38 131.874 121.082 132.257C119.433 132.449 118.014 133.177 116.826 134.29C115.713 135.402 114.755 136.629 114.563 138.201Z" fill="#060606"/>
<path d="M82.4658 156.114C82.274 152.777 82.0439 149.479 81.8522 146.143C81.6988 143.152 82.4658 140.391 84.1148 137.936C86.8759 133.756 92.0145 132.299 96.2712 134.37C98.8406 135.636 100.528 137.668 101.142 140.429C101.563 142.423 101.87 144.456 102.062 146.45C102.714 153.391 103.366 160.332 103.711 167.311C103.979 172.22 100.451 176.592 96.1946 177.55C91.5544 178.624 86.454 176.285 84.3449 171.913C83.5012 170.188 82.9259 168.385 82.8876 166.353C82.8109 162.94 82.5425 159.488 82.3891 156.075C82.4274 156.114 82.4274 156.114 82.4658 156.114ZM86.9526 171.683C87.0293 172.795 87.8346 173.332 88.6015 173.907C91.3243 175.902 94.2771 176.362 97.3833 174.904C100.451 173.486 101.717 170.916 101.602 167.58C101.563 166.391 101.563 165.202 101.487 164.052C101.103 159.028 100.72 154.005 100.259 148.981C99.991 146.335 99.7226 143.65 99.1857 141.043C98.1887 136.556 93.6636 134.332 89.4452 136.134C87.4895 136.978 86.0705 138.397 85.1885 140.314C84.9968 140.736 84.6516 141.234 85.3036 141.848C85.6487 141.695 85.9939 141.503 86.3773 141.388C89.5219 140.659 91.8995 141.733 93.2034 144.647C93.6252 145.606 93.932 146.68 94.047 147.715C94.6606 152.509 95.2742 157.264 95.7727 162.058C95.9261 163.323 95.8878 164.627 95.7727 165.893C95.4276 169.306 92.9349 171.491 89.5602 171.568C88.6782 171.645 87.8346 171.3 86.9526 171.683Z" fill="#060606"/>
<path d="M106.779 195.92C104.094 196.035 101.41 195.843 98.7638 195.268C94.9673 194.424 91.7844 192.583 89.2534 189.63C87.5661 187.675 86.6841 185.45 86.8375 182.843C86.9525 181.079 87.7962 179.813 89.4835 179.123C90.3272 178.778 91.1708 178.624 91.9762 179.085C95.1591 180.964 98.6871 181.155 102.215 181.424C105.13 181.654 108.006 181.539 110.882 181.117C113.26 180.81 115.445 180.005 117.555 178.816C118.973 178.049 120.392 177.282 121.811 176.515C123.307 175.71 124.687 175.978 126.068 176.86C128.752 178.586 129.903 181.961 128.829 185.029C128.215 186.793 127.103 188.25 125.761 189.477C121.696 193.274 116.864 195.421 111.342 195.843C109.77 196.035 108.274 195.92 106.779 195.92ZM108.811 183.801C109.041 186.908 109.233 189.899 109.463 192.852C109.501 193.158 109.655 193.427 109.808 193.81C112.953 193.734 115.982 193.197 118.782 191.778C119.434 191.433 119.817 191.011 119.51 190.244C118.475 187.79 117.44 185.335 116.404 182.843C116.212 182.383 115.829 182.114 115.407 182.229C113.221 182.728 111.074 183.265 108.811 183.801ZM97.4216 192.622C100.221 193.772 103.212 193.81 106.165 193.925C106.779 193.964 107.201 193.542 107.162 192.928C107.009 190.244 106.779 187.598 106.549 184.952C106.472 184.262 106.127 183.763 105.321 183.763C103.634 183.763 101.908 183.763 100.221 183.725C99.1473 184.99 99.0706 186.678 98.5337 188.135C97.9969 189.515 97.5367 190.934 97.4216 192.622ZM121.888 189.707C123.46 189.17 124.381 187.943 125.378 186.869C126.183 185.987 126.72 184.952 126.95 183.763C127.333 181.884 126.72 180.388 125.416 179.123C124.572 178.318 123.575 178.049 122.463 178.624C121.313 179.238 120.201 179.852 119.089 180.465C118.36 180.849 118.245 181.347 118.552 182.037C119.625 184.568 120.738 187.099 121.888 189.707ZM97.575 183.341C95.3125 182.574 93.2033 182.267 91.2859 181.232C90.3655 180.734 89.3301 181.347 89.0617 182.383C88.9466 182.804 88.8699 183.226 88.9083 183.648C89.0617 186.946 91.7077 190.206 95.1591 191.279C95.926 188.748 96.693 186.179 97.575 183.341Z" fill="#060606"/>
<path d="M120.623 123.134C123.729 123.402 125.877 124.438 127.487 126.47C127.756 126.777 127.948 127.237 127.487 127.582C127.104 127.889 126.682 127.851 126.299 127.621C125.877 127.314 125.455 126.969 125.033 126.623C123.001 125.128 120.815 124.706 118.399 125.511C116.443 126.163 114.717 127.122 113.298 128.656C112.992 128.963 112.493 129.001 112.225 128.541C112.071 128.311 112.071 127.966 112.071 127.659C112.071 127.467 112.225 127.275 112.378 127.122C114.679 124.476 117.785 123.479 120.623 123.134Z" fill="#060606"/>
<path d="M89.1389 131.492C87.068 131.338 85.3807 130.572 84.3836 128.692C84.1919 128.309 84.2686 127.849 84.6904 127.58C84.9972 127.389 85.304 127.427 85.5724 127.619C85.7258 127.734 85.8793 127.887 86.0326 128.041C88.5636 130.15 91.133 129.996 93.3189 127.542C93.7407 127.082 94.0858 126.507 94.546 126.046C94.6994 125.893 95.198 125.893 95.3897 126.008C95.6198 126.161 95.7732 126.545 95.7732 126.813C95.6581 127.695 95.0829 128.386 94.5077 128.999C93.0888 130.61 91.2864 131.377 89.1389 131.492Z" fill="#060606"/>
<path d="M114.565 138.206C114.757 136.595 115.715 135.368 116.827 134.294C118.016 133.144 119.435 132.453 121.084 132.262C124.382 131.878 127.412 133.565 128.562 136.595C128.907 137.477 129.099 138.436 129.214 139.394C130.058 147.064 130.978 154.734 131.208 162.48C131.247 163.439 131.285 164.398 131.247 165.395C131.055 169.153 128.255 171.991 124.497 172.297C121.007 172.604 118.745 171.492 116.636 168.463C117.288 167.926 118.055 168.309 118.745 168.348C122.733 168.386 125.302 166.085 125.456 162.173C125.533 160.448 125.494 158.722 125.341 157.035C124.996 153.315 124.536 149.557 124.037 145.837C123.845 144.456 123.538 143.076 123.078 141.772C122.005 138.704 119.32 137.055 115.907 138.091C115.562 138.206 115.217 138.627 114.565 138.206Z" fill="#FDFDFD"/>
<path d="M86.9518 171.68C87.8338 171.296 88.6775 171.642 89.4828 171.603C92.8575 171.527 95.3885 169.302 95.6953 165.928C95.8103 164.662 95.8487 163.358 95.6953 162.093C95.1584 157.299 94.5832 152.506 93.9696 147.75C93.8162 146.715 93.5478 145.641 93.1259 144.683C91.8221 141.768 89.4445 140.656 86.2999 141.423C85.9164 141.5 85.5329 141.73 85.2261 141.883C84.5742 141.308 84.9193 140.809 85.1111 140.349C85.9931 138.432 87.412 136.975 89.3678 136.169C93.5861 134.367 98.1112 136.591 99.1083 141.078C99.6835 143.686 99.952 146.37 100.182 149.016C100.642 154.04 101.026 159.063 101.409 164.087C101.486 165.276 101.524 166.426 101.524 167.615C101.639 170.913 100.374 173.482 97.3059 174.94C94.1997 176.397 91.2469 175.937 88.5241 173.942C87.8338 173.367 86.9902 172.792 86.9518 171.68Z" fill="#FDFDFD"/>
<path d="M108.811 183.798C111.035 183.262 113.221 182.725 115.369 182.265C115.79 182.188 116.174 182.456 116.366 182.878C117.401 185.332 118.436 187.787 119.472 190.279C119.779 191.046 119.434 191.468 118.743 191.813C115.905 193.232 112.914 193.769 109.77 193.846C109.616 193.462 109.463 193.194 109.425 192.887C109.233 189.858 109.041 186.905 108.811 183.798Z" fill="#FDFDFD"/>
<path d="M97.4224 192.622C97.5374 190.934 97.9976 189.515 98.5345 188.135C99.0714 186.678 99.1481 184.99 100.222 183.725C101.909 183.725 103.635 183.763 105.322 183.763C106.127 183.763 106.473 184.262 106.549 184.952C106.779 187.598 106.971 190.282 107.163 192.928C107.201 193.542 106.818 193.964 106.166 193.926C103.213 193.811 100.222 193.772 97.4224 192.622Z" fill="#FDFDFD"/>
<path d="M121.888 189.703C120.738 187.095 119.626 184.564 118.513 181.995C118.207 181.305 118.36 180.768 119.05 180.423C120.201 179.848 121.313 179.196 122.425 178.582C123.537 178.007 124.534 178.275 125.378 179.081C126.682 180.346 127.334 181.842 126.912 183.721C126.643 184.91 126.145 185.945 125.34 186.827C124.381 187.939 123.46 189.166 121.888 189.703Z" fill="#FDFDFD"/>
<path d="M97.5764 183.337C96.6944 186.175 95.9274 188.706 95.1221 191.275C91.7091 190.202 89.0247 186.942 88.8713 183.644C88.833 183.222 88.9096 182.8 89.0247 182.379C89.2931 181.343 90.3285 180.73 91.2489 181.228C93.2047 182.263 95.3138 182.57 97.5764 183.337Z" fill="#FDFDFD"/>
<path d="M208.627 319.68C202.51 305.409 186.115 305.239 178.682 306.938C178.682 305.239 178.427 300.184 177.409 293.558C176.39 286.932 169.763 286.125 166.578 286.55C164.879 287.187 160.461 288.079 156.384 286.55C144.151 282.472 140.668 298.443 140.455 306.938C122.616 342.616 167.214 333.059 178.682 331.785C190.15 330.511 216.272 337.519 208.627 319.68Z" fill="#8A68FF" stroke="black" stroke-width="2" stroke-linecap="round"/>
<path d="M11.8466 328.742C5.74614 327.387 2.87579 319.195 1.69962 311.36C0.653735 304.393 2.40739 297.299 6.1758 291.347C19.9331 269.617 37.6259 263.884 39.8792 274.587C42.4277 286.692 50.0731 280.958 50.0731 287.329C50.0731 291.742 46.8898 297.746 44.6569 301.208C44.0723 302.115 43.8746 303.225 44.1709 304.262C44.6381 305.897 46.2057 306.949 47.9047 307.021C50.142 307.117 52.389 307.501 54.3634 307.972C57.9071 308.819 61.0661 310.915 63.1723 313.888C73.1591 327.985 55.8526 330.599 44.9762 330.016C37.7557 330.441 21.0212 330.781 11.8466 328.742Z" fill="#8A68FF" stroke="black" stroke-width="2" stroke-linecap="round"/>
<path d="M102.471 27.2437C94.9351 28.5446 90.1803 33.0752 87.758 40.2075C87.5786 40.7906 87.3991 41.4186 87.1748 42.0017C87.0851 42.1812 86.7711 42.3157 86.5917 42.3157C86.4123 42.3157 86.0983 42.0914 86.0534 41.9568C85.9188 41.3288 85.874 40.7008 85.8291 40.1177C84.8871 32.806 81.3434 27.468 74.3009 24.6868C73.8523 24.5074 73.4037 24.2832 73 24.1037C73.1346 23.386 73.628 23.2515 74.0766 23.1617C81.8817 21.9057 86.502 17.1508 88.8345 9.83913C89.0588 9.16627 89.1037 8.35886 89.9111 8C91.7951 18.4966 93.8585 19.3937 95.294 21.2329C97.1331 23.5654 99.69 24.956 102.381 25.9877C102.471 26.3914 102.471 26.84 102.471 27.2437Z" fill="#0A0A09"/>
<path d="M38.4112 72.5373C34.2246 75.1107 32.4678 78.948 32.7232 83.7816C32.7552 84.1723 32.7979 84.5899 32.8032 84.9913C32.7924 85.1198 32.6371 85.2749 32.5301 85.3177C32.423 85.3605 32.1821 85.3015 32.1233 85.2319C31.8932 84.8893 31.7167 84.5253 31.5509 84.188C29.2451 80.0497 25.8576 77.7095 20.992 77.7295C20.6815 77.7294 20.3604 77.7025 20.0767 77.6918C19.9858 77.2314 20.2482 77.0334 20.4944 76.8729C24.8523 74.2621 26.4753 70.323 26.1235 65.4038C26.0969 64.9488 25.9311 64.4563 26.3273 64.0496C29.9547 69.8637 31.3999 69.907 32.6951 70.6621C34.3487 71.6154 36.2061 71.8354 38.0581 71.8092C38.2079 72.0287 38.3149 72.2964 38.4112 72.5373Z" fill="#0A0A09"/>
<defs>
<linearGradient id="paint0_linear_159_70" x1="112.68" y1="104.134" x2="108.213" y2="208.668" gradientUnits="userSpaceOnUse">
<stop offset="0.0481061" stop-color="#FFADF2"/>
<stop offset="0.562245" stop-color="#EEFE8D"/>
<stop offset="1" stop-color="#A78EFF"/>
</linearGradient>
</defs>
</svg>
