<svg width="73" height="72" viewBox="0 0 73 72" fill="none" xmlns="http://www.w3.org/2000/svg">
<path d="M60.3888 42.8932C78.2719 77.6958 50.2386 66.5792 39.1221 56.4265C13.9886 89.2958 13.5052 61.2625 17.3721 44.8269C-15.1079 28.2003 4.32193 21.6269 24.1388 20.6606C31.8719 -15.5876 44.761 4.22679 49.7555 17.2765C86.0052 10.9958 71.5055 32.5821 60.3888 42.8932Z" fill="#C8F0FF"/>
<path d="M39.0004 33.6154C37.1367 33.6154 35.6158 35.1363 35.6158 37C35.6158 38.8636 37.1367 40.3845 39.0004 40.3845C40.864 40.3845 42.3849 38.8636 42.3849 37C42.3849 35.1363 40.864 33.6154 39.0004 33.6154ZM49.1515 37C49.1515 35.5984 49.1642 34.2095 49.0855 32.8105C49.0068 31.1855 48.6361 29.7433 47.4478 28.5551C46.257 27.3642 44.8174 26.9961 43.1924 26.9174C41.7908 26.8386 40.4019 26.8513 39.0029 26.8513C37.6013 26.8513 36.2125 26.8386 34.8135 26.9174C33.1885 26.9961 31.7463 27.3668 30.558 28.5551C29.3672 29.7459 28.999 31.1855 28.9203 32.8105C28.8416 34.2121 28.8543 35.6009 28.8543 37C28.8543 38.399 28.8416 39.7904 28.9203 41.1894C28.999 42.8144 29.3697 44.2566 30.558 45.4449C31.7488 46.6357 33.1885 47.0039 34.8135 47.0826C36.215 47.1613 37.6039 47.1486 39.0029 47.1486C40.4045 47.1486 41.7933 47.1613 43.1924 47.0826C44.8174 47.0039 46.2595 46.6332 47.4478 45.4449C48.6386 44.2541 49.0068 42.8144 49.0855 41.1894C49.1668 39.7904 49.1515 38.4015 49.1515 37V37ZM39.0004 42.2076C36.1185 42.2076 33.7927 39.8818 33.7927 37C33.7927 34.1181 36.1185 31.7924 39.0004 31.7924C41.8822 31.7924 44.208 34.1181 44.208 37C44.208 39.8818 41.8822 42.2076 39.0004 42.2076ZM44.4213 32.7953C43.7484 32.7953 43.2051 32.2519 43.2051 31.5791C43.2051 30.9062 43.7484 30.3629 44.4213 30.3629C45.0941 30.3629 45.6375 30.9062 45.6375 31.5791C45.6377 31.7388 45.6064 31.8971 45.5453 32.0447C45.4843 32.1924 45.3947 32.3265 45.2817 32.4395C45.1687 32.5525 45.0346 32.6421 44.8869 32.7031C44.7393 32.7642 44.581 32.7955 44.4213 32.7953V32.7953Z" fill="black"/>
</svg>
